<svg width="329" height="298" viewBox="0 0 329 298" fill="none" xmlns="http://www.w3.org/2000/svg">
<path d="M289.63 62.5023L288.019 59.8478C274.411 37.4743 249.864 23.9831 223.997 25.6167C220.665 25.8204 217.352 26.2738 214.087 26.9731C190.554 32.0122 170.076 49.806 161.581 72.6024C156.585 86.0061 155.192 101.437 145.719 112.077C133.388 125.933 112.458 126.363 94.0591 125.787C75.6601 125.211 54.6794 125.699 42.4426 139.606C34.7563 148.313 32.3205 160.689 32.9623 172.35C34.6031 203.219 56.1088 230.821 83.4631 244.546C110.817 258.27 142.999 259.495 172.95 253.465C214.882 245.012 254.772 221.786 278.742 185.928C302.713 150.071 308.788 101.211 289.63 62.5023Z" fill="#F5F5F5"/>
<path d="M41.6113 49.6382C41.6416 49.7007 41.6637 49.7669 41.677 49.8351L41.8374 50.4185C41.9183 50.7401 42.0181 51.0567 42.1364 51.3665C42.2677 51.7311 42.4062 52.1614 42.6177 52.6208L42.9386 53.3501L43.3542 54.1377C43.4969 54.4271 43.6576 54.7072 43.8355 54.9763C44.0179 55.2534 44.1783 55.5597 44.3971 55.8514C46.4456 58.8474 49.3143 61.1894 52.6595 62.597C53.6744 63.0219 54.7267 63.3515 55.8026 63.5815C56.947 63.8086 58.1036 63.9693 59.2665 64.0628C61.6512 64.2962 64.2328 64.4274 66.7049 65.4192C69.2019 66.5262 71.4158 68.1842 73.1807 70.2688C75.0485 72.2495 76.5586 74.5393 77.6437 77.0362C78.1342 78.2417 78.4344 79.5161 78.5334 80.8138C78.6183 82.0535 78.5399 83.2991 78.3001 84.5184C77.8125 86.7532 77.1542 88.9474 76.3311 91.0816C75.6291 92.9331 75.1065 94.8477 74.7705 96.799C74.4979 98.4084 74.56 100.057 74.9528 101.641C75.2497 102.836 75.7883 103.958 76.5353 104.937C77.0071 105.559 77.5847 106.092 78.2417 106.513C78.6866 106.797 78.971 106.906 78.971 106.921C78.7178 106.821 78.4738 106.699 78.2417 106.556C77.5694 106.145 76.9765 105.617 76.4915 104.996C75.7187 104.017 75.1598 102.886 74.8507 101.678C74.4382 100.075 74.3612 98.4039 74.6246 96.7698C74.9576 94.8075 75.4752 92.881 76.1706 91.016C76.9803 88.8798 77.6287 86.6859 78.1105 84.4527C78.337 83.2514 78.4106 82.0262 78.3292 80.8065C78.2316 79.5352 77.9338 78.2874 77.4468 77.1091C76.3693 74.6381 74.8744 72.371 73.0276 70.4073C71.2861 68.3514 69.1022 66.716 66.6393 65.6234C64.2255 64.6389 61.6658 64.5077 59.2738 64.267C58.1039 64.1641 56.9403 63.9986 55.788 63.7711C54.6908 63.5507 53.6166 63.2285 52.5793 62.8085C49.2057 61.378 46.3237 58.9928 44.2877 55.9462C44.0689 55.6545 43.9012 55.3482 43.7262 55.0638C43.5531 54.788 43.3949 54.5032 43.2521 54.2106L42.8438 53.423L42.5302 52.6938C42.3502 52.2802 42.1944 51.8565 42.0635 51.4249C41.9539 51.1123 41.8638 50.7932 41.7936 50.4695C41.7353 50.2143 41.6843 50.0174 41.6551 49.8788C41.6344 49.7998 41.6198 49.7194 41.6113 49.6382Z" fill="#455A64"/>
<path d="M56.437 41.9081L56.5974 42.054L57.0496 42.4915C57.2465 42.6884 57.4653 42.951 57.7788 43.2208C58.0924 43.4906 58.3331 43.8917 58.6248 44.3293C59.3615 45.3792 59.9664 46.5156 60.426 47.713C61.0501 49.2957 61.4216 50.9666 61.5272 52.6646C61.5767 53.6504 61.5401 54.6387 61.4178 55.6181C61.2686 56.6791 61.0395 57.7274 60.7323 58.7539C60.127 60.8833 59.2738 63.0711 58.6321 65.4703C58.3168 66.6938 58.1382 67.9485 58.0997 69.2114C58.0712 70.5283 58.206 71.8437 58.5008 73.1275C59.1164 75.85 60.3489 78.3949 62.1033 80.5659C63.8628 82.7182 66.038 84.494 68.4989 85.7873C70.7826 87.0081 73.2431 87.8644 75.7914 88.3251C78.2271 88.7773 80.5899 88.8939 82.7776 89.2294C84.8259 89.474 86.8154 90.0763 88.6554 91.0088C91.2812 92.4803 93.3359 94.7919 94.4894 97.572C94.8019 98.319 95.046 99.0927 95.2187 99.8838C95.2625 100.154 95.2916 100.358 95.3208 100.511C95.3257 100.581 95.3257 100.652 95.3208 100.722C95.3208 100.722 95.3208 100.649 95.2697 100.511C95.2187 100.372 95.1968 100.161 95.1458 99.8984C94.9658 99.1164 94.7219 98.3505 94.4165 97.6085C93.9051 96.445 93.2351 95.3578 92.4257 94.3779C91.3531 93.08 90.041 92.0005 88.5606 91.1984C86.7318 90.286 84.7573 89.7011 82.7266 89.47C80.5388 89.1419 78.1833 89.0325 75.7257 88.5877C73.1538 88.1211 70.6694 87.2602 68.3603 86.0353C65.8692 84.7278 63.6669 82.9322 61.8845 80.7555C60.119 78.5609 58.8725 75.9957 58.2383 73.2515C57.9497 71.947 57.8175 70.6128 57.8445 69.277C57.8839 67.9969 58.0649 66.7252 58.3841 65.4849C59.004 63.0638 59.901 60.876 60.5135 58.7612C60.8344 57.7479 61.0782 56.7119 61.2428 55.6619C61.3729 54.6953 61.4144 53.7189 61.3668 52.7448C61.1992 49.7799 60.2287 46.9164 58.5591 44.4605C58.2747 44.0157 57.9757 43.6656 57.7351 43.3375C57.4944 43.0093 57.2538 42.7687 57.0642 42.6082L56.6339 42.1488C56.5611 42.0747 56.4952 41.9942 56.437 41.9081Z" fill="#455A64"/>
<path d="M92.6736 94.1664C92.5014 94.3572 92.3109 94.5306 92.1048 94.6842C91.7256 95.0123 91.1641 95.4645 90.4567 96.0041C88.6219 97.4214 86.7134 98.7408 84.7393 99.9567C82.7635 101.172 80.7261 102.284 78.6355 103.289C77.8333 103.676 77.177 103.975 76.7249 104.164C76.4924 104.283 76.2479 104.376 75.9956 104.442C76.2128 104.304 76.4394 104.182 76.6738 104.077L78.5553 103.136C80.1378 102.334 82.2964 101.167 84.6008 99.7452C86.9052 98.3231 88.918 96.9157 90.3473 95.8655L92.0319 94.6112C92.2338 94.4464 92.4484 94.2977 92.6736 94.1664Z" fill="#455A64"/>
<path d="M88.7575 91.1035C88.5774 91.2368 88.3844 91.3517 88.1813 91.4463L86.5916 92.3068C85.2498 93.036 83.412 94.0716 81.4212 95.2894C79.4303 96.5073 77.6801 97.6887 76.4258 98.5565L74.9673 99.592C74.7891 99.7247 74.6014 99.8441 74.4058 99.9493C74.5594 99.788 74.7278 99.6415 74.9089 99.5118C75.2444 99.242 75.7403 98.8701 76.3674 98.4179C77.5999 97.5064 79.3501 96.3104 81.341 95.0852C83.3318 93.8601 85.1914 92.8464 86.5551 92.1682C87.2406 91.8182 87.7949 91.5484 88.1886 91.3733C88.3707 91.2682 88.5609 91.178 88.7575 91.1035Z" fill="#455A64"/>
<path d="M83.1424 89.9222C82.7903 90.2293 82.4121 90.505 82.012 90.7462C81.2828 91.2203 80.2983 91.862 79.1752 92.5402C78.0522 93.2184 77.0239 93.7945 76.2582 94.2029C75.8586 94.441 75.4389 94.6435 75.0039 94.8082C75.3722 94.5335 75.7624 94.2896 76.1707 94.0789L79.044 92.3579L81.9172 90.6296C82.3031 90.3567 82.7132 90.1199 83.1424 89.9222Z" fill="#455A64"/>
<path d="M77.9063 83.7235C77.6465 83.962 77.3602 84.17 77.0531 84.3434L74.9455 85.7581L72.8526 87.2166C72.5773 87.4356 72.279 87.6239 71.9629 87.7782C72.1904 87.4998 72.4554 87.2543 72.7505 87.0489C73.261 86.6405 73.9829 86.1082 74.807 85.5466C75.631 84.9851 76.3968 84.5111 76.9947 84.1902C77.2774 83.9963 77.5837 83.8394 77.9063 83.7235Z" fill="#455A64"/>
<path d="M77.4907 78.1957C77.4907 78.2322 76.8709 78.5676 75.8718 79.1438C74.8727 79.7199 73.509 80.5585 72.0724 81.5649C70.6357 82.5713 69.3814 83.5776 68.499 84.3215C68.034 84.7452 67.5471 85.1444 67.0405 85.5174C67.1399 85.3806 67.2523 85.2536 67.376 85.1382C67.6021 84.9049 67.9448 84.584 68.3751 84.1902C70.6214 82.162 73.1071 80.4159 75.777 78.9906C76.2875 78.7208 76.7104 78.5166 77.0021 78.3781C77.1562 78.296 77.3205 78.2347 77.4907 78.1957Z" fill="#455A64"/>
<path d="M74.756 73.9078C74.7924 73.9661 72.2327 75.8111 69.0386 78.0426C65.8445 80.2742 63.2046 82.0244 63.2046 81.9733C63.2046 81.9223 65.7205 80.0627 68.9146 77.8385C72.1088 75.6142 74.7122 73.8494 74.756 73.9078Z" fill="#455A64"/>
<path d="M72.5752 69.0728C72.4234 69.2118 72.2572 69.3341 72.0793 69.4374C71.7146 69.6854 71.2552 69.999 70.701 70.3636C69.5342 71.1439 67.9298 72.2378 66.1869 73.4775C64.444 74.7172 62.898 75.884 61.8114 76.73L60.4841 77.7363C60.3288 77.8678 60.1602 77.9827 59.981 78.0791C60.1123 77.9213 60.2616 77.7794 60.4258 77.6561C60.7175 77.4009 61.1551 77.0363 61.702 76.5914C62.7959 75.709 64.3273 74.5203 66.0775 73.2806C67.8277 72.0409 69.4467 70.9616 70.6353 70.2177C71.2333 69.8458 71.7219 69.5541 72.0939 69.3572C72.2441 69.2462 72.4054 69.1509 72.5752 69.0728Z" fill="#455A64"/>
<path d="M68.0761 66.3964C68.1198 66.4475 65.9467 68.0227 63.2338 69.9114C60.521 71.8002 58.2822 73.2733 58.2384 73.2222C58.1947 73.1712 60.3752 71.5887 63.088 69.7073C65.8008 67.8258 68.0396 66.3381 68.0761 66.3964Z" fill="#455A64"/>
<path d="M63.3575 63.6982C62.5848 64.4806 61.7508 65.2 60.8635 65.8495C60.0306 66.5676 59.1457 67.2233 58.2163 67.8112C58.9921 67.021 59.8258 66.2897 60.7104 65.6235C61.5445 64.9179 62.4293 64.2744 63.3575 63.6982Z" fill="#455A64"/>
<path d="M60.1781 56.9235C59.8533 57.2828 59.497 57.6123 59.1133 57.908C58.4351 58.4841 57.4725 59.2644 56.3786 60.0957C55.2848 60.9271 54.2711 61.6126 53.52 62.1012C53.1292 62.3845 52.7115 62.6288 52.2729 62.8304C52.6339 62.5073 53.0191 62.2123 53.4252 61.948C54.1544 61.423 55.1462 60.701 56.2328 59.8915C57.3194 59.0821 58.2966 58.3236 59.004 57.7767C59.3719 57.4614 59.7645 57.176 60.1781 56.9235Z" fill="#455A64"/>
<path d="M61.5489 52.3146C61.4 52.4579 61.2362 52.5851 61.0603 52.6938C60.7467 52.9271 60.2727 53.248 59.6893 53.6345C58.5152 54.4148 56.8671 55.4577 55.0075 56.5515C53.1479 57.6454 51.4196 58.5351 50.158 59.1623C49.5308 59.4758 49.0131 59.7238 48.6557 59.8915C48.4756 59.9905 48.2847 60.0688 48.0869 60.1249C48.2518 60.0043 48.4276 59.8993 48.612 59.8113L50.0705 59.0164C51.3102 58.3528 52.9875 57.4193 54.8763 56.3401C56.765 55.2608 58.3913 54.2544 59.5872 53.5105L61.002 52.6354C61.1714 52.5079 61.3549 52.4002 61.5489 52.3146Z" fill="#455A64"/>
<path d="M59.3614 47.3921C59.1955 47.5404 59.0174 47.6746 58.8291 47.7932C58.479 48.0411 57.9685 48.3912 57.3268 48.8214C56.0506 49.6674 54.2712 50.8196 52.2804 52.052C50.2895 53.2845 48.4737 54.3637 47.1756 55.1222C46.512 55.5014 45.9723 55.8077 45.5931 56.0119C45.4018 56.1247 45.2018 56.2223 44.9951 56.3036C45.1651 56.1602 45.3482 56.0332 45.5421 55.9243L47.0881 54.969L52.1928 51.8405L57.2976 48.6756L58.8436 47.713C59.0057 47.5899 59.1791 47.4824 59.3614 47.3921Z" fill="#455A64"/>
<path d="M251.243 192.769C251.206 192.805 250.667 192.265 249.616 191.369C249.091 190.924 248.442 190.384 247.655 189.808C246.766 189.155 245.83 188.57 244.854 188.058C244.291 187.769 243.706 187.525 243.104 187.328C242.473 187.098 241.807 186.98 241.135 186.978C240.803 186.978 240.476 187.055 240.18 187.204C239.89 187.355 239.658 187.599 239.524 187.897C239.382 188.224 239.315 188.577 239.327 188.933C239.333 189.316 239.382 189.698 239.472 190.07C239.668 190.861 239.952 191.626 240.318 192.353C240.702 193.125 241.134 193.873 241.609 194.592C243.652 197.609 246.209 200.242 249.164 202.373C249.863 202.873 250.594 203.326 251.352 203.729C252.068 204.121 252.826 204.429 253.613 204.648C253.982 204.751 254.361 204.812 254.743 204.831C255.096 204.851 255.45 204.794 255.779 204.663C256.087 204.54 256.344 204.317 256.508 204.028C256.664 203.736 256.751 203.412 256.763 203.08C256.785 202.407 256.686 201.735 256.471 201.097C256.273 200.489 256.029 199.896 255.742 199.325C255.255 198.335 254.697 197.382 254.072 196.473C253.518 195.671 253.007 195.015 252.57 194.468C251.709 193.396 251.184 192.834 251.221 192.798C251.257 192.761 251.381 192.907 251.651 193.162C251.921 193.418 252.293 193.797 252.752 194.315C253.317 194.941 253.85 195.596 254.349 196.276C255.017 197.181 255.612 198.136 256.129 199.135C256.425 199.725 256.681 200.334 256.894 200.958C257.139 201.661 257.255 202.402 257.237 203.146C257.229 203.556 257.124 203.958 256.931 204.32C256.721 204.708 256.387 205.013 255.983 205.188C255.582 205.355 255.148 205.433 254.714 205.414C254.288 205.401 253.865 205.34 253.452 205.232C252.624 205.006 251.824 204.688 251.068 204.284C250.277 203.85 249.517 203.362 248.792 202.825C245.763 200.664 243.151 197.971 241.084 194.876C240.593 194.139 240.152 193.369 239.764 192.572C239.386 191.802 239.095 190.992 238.896 190.158C238.797 189.745 238.748 189.321 238.751 188.896C238.739 188.461 238.829 188.029 239.013 187.635C239.2 187.234 239.516 186.908 239.91 186.709C240.278 186.529 240.682 186.437 241.091 186.439C241.825 186.446 242.551 186.585 243.235 186.847C243.853 187.076 244.453 187.352 245.029 187.671C246.011 188.215 246.948 188.837 247.83 189.531C248.61 190.143 249.244 190.705 249.748 191.186C250.251 191.668 250.623 192.054 250.863 192.324C251.104 192.594 251.257 192.754 251.243 192.769Z" fill="#455A64"/>
<path d="M244.249 194.519C244.292 194.519 244.081 195.248 243.804 196.546C243.665 197.203 243.512 198.005 243.388 198.938C243.247 199.994 243.188 201.06 243.213 202.125C243.227 202.739 243.291 203.351 243.403 203.955C243.509 204.597 243.729 205.214 244.052 205.779C244.217 206.055 244.441 206.292 244.708 206.471C244.975 206.644 245.288 206.731 245.605 206.719C245.952 206.71 246.293 206.625 246.604 206.471C246.934 206.302 247.243 206.094 247.523 205.852C248.119 205.335 248.655 204.753 249.12 204.116C249.612 203.444 250.058 202.74 250.455 202.008C252.111 198.899 253.187 195.513 253.627 192.018C253.722 191.192 253.763 190.362 253.751 189.531C253.739 188.742 253.639 187.957 253.452 187.19C253.357 186.832 253.225 186.485 253.058 186.154C252.904 185.848 252.685 185.58 252.416 185.367C252.166 185.171 251.859 185.058 251.541 185.046C251.22 185.04 250.901 185.105 250.608 185.236C250.019 185.509 249.484 185.884 249.025 186.344C248.586 186.776 248.181 187.242 247.815 187.737C247.17 188.586 246.595 189.486 246.094 190.428C245.656 191.259 245.321 192.003 245.058 192.616C244.533 193.848 244.292 194.548 244.249 194.534C244.255 194.351 244.292 194.171 244.358 194.001C244.453 193.658 244.606 193.163 244.832 192.543C245.058 191.923 245.372 191.15 245.787 190.289C246.26 189.309 246.813 188.369 247.443 187.482C247.81 186.96 248.222 186.472 248.675 186.023C249.166 185.506 249.746 185.084 250.389 184.776C250.749 184.613 251.139 184.531 251.534 184.535C251.96 184.546 252.373 184.689 252.715 184.944C253.048 185.202 253.321 185.527 253.518 185.899C253.712 186.265 253.864 186.651 253.97 187.051C254.177 187.857 254.29 188.684 254.305 189.516C254.33 190.376 254.294 191.236 254.196 192.091C253.77 195.669 252.669 199.133 250.951 202.3C250.539 203.061 250.073 203.792 249.558 204.488C249.065 205.158 248.494 205.767 247.859 206.304C247.543 206.569 247.198 206.796 246.83 206.982C246.455 207.177 246.042 207.286 245.62 207.303C245.195 207.313 244.778 207.193 244.424 206.96C244.098 206.733 243.825 206.44 243.622 206.099C243.276 205.478 243.046 204.798 242.943 204.094C242.834 203.465 242.781 202.829 242.783 202.191C242.778 201.101 242.868 200.012 243.053 198.938C243.184 198.133 243.357 197.334 243.57 196.546C243.746 195.897 243.913 195.401 244.03 195.088C244.067 194.886 244.141 194.694 244.249 194.519Z" fill="#455A64"/>
<path d="M246.641 191.157C246.641 191.208 245.912 191.398 244.679 191.85C244.052 192.076 243.294 192.368 242.426 192.754C241.454 193.19 240.517 193.702 239.626 194.286C239.108 194.617 238.62 194.993 238.167 195.409C237.676 195.833 237.268 196.345 236.964 196.918C236.815 197.203 236.73 197.516 236.716 197.837C236.709 198.157 236.804 198.471 236.986 198.734C237.174 199.014 237.424 199.249 237.715 199.419C238.033 199.609 238.37 199.763 238.721 199.879C239.476 200.11 240.254 200.257 241.04 200.316C241.871 200.371 242.704 200.371 243.534 200.316C245.289 200.213 247.031 199.942 248.734 199.507C250.441 199.081 252.104 198.495 253.7 197.757C254.454 197.403 255.185 197.001 255.888 196.554C256.553 196.141 257.167 195.651 257.718 195.095C257.978 194.83 258.203 194.533 258.389 194.213C258.57 193.923 258.685 193.597 258.725 193.257C258.758 192.942 258.694 192.624 258.542 192.346C258.378 192.058 258.155 191.81 257.886 191.616C257.341 191.269 256.739 191.022 256.107 190.887C255.51 190.74 254.903 190.64 254.291 190.588C253.228 190.505 252.16 190.505 251.097 190.588C250.156 190.661 249.347 190.763 248.683 190.858C247.37 191.062 246.648 191.23 246.634 191.179C246.794 191.092 246.966 191.031 247.144 190.997C247.48 190.895 247.983 190.763 248.646 190.625C249.31 190.486 250.105 190.355 251.068 190.253C252.15 190.138 253.241 190.113 254.327 190.18C254.964 190.218 255.596 190.311 256.216 190.457C256.915 190.598 257.58 190.87 258.178 191.259C258.507 191.477 258.784 191.766 258.987 192.105C259.203 192.472 259.298 192.899 259.257 193.323C259.22 193.743 259.088 194.15 258.871 194.512C258.666 194.866 258.421 195.197 258.141 195.496C257.564 196.099 256.918 196.633 256.216 197.086C255.497 197.556 254.746 197.978 253.97 198.347C252.331 199.111 250.621 199.714 248.865 200.149C247.124 200.593 245.343 200.864 243.549 200.958C242.691 201.006 241.831 200.991 240.975 200.914C240.144 200.849 239.324 200.685 238.532 200.426C238.138 200.298 237.761 200.124 237.409 199.908C237.05 199.688 236.742 199.395 236.504 199.048C236.273 198.693 236.156 198.275 236.169 197.852C236.187 197.454 236.294 197.065 236.483 196.714C236.827 196.092 237.281 195.539 237.824 195.08C238.306 194.661 238.821 194.28 239.363 193.943C240.293 193.376 241.269 192.888 242.28 192.484C243.036 192.173 243.808 191.9 244.592 191.668C245.234 191.478 245.744 191.354 246.087 191.281C246.264 191.21 246.451 191.168 246.641 191.157Z" fill="#455A64"/>
<path d="M250.316 195.365C250.41 195.74 250.39 196.134 250.26 196.498C250.13 196.862 249.894 197.179 249.584 197.409C249.273 197.639 248.901 197.772 248.515 197.791C248.129 197.81 247.746 197.714 247.415 197.515C247.083 197.316 246.818 197.023 246.653 196.674C246.488 196.324 246.43 195.934 246.487 195.551C246.544 195.169 246.713 194.812 246.973 194.526C247.232 194.239 247.571 194.037 247.946 193.943C248.449 193.819 248.98 193.899 249.424 194.166C249.868 194.432 250.189 194.863 250.316 195.365Z" fill="#455A64"/>
<path d="M290.155 161.885L289.937 161.783L289.302 161.462L286.859 160.193L277.882 155.475H277.962L250.309 166.042L250.061 166.136L250.134 165.881L250.98 162.826C252.912 155.854 254.743 149.254 256.347 143.449V143.406L271.662 131.927L276.037 128.689L277.197 127.836L277.496 127.625C277.559 127.571 277.595 127.549 277.605 127.559L277.51 127.639L277.218 127.872L276.081 128.748L271.764 132.036L256.493 143.595L256.537 143.53C254.932 149.364 253.117 155.927 251.191 162.92C250.9 163.963 250.615 165.006 250.345 165.976L250.17 165.816L277.882 155.322H277.926L286.859 160.113L289.273 161.418L289.9 161.768L290.155 161.885Z" fill="#008282"/>
<path d="M253.861 165.706L252.205 166.195L251.673 167.836L250.696 166.413H248.967L250.017 165.042L249.485 163.402L251.111 163.978L252.504 162.964L252.46 164.692L253.861 165.706Z" fill="#008282"/>
<path d="M258.637 142.917L257.594 143.296L257.31 144.376L256.624 143.5L255.508 143.566L256.135 142.64L255.727 141.604L256.799 141.911L257.66 141.203L257.696 142.319L258.637 142.917Z" fill="#008282"/>
<path d="M279.574 126.852L278.815 127.996L279.318 129.265L277.998 128.893L276.948 129.769L276.89 128.398L275.738 127.668L277.021 127.194L277.357 125.867L278.21 126.939L279.574 126.852Z" fill="#008282"/>
<path d="M291.833 160.441L291.067 161.586L291.578 162.855L290.258 162.483L289.2 163.358L289.149 161.987L287.99 161.258L289.273 160.784L289.616 159.456L290.462 160.528L291.833 160.441Z" fill="#008282"/>
<path d="M278.969 154.818L278.48 155.548L278.808 156.357L277.962 156.116L277.292 156.678L277.262 155.803L276.519 155.336L277.343 155.03L277.554 154.184L278.101 154.877L278.969 154.818Z" fill="#008282"/>
<path d="M207.567 38.9094C208.813 31.2775 203.636 24.0808 196.004 22.8351C188.372 21.5894 181.175 26.7665 179.93 34.3984C178.684 42.0303 183.861 49.227 191.493 50.4727C199.125 51.7184 206.322 46.5413 207.567 38.9094Z" fill="#008282"/>
<g opacity="0.3">
<path d="M191.91 41.033C191.91 41.4845 191.776 41.9258 191.526 42.3012C191.275 42.6765 190.918 42.9691 190.501 43.1419C190.084 43.3146 189.625 43.3598 189.182 43.2717C188.74 43.1837 188.333 42.9663 188.014 42.6471C187.695 42.3278 187.477 41.9211 187.389 41.4784C187.301 41.0356 187.346 40.5766 187.519 40.1595C187.692 39.7425 187.984 39.386 188.36 39.1352C188.735 38.8844 189.176 38.7505 189.628 38.7505C190.233 38.7505 190.814 38.991 191.242 39.419C191.67 39.8471 191.91 40.4277 191.91 41.033Z" fill="white"/>
</g>
<g opacity="0.3">
<path d="M188.702 34.4406C188.702 34.7031 188.624 34.9597 188.478 35.178C188.332 35.3962 188.125 35.5663 187.883 35.6668C187.64 35.7673 187.373 35.7935 187.116 35.7423C186.858 35.6911 186.622 35.5647 186.436 35.3791C186.25 35.1935 186.124 34.957 186.073 34.6995C186.022 34.4421 186.048 34.1752 186.148 33.9327C186.249 33.6902 186.419 33.4829 186.637 33.337C186.855 33.1912 187.112 33.1133 187.375 33.1133C187.727 33.1133 188.064 33.2532 188.313 33.5021C188.562 33.751 188.702 34.0886 188.702 34.4406Z" fill="white"/>
</g>
<path d="M180.177 40.0704C180.242 40.3111 168.195 51.8697 171.302 54.3346C174.408 56.7995 187.469 50.4769 198.605 41.4852C209.741 32.4935 219.906 21.5693 217.121 18.6814C214.335 15.7936 200.428 24.3477 200.428 24.3477L202.12 25.4051C202.12 25.4051 210.528 20.0087 213.19 22.1016C215.852 24.1946 208.267 32.3841 197.562 40.2017C186.857 48.0193 176.508 53.5033 174.904 51.3593C173.3 49.2152 180.877 42.0759 180.877 42.0759L180.177 40.0704Z" fill="#008282"/>
<g opacity="0.3">
<path d="M180.177 40.0704C180.242 40.3111 168.195 51.8697 171.302 54.3346C174.408 56.7995 187.469 50.4769 198.605 41.4852C209.741 32.4935 219.906 21.5693 217.121 18.6814C214.335 15.7936 200.428 24.3477 200.428 24.3477L202.12 25.4051C202.12 25.4051 210.528 20.0087 213.19 22.1016C215.852 24.1946 208.267 32.3841 197.562 40.2017C186.857 48.0193 176.508 53.5033 174.904 51.3593C173.3 49.2152 180.877 42.0759 180.877 42.0759L180.177 40.0704Z" fill="black"/>
</g>
<g opacity="0.3">
<path d="M186.076 26.798C186.185 26.9365 185.237 27.7387 184.165 29.3577C182.741 31.4328 181.955 33.8796 181.904 36.3962C181.854 38.9128 182.541 41.3891 183.881 43.5198C184.895 45.1752 185.806 46.0211 185.69 46.1524C185.573 46.2836 184.494 45.5981 183.247 43.9646C182.525 42.9928 181.952 41.9187 181.547 40.7778C180.513 37.9409 180.575 34.82 181.722 32.0267C182.171 30.9035 182.786 29.8538 183.546 28.9128C184.829 27.3085 185.981 26.7032 186.076 26.798Z" fill="white"/>
</g>
<path d="M214.94 49.0038C214.978 47.3959 215.492 45.8354 216.417 44.5196C217.341 43.2039 218.636 42.192 220.136 41.6119C221.636 41.0318 223.274 40.9095 224.844 41.2606C226.413 41.6117 227.843 42.4204 228.953 43.5844C230.063 44.7483 230.803 46.2153 231.079 47.7997C231.355 49.3842 231.155 51.0149 230.505 52.4857C229.854 53.9564 228.782 55.2012 227.423 56.0625C226.065 56.9239 224.482 57.363 222.874 57.3245C220.719 57.2729 218.672 56.3674 217.184 54.807C215.696 53.2466 214.889 51.1592 214.94 49.0038Z" fill="#008282"/>
<g opacity="0.4">
<path d="M225.719 46.0868C225.725 45.824 225.808 45.569 225.959 45.3539C226.11 45.1388 226.322 44.9734 226.567 44.8786C226.812 44.7838 227.08 44.7638 227.336 44.8213C227.592 44.8788 227.826 45.0111 228.007 45.2015C228.188 45.3918 228.309 45.6317 228.354 45.8906C228.398 46.1496 228.365 46.416 228.258 46.6561C228.151 46.8961 227.976 47.0991 227.753 47.2392C227.531 47.3793 227.272 47.4503 227.01 47.4432C226.836 47.4394 226.664 47.4012 226.505 47.3309C226.346 47.2606 226.202 47.1595 226.082 47.0335C225.962 46.9074 225.868 46.7589 225.806 46.5964C225.744 46.4339 225.714 46.2607 225.719 46.0868Z" fill="black"/>
</g>
<g opacity="0.4">
<path d="M228.373 49.1788C228.378 49.0251 228.428 48.8763 228.518 48.7514C228.607 48.6264 228.732 48.531 228.876 48.4774C229.02 48.4238 229.177 48.4144 229.327 48.4503C229.476 48.4863 229.612 48.566 229.715 48.6793C229.819 48.7926 229.887 48.9343 229.91 49.0864C229.933 49.2384 229.91 49.3938 229.844 49.5328C229.779 49.6717 229.673 49.7879 229.541 49.8664C229.409 49.945 229.256 49.9823 229.102 49.9737C228.902 49.9606 228.714 49.8706 228.578 49.7226C228.443 49.5745 228.369 49.3797 228.373 49.1788Z" fill="black"/>
</g>
<g opacity="0.4">
<path d="M227.33 51.5488C227.406 51.5507 227.479 51.5823 227.532 51.6368C227.585 51.6913 227.615 51.7644 227.615 51.8405C227.614 51.8779 227.605 51.9147 227.59 51.9488C227.575 51.983 227.553 52.0138 227.526 52.0395C227.499 52.0653 227.467 52.0854 227.432 52.0988C227.397 52.1122 227.36 52.1186 227.323 52.1176C227.285 52.1177 227.248 52.1101 227.213 52.0953C227.179 52.0804 227.148 52.0587 227.122 52.0314C227.096 52.0041 227.076 51.9718 227.063 51.9365C227.05 51.9012 227.044 51.8635 227.046 51.8259C227.048 51.7518 227.078 51.6813 227.132 51.6295C227.185 51.5778 227.256 51.5488 227.33 51.5488Z" fill="black"/>
</g>
<path d="M248.515 109.663C248.442 109.663 248.391 99.366 248.391 86.6697C248.391 73.9734 248.442 63.6763 248.515 63.6763C248.588 63.6763 248.639 73.9661 248.639 86.6697C248.639 99.3733 248.581 109.663 248.515 109.663Z" fill="#263238"/>
<path d="M249.886 64.0701C249.3 63.2207 248.778 62.3285 248.325 61.401H248.544V61.4594C248.168 62.4451 247.722 63.4029 247.209 64.3253C247.497 63.3096 247.868 62.3194 248.318 61.3646V61.3062L248.42 61.0729L248.537 61.2917C249.06 62.1802 249.511 63.1093 249.886 64.0701Z" fill="#263238"/>
<path d="M248.26 58.2434C248.216 58.2944 247.837 58.0465 247.531 57.587C247.224 57.1276 247.151 56.6828 247.217 56.6682C247.283 56.6536 247.458 57.0328 247.735 57.4558C248.012 57.8788 248.304 58.1923 248.26 58.2434Z" fill="#263238"/>
<path d="M247.538 59.5706C247.676 59.0053 247.871 58.4555 248.121 57.9298C248.287 57.3728 248.512 56.8349 248.792 56.3254C248.747 56.9117 248.597 57.4849 248.347 58.0173C248.175 58.5804 247.901 59.107 247.538 59.5706Z" fill="#263238"/>
<path d="M245.219 69.7292C245.385 69.2655 245.526 68.7932 245.642 68.3144C245.667 67.8286 245.667 67.3417 245.642 66.8559C245.901 67.3169 245.976 67.8585 245.853 68.3727C245.818 68.888 245.591 69.3716 245.219 69.7292Z" fill="#263238"/>
<path d="M245.671 67.8112C245.671 67.8112 245.613 68.0081 245.321 68.081C245.148 68.1177 244.968 68.0864 244.818 67.9935C244.729 67.9296 244.656 67.8466 244.603 67.7506C244.551 67.6545 244.521 67.5479 244.515 67.4387C244.51 67.3294 244.529 67.2203 244.571 67.1194C244.613 67.0185 244.678 66.9285 244.759 66.8558C244.903 66.7535 245.08 66.7068 245.255 66.7246C245.554 66.7246 245.656 66.9434 245.627 66.9579C245.598 66.9725 245.474 66.885 245.248 66.8996C245.18 66.8984 245.113 66.9114 245.05 66.9377C244.987 66.9641 244.931 67.0032 244.884 67.0526C244.837 67.1021 244.802 67.1607 244.779 67.2247C244.756 67.2888 244.747 67.3569 244.752 67.4247C244.755 67.4927 244.771 67.5595 244.801 67.621C244.83 67.6825 244.871 67.7375 244.923 67.7825C244.974 67.8275 245.033 67.8616 245.098 67.8829C245.163 67.9041 245.231 67.912 245.299 67.906C245.525 67.9133 245.642 67.782 245.671 67.8112Z" fill="#263238"/>
<path d="M284.314 106.396C284.314 106.462 275.505 106.52 264.624 106.52C253.744 106.52 244.935 106.462 244.935 106.396C244.935 106.33 253.737 106.272 264.624 106.272C275.512 106.272 284.314 106.33 284.314 106.396Z" fill="#263238"/>
<path d="M284.715 106.345C284.144 106.256 283.589 106.084 283.067 105.834C282.525 105.664 282.01 105.418 281.536 105.105C282.098 105.197 282.644 105.371 283.155 105.623C283.707 105.786 284.233 106.03 284.715 106.345Z" fill="#263238"/>
<path d="M285.146 106.491C284.315 106.963 283.406 107.282 282.462 107.431C282.863 107.169 283.304 106.972 283.767 106.848C284.202 106.65 284.669 106.529 285.146 106.491Z" fill="#263238"/>
<path d="M246.662 107.643C246.799 107.737 246.915 107.858 247.002 107.998C247.09 108.139 247.148 108.296 247.173 108.46C247.26 108.817 247.232 109.192 247.093 109.532C247.012 109.742 246.876 109.926 246.699 110.064C246.59 110.134 246.464 110.172 246.334 110.172C246.205 110.172 246.078 110.134 245.97 110.064C245.784 109.927 245.635 109.746 245.536 109.537C245.437 109.329 245.39 109.099 245.401 108.868C245.396 108.682 245.432 108.497 245.508 108.326C245.584 108.156 245.697 108.005 245.838 107.884C245.933 107.802 246.043 107.74 246.162 107.701C246.281 107.662 246.407 107.647 246.531 107.658C246.706 107.658 246.786 107.738 246.779 107.745C246.772 107.752 246.684 107.745 246.531 107.745C246.315 107.765 246.112 107.857 245.955 108.008C245.843 108.117 245.755 108.249 245.699 108.395C245.642 108.541 245.617 108.697 245.627 108.854C245.622 109.044 245.662 109.232 245.743 109.405C245.824 109.577 245.944 109.728 246.094 109.845C246.165 109.892 246.249 109.916 246.334 109.916C246.42 109.916 246.503 109.892 246.575 109.845C246.719 109.735 246.832 109.59 246.903 109.422C247.031 109.124 247.072 108.795 247.02 108.474C246.944 108.181 246.823 107.9 246.662 107.643Z" fill="#263238"/>
<path d="M278.691 108.161C278.691 108.161 278.83 108.081 279.02 108.241C279.076 108.29 279.12 108.35 279.149 108.419C279.178 108.487 279.191 108.561 279.187 108.635C279.169 108.824 279.086 109.002 278.954 109.138C278.677 109.444 278.166 109.561 277.933 109.933C277.879 110.03 277.851 110.139 277.851 110.25C277.851 110.361 277.879 110.47 277.933 110.567C277.994 110.669 278.082 110.751 278.188 110.804C278.294 110.857 278.413 110.879 278.531 110.866C278.65 110.856 278.763 110.811 278.855 110.735C278.948 110.66 279.015 110.558 279.049 110.443C279.084 110.337 279.091 110.223 279.069 110.113C279.048 110.003 278.998 109.901 278.925 109.816C278.777 109.646 278.599 109.505 278.4 109.4C278.291 109.36 278.193 109.296 278.112 109.212C278.031 109.129 277.97 109.029 277.933 108.919C277.911 108.825 277.911 108.726 277.933 108.632C277.954 108.537 277.997 108.448 278.057 108.372C278.143 108.263 278.256 108.178 278.385 108.124C278.597 108.051 278.721 108.066 278.728 108.081C278.735 108.095 278.611 108.081 278.429 108.212C278.323 108.269 278.233 108.352 278.166 108.452C278.124 108.514 278.097 108.583 278.085 108.656C278.074 108.73 278.079 108.804 278.101 108.875C278.174 109.189 278.757 109.233 279.1 109.678C279.198 109.792 279.266 109.93 279.297 110.078C279.327 110.226 279.32 110.379 279.275 110.524C279.225 110.682 279.129 110.822 278.999 110.926C278.869 111.03 278.711 111.093 278.545 111.107C278.382 111.124 278.216 111.095 278.069 111.021C277.922 110.947 277.798 110.833 277.714 110.691C277.639 110.558 277.599 110.407 277.599 110.254C277.599 110.1 277.639 109.95 277.714 109.816C277.863 109.607 278.064 109.441 278.298 109.335C278.477 109.247 278.646 109.14 278.801 109.014C278.916 108.911 278.994 108.773 279.02 108.62C279.025 108.564 279.02 108.508 279.004 108.454C278.987 108.4 278.961 108.35 278.925 108.307C278.837 108.161 278.691 108.183 278.691 108.161Z" fill="#263238"/>
<path d="M278.589 107.242C278.421 106.522 278.421 105.774 278.589 105.054C278.757 105.774 278.757 106.522 278.589 107.242Z" fill="#263238"/>
<path d="M289.112 106.44C288.897 106.517 288.669 106.551 288.441 106.542L287.712 106.586C287.658 106.604 287.599 106.604 287.544 106.586C287.509 106.563 287.482 106.529 287.466 106.49C287.45 106.451 287.447 106.408 287.457 106.367C287.482 106.275 287.536 106.193 287.61 106.133L287.931 105.798C288.15 105.628 288.293 105.38 288.332 105.105C288.338 105.007 288.312 104.908 288.256 104.827C288.201 104.745 288.12 104.684 288.026 104.653C287.877 104.635 287.727 104.663 287.595 104.733C287.486 104.777 287.428 104.806 287.413 104.792C287.399 104.777 287.45 104.726 287.544 104.653C287.686 104.532 287.869 104.469 288.055 104.478C288.2 104.507 288.33 104.587 288.423 104.703C288.515 104.819 288.563 104.964 288.558 105.112C288.531 105.444 288.374 105.75 288.12 105.966L287.785 106.294C287.727 106.345 287.683 106.396 287.683 106.418H287.727H288.456C288.674 106.388 288.896 106.396 289.112 106.44Z" fill="#263238"/>
<path d="M253.751 106.396C253.751 106.396 253.751 106.148 253.751 105.718C253.751 105.288 253.751 104.653 253.715 103.917C253.715 102.385 253.671 100.27 253.664 97.8492L253.78 97.9731H251.498L251.622 97.8492V100.38C251.622 101.189 251.622 101.962 251.622 102.691C251.622 104.15 251.622 105.39 251.585 106.389L251.512 106.316L253.175 106.352C253.569 106.352 253.788 106.352 253.795 106.389C253.603 106.401 253.411 106.401 253.219 106.389L251.512 106.425H251.439V106.352C251.439 105.353 251.439 104.099 251.439 102.655C251.439 101.926 251.439 101.153 251.439 100.343V97.8127L251.563 97.6887H253.897V97.8054C253.897 100.278 253.897 102.429 253.839 103.953C253.839 104.682 253.839 105.28 253.839 105.732C253.828 105.956 253.799 106.178 253.751 106.396Z" fill="#263238"/>
<path d="M275.519 106.396C275.511 106.309 275.511 106.221 275.519 106.133C275.519 105.944 275.519 105.71 275.519 105.404C275.519 104.748 275.519 103.858 275.483 102.757C275.483 100.525 275.439 97.4335 275.432 93.9257L275.556 94.0424H273.266L273.39 93.9257V95.851C273.39 96.4854 273.39 97.1053 273.39 97.7106C273.39 98.9284 273.39 100.073 273.39 101.145C273.39 103.26 273.353 105.054 273.346 106.367L273.28 106.301H274.95H275.402H275.57C275.378 106.315 275.186 106.315 274.994 106.301L273.28 106.338H273.215V106.272C273.215 104.959 273.215 103.165 273.171 101.051C273.171 99.9786 273.171 98.8628 273.171 97.6158C273.171 97.0105 273.171 96.3906 273.171 95.7562V93.8309L273.295 93.707H275.701V93.8309C275.701 97.3897 275.701 100.525 275.65 102.75C275.65 103.836 275.65 104.719 275.614 105.368C275.614 105.645 275.614 105.878 275.614 106.097C275.614 106.316 275.519 106.403 275.519 106.396Z" fill="#263238"/>
<path d="M259.257 106.396C259.248 106.289 259.248 106.182 259.257 106.075C259.257 105.842 259.257 105.543 259.257 105.171C259.257 104.376 259.257 103.26 259.22 101.875C259.22 99.0816 259.22 95.2238 259.169 90.8702L259.293 90.9941H257.003C257.251 90.7462 257.069 90.9285 257.127 90.8775V93.3423C257.127 94.1518 257.127 94.9394 257.127 95.7124C257.127 97.2511 257.127 98.7024 257.127 100.037C257.127 102.691 257.091 104.879 257.076 106.396L257.018 106.338H258.703H259.147H259.308H259.169H258.732H257.018H256.96V106.279C256.96 104.762 256.96 102.575 256.916 99.9202C256.916 98.5857 256.916 97.1345 256.916 95.5957C256.916 94.8227 256.916 94.0351 256.916 93.2257V90.7608C256.974 90.7024 256.792 90.8775 257.04 90.6295H259.446V90.7462C259.446 95.1217 259.41 99.0232 259.395 101.838C259.395 103.209 259.395 104.318 259.359 105.105C259.359 105.47 259.359 105.762 259.359 105.98C259.359 106.199 259.257 106.403 259.257 106.396Z" fill="#263238"/>
<path d="M264.639 106.345C264.636 106.304 264.636 106.262 264.639 106.221V105.834C264.639 105.499 264.639 105.032 264.639 104.442C264.639 103.224 264.639 101.481 264.603 99.3368C264.603 95.005 264.566 89.0179 264.544 82.2942L264.668 82.4181H262.356L262.473 82.3014V90.0097C262.473 92.4454 262.473 94.7352 262.473 96.8209C262.473 100.963 262.429 104.281 262.415 106.301L262.371 106.257H264.056H264.654C264.654 106.257 264.61 106.257 264.515 106.257H264.107H262.393H262.342V106.206C262.342 104.15 262.342 100.832 262.291 96.7261C262.291 94.6404 262.291 92.3506 262.291 89.9148C262.291 88.6897 262.291 87.4354 262.291 86.1446V82.2066C262.342 82.1483 262.167 82.3233 262.415 82.0754H264.821V82.1994C264.821 88.9522 264.821 94.9759 264.77 99.3295C264.77 101.474 264.77 103.209 264.734 104.434C264.734 105.018 264.734 105.477 264.734 105.805V106.155C264.646 106.316 264.646 106.352 264.639 106.345Z" fill="#263238"/>
<path d="M270.159 106.345C270.159 106.345 270.159 106.272 270.159 106.133C270.159 105.995 270.159 105.776 270.159 105.514C270.159 104.967 270.159 104.172 270.159 103.158C270.159 101.109 270.159 98.1481 270.123 94.4946C270.123 87.202 270.123 77.0435 270.072 65.7401L270.196 65.8641H267.906C268.147 65.6234 267.979 65.8057 268.03 65.7547V72.7337C268.03 75.0089 268.03 77.2259 268.03 79.3626C268.03 83.6433 268.03 87.6104 268.03 91.1619C268.03 98.2356 267.979 103.61 267.964 106.345H269.678H270.254C270.254 106.345 270.21 106.345 270.116 106.345H269.7H267.964H267.928V106.301C267.928 103.566 267.891 98.1919 267.869 91.1181C267.869 87.5667 267.869 83.5995 267.869 79.3188C267.869 77.1821 267.869 74.9433 267.869 72.6899V65.7255C267.928 65.6672 267.745 65.8349 267.993 65.587H270.4V65.7255C270.4 77.0654 270.4 87.2239 270.349 94.5675C270.349 98.2138 270.349 101.131 270.312 103.202C270.312 104.208 270.312 104.989 270.312 105.535C270.312 105.791 270.312 105.988 270.312 106.133C270.312 106.279 270.159 106.352 270.159 106.345Z" fill="#263238"/>
<path d="M25.3491 108.751L27.2962 142.902L84.4332 139.643L25.3491 108.751ZM34.895 122.002L59.4709 135.129L35.7191 136.463L34.895 122.002Z" fill="#008282"/>
<path d="M31.0228 111.734C30.8407 112.487 30.5351 113.204 30.1185 113.856C29.8111 114.572 29.3845 115.23 28.8569 115.803C29.0355 115.043 29.3412 114.318 29.7612 113.659C30.0726 112.952 30.4989 112.302 31.0228 111.734Z" fill="#263238"/>
<path d="M39.788 116.263C39.6055 117.006 39.2999 117.713 38.8837 118.356C38.5819 119.053 38.1598 119.693 37.6367 120.244C37.8132 119.5 38.1166 118.792 38.5337 118.152C38.8342 117.451 39.2591 116.811 39.788 116.263Z" fill="#263238"/>
<path d="M48.5465 120.791C48.2922 121.508 47.9173 122.177 47.438 122.768C47.0636 123.436 46.5691 124.029 45.9795 124.518C46.2327 123.798 46.6077 123.127 47.088 122.534C47.4663 121.871 47.9603 121.281 48.5465 120.791Z" fill="#263238"/>
<path d="M57.1661 125.524C56.9202 126.247 56.5445 126.919 56.0576 127.508C55.6746 128.17 55.1813 128.762 54.5991 129.258C54.845 128.535 55.2207 127.863 55.7076 127.274C56.0907 126.612 56.5839 126.02 57.1661 125.524Z" fill="#263238"/>
<path d="M66.1656 130.14C65.9522 130.895 65.6119 131.608 65.1592 132.248C64.821 132.951 64.3674 133.591 63.8174 134.144C64.3589 132.682 65.1538 131.327 66.1656 130.14Z" fill="#263238"/>
<path d="M75.5069 135.005C75.3346 135.719 75.033 136.396 74.6172 137.003C74.3137 137.672 73.8939 138.282 73.3774 138.804C73.5536 138.087 73.8574 137.408 74.2744 136.799C74.5704 136.129 74.9883 135.521 75.5069 135.005Z" fill="#263238"/>
<path d="M33.7571 113.163C33.8519 113.222 33.6914 113.718 33.3924 114.286C33.0934 114.855 32.7726 115.256 32.6632 115.205C32.5538 115.154 32.7288 114.651 33.0278 114.09C33.3268 113.528 33.6622 113.127 33.7571 113.163Z" fill="#263238"/>
<path d="M36.6229 114.586C36.725 114.637 36.5573 115.14 36.2583 115.701C35.9593 116.263 35.6457 116.678 35.529 116.627C35.4124 116.576 35.602 116.073 35.8937 115.504C36.1854 114.936 36.5281 114.542 36.6229 114.586Z" fill="#263238"/>
<path d="M43.0188 117.977C43.1136 118.035 42.9531 118.531 42.6541 119.1C42.3551 119.668 42.0343 120.077 41.9249 120.018C41.8155 119.96 41.9905 119.464 42.2895 118.903C42.5885 118.341 42.924 117.925 43.0188 117.977Z" fill="#263238"/>
<path d="M45.8918 119.413C45.9866 119.464 45.8262 119.967 45.5272 120.529C45.2282 121.09 44.9073 121.506 44.7979 121.455C44.6885 121.404 44.8636 120.901 45.1626 120.332C45.4616 119.763 45.7897 119.362 45.8918 119.413Z" fill="#263238"/>
<path d="M51.6749 122.651C51.777 122.702 51.6093 123.205 51.3103 123.767C51.0113 124.328 50.6977 124.744 50.5811 124.693C50.4644 124.642 50.6467 124.139 50.9457 123.57C51.2447 123.001 51.5801 122.607 51.6749 122.651Z" fill="#263238"/>
<path d="M54.4171 124.066C54.5192 124.117 54.3515 124.62 54.0525 125.182C53.7535 125.743 53.4399 126.159 53.3232 126.108C53.2066 126.057 53.3889 125.546 53.6879 124.985C53.9869 124.423 54.3223 124.066 54.4171 124.066Z" fill="#263238"/>
<path d="M60.3312 127.158C60.426 127.216 60.2655 127.712 59.9666 128.281C59.6676 128.85 59.354 129.251 59.2373 129.2C59.1206 129.149 59.3029 128.645 59.6019 128.084C59.9009 127.522 60.2364 127.107 60.3312 127.158Z" fill="#263238"/>
<path d="M63.511 128.842C63.6058 128.901 63.4453 129.397 63.1463 129.965C62.8473 130.534 62.5265 130.943 62.4171 130.884C62.3077 130.826 62.4827 130.33 62.7817 129.769C63.0807 129.207 63.4162 128.791 63.511 128.842Z" fill="#263238"/>
<path d="M69.2278 131.854C69.3226 131.905 69.1621 132.408 68.8631 132.97C68.5641 133.532 68.2433 133.947 68.1339 133.896C68.0245 133.845 68.1995 133.342 68.4985 132.773C68.7975 132.204 69.1257 131.803 69.2278 131.854Z" fill="#263238"/>
<path d="M72.5241 133.546C72.6189 133.604 72.4585 134.108 72.1595 134.669C71.8605 135.231 71.5396 135.646 71.4303 135.588C71.3209 135.53 71.4959 135.034 71.7949 134.472C72.0939 133.911 72.4293 133.495 72.5241 133.546Z" fill="#263238"/>
<path d="M123.069 61.2333C123.069 61.2333 123.069 61.1896 123.069 61.1094C123.069 61.0291 123.069 60.8979 123.069 60.7447C123.069 60.4239 123.069 59.9571 123.069 59.3519C123.069 58.1267 123.069 56.3473 123.069 54.0867C123.069 49.5653 123.032 43.1479 123.01 35.3886L123.12 35.4907H97.2751L97.3918 35.3667C97.3918 44.847 97.3918 53.7001 97.3918 61.2115L97.2897 61.1021L115.988 61.1604H121.253H121.297H116.061L97.2897 61.2115H97.1074V61.1021C97.1074 53.5908 97.1074 44.723 97.1074 35.2573V35.1334H97.2314H123.076H123.178V35.2427C123.178 43.002 123.142 49.4705 123.127 54.0137C123.127 56.2598 123.127 58.0319 123.127 59.2498C123.127 59.8477 123.127 60.2999 123.127 60.6208V61.0875L123.069 61.2333Z" fill="#008282"/>
<path d="M123.069 61.2333C123.131 61.1827 123.197 61.1364 123.266 61.0948L123.856 60.7156L126.146 59.2571L134.562 54.0575L134.518 54.1377C134.518 47.3921 134.518 38.4588 134.518 28.6795L134.635 28.8035H134.569H109.089H109.133L100.433 33.6384L98.0555 34.9657L97.4356 35.3011L97.2241 35.4105C97.2875 35.3635 97.3532 35.3196 97.421 35.2792L98.0336 34.9146L100.382 33.5509L109.016 28.592H134.496H134.686V28.716C134.686 38.4952 134.686 47.4286 134.686 54.1742V54.2252H134.642L126.183 59.3956L123.871 60.7958L123.266 61.1531L123.069 61.2333Z" fill="#008282"/>
<path d="M134.606 28.6503C134.642 28.7087 132.09 30.262 128.903 32.1216C125.716 33.9812 123.069 35.447 123.069 35.3886C123.069 35.3303 125.585 33.777 128.779 31.9101C131.973 30.0432 134.576 28.592 134.606 28.6503Z" fill="#008282"/>
<path d="M98.4492 60.1686C98.4492 60.227 98.2304 60.4384 97.895 60.628C97.5595 60.8177 97.2532 60.9343 97.2241 60.876C97.1949 60.8177 97.4356 60.6135 97.771 60.4166C98.1065 60.2197 98.4128 60.1103 98.4492 60.1686Z" fill="#008282"/>
<path d="M100.9 58.7612C100.936 58.8195 100.688 59.031 100.346 59.2206C100.003 59.4102 99.7039 59.5269 99.6748 59.4685C99.6456 59.4102 99.8862 59.206 100.229 59.0091C100.572 58.8122 100.863 58.7028 100.9 58.7612Z" fill="#008282"/>
<path d="M103.35 57.3537C103.386 57.412 103.138 57.6235 102.803 57.8131C102.467 58.0027 102.161 58.1194 102.125 58.0611C102.088 58.0027 102.336 57.7985 102.679 57.6016C103.022 57.4047 103.321 57.2953 103.35 57.3537Z" fill="#008282"/>
<path d="M105.807 55.9463C105.807 56.0046 105.588 56.2088 105.253 56.4057C104.918 56.6026 104.611 56.712 104.575 56.6536C104.538 56.5953 104.794 56.3911 105.129 56.1942C105.464 55.9973 105.771 55.8879 105.807 55.9463Z" fill="#008282"/>
<path d="M108.258 54.5388C108.258 54.5971 108.046 54.8013 107.704 54.9982C107.361 55.1951 107.062 55.3045 107.033 55.2462C107.003 55.1878 107.244 54.9836 107.58 54.7867C107.915 54.5898 108.221 54.4805 108.258 54.5388Z" fill="#008282"/>
<path d="M108.877 52.0666C108.943 52.0666 108.994 52.3802 108.994 52.7958C108.994 53.2115 108.936 53.5251 108.863 53.5251C108.79 53.5251 108.746 53.2115 108.746 52.7958C108.746 52.3802 108.812 52.0593 108.877 52.0666Z" fill="#008282"/>
<path d="M108.899 49.2371C108.965 49.2371 109.023 49.5507 109.016 49.9664C109.009 50.382 108.958 50.6956 108.892 50.6956C108.826 50.6956 108.768 50.3748 108.768 49.9664C108.768 49.558 108.834 49.2371 108.899 49.2371Z" fill="#008282"/>
<path d="M108.921 46.4076C108.987 46.4076 109.045 46.7285 109.038 47.1368C109.031 47.5452 108.98 47.8661 108.914 47.8661C108.848 47.8661 108.79 47.5452 108.79 47.1368C108.79 46.7285 108.856 46.4076 108.921 46.4076Z" fill="#008282"/>
<path d="M108.943 43.5781C109.009 43.5781 109.067 43.899 109.06 44.3074C109.053 44.7158 109.002 45.0366 108.936 45.0366C108.871 45.0366 108.812 44.7231 108.819 44.3074C108.827 43.8917 108.878 43.5781 108.943 43.5781Z" fill="#008282"/>
<path d="M108.965 40.7559C109.031 40.7559 109.089 41.0695 109.082 41.4852C109.074 41.9008 109.023 42.2144 108.958 42.2144C108.892 42.2144 108.834 41.9008 108.841 41.4852C108.848 41.0695 108.899 40.7559 108.965 40.7559Z" fill="#008282"/>
<path d="M108.987 37.9264C109.06 37.9264 109.111 38.24 109.104 38.6556C109.096 39.0713 109.045 39.3849 108.98 39.3849C108.914 39.3849 108.856 39.064 108.863 38.6556C108.87 38.2473 108.921 37.9264 108.987 37.9264Z" fill="#008282"/>
<path d="M109.009 35.0969C109.082 35.0969 109.133 35.4178 109.126 35.8262C109.118 36.2346 109.067 36.5554 109.002 36.5554C108.936 36.5554 108.878 36.2346 108.885 35.8262C108.892 35.4178 108.943 35.0969 109.009 35.0969Z" fill="#008282"/>
<path d="M109.031 32.2674C109.104 32.2674 109.155 32.5883 109.148 32.9966C109.14 33.405 109.089 33.7259 109.024 33.7259C108.958 33.7259 108.9 33.4123 108.907 32.9966C108.914 32.581 108.965 32.2674 109.031 32.2674Z" fill="#008282"/>
<path d="M109.052 29.4452C109.125 29.4452 109.176 29.7588 109.169 30.1744C109.162 30.5901 109.111 30.9037 109.045 30.9037C108.979 30.9037 108.921 30.5901 108.928 30.1744C108.936 29.7588 108.987 29.4452 109.052 29.4452Z" fill="#008282"/>
<path d="M133.198 54.1159C133.198 54.0575 133.512 54.0065 133.927 54.0065C134.343 54.0065 134.657 54.0575 134.657 54.1159C134.657 54.1742 134.343 54.2325 133.927 54.2325C133.512 54.2325 133.198 54.1815 133.198 54.1159Z" fill="#008282"/>
<path d="M130.369 54.1159C130.369 54.0575 130.682 54.0065 131.098 54.0065C131.514 54.0065 131.827 54.0575 131.827 54.1159C131.827 54.1742 131.506 54.2325 131.098 54.2325C130.69 54.2325 130.369 54.1815 130.369 54.1159Z" fill="#008282"/>
<path d="M127.539 54.1159C127.539 54.0575 127.853 54.0065 128.268 54.0065C128.684 54.0065 128.998 54.0575 128.998 54.1159C128.998 54.1742 128.684 54.2325 128.268 54.2325C127.853 54.2325 127.539 54.1815 127.539 54.1159Z" fill="#008282"/>
<path d="M124.71 54.1159C124.71 54.0575 125.031 54.0065 125.439 54.0065C125.848 54.0065 126.168 54.0575 126.168 54.1159C126.168 54.1742 125.855 54.2325 125.439 54.2325C125.024 54.2325 124.71 54.1815 124.71 54.1159Z" fill="#008282"/>
<path d="M121.902 54.1159C121.902 54.0575 122.215 54.0065 122.631 54.0065C123.047 54.0065 123.36 54.0575 123.36 54.1159C123.36 54.1742 123.047 54.2325 122.631 54.2325C122.215 54.2325 121.902 54.1815 121.902 54.1159Z" fill="#008282"/>
<path d="M119.058 54.1159C119.058 54.0575 119.372 54.0065 119.787 54.0065C120.203 54.0065 120.517 54.0575 120.517 54.1159C120.517 54.1742 120.196 54.2325 119.787 54.2325C119.379 54.2325 119.058 54.1815 119.058 54.1159Z" fill="#008282"/>
<path d="M116.228 54.1159C116.228 54.0575 116.542 54.0065 116.957 54.0065C117.373 54.0065 117.687 54.0575 117.687 54.1159C117.687 54.1742 117.373 54.2325 116.957 54.2325C116.542 54.2325 116.228 54.1815 116.228 54.1159Z" fill="#008282"/>
<path d="M113.399 54.1159C113.399 54.0575 113.72 54.0065 114.128 54.0065C114.537 54.0065 114.857 54.0575 114.857 54.1159C114.857 54.1742 114.544 54.2325 114.128 54.2325C113.713 54.2325 113.399 54.1815 113.399 54.1159Z" fill="#008282"/>
<path d="M110.577 54.1159C110.577 54.0575 110.89 54.0065 111.306 54.0065C111.722 54.0065 112.035 54.0575 112.035 54.1159C112.035 54.1742 111.722 54.2325 111.306 54.2325C110.89 54.2325 110.577 54.1815 110.577 54.1159Z" fill="#008282"/>
<path d="M108.863 54.1159C108.863 54.0575 108.929 54.0065 109.009 54.0065C109.089 54.0065 109.162 54.0575 109.162 54.1159C109.162 54.1742 109.097 54.2325 109.009 54.2325C108.992 54.2346 108.974 54.2331 108.958 54.2284C108.941 54.2236 108.925 54.2155 108.912 54.2047C108.898 54.1938 108.887 54.1804 108.879 54.1651C108.87 54.1499 108.865 54.1331 108.863 54.1159Z" fill="#008282"/>
<path d="M137.734 45.5033C137.95 45.5243 138.167 45.5243 138.383 45.5033C138.666 45.4406 138.933 45.3177 139.164 45.1428C139.396 44.9678 139.587 44.7451 139.725 44.4896C139.907 44.1032 139.995 43.6792 139.983 43.2521C139.97 42.8251 139.857 42.407 139.652 42.0321C139.605 41.929 139.534 41.8384 139.445 41.7675C139.356 41.6966 139.252 41.6473 139.141 41.6237C138.908 41.5945 138.673 41.6573 138.485 41.7987C138.096 42.1764 137.812 42.6489 137.661 43.1697C137.457 43.7353 137.334 44.3271 137.296 44.9272H137.056C137.056 43.053 137.019 41.4195 137.019 40.2527C137.019 39.7057 137.019 39.2463 137.019 38.8817C136.999 38.717 136.999 38.5505 137.019 38.3858C137.053 38.549 137.07 38.7151 137.07 38.8817C137.07 39.2463 137.07 39.7057 137.129 40.2527C137.172 41.4195 137.216 43.053 137.253 44.9272H137.012C137.051 44.3046 137.179 43.6907 137.391 43.1041C137.492 42.8298 137.608 42.5619 137.741 42.3019C137.873 42.0375 138.063 41.8058 138.296 41.6237C138.415 41.5329 138.551 41.4668 138.697 41.4293C138.842 41.3917 138.993 41.3834 139.141 41.4049C139.283 41.439 139.415 41.5037 139.528 41.5945C139.641 41.6852 139.734 41.7997 139.798 41.93C140.014 42.3404 140.127 42.7971 140.127 43.2609C140.127 43.7246 140.014 44.1813 139.798 44.5917C139.647 44.86 139.438 45.0906 139.185 45.2661C138.932 45.4417 138.643 45.5577 138.339 45.6054C138.175 45.6324 138.008 45.6324 137.843 45.6054C137.802 45.5777 137.765 45.5432 137.734 45.5033Z" fill="#008282"/>
<path d="M66.0559 166.53C66.0559 166.53 66.158 166.53 66.3549 166.618C66.5518 166.705 66.8435 166.771 67.2154 166.924C68.3046 167.354 69.3458 167.896 70.322 168.543C71.8772 169.566 73.2564 170.834 74.4059 172.299C75.9486 174.234 76.9951 176.517 77.4541 178.949C77.9752 181.914 77.5809 184.966 76.3238 187.7C75.6318 189.223 74.668 190.607 73.4797 191.784C72.8577 192.4 72.1762 192.952 71.4451 193.432C71.0586 193.651 70.7158 193.885 70.2783 194.089C69.8407 194.293 69.4761 194.49 69.0458 194.643C65.6475 195.992 61.7533 196.05 57.8445 195.678C55.8901 195.489 53.9211 195.204 51.9157 194.891C49.8789 194.599 47.8709 194.133 45.9139 193.498C43.935 192.869 42.1059 191.842 40.5393 190.479C39.7885 189.791 39.127 189.012 38.5704 188.16C38.0425 187.307 37.6189 186.394 37.3087 185.44C36.7212 183.582 36.525 181.623 36.7326 179.686C36.9379 177.837 37.4765 176.041 38.3224 174.384C39.988 171.357 42.5026 168.883 45.5566 167.267C48.1879 165.846 51.0622 164.931 54.0305 164.569C56.4713 164.279 58.9368 164.262 61.3814 164.517C63.2224 164.713 65.0509 165.012 66.8581 165.414C68.3166 165.75 69.4834 166.056 70.2564 166.268L71.1315 166.523L71.4305 166.625L71.1242 166.552L70.2418 166.326C69.4688 166.129 68.3239 165.837 66.8362 165.524C65.0279 165.141 63.1994 164.861 61.3595 164.685C58.9331 164.441 56.4868 164.47 54.067 164.773C51.1306 165.148 48.2893 166.066 45.6879 167.478C42.6846 169.08 40.2137 171.523 38.5776 174.508C37.7515 176.141 37.2301 177.91 37.0389 179.73C36.8395 181.628 37.0331 183.547 37.6077 185.367C37.9062 186.298 38.3176 187.19 38.8329 188.021C39.3717 188.853 40.0137 189.612 40.7435 190.282C42.2831 191.615 44.0767 192.622 46.016 193.243C47.9615 193.872 49.9572 194.333 51.9813 194.621C53.9722 194.935 55.9485 195.219 57.8883 195.409C61.7533 195.781 65.6256 195.73 68.9656 194.402C72.1506 193.172 74.7215 190.735 76.1196 187.62C77.365 184.929 77.7667 181.924 77.2718 179C76.8209 176.604 75.7976 174.353 74.2892 172.437C73.1596 170.981 71.8058 169.713 70.2783 168.682C69.3104 168.03 68.2823 167.474 67.2081 167.019C66.8362 166.866 66.5518 166.771 66.3549 166.691L66.0559 166.53Z" fill="#263238"/>
<path d="M46.5846 185.374C46.3916 185.423 46.1931 185.448 45.9939 185.447L44.3677 185.527H43.828C43.6224 185.555 43.4138 185.555 43.2082 185.527C43.0781 185.487 42.9685 185.398 42.9019 185.279C42.8468 185.17 42.8145 185.051 42.8071 184.929L42.7633 184.266C42.7123 183.347 42.6539 182.355 42.5956 181.349C42.5373 180.342 42.4716 179.314 42.4643 178.388C42.4521 177.934 42.5576 177.484 42.7706 177.083C42.9815 176.75 43.2934 176.495 43.6603 176.353C44.1866 176.17 44.7474 176.108 45.3011 176.171C45.5026 176.176 45.7019 176.213 45.8918 176.28C45.6929 176.298 45.4928 176.298 45.2938 176.28C44.764 176.258 44.2352 176.344 43.7405 176.536C43.4283 176.681 43.1721 176.924 43.0113 177.228C42.8289 177.595 42.7411 178.001 42.756 178.41C42.756 179.299 42.8654 180.313 42.9092 181.327C42.9529 182.34 43.0113 183.361 43.0623 184.244C43.1061 184.674 43.0113 185.214 43.3103 185.287C43.4916 185.313 43.6759 185.313 43.8572 185.287H46.045C46.2279 185.293 46.4092 185.322 46.5846 185.374Z" fill="#263238"/>
<path d="M45.768 180.598C45.2771 180.747 44.7632 180.806 44.2512 180.773C43.7403 180.828 43.2236 180.788 42.7271 180.656C43.2171 180.502 43.7318 180.443 44.2439 180.481C44.7548 180.425 45.2716 180.464 45.768 180.598Z" fill="#263238"/>
<path d="M53.352 179.241C52.5865 179.349 51.8128 179.388 51.0403 179.358C50.2733 179.418 49.5028 179.418 48.7358 179.358C49.4781 179.123 50.255 179.017 51.033 179.044C51.8116 178.983 52.5949 179.049 53.352 179.241Z" fill="#263238"/>
<path d="M53.8044 182.727C53.054 182.899 52.2815 182.953 51.5146 182.887C50.7491 182.918 49.9836 182.827 49.2466 182.618C50.0033 182.545 50.7652 182.545 51.5218 182.618C52.2844 182.585 53.0484 182.622 53.8044 182.727Z" fill="#263238"/>
<path d="M66.0632 184.82C66.0632 184.82 66.0632 184.506 66.0632 183.93C66.0281 183.116 65.8809 182.312 65.6256 181.538C65.5089 180.996 65.2104 180.51 64.7797 180.16C64.6565 180.09 64.5158 180.058 64.3747 180.067C64.2335 180.076 64.0981 180.126 63.9848 180.211C63.7275 180.402 63.5199 180.652 63.3795 180.94C62.7961 182.375 62.5467 183.924 62.6503 185.469H62.3659C62.4492 184.352 62.4345 183.229 62.3221 182.114C62.2819 181.662 62.2186 181.211 62.1325 180.765C62.0604 180.353 61.843 179.981 61.5199 179.715C61.3648 179.603 61.1786 179.543 60.9876 179.543C60.7965 179.543 60.6103 179.603 60.4552 179.715C60.1278 179.93 59.8894 180.257 59.7843 180.634C59.6798 181.013 59.6114 181.401 59.5801 181.793C59.5364 182.18 59.4999 182.559 59.4853 182.931C59.4452 183.623 59.4452 184.317 59.4853 185.009H59.2593C59.2009 183.369 59.1499 182.027 59.1134 181.042C59.1134 180.605 59.1134 180.247 59.1134 179.963C59.0976 179.837 59.0976 179.71 59.1134 179.584C59.1425 179.708 59.1596 179.835 59.1644 179.963L59.252 181.042C59.3103 182.02 59.3978 183.361 59.4999 184.995H59.2738C59.2367 184.295 59.2367 183.594 59.2738 182.895C59.2738 182.523 59.3176 182.165 59.3613 181.742C59.391 181.333 59.4619 180.927 59.5728 180.532C59.6926 180.091 59.967 179.708 60.3458 179.453C60.5639 179.315 60.8173 179.244 61.0751 179.248C61.3375 179.249 61.5929 179.334 61.8043 179.489C62.1857 179.794 62.4446 180.227 62.5336 180.707C62.6266 181.165 62.6948 181.627 62.7378 182.092C62.8357 183.226 62.8357 184.365 62.7378 185.498H62.4534C62.357 183.913 62.6317 182.327 63.2556 180.867C63.4215 180.531 63.673 180.244 63.9848 180.036C64.1342 179.929 64.3114 179.867 64.4951 179.858C64.6787 179.849 64.8611 179.893 65.0204 179.985C65.4915 180.366 65.8141 180.9 65.9319 181.494C66.1728 182.289 66.2957 183.114 66.2965 183.945C66.2965 184.236 66.2965 184.462 66.2601 184.608C66.2062 184.689 66.1397 184.76 66.0632 184.82Z" fill="#263238"/>
<path d="M72.4513 184.36C72.4513 184.36 72.3492 184.484 72.1012 184.608C71.7484 184.78 71.3631 184.874 70.9709 184.885C70.3784 184.904 69.7941 184.744 69.2936 184.426C68.68 184.019 68.2427 183.396 68.0696 182.68C67.8965 181.965 68.0003 181.21 68.3602 180.568C68.6622 180.058 69.1089 179.65 69.6436 179.394C69.9967 179.224 70.3822 179.132 70.774 179.124C70.9175 179.114 71.0617 179.133 71.197 179.183C70.691 179.225 70.1968 179.358 69.7385 179.577C69.2621 179.838 68.8681 180.227 68.6008 180.7C68.2951 181.288 68.2124 181.967 68.3678 182.612C68.5233 183.256 68.9065 183.823 69.4468 184.207C69.9019 184.507 70.4331 184.672 70.9782 184.681C71.4851 184.669 71.985 184.56 72.4513 184.36Z" fill="#263238"/>
<path d="M74.1721 176.098C73.073 176.165 71.9846 176.353 70.927 176.659L70.4384 176.82L70.803 176.448C71.5053 175.807 72.114 175.071 72.6115 174.26C73.0003 173.583 73.1348 172.789 72.9908 172.021C72.9105 171.679 72.7063 171.409 72.4292 171.402C72.1409 171.407 71.8581 171.482 71.6052 171.62C71.2184 171.819 70.8761 172.095 70.5988 172.43C70.4019 172.67 70.3217 172.831 70.2998 172.816C70.3296 172.65 70.4026 172.494 70.5113 172.364C70.7628 171.98 71.1061 171.664 71.5104 171.445C71.7911 171.27 72.1131 171.172 72.4438 171.161C72.5454 171.164 72.6453 171.188 72.737 171.232C72.8286 171.276 72.9101 171.339 72.9762 171.416C73.1069 171.57 73.1994 171.752 73.246 171.948C73.4262 172.784 73.2912 173.657 72.8668 174.399C72.359 175.244 71.7216 176.005 70.978 176.652L70.854 176.433C71.6307 176.2 72.4352 176.072 73.246 176.054C73.5549 176.014 73.8684 176.029 74.1721 176.098Z" fill="#263238"/>
<path d="M123.01 167.471L138.551 164.474L168.363 171.314L183.473 174.465L183.691 195.11L149.985 201.316L127.24 194.577L118.642 181.925L123.01 167.471Z" fill="#FFBE9D"/>
<path d="M111.969 169.527L126.635 166.071C126.635 166.071 137.005 198.158 162.594 196.75C183.451 195.62 183.473 174.464 183.473 174.464L198.721 177.155C198.721 177.155 205.117 215.871 198.109 243.029C192.275 265.636 187.097 296.614 187.097 296.614H85.7964L111.969 169.527Z" fill="#008282"/>
<path d="M260.569 268.728C260.569 268.728 218.791 195.533 211.272 186.14C203.039 175.857 196.468 177.046 196.468 177.046L192.049 226.351L227.571 276.749L236.037 279.805L260.569 268.728Z" fill="#008282"/>
<path d="M113.72 169.119C113.72 169.119 89.9752 171.015 81.4575 209.957C77.607 227.554 72.7065 248.177 71.3355 262.033C70.3145 272.09 76.5205 282.547 86.5477 283.831L99.1346 286.164C102.46 286.781 105.895 286.1 108.733 284.26C111.572 282.421 113.596 279.563 114.391 276.276L118.642 258.671L107.317 254.865L109.935 202.424L113.72 169.119Z" fill="#008282"/>
<path d="M200.661 204.371C200.717 204.547 200.754 204.728 200.771 204.911C200.836 205.305 200.909 205.83 201.011 206.479C201.062 206.822 201.113 207.208 201.179 207.616C201.245 208.025 201.267 208.484 201.31 208.973C201.412 209.943 201.529 211.051 201.58 212.284C201.756 215.166 201.776 218.056 201.639 220.94C201.468 224.47 201.118 227.99 200.588 231.485C200.041 235.204 199.356 238.719 198.663 241.899C197.97 245.078 197.278 247.93 196.687 250.321C196.096 252.713 195.578 254.631 195.228 255.959C195.053 256.593 194.915 257.104 194.805 257.483C194.761 257.661 194.705 257.837 194.638 258.008C194.653 257.825 194.684 257.645 194.733 257.468C194.82 257.074 194.944 256.564 195.09 255.922L196.432 250.227C196.993 247.827 197.664 244.976 198.328 241.796C198.991 238.617 199.677 235.109 200.224 231.397C200.771 227.685 201.143 224.105 201.296 220.889C201.449 217.673 201.464 214.719 201.296 212.269C201.296 211.044 201.165 209.935 201.084 208.958C201.048 208.477 201.011 208.025 200.982 207.602C200.953 207.179 200.887 206.814 200.851 206.464C200.778 205.815 200.727 205.29 200.683 204.896C200.664 204.722 200.657 204.547 200.661 204.371Z" fill="#263238"/>
<path d="M119.751 260.553C119.701 260.45 119.659 260.342 119.627 260.232C119.554 259.991 119.452 259.685 119.328 259.291L118.861 257.782C118.73 257.095 118.44 256.448 118.015 255.893C117.391 255.294 116.645 254.836 115.828 254.551C114.867 254.188 113.876 253.91 112.867 253.72C110.461 253.274 108.021 253.03 105.574 252.99H105.377V252.801L107.521 238.821C108.9 230.019 110.154 222.048 111.066 216.214C111.54 213.356 111.919 211.029 112.189 209.381C112.32 208.601 112.429 207.981 112.51 207.522C112.51 207.332 112.575 207.171 112.604 207.04C112.61 206.985 112.624 206.93 112.648 206.88C112.659 206.935 112.659 206.992 112.648 207.047C112.648 207.179 112.648 207.339 112.59 207.536C112.531 207.996 112.444 208.615 112.342 209.403C112.101 211.058 111.758 213.392 111.343 216.258C110.453 222.092 109.242 230.048 107.901 238.865C107.113 243.897 106.377 248.659 105.713 252.837L105.545 252.64C108.022 252.704 110.488 252.98 112.918 253.464C113.941 253.669 114.944 253.964 115.915 254.347C116.766 254.659 117.536 255.157 118.169 255.805C118.429 256.098 118.623 256.444 118.737 256.819L119.007 257.789C119.175 258.38 119.313 258.89 119.43 259.313C119.547 259.736 119.62 260.042 119.678 260.268C119.711 260.361 119.736 260.456 119.751 260.553Z" fill="#263238"/>
<path d="M87.0435 266.504C87.0668 266.171 87.1305 265.843 87.2331 265.526C87.4624 264.647 87.7699 263.791 88.1519 262.967C89.3955 260.212 91.3342 257.829 93.7775 256.05C96.2208 254.272 99.0848 253.16 102.088 252.823C102.988 252.713 103.896 252.684 104.801 252.735C105.135 252.739 105.468 252.781 105.793 252.859C104.574 252.866 103.357 252.942 102.146 253.085C99.2114 253.49 96.422 254.614 94.0263 256.357C91.6305 258.1 89.7028 260.408 88.4145 263.076C87.8966 264.193 87.439 265.337 87.0435 266.504Z" fill="#263238"/>
<path d="M92.5347 247.12C92.7204 247.073 92.9124 247.056 93.1035 247.069C93.6271 247.059 94.1509 247.084 94.6714 247.142C96.3933 247.315 98.0809 247.738 99.6814 248.396C101.281 249.059 102.779 249.945 104.13 251.029C104.539 251.353 104.927 251.704 105.289 252.079C105.545 252.349 105.683 252.502 105.661 252.524C105.639 252.546 105.019 252.013 103.969 251.24C101.216 249.223 98.0118 247.906 94.6349 247.404C93.3441 247.215 92.5347 247.186 92.5347 247.12Z" fill="#263238"/>
<path d="M117.11 196.75C117.063 196.405 117.046 196.056 117.059 195.708C117.059 195.037 117.016 194.074 116.928 192.885C116.709 189.784 116.177 186.713 115.338 183.719C114.488 180.729 113.343 177.832 111.918 175.07C111.364 174.012 110.897 173.166 110.554 172.598C110.362 172.307 110.196 171.999 110.059 171.679C110.291 171.938 110.499 172.219 110.678 172.517C111.065 173.072 111.568 173.896 112.137 174.946C115.172 180.454 116.894 186.588 117.169 192.871C117.22 194.067 117.213 195.059 117.169 195.708C117.184 196.056 117.164 196.406 117.11 196.75Z" fill="#263238"/>
<g opacity="0.3">
<path d="M199.582 237.034C205.635 226.774 205.766 213.443 200.479 202.76C202.179 214.142 201.813 225.738 199.399 236.991" fill="black"/>
</g>
<g opacity="0.3">
<path d="M145.69 248.637C141.096 249.986 134.751 250.314 130.252 248.637C133.76 253.618 140.52 255.419 146.383 253.8C152.246 252.181 157.657 246.311 158.109 240.236C155.273 244.072 150.292 247.31 145.69 248.637Z" fill="black"/>
</g>
<path d="M162.594 232.068C162.573 232.208 162.536 232.345 162.485 232.477C162.397 232.739 162.295 233.14 162.091 233.622C161.559 235.015 160.898 236.356 160.115 237.625C158.96 239.518 157.566 241.254 155.965 242.788C152.039 246.61 146.971 249.043 141.533 249.716C139.335 250.001 137.11 250.001 134.912 249.716C133.427 249.532 131.963 249.212 130.536 248.761C130.026 248.608 129.654 248.44 129.391 248.345C129.258 248.3 129.129 248.244 129.005 248.177C129.535 248.297 130.058 248.443 130.573 248.615C136.747 250.332 143.332 249.786 149.14 247.076C154.889 244.25 159.431 239.452 161.938 233.556C162.361 232.608 162.558 232.054 162.594 232.068Z" fill="#263238"/>
<path d="M111.371 283.123C111.371 283.123 111.32 283.203 111.189 283.32C111.006 283.503 110.808 283.671 110.598 283.823C109.836 284.392 108.989 284.84 108.09 285.151C106.752 285.595 105.357 285.841 103.948 285.88C102.244 285.934 100.538 285.873 98.8429 285.698C95.1966 285.384 91.9587 284.852 89.6178 284.436C88.4437 284.224 87.4957 284.042 86.8467 283.904C86.501 283.857 86.1612 283.774 85.833 283.656C86.1804 283.661 86.5268 283.695 86.8686 283.758L89.6616 284.166C92.0098 284.523 95.2623 285.005 98.8793 285.318C100.575 285.494 102.28 285.564 103.984 285.53C105.364 285.501 106.734 285.28 108.053 284.873C109.241 284.46 110.359 283.87 111.371 283.123Z" fill="#263238"/>
<path d="M193.733 91.2494L196.73 88.3324C200.719 90.068 202.564 94.6988 203.243 99.0014C203.921 103.304 203.819 107.825 205.649 111.778C207.049 114.819 209.594 117.612 209.295 120.974C209.011 124.146 206.138 126.713 206.123 129.9C206.123 132.97 208.676 135.325 210.163 138.009C213.175 143.442 215.13 165.67 213.554 171.686C200.304 170.541 176.836 169.126 163.579 166.078C167.072 143.238 181.781 111.005 193.733 91.2494Z" fill="#263238"/>
<path d="M199.662 111.61C200.581 96.0844 189.307 81.8785 173.591 80.0043C156.913 78.0208 142.16 89.9659 140.775 106.214L136.866 171.803C136.795 173.07 137.149 174.326 137.872 175.369C141.723 180.999 148.694 185.403 154.93 186.271C160.96 187.11 167.079 185.542 172.213 182.683C173.064 182.202 173.775 181.505 174.273 180.663C174.77 179.821 175.038 178.863 175.05 177.885L175.319 163.205C175.318 163.192 175.32 163.179 175.324 163.167C175.329 163.155 175.336 163.144 175.345 163.135C175.354 163.126 175.365 163.119 175.377 163.115C175.389 163.111 175.402 163.109 175.414 163.11C176.788 163.214 178.169 163.175 179.535 162.993C183.414 162.045 193.31 158.239 196.636 143.712C197.744 138.899 198.852 125.225 199.662 111.61Z" fill="#FFBE9D"/>
<path d="M178.091 133.058C178.091 132.912 179.717 132.751 182.35 132.605C183.013 132.605 183.648 132.496 183.808 132.058C183.906 131.389 183.794 130.707 183.487 130.104L181.854 124.999C179.593 117.765 178.003 111.836 178.295 111.756C178.587 111.676 180.665 117.459 182.926 124.693C183.465 126.48 183.983 128.179 184.479 129.798C184.683 130.527 185.055 131.417 184.654 132.372C184.542 132.595 184.381 132.789 184.183 132.939C183.984 133.09 183.754 133.193 183.509 133.24C183.137 133.314 182.757 133.341 182.379 133.32C179.724 133.305 178.098 133.203 178.091 133.058Z" fill="#263238"/>
<path d="M195.374 117.101C195.09 117.415 193.369 115.971 190.904 115.898C188.439 115.825 186.601 117.116 186.339 116.781C186.208 116.627 186.507 116.051 187.309 115.453C188.369 114.692 189.651 114.302 190.955 114.345C192.258 114.39 193.508 114.87 194.507 115.709C195.272 116.365 195.557 116.963 195.374 117.101Z" fill="#263238"/>
<path d="M170.332 117.729C169.996 118.042 168.202 116.416 165.511 116.183C162.82 115.949 160.727 117.182 160.458 116.817C160.326 116.649 160.691 116.088 161.603 115.49C162.824 114.766 164.244 114.449 165.657 114.586C167.072 114.711 168.407 115.292 169.464 116.241C170.259 116.948 170.492 117.59 170.332 117.729Z" fill="#263238"/>
<path d="M175.32 163.103C175.32 163.103 165.271 163.212 153.252 154.957C153.252 154.957 156.359 168.215 175.239 167.799L175.32 163.103Z" fill="#EB996E"/>
<path d="M176.596 139.11C176.138 138.465 175.526 137.944 174.815 137.596C174.104 137.249 173.318 137.085 172.527 137.119C171.956 137.128 171.392 137.251 170.87 137.481C170.348 137.712 169.877 138.045 169.486 138.461C169.112 138.86 168.873 139.365 168.801 139.907C168.729 140.448 168.828 140.998 169.085 141.48C169.719 142.494 171.163 142.822 172.425 142.56C173.674 142.218 174.844 141.633 175.867 140.839C176.171 140.644 176.437 140.397 176.654 140.109C176.757 139.975 176.817 139.813 176.828 139.644C176.838 139.475 176.798 139.307 176.713 139.161" fill="#EB996E"/>
<path d="M170.361 134.275C170.784 134.275 170.616 137.046 172.891 139.176C175.167 141.305 178.178 141.203 178.178 141.59C178.178 141.772 177.449 142.086 176.209 142.027C174.566 141.936 173.004 141.279 171.79 140.168C170.634 139.11 169.937 137.641 169.85 136.077C169.814 134.917 170.171 134.275 170.361 134.275Z" fill="#263238"/>
<path d="M170.762 107.563C170.456 108.234 167.896 107.716 164.841 107.84C161.785 107.964 159.269 108.569 158.904 107.949C158.751 107.636 159.218 107.023 160.261 106.425C161.648 105.703 163.179 105.302 164.742 105.251C166.304 105.201 167.859 105.502 169.289 106.133C170.346 106.659 170.864 107.242 170.762 107.563Z" fill="#263238"/>
<path d="M195.907 108.11C195.382 108.693 193.303 108.11 190.802 108.11C188.301 108.11 186.2 108.525 185.697 107.92C185.478 107.628 185.807 107.045 186.725 106.462C187.997 105.795 189.418 105.461 190.854 105.492C192.289 105.523 193.694 105.916 194.937 106.637C195.841 107.227 196.14 107.825 195.907 108.11Z" fill="#263238"/>
<path d="M175.867 76.7227C174.51 74.4183 171.994 73.3681 169.179 72.9452C157.686 71.2023 144.866 78.1229 138.427 87.7928C131.987 97.4627 131.645 111.895 136.356 122.513L143.524 118.035C157.912 112.099 168.071 98.2357 177.325 83.9131C178.616 81.966 177.07 78.7282 175.867 76.7227Z" fill="#263238"/>
<path d="M193.573 83.0453C188.767 77.5759 185.274 72.1065 175.298 75.9278C173.839 78.7208 176.756 82.3452 179.265 84.4601C182.911 87.5667 186.04 89.6596 188.417 91.8839C193.215 96.3688 198.67 111.457 199.144 119.69C199.144 120.208 200.056 112.624 200.603 112.544C201.274 112.442 203.979 109.131 203.607 104.609C202.324 89.1565 198.379 88.5074 193.573 83.0453Z" fill="#263238"/>
<path d="M169.209 72.9452C169.958 72.799 170.733 72.8646 171.447 73.1348C173.213 73.6762 174.787 74.7111 175.983 76.1174C176.325 76.5128 176.628 76.9402 176.888 77.3936C177.114 77.8317 177.29 78.2941 177.413 78.7719C177.673 79.5423 177.871 80.3325 178.003 81.1347C178.2 82.5421 177.865 83.3954 177.792 83.3735C177.719 83.3516 177.828 82.513 177.522 81.2222C177.32 80.4585 177.076 79.7063 176.793 78.9688C176.663 78.5377 176.492 78.12 176.282 77.7218C176.036 77.3038 175.753 76.9085 175.437 76.5404C174.307 75.2323 172.879 74.2165 171.272 73.5796C170.033 73.1348 169.194 73.0618 169.209 72.9452Z" fill="#455A64"/>
<path d="M193.099 121.878C193.1 122.437 192.886 122.976 192.503 123.383C192.119 123.79 191.594 124.034 191.035 124.066C190.758 124.092 190.478 124.062 190.212 123.979C189.947 123.895 189.7 123.759 189.488 123.579C189.275 123.399 189.101 123.179 188.974 122.93C188.848 122.682 188.773 122.411 188.753 122.133C188.738 121.565 188.946 121.014 189.331 120.596C189.716 120.178 190.249 119.926 190.816 119.894C191.098 119.867 191.382 119.898 191.652 119.984C191.921 120.071 192.17 120.211 192.383 120.396C192.597 120.582 192.77 120.809 192.893 121.064C193.017 121.318 193.086 121.595 193.099 121.878Z" fill="#263238"/>
<path d="M169.077 121.995C169.091 122.563 168.884 123.114 168.499 123.532C168.114 123.95 167.581 124.202 167.013 124.234C166.736 124.261 166.457 124.232 166.191 124.149C165.926 124.066 165.679 123.931 165.466 123.752C165.254 123.573 165.079 123.352 164.953 123.105C164.826 122.857 164.751 122.586 164.731 122.308C164.715 121.739 164.921 121.186 165.307 120.766C165.692 120.347 166.226 120.094 166.795 120.062C167.072 120.035 167.352 120.064 167.618 120.147C167.885 120.23 168.131 120.366 168.344 120.546C168.557 120.726 168.731 120.947 168.857 121.196C168.983 121.445 169.058 121.717 169.077 121.995Z" fill="#263238"/>
<path d="M102.978 140.248C104.334 138.016 105.895 135.916 108.374 134.99C110.854 134.064 113.669 133.532 115.616 131.723C118.671 128.915 118.533 124.248 118.256 120.179C117.979 116.11 117.906 111.428 121.027 108.693C123.638 106.411 127.787 106.206 130.048 103.588C131.557 101.845 131.856 99.4389 132.381 97.2147C133.84 91.2567 137.1 80.8503 154.66 74.8631L139.127 133.889C140.286 134.217 143.058 136.857 143.211 138.644C143.349 140.314 142.627 142.005 142.613 143.683C142.613 145.732 144.844 146.957 146.259 148.474C148.053 150.406 148.607 153.192 148.33 155.766C147.755 159.285 146.814 162.733 145.522 166.056C131.112 164.598 110.081 164.131 99.0982 154.942C97.1073 153.28 99.9587 145.214 102.978 140.248Z" fill="#263238"/>
<path d="M143.553 118.035C143.283 117.889 132.673 113.659 131.995 124.853C131.316 136.047 142.671 134.385 142.707 134.071C142.744 133.758 143.553 118.035 143.553 118.035Z" fill="#FFBE9D"/>
<path d="M139.557 129.637C139.506 129.594 139.353 129.761 139.01 129.885C138.536 130.059 138.013 130.04 137.552 129.834C136.399 129.324 135.517 127.391 135.583 125.378C135.62 124.419 135.869 123.481 136.312 122.629C136.439 122.287 136.647 121.981 136.917 121.736C137.187 121.491 137.512 121.315 137.865 121.222C138.093 121.176 138.329 121.212 138.533 121.322C138.736 121.433 138.895 121.612 138.981 121.827C139.112 122.148 139.025 122.367 139.083 122.389C139.141 122.41 139.338 122.214 139.273 121.747C139.231 121.465 139.091 121.207 138.879 121.018C138.587 120.766 138.206 120.64 137.822 120.667C137.358 120.729 136.917 120.909 136.543 121.19C136.169 121.471 135.873 121.844 135.685 122.272C135.152 123.212 134.856 124.269 134.824 125.349C134.759 127.603 135.78 129.776 137.369 130.337C137.663 130.444 137.977 130.483 138.288 130.45C138.599 130.417 138.898 130.314 139.163 130.148C139.521 129.9 139.594 129.659 139.557 129.637Z" fill="#EB996E"/>
<path d="M183.261 120.959C183.32 120.118 183.44 119.282 183.619 118.458C183.956 117.079 184.577 115.785 185.443 114.66C186.308 113.534 187.399 112.602 188.645 111.922C189.891 111.241 191.266 110.829 192.681 110.71C194.095 110.591 195.519 110.768 196.862 111.231C197.786 111.543 198.657 111.995 199.443 112.573C200.283 113.153 201.022 113.868 201.631 114.688C202.938 116.399 203.661 118.484 203.696 120.636C203.73 122.789 203.073 124.896 201.821 126.647C201.243 127.485 200.533 128.223 199.72 128.835C198.954 129.439 198.098 129.919 197.183 130.257C195.491 130.909 193.655 131.095 191.866 130.797C190.307 130.539 188.83 129.917 187.557 128.981C185.692 127.625 184.338 125.68 183.713 123.46C183.512 122.64 183.366 121.807 183.276 120.966C183.273 121.022 183.273 121.078 183.276 121.134C183.276 121.273 183.276 121.433 183.276 121.63C183.282 121.897 183.309 122.162 183.356 122.425C183.396 122.787 183.464 123.145 183.56 123.497C184.146 125.78 185.497 127.793 187.389 129.2C188.79 130.248 190.433 130.925 192.166 131.167C193.899 131.409 195.665 131.209 197.299 130.585C199.24 129.852 200.918 128.557 202.12 126.866C203.42 125.052 204.103 122.867 204.067 120.635C204.032 118.403 203.28 116.241 201.923 114.469C201.291 113.623 200.528 112.885 199.662 112.281C198.854 111.701 197.961 111.248 197.015 110.939C195.362 110.368 193.591 110.224 191.867 110.521C190.143 110.818 188.522 111.547 187.155 112.638C185.305 114.106 184.018 116.166 183.509 118.472C183.426 118.828 183.367 119.188 183.334 119.552C183.298 119.818 183.281 120.086 183.283 120.354C183.283 120.551 183.283 120.711 183.283 120.842C183.274 120.881 183.267 120.92 183.261 120.959Z" fill="#455A64"/>
<path d="M155.083 121.411C155.142 120.57 155.259 119.735 155.433 118.91C155.982 116.673 157.266 114.685 159.079 113.266C160.324 112.29 161.78 111.62 163.331 111.311C165.109 110.96 166.949 111.088 168.662 111.683C169.585 111.998 170.455 112.45 171.243 113.025C172.082 113.607 172.821 114.322 173.431 115.14C174.736 116.85 175.459 118.933 175.495 121.084C175.53 123.234 174.876 125.34 173.628 127.092C173.047 127.929 172.335 128.668 171.521 129.28C170.754 129.884 169.898 130.364 168.983 130.702C167.291 131.354 165.455 131.54 163.666 131.242C162.109 130.985 160.635 130.362 159.364 129.426C157.498 128.069 156.142 126.125 155.513 123.905C155.312 123.085 155.169 122.252 155.083 121.411C155.075 121.467 155.075 121.523 155.083 121.579C155.083 121.71 155.083 121.878 155.083 122.075C155.083 122.342 155.107 122.608 155.156 122.87C155.195 123.233 155.266 123.591 155.368 123.942C155.947 126.228 157.3 128.243 159.196 129.645C160.486 130.613 161.984 131.268 163.572 131.555C165.416 131.873 167.312 131.692 169.063 131.03C171.007 130.302 172.686 129.006 173.883 127.311C175.184 125.496 175.866 123.312 175.831 121.08C175.795 118.848 175.044 116.686 173.686 114.914C172.432 113.261 170.713 112.019 168.749 111.348C166.978 110.742 165.076 110.624 163.243 111.005C161.291 111.406 159.496 112.362 158.073 113.758C156.651 115.153 155.661 116.929 155.222 118.874C155.131 119.227 155.073 119.589 155.047 119.953C155.003 120.218 154.986 120.487 154.996 120.755V121.244C155.012 121.305 155.042 121.362 155.083 121.411Z" fill="#455A64"/>
<path d="M175.21 120.646C175.269 120.682 175.56 120.208 176.239 119.661C177.108 118.94 178.197 118.537 179.326 118.517C180.455 118.497 181.558 118.862 182.452 119.552C183.181 120.07 183.458 120.536 183.509 120.492C183.328 120.032 183.019 119.632 182.62 119.34C181.706 118.541 180.528 118.11 179.314 118.133C178.1 118.156 176.939 118.631 176.056 119.464C175.669 119.771 175.376 120.18 175.21 120.646Z" fill="#455A64"/>
<path d="M140.986 117.32C141.658 117.533 142.349 117.675 143.05 117.743C144.341 117.947 146.128 118.137 148.097 118.312L153.15 118.764C153.843 118.871 154.543 118.924 155.243 118.925C154.572 118.71 153.88 118.566 153.179 118.494C151.896 118.297 150.109 118.108 148.133 117.933L143.087 117.481C142.392 117.37 141.69 117.316 140.986 117.32Z" fill="#455A64"/>
<path d="M199.538 127.267C200.448 126.216 201.186 125.027 201.726 123.745C202.149 122.418 202.363 121.032 202.36 119.639C202.523 120.032 202.597 120.455 202.579 120.879C202.605 121.9 202.437 122.918 202.083 123.876C201.73 124.835 201.195 125.717 200.508 126.472C199.976 127.041 199.567 127.304 199.538 127.267Z" fill="white"/>
<path d="M201.303 115.745C201.361 115.658 201.777 115.869 202.032 116.365C202.287 116.861 202.178 117.313 202.076 117.306C201.974 117.298 201.886 116.926 201.69 116.525C201.493 116.124 201.237 115.825 201.303 115.745Z" fill="white"/>
<path d="M173.796 125.058C173.737 125.058 173.941 124.474 174.109 123.533C174.539 121.066 174.065 118.526 172.775 116.379C172.286 115.563 171.892 115.111 171.936 115.067C172.366 115.38 172.728 115.777 173.001 116.234C173.733 117.294 174.236 118.495 174.479 119.761C174.721 121.026 174.697 122.329 174.408 123.585C174.305 124.112 174.097 124.613 173.796 125.058Z" fill="white"/>
<path d="M135.029 133.918C135.029 133.918 134.875 134.137 134.657 134.538C134.343 135.108 134.177 135.747 134.175 136.397C134.164 136.869 134.25 137.338 134.428 137.775C134.606 138.211 134.873 138.607 135.211 138.935C135.619 139.341 136.117 139.644 136.664 139.82C137.212 139.996 137.793 140.04 138.361 139.949C138.925 139.833 139.455 139.587 139.908 139.232C140.361 138.876 140.725 138.42 140.972 137.9C141.171 137.472 141.281 137.009 141.295 136.537C141.309 136.066 141.226 135.596 141.052 135.158C140.822 134.551 140.447 134.01 139.958 133.583C139.608 133.284 139.375 133.16 139.39 133.13C139.63 133.192 139.855 133.307 140.046 133.466C140.602 133.87 141.036 134.421 141.3 135.056C141.511 135.526 141.621 136.035 141.621 136.551C141.621 137.066 141.511 137.576 141.3 138.046C141.049 138.632 140.657 139.146 140.158 139.543C139.659 139.94 139.069 140.207 138.442 140.32C137.814 140.432 137.169 140.388 136.563 140.189C135.957 139.991 135.41 139.645 134.97 139.183C134.607 138.819 134.325 138.381 134.142 137.9C133.96 137.419 133.882 136.904 133.913 136.39C133.938 135.704 134.153 135.037 134.533 134.465C134.788 134.064 135.029 133.903 135.029 133.918Z" fill="#E0E0E0"/>
<path d="M196.629 142.523C197.246 142.77 197.926 142.811 198.569 142.64C199.256 142.447 199.875 142.066 200.355 141.539C200.948 140.899 201.347 140.105 201.508 139.249C201.675 138.392 201.567 137.504 201.201 136.711C200.901 136.061 200.454 135.489 199.896 135.041C199.357 134.647 198.769 134.326 198.146 134.086C198.331 134.069 198.518 134.094 198.693 134.159C199.186 134.296 199.65 134.52 200.064 134.822C200.683 135.277 201.183 135.875 201.522 136.565C201.939 137.418 202.067 138.383 201.887 139.314C201.708 140.246 201.262 141.105 200.603 141.787C200.068 142.344 199.381 142.732 198.627 142.902C198.122 143.022 197.593 142.994 197.103 142.822C196.76 142.684 196.614 142.538 196.629 142.523Z" fill="#E0E0E0"/>
<path d="M156.177 287.324L166.992 290.525C166.992 290.525 172.957 293.085 175.86 293.748C179.462 294.572 181.92 293.457 182.051 291.451C182.182 289.446 179.382 289.191 179.382 289.191C177.002 288.284 174.687 287.214 172.454 285.989C170.832 284.863 169.507 283.362 168.589 281.614L172.454 282.146C172.454 282.146 180.585 287.98 183.648 289.745C186.711 291.51 187.382 288.41 187.644 287.477C187.907 286.543 178.587 277.085 178.587 277.085C178.587 277.085 187.513 282.817 189.11 284.246C190.707 285.676 193.114 286.142 193.646 285.216C194.178 284.29 195.644 284.283 193.646 280.33C191.648 276.378 175.655 265.745 175.655 265.745L180.031 264.812L184.829 266.948C185.163 268.595 185.845 270.151 186.828 271.513C188.556 274.08 191.626 271.513 191.626 271.513L189.723 261.669L180.242 255.732C180.242 255.732 170.383 256.936 168.917 257.599C167.451 258.263 165.847 261.056 165.847 261.056L163.185 262.135C159.05 263.331 159.189 267.466 157.854 267.597C156.52 267.729 117.621 260.144 117.621 260.144L114.099 259.226C108.265 263.652 105.939 270.967 104.911 277.457C104.911 277.457 103.839 280.636 104.911 282.387L156.177 287.324Z" fill="#FFBE9D"/>
<path d="M149.037 280.403C148.991 280.195 148.979 279.981 149.001 279.769C148.998 279.524 149.02 279.28 149.066 279.039C149.1 278.709 149.164 278.382 149.256 278.062C149.804 276.221 150.73 274.514 151.976 273.052C153.186 271.583 154.534 270.232 156.002 269.02C156.583 268.489 157.216 268.018 157.89 267.612C157.351 268.171 156.779 268.697 156.177 269.187C154.774 270.444 153.467 271.804 152.268 273.256C151.057 274.687 150.124 276.332 149.519 278.106C149.088 279.499 149.117 280.41 149.037 280.403Z" fill="#EB996E"/>
<path d="M165.883 261.056C165.883 261.056 165.562 261.224 165.066 261.625C164.375 262.209 163.777 262.895 163.294 263.659C162.945 264.176 162.647 264.726 162.405 265.3C162.18 265.976 162.038 266.676 161.982 267.386C161.881 268.211 161.586 269.001 161.121 269.69C160.593 270.358 160.159 271.094 159.83 271.878C159.331 273.204 159.331 274.666 159.83 275.991L159.881 276.13L159.757 276.21C158.067 277.302 156.842 278.984 156.323 280.928C156.143 281.695 156.034 282.476 155.994 283.262C155.935 283.058 155.911 282.846 155.921 282.635C155.914 282.043 155.977 281.453 156.111 280.877C156.576 278.834 157.815 277.052 159.568 275.904L159.495 276.122C158.967 274.712 158.967 273.158 159.495 271.747C159.831 270.94 160.283 270.185 160.837 269.508C161.28 268.855 161.56 268.104 161.653 267.32C161.741 265.93 162.25 264.6 163.112 263.506C163.627 262.731 164.273 262.052 165.023 261.501C165.224 261.349 165.445 261.224 165.679 261.129C165.744 261.096 165.812 261.072 165.883 261.056Z" fill="#EB996E"/>
<path d="M175.247 265.417C174.314 265.538 173.365 265.437 172.478 265.123C171.591 264.809 170.791 264.29 170.142 263.608C170.215 263.521 171.192 264.272 172.6 264.761C174.007 265.249 175.247 265.308 175.247 265.417Z" fill="#EB996E"/>
<path d="M177.741 276.188C176.333 275.793 174.963 275.271 173.65 274.627C172.285 274.103 170.968 273.464 169.712 272.717C171.117 273.123 172.485 273.645 173.803 274.277C175.168 274.801 176.485 275.441 177.741 276.188Z" fill="#EB996E"/>
<path d="M168.968 281.512C167.552 281.032 166.169 280.462 164.826 279.805C165.587 279.839 166.332 280.033 167.013 280.374C167.74 280.606 168.407 280.994 168.968 281.512Z" fill="#EB996E"/>
<path d="M176.399 276.881C175.771 277.218 175.219 277.679 174.776 278.237C174.334 278.795 174.01 279.438 173.825 280.126C173.774 280.126 173.73 279.871 173.825 279.462C173.928 278.927 174.158 278.425 174.496 277.997C174.833 277.57 175.268 277.229 175.765 277.005C176.122 276.852 176.385 276.837 176.399 276.881Z" fill="#EB996E"/>
<path d="M180.308 270.967C180.352 271.069 179.637 271.433 179.156 272.25C178.91 272.768 178.706 273.305 178.543 273.854C178.439 273.553 178.412 273.231 178.463 272.917C178.514 272.603 178.641 272.306 178.835 272.053C179.389 271.12 180.293 270.864 180.308 270.967Z" fill="#EB996E"/>
<path d="M179.207 260.254C179.17 260.254 179.024 260.086 178.915 259.736C178.784 259.259 178.784 258.755 178.915 258.278C179.042 257.806 179.294 257.378 179.644 257.038C179.907 256.783 180.125 256.695 180.147 256.732C179.8 257.241 179.518 257.792 179.309 258.372C179.2 258.993 179.166 259.625 179.207 260.254Z" fill="#EB996E"/>
<path d="M258.046 263.608C258.046 263.608 257.558 254.041 247.64 252.057C237.722 250.073 220.351 258.504 220.351 258.504L171.681 292.421L173.139 296.614L222.539 289.73L227.06 291.466L261.758 268.669L294.501 244.998L290.855 242.146C290.855 242.146 281.681 248.469 275.614 251.189C269.546 253.909 260.774 258.679 258.046 263.608Z" fill="#F5F5F5"/>
<path d="M170.93 298L212.118 272.41L255.662 265.417C255.662 265.417 257.849 268.582 261.547 267.809L297.353 243.014L298.031 244.509L228.592 293.296C227.572 293.669 226.47 293.756 225.404 293.548C224.339 293.339 223.351 292.844 222.546 292.115L170.93 298Z" fill="#455A64"/>
<path d="M255.662 265.417C255.563 265.524 255.45 265.617 255.326 265.694L254.32 266.423C253.445 267.051 252.183 267.962 250.674 269.114C247.582 271.411 243.381 274.686 238.845 278.398C234.309 282.11 230.233 285.559 227.316 288.075L223.837 291.065L222.889 291.867C222.787 291.969 222.671 292.057 222.546 292.13C222.546 292.13 222.634 292.013 222.838 291.816L223.735 290.955C224.523 290.226 225.668 289.161 227.111 287.885C229.985 285.318 234.018 281.847 238.575 278.121C243.133 274.394 247.326 271.156 250.484 268.91C252.045 267.78 253.335 266.905 254.24 266.314L255.283 265.643C255.402 265.556 255.529 265.481 255.662 265.417Z" fill="#263238"/>
<path d="M255.217 260.093C251.271 255.856 245.058 254.347 239.283 254.799C233.507 255.251 228.03 257.403 222.641 259.539L172.257 294.026L172.709 295.324L223.363 261.049C223.363 261.049 234.681 257.403 239.691 256.775C248.063 255.733 255.217 260.093 255.217 260.093Z" fill="#E0E0E0"/>
<path d="M263.122 264.629L287.347 248.287C287.347 248.287 267.497 258.613 263.122 264.629Z" fill="#E0E0E0"/>
<path d="M172.257 294.026C172.319 293.962 172.387 293.906 172.461 293.858L173.088 293.413L175.502 291.714L184.428 285.53L213.963 265.249L222.539 259.415C227.419 257.213 232.568 255.666 237.853 254.814C242.122 254.211 246.475 254.825 250.411 256.586C251.883 257.27 253.239 258.181 254.429 259.284C255.319 260.114 256.077 261.075 256.675 262.135C257.051 262.8 257.345 263.507 257.55 264.243C257.601 264.483 257.645 264.673 257.682 264.819C257.698 264.884 257.71 264.95 257.718 265.016C257.456 264.032 257.069 263.086 256.566 262.201C255.953 261.169 255.191 260.232 254.305 259.422C253.111 258.353 251.764 257.468 250.309 256.797C246.411 255.103 242.118 254.527 237.912 255.134C232.669 255.994 227.56 257.531 222.714 259.707H222.75L214.174 265.541L184.618 285.749L175.619 291.838L173.168 293.471L172.519 293.894C172.437 293.947 172.349 293.991 172.257 294.026Z" fill="#263238"/>
<path d="M216.362 267.955C216.477 267.86 216.605 267.781 216.742 267.721C216.997 267.583 217.376 267.371 217.865 267.123C218.849 266.613 220.286 265.898 222.094 265.082C226.784 262.883 231.76 261.359 236.876 260.553C242.019 259.777 247.274 260.257 252.191 261.953C253.668 262.486 255.088 263.168 256.427 263.988C256.909 264.265 257.252 264.535 257.492 264.717C257.62 264.795 257.739 264.886 257.85 264.987C257.85 264.987 257.317 264.68 256.355 264.134C254.998 263.372 253.575 262.735 252.103 262.23C247.209 260.625 242.006 260.188 236.913 260.954C231.833 261.757 226.883 263.228 222.189 265.329C220.373 266.117 218.922 266.788 217.916 267.262L216.763 267.794C216.635 267.861 216.501 267.915 216.362 267.955Z" fill="#263238"/>
<path d="M293.204 243.97C293.204 243.97 293.101 244.064 292.89 244.21L291.949 244.837L288.456 247.084C285.495 248.98 281.419 251.598 276.948 254.544C272.478 257.49 268.482 260.195 265.565 262.164L262.115 264.483L261.167 265.103C261.062 265.181 260.947 265.245 260.825 265.293C260.915 265.198 261.015 265.112 261.124 265.038L262.035 264.36C262.823 263.776 263.975 262.952 265.412 261.938C268.285 259.918 272.281 257.169 276.759 254.223C281.237 251.277 285.342 248.695 288.332 246.857C289.827 245.939 291.045 245.209 291.891 244.713L292.875 244.145C292.979 244.076 293.089 244.018 293.204 243.97Z" fill="#263238"/>
<path d="M271.166 270.194C270.671 271.384 270.042 272.514 269.292 273.563C268.358 274.671 265.31 276.217 265.069 278.325C264.829 280.432 265.324 285.377 262.028 289.14C259.903 291.48 257.215 293.238 254.218 294.244L241.215 292.975L220.446 284.801C219.982 284.683 219.583 284.388 219.334 283.979C219.086 283.569 219.009 283.079 219.119 282.613C219.248 282.106 219.525 281.65 219.914 281.301C220.304 280.953 220.789 280.729 221.307 280.658L221.803 280.578C221.803 280.578 220.607 279.601 222.32 277.887C223.779 276.429 226.893 277.253 228.497 277.785C230.101 278.317 239.509 282.248 241.193 282.853C242.688 283.386 243.841 283.86 243.841 283.86C243.841 283.86 231.801 275.736 231.633 274.671C231.436 273.395 231.567 272.812 232.8 271.922C234.258 270.864 236.65 271.995 238.969 272.972C240.698 273.701 251.717 279.141 251.717 279.141C251.717 279.141 252.212 278.66 251.717 277.683C251.221 276.706 247.56 271.995 246.984 271.12C246.408 270.245 246.254 269.749 246.831 269.012C247.633 267.969 249.748 267.473 251.695 269.253C252.927 270.39 257.31 273.337 257.31 273.337L277.539 258.577C277.539 258.577 280.055 258.511 279.18 262.019C278.305 265.526 271.166 270.194 271.166 270.194Z" fill="#FFBE9D"/>
<path d="M256.085 282.496C255.276 282.316 254.522 281.944 253.887 281.411C253.252 280.878 252.755 280.199 252.438 279.433C252.533 279.375 253.124 280.279 254.13 281.118C255.137 281.956 256.136 282.387 256.085 282.496Z" fill="#EB996E"/>
<path d="M257.747 273.694C257.747 273.65 258.017 273.57 258.476 273.628C259.049 273.712 259.589 273.951 260.035 274.32C260.481 274.689 260.818 275.174 261.007 275.721C261.145 276.144 261.124 276.451 261.072 276.451C260.767 275.77 260.331 275.155 259.789 274.642C259.176 274.196 258.483 273.874 257.747 273.694Z" fill="#EB996E"/>
<path d="M258.703 277.756C258.593 277.756 258.542 276.669 258.112 275.43C257.682 274.19 257.076 273.278 257.164 273.242C257.805 273.788 258.261 274.519 258.469 275.335C258.795 276.098 258.877 276.944 258.703 277.756Z" fill="#EB996E"/>
<path d="M270.669 269.143C270.669 269.18 270.414 269.034 270.152 268.684C269.819 268.219 269.611 267.677 269.547 267.109C269.483 266.541 269.566 265.966 269.787 265.439C269.962 265.045 270.159 264.848 270.195 264.877C269.936 265.576 269.843 266.326 269.925 267.067C270.008 267.808 270.263 268.519 270.669 269.143Z" fill="#EB996E"/>
<path d="M252.387 287.586C251.919 287.693 251.433 287.693 250.965 287.586C249.832 287.386 248.745 286.98 247.757 286.39C246.773 285.812 245.847 285.141 244.993 284.385C244.612 284.106 244.276 283.771 243.994 283.393C244.413 283.604 244.805 283.866 245.16 284.173C246.049 284.86 246.98 285.49 247.946 286.062C248.903 286.629 249.937 287.054 251.016 287.324C251.848 287.499 252.387 287.528 252.387 287.586Z" fill="#EB996E"/>
<path d="M255.771 285.501C255.873 285.501 255.88 286.23 255.268 286.835C254.655 287.44 253.911 287.411 253.926 287.309C253.941 287.207 254.502 287.061 254.998 286.58C255.494 286.099 255.662 285.486 255.771 285.501Z" fill="#EB996E"/>
<path d="M260.737 281.854C260.781 281.854 260.781 282.051 260.642 282.314C260.451 282.637 260.163 282.892 259.818 283.043C259.477 283.209 259.092 283.265 258.717 283.203C258.425 283.145 258.28 283.028 258.301 282.985C258.323 282.941 258.972 283.043 259.658 282.7C260.343 282.357 260.635 281.818 260.737 281.854Z" fill="#EB996E"/>
<path d="M243.22 290.131C243.184 290.226 238.349 288.213 232.427 285.625C226.506 283.036 221.736 280.855 221.809 280.768C221.882 280.68 226.688 282.693 232.61 285.282C238.531 287.871 243.264 290.037 243.22 290.131Z" fill="#EB996E"/>
<path d="M328.397 296.636C328.397 296.738 254.874 296.826 164.206 296.826C73.5379 296.826 0 296.738 0 296.636C0 296.534 73.5087 296.447 164.206 296.447C254.903 296.447 328.397 296.527 328.397 296.636Z" fill="#263238"/>
<path d="M9.39266 218.949L25.2175 296.636H162.572C163.3 296.636 163.997 296.347 164.511 295.833C165.025 295.319 165.314 294.621 165.314 293.894C165.315 293.534 165.245 293.176 165.108 292.843C164.97 292.509 164.768 292.206 164.514 291.951C164.259 291.695 163.956 291.493 163.623 291.354C163.29 291.216 162.933 291.145 162.572 291.145H134.919L120.246 218.869C120.111 218.194 119.746 217.587 119.215 217.15C118.683 216.713 118.017 216.473 117.329 216.469L12.368 215.346C11.9201 215.342 11.4769 215.437 11.0707 215.626C10.6645 215.815 10.3057 216.092 10.0205 216.437C9.73524 216.783 9.53084 217.188 9.42221 217.622C9.31359 218.057 9.30349 218.51 9.39266 218.949Z" fill="#E0E0E0"/>
<path d="M9.39268 218.949L9.34892 218.716C9.31924 218.473 9.31924 218.229 9.34892 217.986C9.40072 217.521 9.55933 217.075 9.81234 216.681C10.0654 216.288 10.4059 215.958 10.8074 215.718C11.0863 215.547 11.392 215.424 11.7117 215.354C12.0682 215.294 12.4299 215.273 12.791 215.288H15.2632L21.4472 215.339L61.1405 215.711L88.8083 215.996L104.312 216.149L112.436 216.236L116.593 216.28C116.95 216.28 117.278 216.28 117.658 216.28C118.028 216.322 118.388 216.428 118.722 216.594C119.395 216.922 119.929 217.481 120.225 218.169C120.361 218.509 120.459 218.864 120.516 219.226L120.728 220.269C120.866 220.998 121.012 221.669 121.158 222.369C121.44 223.774 121.727 225.189 122.019 226.613C122.597 229.458 123.183 232.338 123.776 235.255C124.962 241.089 126.178 247.052 127.422 253.144C129.894 265.322 132.476 277.989 135.123 291.065L134.941 290.919H162.135C162.493 290.906 162.852 290.928 163.207 290.985C163.937 291.141 164.579 291.572 165.001 292.188C165.428 292.802 165.603 293.556 165.489 294.295C165.423 294.743 165.253 295.169 164.994 295.54C164.734 295.911 164.392 296.216 163.994 296.432C163.594 296.646 163.15 296.765 162.696 296.782H89.7053H25.2175H25.1008V296.666C20.2585 272.782 16.3498 253.362 13.6005 239.9C12.2441 233.177 11.1939 227.941 10.4793 224.382C10.1292 222.603 9.86183 221.253 9.67709 220.335C9.49477 219.416 9.41455 218.949 9.41455 218.949C9.41455 218.949 9.52394 219.416 9.71355 220.32C9.90315 221.224 10.1949 222.595 10.5595 224.36C11.2887 227.919 12.3753 233.148 13.7609 239.871C16.5175 253.326 20.4919 272.739 25.3852 296.607L25.2393 296.49L89.7272 296.454H162.667C163.059 296.439 163.442 296.336 163.79 296.155C164.135 295.965 164.432 295.699 164.658 295.377C164.885 295.054 165.034 294.684 165.096 294.295C165.19 293.649 165.039 292.991 164.673 292.45C164.299 291.918 163.74 291.546 163.105 291.408C162.777 291.358 162.445 291.339 162.113 291.349H134.766V291.203C132.119 278.142 129.544 265.475 127.08 253.282C125.84 247.186 124.624 241.22 123.433 235.386L121.683 226.745C121.399 225.323 121.107 223.908 120.823 222.508C120.684 221.778 120.538 221.1 120.4 220.407L120.188 219.357C120.134 219.019 120.046 218.687 119.926 218.366C119.725 217.905 119.406 217.506 119.001 217.209C118.597 216.912 118.12 216.727 117.621 216.674C117.3 216.674 116.936 216.674 116.593 216.674L112.436 216.623L104.305 216.535L88.8083 216.353L61.1332 216.025L21.4399 215.536L15.2632 215.456L12.791 215.419C12.435 215.398 12.0777 215.417 11.7263 215.478C11.4129 215.542 11.1124 215.658 10.8366 215.821C10.4432 216.05 10.1074 216.367 9.85464 216.746C9.60191 217.125 9.43893 217.557 9.37809 218.008C9.34913 218.321 9.35402 218.637 9.39268 218.949Z" fill="#263238"/>
<path d="M68.1487 259.036C70.6539 259.036 72.6847 257.005 72.6847 254.5C72.6847 251.995 70.6539 249.964 68.1487 249.964C65.6436 249.964 63.6128 251.995 63.6128 254.5C63.6128 257.005 65.6436 259.036 68.1487 259.036Z" fill="white"/>
<path d="M9.52393 219.598C9.52393 219.598 9.68436 219.598 9.99794 219.598H16.7217L36.3604 219.693L101.155 220.145L110.525 220.225H112.83C113.223 220.21 113.616 220.235 114.004 220.298C114.597 220.419 115.146 220.701 115.589 221.115C116.031 221.528 116.351 222.055 116.513 222.639C116.688 223.368 116.812 224.097 116.965 224.827L120.312 241.702C122.434 252.458 124.352 262.121 125.956 270.281C127.561 278.441 128.873 284.99 129.734 289.548C130.172 291.816 130.507 293.581 130.74 294.791C130.85 295.382 130.937 295.841 130.996 296.162C131.054 296.483 131.069 296.629 131.069 296.629C131.069 296.629 131.025 296.476 130.959 296.17C130.894 295.863 130.791 295.397 130.667 294.806L129.588 289.606C128.669 285.048 127.342 278.478 125.694 270.361C124.046 262.245 122.121 252.546 119.969 241.796C118.897 236.422 117.782 230.777 116.6 224.929C116.447 224.2 116.316 223.47 116.155 222.741C115.963 222.048 115.521 221.451 114.916 221.064C114.615 220.871 114.281 220.738 113.931 220.67C113.565 220.61 113.193 220.588 112.823 220.604H110.525L101.155 220.531L36.3604 219.963L16.7217 219.744L11.3835 219.598H9.99065H9.52393Z" fill="#263238"/>
</svg>
