<svg width="530" height="502" viewBox="0 0 530 502" fill="none" xmlns="http://www.w3.org/2000/svg">
<path d="M369.738 79.5297H160.226V402.23H369.738V79.5297Z" fill="white"/>
<path d="M376.862 409.296H153.159V72.4754H376.862V409.296ZM167.35 395.164H362.73V86.6078H167.292L167.35 395.164Z" fill="#37474F"/>
<path d="M369.738 201.574H160.226V208.711H369.738V201.574Z" fill="#37474F"/>
<path d="M369.738 148.366H160.226V155.503H369.738V148.366Z" fill="#37474F"/>
<path d="M312.384 93.0498V203.682H318.861V93.0498H312.384Z" fill="#37474F"/>
<path d="M261.743 93.0498V203.682H268.22V93.0498H261.743Z" fill="#37474F"/>
<path d="M211.102 93.0498V203.682H217.579V93.0498H211.102Z" fill="#37474F"/>
<path d="M382.857 71.2858H147.106V97.1245H382.857V71.2858Z" fill="#37474F"/>
<path d="M382.857 71.2858H147.106V89.3046H382.857V71.2858Z" fill="#263238"/>
<path d="M391.772 58.3667H138.203V84.2053H391.772V58.3667Z" fill="#37474F"/>
<path d="M153.159 97.1363H48.4151V409.296H153.159V97.1363Z" fill="#DBDBDB"/>
<path d="M143.879 107.594H57.6953V113.341H143.879V107.594Z" fill="#C7C7C7"/>
<path d="M143.879 118.17H57.6953V123.917H143.879V118.17Z" fill="#C7C7C7"/>
<path d="M143.879 128.746H57.6953V134.493H143.879V128.746Z" fill="#C7C7C7"/>
<path d="M143.879 139.31H57.6953V145.057H143.879V139.31Z" fill="#C7C7C7"/>
<path d="M143.879 149.885H57.6953V155.633H143.879V149.885Z" fill="#C7C7C7"/>
<path d="M143.879 160.461H57.6953V166.208H143.879V160.461Z" fill="#C7C7C7"/>
<path d="M143.879 171.037H57.6953V176.784H143.879V171.037Z" fill="#C7C7C7"/>
<path d="M143.879 181.612H57.6953V187.36H143.879V181.612Z" fill="#C7C7C7"/>
<path d="M143.879 192.188H57.6953V197.935H143.879V192.188Z" fill="#C7C7C7"/>
<path d="M143.879 202.764H57.6953V208.511H143.879V202.764Z" fill="#C7C7C7"/>
<path d="M143.879 213.328H57.6953V219.075H143.879V213.328Z" fill="#C7C7C7"/>
<path d="M143.879 223.904H57.6953V229.651H143.879V223.904Z" fill="#C7C7C7"/>
<path d="M143.879 245.055H57.6953V250.802H143.879V245.055Z" fill="#C7C7C7"/>
<path d="M143.879 255.631H57.6953V261.378H143.879V255.631Z" fill="#C7C7C7"/>
<path d="M143.879 266.206H57.6953V271.953H143.879V266.206Z" fill="#C7C7C7"/>
<path d="M143.879 276.782H57.6953V282.529H143.879V276.782Z" fill="#C7C7C7"/>
<path d="M143.879 287.346H57.6953V293.093H143.879V287.346Z" fill="#C7C7C7"/>
<path d="M143.879 297.922H57.6953V303.669H143.879V297.922Z" fill="#C7C7C7"/>
<path d="M143.879 308.497H57.6953V314.245H143.879V308.497Z" fill="#C7C7C7"/>
<path d="M143.879 319.073H57.6953V324.82H143.879V319.073Z" fill="#C7C7C7"/>
<path d="M143.879 329.649H57.6953V335.396H143.879V329.649Z" fill="#C7C7C7"/>
<path d="M143.879 340.225H57.6953V345.972H143.879V340.225Z" fill="#C7C7C7"/>
<path d="M143.879 350.8H57.6953V356.547H143.879V350.8Z" fill="#C7C7C7"/>
<path d="M143.879 361.376H57.6953V367.123H143.879V361.376Z" fill="#C7C7C7"/>
<path d="M143.879 371.94H57.6953V377.687H143.879V371.94Z" fill="#C7C7C7"/>
<path d="M143.879 382.515H57.6953V388.263H143.879V382.515Z" fill="#C7C7C7"/>
<path d="M143.879 393.091H57.6953V398.838H143.879V393.091Z" fill="#C7C7C7"/>
<path d="M481.548 97.1363H376.804V409.296H481.548V97.1363Z" fill="#DBDBDB"/>
<path d="M472.268 107.594H386.084V113.341H472.268V107.594Z" fill="#C7C7C7"/>
<path d="M472.268 118.17H386.084V123.917H472.268V118.17Z" fill="#C7C7C7"/>
<path d="M472.268 128.746H386.084V134.493H472.268V128.746Z" fill="#C7C7C7"/>
<path d="M472.268 139.31H386.084V145.057H472.268V139.31Z" fill="#C7C7C7"/>
<path d="M472.268 149.885H386.084V155.633H472.268V149.885Z" fill="#C7C7C7"/>
<path d="M472.268 160.461H386.084V166.208H472.268V160.461Z" fill="#C7C7C7"/>
<path d="M472.268 171.037H386.084V176.784H472.268V171.037Z" fill="#C7C7C7"/>
<path d="M472.268 181.612H386.084V187.36H472.268V181.612Z" fill="#C7C7C7"/>
<path d="M472.268 192.188H386.084V197.935H472.268V192.188Z" fill="#C7C7C7"/>
<path d="M472.268 202.764H386.084V208.511H472.268V202.764Z" fill="#C7C7C7"/>
<path d="M472.268 213.328H386.084V219.075H472.268V213.328Z" fill="#C7C7C7"/>
<path d="M472.268 223.904H386.084V229.651H472.268V223.904Z" fill="#C7C7C7"/>
<path d="M472.268 245.055H386.084V250.802H472.268V245.055Z" fill="#C7C7C7"/>
<path d="M472.268 255.631H386.084V261.378H472.268V255.631Z" fill="#C7C7C7"/>
<path d="M472.268 266.206H386.084V271.953H472.268V266.206Z" fill="#C7C7C7"/>
<path d="M472.268 276.782H386.084V282.529H472.268V276.782Z" fill="#C7C7C7"/>
<path d="M472.268 287.346H386.084V293.093H472.268V287.346Z" fill="#C7C7C7"/>
<path d="M472.268 297.922H386.084V303.669H472.268V297.922Z" fill="#C7C7C7"/>
<path d="M472.268 308.497H386.084V314.245H472.268V308.497Z" fill="#C7C7C7"/>
<path d="M472.268 319.073H386.084V324.82H472.268V319.073Z" fill="#C7C7C7"/>
<path d="M472.268 329.649H386.084V335.396H472.268V329.649Z" fill="#C7C7C7"/>
<path d="M472.268 340.225H386.084V345.972H472.268V340.225Z" fill="#C7C7C7"/>
<path d="M472.268 350.8H386.084V356.547H472.268V350.8Z" fill="#C7C7C7"/>
<path d="M472.268 361.376H386.084V367.123H472.268V361.376Z" fill="#C7C7C7"/>
<path d="M472.268 371.94H386.084V377.687H472.268V371.94Z" fill="#C7C7C7"/>
<path d="M472.268 382.515H386.084V388.263H472.268V382.515Z" fill="#C7C7C7"/>
<path d="M472.268 393.091H386.084V398.838H472.268V393.091Z" fill="#C7C7C7"/>
<path d="M287.97 248.824C287.334 269.657 290.066 294.754 279.726 313.785C271.635 328.671 256.325 337.94 240.792 343.451C206.638 355.57 160.202 353.945 139.51 319.379C131.266 305.565 131.761 278.16 147.848 269.315C156.092 264.805 165.513 264.334 174.652 262.603C186.641 260.341 195.615 254.359 201.869 243.877C214.105 223.385 213.175 207.628 216.955 184.745C217.673 180.505 218.992 176.372 223.491 173.086C227.554 169.649 232.476 167.385 237.73 166.538C242.266 164.965 247.12 164.536 251.862 165.29C261.978 167.127 271.058 177.29 278.501 183.744C285.944 190.198 289.242 196.769 289.101 206.839C289.018 220.842 288.394 234.833 287.97 248.824Z" fill="#263238"/>
<path d="M289.796 258.811C289.16 239.661 288.135 220.571 287.24 201.445C287.24 201.327 287.063 201.315 287.063 201.445C287.334 217.203 287.405 232.948 287.888 248.706C288.359 264.145 289.902 279.986 289.065 295.425C287.087 330.061 250.449 341.438 221.159 337.504C219.829 337.328 219.699 339.471 221.053 339.6C246.868 342.25 278.407 335.761 288.359 308.238C293.764 293.176 290.325 274.486 289.796 258.811Z" fill="#263238"/>
<path d="M218.851 183.061C218.838 182.994 218.802 182.935 218.749 182.892C218.696 182.849 218.631 182.825 218.563 182.825C218.495 182.825 218.429 182.849 218.376 182.892C218.324 182.935 218.288 182.994 218.274 183.061C215.919 202.022 215.035 224.28 202.964 240.085C196.994 247.814 188.83 253.561 179.54 256.573C172.179 258.928 164.583 258.61 156.999 259.517C127.368 263.05 124.023 302.444 144.138 319.438C144.55 319.791 145.186 319.085 144.774 318.696C130.748 305.659 127.462 283.648 140.852 268.691C151.593 256.69 170.059 262.167 183.909 256.302C212.609 244.148 217.332 210.725 218.851 183.061Z" fill="#263238"/>
<path d="M221.901 263.886C191.128 295.083 152.417 360.716 159.625 374.013C167.669 388.84 210.525 345.1 210.36 342.545C210.23 340.613 225.317 300.748 236.752 271.753C248.188 242.758 229.521 256.125 221.901 263.886Z" fill="#F7A9A0"/>
<path d="M210.643 342.545C211.962 338.281 232.477 285.721 238.342 269.092C244.207 252.463 238.766 247.328 222.019 262.555C205.272 277.783 168.552 328.636 160.178 355.593C152.099 381.597 165.49 381.597 183.155 369.608C197.617 359.845 210.643 342.545 210.643 342.545Z" fill="#008282"/>
<path d="M240.544 260.118C240.544 260.424 240.485 260.73 240.438 261.06C240.339 261.202 240.207 261.318 240.053 261.398C239.899 261.478 239.728 261.52 239.555 261.519C239.363 261.519 239.175 261.465 239.011 261.365C238.848 261.265 238.714 261.122 238.626 260.952C238.538 260.782 238.499 260.59 238.512 260.399C238.525 260.207 238.59 260.023 238.701 259.866C238.812 259.71 238.963 259.586 239.139 259.51C239.315 259.433 239.509 259.406 239.699 259.432C239.889 259.458 240.068 259.536 240.218 259.657C240.367 259.777 240.48 259.937 240.544 260.118ZM205.626 282.117C205.415 282.115 205.208 282.175 205.032 282.291C204.856 282.406 204.719 282.572 204.637 282.766C204.555 282.96 204.533 283.174 204.574 283.381C204.614 283.587 204.715 283.777 204.864 283.926C205.013 284.075 205.203 284.176 205.41 284.217C205.617 284.257 205.831 284.235 206.025 284.154C206.219 284.072 206.384 283.934 206.5 283.758C206.616 283.582 206.676 283.376 206.674 283.165C206.674 282.887 206.563 282.62 206.367 282.424C206.17 282.227 205.904 282.117 205.626 282.117ZM222.584 282.117C222.374 282.117 222.169 282.179 221.994 282.296C221.82 282.413 221.684 282.58 221.604 282.774C221.524 282.968 221.504 283.182 221.546 283.388C221.588 283.594 221.69 283.783 221.839 283.93C221.989 284.078 222.179 284.178 222.385 284.218C222.591 284.257 222.805 284.235 222.998 284.153C223.192 284.071 223.356 283.933 223.471 283.757C223.586 283.581 223.647 283.375 223.644 283.165C223.644 283.026 223.617 282.889 223.563 282.761C223.51 282.633 223.432 282.517 223.333 282.42C223.235 282.322 223.118 282.245 222.989 282.193C222.861 282.141 222.723 282.115 222.584 282.117ZM214.105 271.247C213.895 271.247 213.689 271.309 213.515 271.426C213.34 271.543 213.205 271.709 213.125 271.904C213.045 272.098 213.025 272.312 213.066 272.518C213.108 272.724 213.21 272.913 213.36 273.06C213.509 273.208 213.699 273.308 213.906 273.348C214.112 273.387 214.325 273.365 214.519 273.283C214.712 273.2 214.877 273.063 214.992 272.887C215.107 272.711 215.167 272.505 215.165 272.295C215.165 272.156 215.137 272.019 215.084 271.891C215.031 271.763 214.952 271.647 214.854 271.55C214.755 271.452 214.638 271.375 214.51 271.323C214.381 271.271 214.244 271.245 214.105 271.247ZM231.076 271.247C230.865 271.244 230.658 271.305 230.482 271.42C230.306 271.536 230.169 271.701 230.087 271.896C230.005 272.09 229.983 272.304 230.024 272.511C230.064 272.717 230.165 272.907 230.314 273.056C230.463 273.205 230.653 273.306 230.86 273.347C231.067 273.387 231.281 273.365 231.475 273.284C231.669 273.202 231.834 273.064 231.95 272.888C232.066 272.712 232.126 272.506 232.124 272.295C232.124 272.017 232.013 271.75 231.817 271.554C231.62 271.357 231.354 271.247 231.076 271.247ZM188.679 304.811C188.468 304.809 188.261 304.869 188.085 304.985C187.909 305.1 187.772 305.266 187.69 305.46C187.608 305.654 187.586 305.868 187.627 306.075C187.667 306.282 187.768 306.472 187.917 306.62C188.066 306.769 188.256 306.871 188.463 306.911C188.67 306.952 188.884 306.93 189.078 306.848C189.272 306.766 189.437 306.629 189.553 306.453C189.669 306.276 189.729 306.07 189.727 305.859C189.727 305.721 189.699 305.583 189.646 305.455C189.592 305.327 189.514 305.211 189.416 305.114C189.317 305.016 189.2 304.939 189.072 304.887C188.943 304.836 188.805 304.81 188.667 304.811H188.679ZM205.637 304.811C205.427 304.809 205.22 304.869 205.044 304.985C204.868 305.1 204.73 305.266 204.649 305.46C204.567 305.654 204.545 305.868 204.586 306.075C204.626 306.282 204.727 306.472 204.876 306.62C205.025 306.769 205.215 306.871 205.422 306.911C205.628 306.952 205.843 306.93 206.037 306.848C206.231 306.766 206.396 306.629 206.512 306.453C206.627 306.276 206.688 306.07 206.686 305.859C206.686 305.721 206.658 305.583 206.605 305.455C206.551 305.327 206.473 305.211 206.374 305.114C206.276 305.016 206.159 304.939 206.03 304.887C205.902 304.836 205.764 304.81 205.626 304.811H205.637ZM222.596 304.811C222.386 304.811 222.181 304.874 222.006 304.991C221.832 305.108 221.696 305.274 221.616 305.468C221.536 305.663 221.516 305.876 221.558 306.082C221.599 306.288 221.702 306.477 221.851 306.625C222 306.772 222.19 306.872 222.397 306.912C222.603 306.952 222.817 306.929 223.01 306.847C223.203 306.765 223.368 306.627 223.483 306.451C223.598 306.275 223.658 306.069 223.656 305.859C223.656 305.72 223.628 305.581 223.574 305.453C223.52 305.324 223.441 305.207 223.341 305.11C223.241 305.012 223.123 304.935 222.993 304.884C222.863 304.833 222.724 304.808 222.584 304.811H222.596ZM197.158 293.941C196.947 293.939 196.741 293.999 196.565 294.115C196.389 294.23 196.251 294.396 196.169 294.59C196.088 294.784 196.066 294.998 196.106 295.205C196.147 295.411 196.248 295.601 196.397 295.75C196.546 295.899 196.736 296 196.942 296.041C197.149 296.081 197.363 296.06 197.557 295.978C197.751 295.896 197.917 295.758 198.032 295.582C198.148 295.406 198.208 295.2 198.206 294.989C198.206 294.85 198.179 294.713 198.125 294.585C198.072 294.457 197.994 294.341 197.895 294.244C197.796 294.146 197.679 294.069 197.551 294.017C197.422 293.965 197.285 293.939 197.146 293.941H197.158ZM214.117 293.941C213.907 293.941 213.701 294.003 213.527 294.12C213.352 294.237 213.216 294.404 213.136 294.598C213.057 294.792 213.036 295.006 213.078 295.212C213.12 295.418 213.222 295.607 213.372 295.755C213.521 295.902 213.711 296.002 213.917 296.042C214.124 296.081 214.337 296.059 214.531 295.977C214.724 295.895 214.889 295.757 215.004 295.581C215.119 295.405 215.179 295.199 215.177 294.989C215.177 294.849 215.149 294.711 215.095 294.583C215.041 294.454 214.961 294.337 214.861 294.24C214.762 294.142 214.643 294.065 214.513 294.014C214.383 293.963 214.245 293.938 214.105 293.941H214.117ZM188.667 327.482C188.456 327.479 188.25 327.54 188.074 327.655C187.897 327.771 187.76 327.936 187.678 328.131C187.596 328.325 187.574 328.539 187.615 328.746C187.655 328.952 187.757 329.142 187.906 329.291C188.055 329.44 188.244 329.541 188.451 329.582C188.658 329.622 188.872 329.6 189.066 329.519C189.26 329.437 189.426 329.299 189.541 329.123C189.657 328.947 189.717 328.741 189.715 328.53C189.715 328.252 189.605 327.985 189.408 327.789C189.211 327.592 188.945 327.482 188.667 327.482ZM205.626 327.482C205.415 327.479 205.208 327.54 205.032 327.655C204.856 327.771 204.719 327.936 204.637 328.131C204.555 328.325 204.533 328.539 204.574 328.746C204.614 328.952 204.715 329.142 204.864 329.291C205.013 329.44 205.203 329.541 205.41 329.582C205.617 329.622 205.831 329.6 206.025 329.519C206.219 329.437 206.384 329.299 206.5 329.123C206.616 328.947 206.676 328.741 206.674 328.53C206.674 328.252 206.563 327.985 206.367 327.789C206.17 327.592 205.904 327.482 205.626 327.482ZM180.187 316.635C179.977 316.635 179.772 316.698 179.597 316.815C179.423 316.932 179.287 317.098 179.207 317.292C179.127 317.487 179.107 317.7 179.149 317.906C179.191 318.112 179.293 318.301 179.442 318.449C179.592 318.597 179.782 318.697 179.988 318.736C180.194 318.776 180.408 318.753 180.601 318.671C180.795 318.589 180.959 318.451 181.074 318.275C181.189 318.1 181.25 317.893 181.247 317.683C181.247 317.545 181.22 317.407 181.166 317.279C181.113 317.152 181.035 317.035 180.936 316.938C180.838 316.841 180.721 316.764 180.592 316.712C180.464 316.66 180.326 316.634 180.187 316.635ZM197.158 316.635C196.947 316.633 196.741 316.693 196.565 316.809C196.389 316.924 196.251 317.09 196.169 317.284C196.088 317.478 196.066 317.692 196.106 317.899C196.147 318.106 196.248 318.296 196.397 318.445C196.546 318.593 196.736 318.695 196.942 318.735C197.149 318.776 197.363 318.754 197.557 318.672C197.751 318.59 197.917 318.453 198.032 318.277C198.148 318.1 198.208 317.894 198.206 317.683C198.206 317.545 198.179 317.407 198.125 317.279C198.072 317.152 197.994 317.035 197.895 316.938C197.796 316.841 197.679 316.764 197.551 316.712C197.422 316.66 197.285 316.634 197.146 316.635H197.158ZM214.117 316.635C213.907 316.635 213.701 316.698 213.527 316.815C213.352 316.932 213.216 317.098 213.136 317.292C213.057 317.487 213.036 317.7 213.078 317.906C213.12 318.112 213.222 318.301 213.372 318.449C213.521 318.597 213.711 318.697 213.917 318.736C214.124 318.776 214.337 318.753 214.531 318.671C214.724 318.589 214.889 318.451 215.004 318.275C215.119 318.1 215.179 317.893 215.177 317.683C215.177 317.544 215.149 317.405 215.095 317.277C215.041 317.148 214.961 317.031 214.861 316.934C214.762 316.836 214.643 316.759 214.513 316.708C214.383 316.657 214.245 316.632 214.105 316.635H214.117ZM171.72 350.2C171.513 350.202 171.311 350.265 171.141 350.382C170.97 350.498 170.837 350.663 170.76 350.855C170.682 351.046 170.663 351.257 170.705 351.459C170.747 351.662 170.847 351.847 170.995 351.993C171.142 352.138 171.328 352.237 171.531 352.276C171.734 352.316 171.944 352.295 172.135 352.215C172.326 352.135 172.489 352.001 172.604 351.829C172.718 351.657 172.78 351.454 172.78 351.248C172.78 351.107 172.752 350.968 172.697 350.838C172.642 350.709 172.561 350.592 172.46 350.494C172.359 350.396 172.239 350.319 172.108 350.269C171.977 350.218 171.837 350.195 171.696 350.2H171.72ZM188.69 350.2C188.483 350.2 188.28 350.261 188.108 350.376C187.936 350.491 187.801 350.655 187.722 350.847C187.643 351.038 187.622 351.249 187.662 351.452C187.703 351.655 187.803 351.842 187.949 351.989C188.096 352.135 188.283 352.235 188.486 352.276C188.689 352.316 188.9 352.295 189.091 352.216C189.283 352.137 189.447 352.002 189.562 351.83C189.677 351.658 189.738 351.455 189.738 351.248C189.739 351.108 189.711 350.97 189.657 350.841C189.602 350.712 189.523 350.596 189.423 350.498C189.323 350.4 189.205 350.324 189.075 350.272C188.945 350.221 188.806 350.196 188.667 350.2H188.69ZM180.187 339.329C179.977 339.329 179.772 339.392 179.597 339.509C179.423 339.626 179.287 339.792 179.207 339.986C179.127 340.181 179.107 340.395 179.149 340.6C179.191 340.806 179.293 340.995 179.442 341.143C179.592 341.291 179.782 341.391 179.988 341.43C180.194 341.47 180.408 341.447 180.601 341.365C180.795 341.283 180.959 341.145 181.074 340.97C181.189 340.794 181.25 340.588 181.247 340.378C181.247 340.239 181.22 340.102 181.166 339.974C181.113 339.846 181.035 339.73 180.936 339.632C180.838 339.535 180.721 339.458 180.592 339.406C180.464 339.354 180.326 339.328 180.187 339.329ZM197.158 339.329C196.947 339.327 196.741 339.388 196.565 339.503C196.389 339.619 196.251 339.784 196.169 339.978C196.088 340.172 196.066 340.386 196.106 340.593C196.147 340.8 196.248 340.99 196.397 341.139C196.546 341.288 196.736 341.389 196.942 341.429C197.149 341.47 197.363 341.448 197.557 341.366C197.751 341.285 197.917 341.147 198.032 340.971C198.148 340.795 198.208 340.588 198.206 340.378C198.206 340.239 198.179 340.102 198.125 339.974C198.072 339.846 197.994 339.73 197.895 339.632C197.796 339.535 197.679 339.458 197.551 339.406C197.422 339.354 197.285 339.328 197.146 339.329H197.158ZM171.708 372.894C171.501 372.896 171.3 372.959 171.129 373.076C170.958 373.193 170.826 373.357 170.748 373.549C170.671 373.741 170.651 373.951 170.693 374.153C170.735 374.356 170.836 374.542 170.983 374.687C171.13 374.832 171.317 374.931 171.52 374.971C171.723 375.01 171.933 374.989 172.124 374.909C172.314 374.829 172.477 374.695 172.592 374.523C172.707 374.351 172.768 374.149 172.768 373.942C172.768 373.802 172.74 373.664 172.686 373.535C172.632 373.407 172.552 373.29 172.453 373.192C172.353 373.095 172.234 373.018 172.105 372.967C171.975 372.915 171.836 372.891 171.696 372.894H171.708ZM163.229 362.024C163.018 362.021 162.811 362.082 162.635 362.197C162.459 362.313 162.322 362.478 162.24 362.672C162.158 362.867 162.136 363.081 162.177 363.287C162.217 363.494 162.318 363.684 162.467 363.833C162.616 363.982 162.806 364.083 163.013 364.124C163.22 364.164 163.434 364.142 163.628 364.06C163.822 363.979 163.987 363.841 164.103 363.665C164.219 363.489 164.279 363.282 164.277 363.072C164.277 362.933 164.249 362.796 164.196 362.668C164.142 362.54 164.064 362.424 163.966 362.326C163.867 362.229 163.75 362.152 163.622 362.1C163.493 362.048 163.355 362.022 163.217 362.024H163.229ZM180.187 362.024C179.977 362.024 179.772 362.086 179.597 362.203C179.423 362.32 179.287 362.486 179.207 362.681C179.127 362.875 179.107 363.089 179.149 363.295C179.191 363.501 179.293 363.689 179.442 363.837C179.592 363.985 179.782 364.085 179.988 364.124C180.194 364.164 180.408 364.141 180.601 364.059C180.795 363.977 180.959 363.84 181.074 363.664C181.189 363.488 181.25 363.282 181.247 363.072C181.247 362.933 181.22 362.796 181.166 362.668C181.113 362.54 181.035 362.424 180.936 362.326C180.838 362.229 180.721 362.152 180.592 362.1C180.464 362.048 180.326 362.022 180.187 362.024Z" fill="white"/>
<path d="M198.477 390.3L201.551 371.869L205.967 339.165C205.967 339.165 195.568 321.005 201.598 307.979C204.648 301.372 231.37 260.353 242.605 252.109C253.205 244.443 268.515 252.651 274.191 258.646C296.167 281.776 306.531 327.706 314.421 390.265L198.477 390.3Z" fill="#F7A9A0"/>
<path d="M202.328 366.087L205.967 339.176C205.967 339.176 195.568 321.016 201.598 307.979C204.648 301.372 231.37 260.353 242.605 252.109C253.205 244.454 268.515 252.651 274.191 258.657C293.223 278.678 303.551 315.823 311.1 366.051L202.328 366.087Z" fill="#008282"/>
<path d="M247.434 338.623C242.303 338.173 237.146 338.106 232.006 338.423C229.462 338.611 226.93 338.917 224.398 339.282C223.138 339.459 221.878 339.6 220.606 339.73C219.284 339.895 217.947 339.895 216.625 339.73C216.611 339.724 216.596 339.723 216.581 339.725C216.566 339.727 216.551 339.732 216.539 339.741C216.526 339.749 216.516 339.761 216.509 339.774C216.502 339.788 216.498 339.803 216.498 339.818C216.498 339.833 216.502 339.848 216.509 339.862C216.516 339.875 216.526 339.887 216.539 339.895C216.551 339.904 216.566 339.91 216.581 339.912C216.596 339.913 216.611 339.912 216.625 339.906C217.855 340.19 219.102 340.39 220.359 340.507C221.578 340.589 222.802 340.589 224.021 340.507C226.612 340.342 229.191 340.048 231.782 339.859C236.999 339.459 242.217 339.07 247.457 339.047C247.514 339.044 247.566 339.018 247.604 338.976C247.641 338.934 247.661 338.879 247.658 338.823C247.654 338.767 247.629 338.714 247.587 338.676C247.545 338.639 247.49 338.62 247.434 338.623Z" fill="#263238"/>
<path d="M259.093 345.312C255.012 344.135 250.868 343.192 246.68 342.486C244.584 342.132 242.487 341.92 240.368 341.744C239.355 341.661 238.342 341.602 237.329 341.555C236.316 341.508 235.092 341.555 233.973 341.555C233.855 341.555 233.82 341.72 233.973 341.732C235.021 341.838 236.057 342.109 237.094 342.274L240.226 342.745C242.323 343.063 244.419 343.404 246.515 343.71C250.708 344.311 254.889 344.947 259.058 345.689C259.281 345.701 259.329 345.371 259.093 345.312Z" fill="#263238"/>
<path d="M201.551 371.869C202.14 366.405 202.728 360.928 203.423 355.476C204.118 350.023 204.719 344.547 205.449 339.094L205.555 339.483C203.991 337.257 202.706 334.848 201.727 332.31C200.724 329.794 199.997 327.176 199.56 324.502C199.137 321.819 199.018 319.097 199.207 316.388C199.513 313.683 200.186 311.032 201.209 308.509C203.245 303.557 205.774 298.822 208.758 294.377C211.671 289.896 214.848 285.594 218.274 281.493C215.106 285.78 212.138 290.219 209.359 294.754C206.557 299.244 204.157 303.973 202.187 308.886C201.218 311.32 200.592 313.876 200.326 316.482C200.179 319.099 200.309 321.724 200.715 324.314C201.114 326.913 201.798 329.46 202.752 331.91C203.671 334.366 204.89 336.7 206.379 338.858L206.497 339.035V339.235C205.767 344.688 204.907 350.117 204.142 355.57C203.376 361.023 202.434 366.44 201.551 371.869Z" fill="#263238"/>
<path d="M209.359 294.353C209.421 293.62 209.567 292.897 209.795 292.198C210.01 291.501 210.265 290.816 210.56 290.149C210.855 289.489 211.161 288.83 211.514 288.194C211.866 287.553 212.259 286.935 212.692 286.345C212.244 287.746 211.667 289.065 211.102 290.384C210.537 291.703 209.912 292.999 209.359 294.353Z" fill="#263238"/>
<path d="M113.93 482.431H416.033L427.292 425.808H102.672L113.93 482.431Z" fill="#008282"/>
<path opacity="0.12" d="M102.683 425.808L106.711 446.052H423.252L427.28 425.808H102.683Z" fill="black"/>
<path d="M97.0186 439.104L432.944 439.104V421.874L97.0186 421.874V439.104Z" fill="#008282"/>
<path d="M429.141 416.433C428.115 417.439 426.817 418.123 425.407 418.4C426.088 420.113 426.227 421.993 425.806 423.787C425.385 425.581 424.424 427.203 423.052 428.434C423.449 429.328 423.58 430.317 423.428 431.283C423.277 432.249 422.849 433.151 422.198 433.88C421.546 434.609 420.697 435.134 419.754 435.392C418.811 435.65 417.813 435.631 416.881 435.335C416.051 436.899 414.902 438.272 413.509 439.364C412.116 440.457 410.509 441.246 408.793 441.68C407.076 442.114 405.288 442.183 403.543 441.883C401.798 441.584 400.135 440.922 398.662 439.94C397.882 441.331 396.771 442.508 395.427 443.367C394.083 444.226 392.548 444.74 390.958 444.863C389.368 444.987 387.772 444.716 386.311 444.075C384.851 443.434 383.572 442.442 382.586 441.188C379.54 443.399 375.79 444.417 372.045 444.05C368.3 443.684 364.818 441.957 362.259 439.198C360.845 440.5 359.057 441.324 357.148 441.553C354.793 441.954 352.319 441.683 350.011 442.237C346.737 443.026 344.77 445.381 342.238 447.348C339.706 449.314 335.172 450.056 332.734 448.054C330.094 452.734 326.346 456.694 321.818 459.587C317.29 462.48 312.122 464.218 306.766 464.648C297.568 465.355 286.109 460.962 283.931 451.54C281.606 453.547 278.835 454.969 275.849 455.687C272.863 456.405 269.748 456.399 266.766 455.668C263.783 454.937 261.018 453.503 258.702 451.487C256.386 449.47 254.586 446.928 253.452 444.074C246.233 447.089 236.882 449.103 232.253 442.142C230.31 444.387 227.607 445.835 224.662 446.208C221.717 446.582 218.738 445.856 216.296 444.168C208.947 451.953 195.768 461.351 187.077 451.057C179.634 457.735 167.209 462.14 160.803 452.235C154.573 455.898 146.67 459.195 139.816 455.592C135.294 453.236 132.373 448.408 133.115 443.473C131.361 443.803 129.549 443.61 127.903 442.919C126.258 442.228 124.851 441.07 123.858 439.587C120.914 440.988 119.242 437.914 116.922 435.948C112.458 432.12 106.558 434.911 101.906 431.637C94.3688 426.349 100.846 417.894 106.888 415.15C106.612 413.241 106.813 411.294 107.473 409.482C108.134 407.67 109.233 406.05 110.672 404.766C112.112 403.483 113.847 402.577 115.723 402.128C117.598 401.679 119.556 401.702 121.42 402.195C120.982 399.223 121.457 396.188 122.782 393.492C124.107 390.796 126.219 388.566 128.84 387.097C136.872 382.574 146.199 386.52 152.088 392.667C154.996 388.248 159.013 384.668 163.737 382.285C168.461 379.902 173.727 378.8 179.01 379.089C185.581 379.442 194.32 383.305 197.5 389.429C199.665 388.184 202.002 387.268 204.436 386.708C209.019 385.635 213.809 385.848 218.279 387.323C222.749 388.799 226.725 391.479 229.768 395.07C233.661 393.632 237.873 393.287 241.948 394.071C246.023 394.856 249.806 396.741 252.887 399.522C254.781 396.89 257.296 394.768 260.209 393.344C263.122 391.92 266.342 391.239 269.582 391.362C272.822 391.484 275.982 392.406 278.779 394.045C281.576 395.685 283.925 397.991 285.615 400.758C288.704 397.157 292.575 394.309 296.932 392.431C301.29 390.554 306.018 389.696 310.757 389.923C315.497 390.15 320.121 391.456 324.279 393.742C328.437 396.028 332.017 399.233 334.748 403.114C340.519 392.903 352.155 392.314 363.307 393.562C366.84 393.939 369.196 393.916 372.399 392.444C373.577 391.914 374.59 391.148 375.756 390.642C378.187 389.558 380.782 388.889 383.434 388.663C388.772 388.193 394.128 389.342 398.803 391.961C400.864 393.138 402.972 396.106 404.951 396.919C407.436 397.932 412.017 396.483 414.879 396.86C420.013 397.555 425.478 399.969 428.811 404.103C431.649 407.754 432.827 412.983 429.141 416.433Z" fill="#455A64"/>
<path d="M137.555 411.64C139.91 406.753 137.555 398.014 131.395 395.506C125.236 392.997 116.851 397.755 115.485 403.137C114.119 408.519 120.007 417.517 124.836 418.164C130.23 418.847 135.812 415.232 137.555 411.64Z" fill="#008282"/>
<path opacity="0.12" d="M112.906 404.432C117.275 408.178 124.53 411.499 130.465 411.251C128.144 414.116 125.505 416.708 122.598 418.977C122.433 419.118 122.598 419.425 122.822 419.295C129.629 414.761 136.33 406.564 136.625 398.096C136.625 397.979 136.471 397.979 136.46 398.096C136.171 400.47 135.499 402.781 134.469 404.939C132.114 399.875 125.448 396.071 120.337 394.87C120.304 394.859 120.268 394.861 120.238 394.877C120.207 394.892 120.183 394.919 120.172 394.952C120.161 394.985 120.164 395.021 120.179 395.052C120.195 395.082 120.222 395.106 120.255 395.117C121.819 395.75 123.348 396.465 124.836 397.26C122.009 399.757 119.878 404.621 120.514 408.354C117.935 407.202 115.487 405.777 113.212 404.103C113.059 403.926 112.706 404.268 112.906 404.432ZM130.724 410.957C128.28 410.788 125.868 410.297 123.552 409.497C127.051 409.696 130.523 408.781 133.468 406.882C132.651 408.303 131.734 409.665 130.724 410.957ZM134.257 405.328C134.069 405.716 133.869 406.093 133.657 406.505C131.357 407.673 128.869 408.426 126.308 408.731C128.741 407.203 130.638 404.956 131.737 402.301C132.667 403.232 133.51 404.245 134.257 405.328ZM131.596 402.124C130.659 403.779 129.524 405.313 128.216 406.694C127.733 406.588 127.262 406.446 126.791 406.293C127.551 405.724 128.163 404.978 128.573 404.121C128.983 403.264 129.18 402.32 129.146 401.37C129.806 401.453 130.477 401.571 131.16 401.712L131.596 402.124ZM126.579 401.229C126.794 401.573 126.968 401.94 127.097 402.324C127.205 402.799 127.248 403.286 127.227 403.773C126.442 403.885 125.644 403.853 124.871 403.679C125.05 402.865 125.323 402.075 125.684 401.323C126.014 401.253 126.284 401.241 126.579 401.229ZM127.015 401.229C127.672 401.228 128.329 401.267 128.981 401.347C128.81 402.133 128.558 402.898 128.228 403.632L127.321 403.761C127.461 403.343 127.506 402.899 127.454 402.461C127.401 402.023 127.251 401.602 127.015 401.229ZM128.086 403.903C127.646 404.745 127.056 405.499 126.343 406.128C125.914 405.958 125.493 405.765 125.083 405.551C124.866 405.039 124.781 404.48 124.836 403.926C125.345 404.163 125.902 404.284 126.464 404.28C127.026 404.276 127.58 404.147 128.086 403.903ZM125.024 397.343C127.035 398.424 128.916 399.732 130.63 401.241C127.964 400.359 125.062 400.527 122.516 401.712C123.146 400.147 123.99 398.676 125.024 397.343ZM122.374 402.054C123.369 401.676 124.405 401.419 125.46 401.288C125.002 401.819 124.681 402.454 124.527 403.138C124.373 403.822 124.39 404.534 124.577 405.21C123.598 404.637 122.729 403.896 122.009 403.019C122.127 402.713 122.257 402.395 122.374 402.077V402.054ZM121.833 403.537C122.592 404.475 123.531 405.25 124.595 405.819C125.659 406.387 126.826 406.737 128.027 406.847C127.344 407.544 126.599 408.179 125.802 408.743C124.765 408.884 123.693 408.978 122.563 409.084C121.986 408.861 121.385 408.637 120.832 408.39C121.011 406.752 121.346 405.135 121.833 403.561V403.537Z" fill="black"/>
<path d="M240.474 409.815C242.829 404.915 240.474 396.189 234.314 393.668C228.155 391.148 219.758 395.929 218.392 401.3C217.026 406.67 222.926 415.691 227.813 416.315C233.184 416.987 238.731 413.454 240.474 409.815Z" fill="#008282"/>
<path opacity="0.12" d="M215.824 402.607C220.194 406.34 227.437 409.673 233.384 409.426C231.063 412.291 228.423 414.883 225.517 417.152C225.352 417.293 225.517 417.587 225.741 417.47C232.548 412.935 239.249 404.727 239.543 396.271C239.543 396.249 239.535 396.228 239.519 396.213C239.504 396.197 239.483 396.189 239.461 396.189C239.439 396.189 239.418 396.197 239.403 396.213C239.387 396.228 239.378 396.249 239.378 396.271C239.088 398.644 238.416 400.955 237.388 403.113C235.033 398.049 228.367 394.245 223.256 393.044C223.223 393.033 223.187 393.036 223.156 393.051C223.125 393.067 223.102 393.094 223.091 393.127C223.08 393.159 223.082 393.195 223.098 393.226C223.113 393.257 223.141 393.281 223.173 393.291C224.738 393.922 226.268 394.637 227.755 395.435C224.928 397.932 222.796 402.784 223.432 406.517C220.852 405.374 218.403 403.952 216.131 402.277C215.919 402.101 215.624 402.43 215.824 402.607ZM233.619 409.131C231.174 408.959 228.763 408.464 226.447 407.659C229.944 407.872 233.416 406.956 236.352 405.045C235.545 406.474 234.632 407.84 233.619 409.131ZM237.153 403.502C236.964 403.891 236.764 404.268 236.552 404.68C234.252 405.847 231.764 406.601 229.203 406.906C231.636 405.377 233.533 403.13 234.632 400.475C235.576 401.4 236.428 402.414 237.176 403.502H237.153ZM234.479 400.287C233.554 401.95 232.422 403.489 231.111 404.868C230.628 404.76 230.152 404.622 229.686 404.456C230.447 403.886 231.058 403.141 231.468 402.284C231.879 401.427 232.075 400.483 232.041 399.533C232.701 399.612 233.372 399.73 234.055 399.887L234.479 400.287ZM229.474 399.404C229.684 399.75 229.858 400.117 229.992 400.499C230.1 400.974 230.144 401.461 230.122 401.948C229.337 402.055 228.539 402.019 227.766 401.842C227.949 401.029 228.222 400.239 228.579 399.486C228.909 399.427 229.203 399.404 229.498 399.404H229.474ZM229.91 399.404C230.567 399.408 231.223 399.447 231.876 399.522C231.709 400.31 231.452 401.076 231.111 401.806C230.817 401.806 230.51 401.912 230.216 401.948C230.361 401.527 230.411 401.08 230.362 400.638C230.313 400.196 230.167 399.77 229.933 399.392L229.91 399.404ZM230.981 402.089C230.539 402.929 229.948 403.683 229.238 404.315C228.809 404.144 228.388 403.952 227.978 403.738C227.762 403.225 227.677 402.666 227.731 402.112C228.245 402.351 228.805 402.472 229.372 402.466C229.939 402.46 230.497 402.327 231.005 402.077L230.981 402.089ZM227.919 395.529C229.93 396.607 231.811 397.911 233.525 399.415C230.858 398.537 227.955 398.71 225.411 399.898C226.047 398.327 226.899 396.853 227.943 395.517L227.919 395.529ZM225.27 400.24C226.262 399.857 227.299 399.6 228.355 399.474C227.897 400.005 227.576 400.641 227.422 401.325C227.268 402.009 227.285 402.72 227.472 403.396C226.504 402.823 225.646 402.081 224.94 401.206L225.27 400.24ZM224.728 401.724C225.489 402.659 226.429 403.433 227.492 404.002C228.556 404.57 229.722 404.92 230.923 405.033C230.236 405.727 229.491 406.361 228.697 406.929C227.66 407.059 226.589 407.165 225.458 407.259H225.399C224.822 407.047 224.221 406.823 223.668 406.576C223.872 404.931 224.235 403.31 224.751 401.736L224.728 401.724Z" fill="black"/>
<path d="M319.002 432.014C324.326 430.836 329.755 423.641 327.976 417.257C326.198 410.874 317.271 407.141 312.183 409.355C307.096 411.569 303.598 421.756 306.071 425.972C308.827 430.648 315.104 432.838 319.002 432.014Z" fill="#008282"/>
<path opacity="0.12" d="M309.581 408.13C309.31 413.866 311.135 421.627 314.963 426.173C311.28 426.093 307.618 425.599 304.046 424.7C303.822 424.7 303.716 425.007 303.928 425.077C311.677 427.668 322.265 427.927 329.154 422.969C329.165 422.953 329.17 422.934 329.169 422.915C329.168 422.896 329.162 422.877 329.15 422.862C329.139 422.846 329.123 422.835 329.105 422.829C329.086 422.823 329.067 422.822 329.048 422.828C326.996 424.058 324.756 424.945 322.418 425.454C325.009 420.52 323.89 412.888 321.711 408.119C321.7 408.086 321.677 408.059 321.646 408.043C321.615 408.028 321.579 408.025 321.546 408.036C321.513 408.047 321.486 408.071 321.471 408.101C321.455 408.132 321.453 408.168 321.464 408.201C321.947 409.823 322.34 411.47 322.641 413.136C318.932 412.429 313.797 413.736 311.23 416.527C310.541 413.786 310.146 410.979 310.052 408.154C310.04 407.883 309.593 407.859 309.581 408.13ZM315.34 426.184C313.979 424.148 312.89 421.943 312.101 419.625C314.081 422.513 316.932 424.692 320.239 425.843C318.616 426.075 316.979 426.189 315.34 426.184ZM321.97 425.537C321.546 425.631 321.122 425.702 320.698 425.76C318.364 424.663 316.242 423.16 314.433 421.32C317.131 422.307 320.07 422.43 322.842 421.674C322.672 422.986 322.381 424.279 321.97 425.537ZM322.865 421.462C320.986 421.744 319.079 421.792 317.189 421.603C316.975 421.156 316.79 420.696 316.635 420.225C317.552 420.473 318.514 420.495 319.441 420.29C320.368 420.084 321.232 419.658 321.958 419.048C322.304 419.629 322.622 420.229 322.912 420.849C322.901 421.061 322.889 421.262 322.865 421.462ZM320.51 416.951C320.366 417.332 320.18 417.695 319.956 418.035C319.659 418.42 319.301 418.754 318.896 419.024C318.331 418.477 317.872 417.83 317.542 417.116C318.293 416.753 319.084 416.476 319.897 416.292L320.51 416.951ZM320.781 417.305C321.183 417.819 321.553 418.358 321.888 418.918C321.168 419.276 320.409 419.549 319.627 419.731L318.955 419.095C319.372 418.95 319.751 418.715 320.065 418.405C320.379 418.095 320.619 417.719 320.769 417.305H320.781ZM319.332 419.789C318.394 419.966 317.432 419.966 316.494 419.789C316.363 419.349 316.261 418.901 316.188 418.447C316.469 417.957 316.876 417.551 317.365 417.269C317.485 417.808 317.722 418.313 318.06 418.749C318.398 419.184 318.829 419.54 319.32 419.789H319.332ZM322.63 413.347C323.006 415.596 323.124 417.879 322.983 420.155C322.049 417.51 320.135 415.326 317.636 414.054C319.256 413.587 320.933 413.35 322.618 413.347H322.63ZM317.259 414.16C318.173 414.706 319.012 415.367 319.756 416.127C319.056 416.089 318.357 416.225 317.722 416.523C317.087 416.821 316.536 417.272 316.117 417.835C315.971 416.707 316.027 415.562 316.282 414.455L317.259 414.16ZM315.764 414.643C315.487 415.817 315.449 417.035 315.651 418.225C315.853 419.414 316.292 420.551 316.941 421.568C315.971 421.455 315.013 421.254 314.08 420.967C313.338 420.225 312.596 419.448 311.83 418.612C311.642 418.011 311.477 417.434 311.312 416.822C312.718 415.951 314.205 415.217 315.752 414.631L315.764 414.643Z" fill="black"/>
<path d="M400.275 419.036C394.964 417.858 389.523 410.662 391.301 404.279C393.079 397.896 402.006 394.163 407.094 396.389C412.182 398.615 415.679 408.778 413.206 412.994C410.462 417.67 404.173 419.86 400.275 419.036Z" fill="#008282"/>
<path opacity="0.12" d="M409.237 395.176C409.138 398 408.743 400.807 408.06 403.549C405.504 400.758 400.358 399.463 396.648 400.157C396.951 398.492 397.344 396.845 397.825 395.223C397.831 395.207 397.833 395.189 397.832 395.172C397.831 395.155 397.826 395.139 397.818 395.123C397.811 395.108 397.8 395.094 397.787 395.083C397.774 395.072 397.759 395.063 397.743 395.058C397.727 395.053 397.71 395.05 397.693 395.052C397.676 395.053 397.659 395.057 397.644 395.065C397.628 395.073 397.615 395.083 397.603 395.096C397.592 395.109 397.584 395.124 397.578 395.14C395.399 399.91 394.292 407.542 396.872 412.476C394.533 411.967 392.294 411.08 390.241 409.85C390.232 409.844 390.221 409.839 390.211 409.837C390.2 409.835 390.188 409.835 390.177 409.837C390.166 409.839 390.156 409.844 390.147 409.85C390.138 409.856 390.13 409.864 390.123 409.873C390.117 409.883 390.113 409.893 390.111 409.904C390.109 409.915 390.109 409.926 390.111 409.937C390.113 409.948 390.117 409.959 390.123 409.968C390.13 409.977 390.138 409.985 390.147 409.991C397.025 414.961 407.612 414.702 415.373 412.099C415.573 412.029 415.467 411.675 415.255 411.734C411.677 412.62 408.012 413.114 404.326 413.206C408.154 408.649 409.991 400.888 409.708 395.152C409.685 394.881 409.237 394.905 409.237 395.176ZM399.039 412.841C402.345 411.69 405.197 409.511 407.176 406.623C406.392 408.943 405.303 411.149 403.938 413.183C402.299 413.195 400.662 413.089 399.039 412.865V412.841ZM396.448 408.672C399.219 409.429 402.158 409.305 404.856 408.319C403.04 410.158 400.916 411.665 398.579 412.771C398.155 412.7 397.731 412.629 397.319 412.535C396.908 411.302 396.616 410.032 396.448 408.743V408.672ZM396.365 407.86C396.671 407.235 396.989 406.682 397.331 406.058C398.058 406.669 398.921 407.095 399.848 407.3C400.775 407.505 401.738 407.483 402.654 407.235C402.494 407.704 402.309 408.164 402.101 408.613C400.206 408.802 398.295 408.754 396.412 408.472C396.389 408.284 396.389 408.083 396.365 407.883V407.86ZM399.368 403.302C400.183 403.477 400.974 403.75 401.724 404.114C401.388 404.832 400.925 405.482 400.358 406.034C399.958 405.754 399.6 405.416 399.298 405.033C399.074 404.697 398.888 404.338 398.744 403.961C398.968 403.761 399.168 403.537 399.368 403.325V403.302ZM400.334 406.093C400.122 406.317 399.898 406.529 399.674 406.729C398.889 406.548 398.127 406.28 397.402 405.928C397.734 405.362 398.103 404.819 398.509 404.303C398.659 404.722 398.901 405.102 399.216 405.416C399.532 405.73 399.914 405.969 400.334 406.117V406.093ZM401.983 404.244C402.474 404.524 402.88 404.931 403.16 405.422C403.078 405.875 402.972 406.323 402.842 406.764C401.909 406.941 400.95 406.941 400.016 406.764C400.506 406.517 400.936 406.165 401.275 405.733C401.615 405.302 401.857 404.802 401.983 404.268V404.244ZM401.653 401.052C399.156 402.333 397.244 404.52 396.306 407.165C396.165 404.886 396.283 402.598 396.66 400.346C398.35 400.354 400.031 400.6 401.653 401.076V401.052ZM403.007 401.465C403.272 402.567 403.332 403.709 403.184 404.833C402.764 404.27 402.21 403.82 401.573 403.524C400.935 403.228 400.235 403.095 399.533 403.137C400.276 402.372 401.116 401.707 402.03 401.158C402.36 401.288 402.689 401.37 403.007 401.488V401.465ZM408.036 403.82C407.883 404.421 407.706 404.998 407.518 405.61C406.741 406.446 406.01 407.224 405.269 407.966C404.331 408.252 403.369 408.453 402.395 408.566C403.044 407.549 403.483 406.413 403.686 405.223C403.888 404.034 403.849 402.816 403.573 401.641C405.127 402.224 406.621 402.953 408.036 403.82Z" fill="black"/>
<path d="M179.952 440.988C174.64 439.869 169.211 432.615 170.978 426.232C172.744 419.849 181.683 416.115 186.771 418.341C191.858 420.567 195.368 430.742 192.895 434.947C190.139 439.634 183.862 441.824 179.952 440.988Z" fill="#008282"/>
<path opacity="0.12" d="M188.914 417.128C188.827 419.954 188.432 422.762 187.736 425.502C185.181 422.71 180.046 421.415 176.336 422.11C176.62 420.45 176.993 418.806 177.455 417.187C177.468 417.154 177.467 417.118 177.452 417.086C177.438 417.054 177.411 417.029 177.379 417.016C177.346 417.004 177.309 417.005 177.277 417.019C177.245 417.033 177.22 417.06 177.208 417.093C175.017 421.862 173.91 429.506 176.501 434.428C174.162 433.922 171.922 433.035 169.871 431.802C169.777 431.802 169.682 431.885 169.765 431.943C176.643 436.913 187.242 436.654 194.991 434.052C195.203 433.981 195.085 433.639 194.873 433.686C191.301 434.585 187.639 435.079 183.956 435.159C187.784 430.601 189.609 422.84 189.338 417.116C189.362 416.845 188.926 416.869 188.914 417.128ZM178.715 434.794C182.025 433.636 184.88 431.454 186.865 428.563C186.078 430.883 184.989 433.088 183.626 435.123C181.984 435.149 180.342 435.051 178.715 434.829V434.794ZM176.124 430.613C178.895 431.373 181.833 431.254 184.533 430.271C182.719 432.11 180.594 433.614 178.256 434.711L176.996 434.487C176.587 433.237 176.295 431.952 176.124 430.648V430.613ZM176.042 429.812C176.348 429.176 176.666 428.575 177.008 427.998C177.734 428.609 178.598 429.035 179.525 429.24C180.452 429.445 181.414 429.423 182.331 429.176C182.173 429.642 181.988 430.098 181.777 430.542C179.887 430.734 177.98 430.691 176.101 430.412C176.065 430.248 176.065 430.047 176.042 429.847V429.812ZM179.01 425.231C179.824 425.415 180.614 425.692 181.365 426.055C181.026 426.764 180.568 427.409 180.011 427.963C179.611 427.686 179.254 427.353 178.951 426.974C178.718 426.639 178.532 426.275 178.397 425.89C178.656 425.713 178.845 425.49 179.01 425.231ZM179.975 428.034L179.316 428.658C178.532 428.473 177.77 428.205 177.043 427.857C177.385 427.294 177.758 426.752 178.162 426.232C178.307 426.661 178.55 427.051 178.871 427.372C179.191 427.692 179.581 427.935 180.011 428.081L179.975 428.034ZM181.624 426.173C182.113 426.456 182.519 426.862 182.802 427.35C182.731 427.809 182.625 428.262 182.484 428.705C181.549 428.875 180.592 428.875 179.657 428.705C180.154 428.464 180.591 428.117 180.937 427.687C181.284 427.257 181.53 426.756 181.66 426.22L181.624 426.173ZM181.294 422.981C178.801 424.263 176.892 426.449 175.959 429.093C175.818 426.818 175.937 424.535 176.313 422.286C178.024 422.286 179.726 422.536 181.365 423.028L181.294 422.981ZM182.661 423.393C182.916 424.501 182.971 425.646 182.825 426.773C182.407 426.207 181.854 425.755 181.217 425.457C180.579 425.158 179.877 425.024 179.175 425.066C179.924 424.311 180.762 423.65 181.671 423.099L182.661 423.393ZM187.678 425.749C187.524 426.361 187.348 426.926 187.171 427.539C187.171 427.539 187.171 427.539 187.112 427.539C186.347 428.375 185.605 429.152 184.863 429.894C183.924 430.173 182.962 430.37 181.989 430.483C182.638 429.468 183.077 428.334 183.279 427.146C183.482 425.959 183.443 424.743 183.167 423.57C184.751 424.152 186.274 424.89 187.713 425.772L187.678 425.749Z" fill="black"/>
<path d="M159.625 373.966C166.55 383.882 185.405 385.742 232.454 394.987C238.954 396.259 260.271 352.743 253.428 351.036C244.76 348.869 210.666 342.344 208.111 342.18C186.571 340.802 154.926 367.253 159.625 373.966Z" fill="#F7A9A0"/>
<path d="M244.019 348.881C244.019 348.881 263.957 351.884 273.932 356.712C287.299 363.166 296.179 374.248 299.618 379.088C306.801 389.252 317.142 418.777 309.145 423.24C301.926 427.28 292.881 396.565 292.881 396.565C292.881 396.565 307.273 426.361 297.674 429.623C288.076 432.886 279.597 396.648 279.597 396.648C279.597 396.648 293.729 427.586 283.271 429.388C275.392 430.754 265.865 398.344 265.865 398.344C265.865 398.344 277.795 425.03 269.751 426.773C260.86 428.764 250.201 399.321 250.201 399.321C229.003 400.322 218.498 392.126 211.714 385.413C210.077 383.811 244.019 348.881 244.019 348.881Z" fill="#F7A9A0"/>
<path d="M288.535 385.966C290.349 389.405 292.222 392.867 293.717 396.459C295.213 400.051 296.603 403.69 297.768 407.4C299.394 412.223 300.453 417.219 300.925 422.286C299.417 413.359 294.224 400.428 292.681 396.836C291.138 393.244 289.854 389.593 288.347 386.013C288.382 385.919 288.535 385.884 288.535 385.966Z" fill="#263238"/>
<path d="M275.498 391.16C277.63 395.659 279.915 400.04 281.846 404.621C283.778 409.202 285.191 413.689 286.792 418.376C286.922 418.73 286.686 418.683 286.545 418.317C284.755 413.701 282.741 409.579 280.904 404.974C279.067 400.369 277.371 395.717 275.392 391.207C275.357 391.136 275.475 391.077 275.498 391.16Z" fill="#263238"/>
<path d="M263.498 393.609C266.929 400.421 269.648 407.568 271.612 414.938C271.73 415.291 271.424 415.197 271.294 414.832C268.727 407.695 266.772 402.077 263.262 393.739C263.203 393.609 263.415 393.433 263.498 393.609Z" fill="#263238"/>
<path d="M285.744 364.297C288.068 365.807 290.238 367.543 292.222 369.478C294.236 371.388 296.095 373.456 297.78 375.661C298.64 376.757 299.406 377.911 300.207 379.053C301.007 380.196 301.702 381.409 302.303 382.586C303.634 385.023 304.715 387.587 305.53 390.241C304.835 389.064 304.352 387.756 303.587 386.59L302.597 384.789C302.256 384.2 301.879 383.611 301.526 383.046C300.075 380.723 298.502 378.478 296.815 376.321C295.166 374.154 293.388 372.069 291.55 370.056C290.62 369.043 289.678 368.053 288.7 367.088C287.723 366.122 286.769 365.227 285.744 364.297Z" fill="#263238"/>
<path d="M248.176 348.88L206.956 394.811C206.956 394.811 165.278 385.236 159.142 374.554C155.102 367.488 186.476 339.023 210.16 342.344L248.176 348.88Z" fill="#008282"/>
<path d="M189.715 351.248C189.717 351.458 189.657 351.665 189.541 351.841C189.426 352.017 189.26 352.155 189.066 352.236C188.872 352.318 188.658 352.34 188.451 352.299C188.244 352.259 188.055 352.158 187.906 352.009C187.757 351.86 187.655 351.67 187.615 351.463C187.574 351.256 187.596 351.042 187.678 350.848C187.76 350.654 187.897 350.489 188.074 350.373C188.25 350.258 188.456 350.197 188.667 350.199C188.945 350.199 189.211 350.31 189.408 350.506C189.605 350.703 189.715 350.97 189.715 351.248ZM205.626 350.199C205.418 350.199 205.216 350.261 205.043 350.376C204.871 350.491 204.737 350.655 204.657 350.846C204.578 351.038 204.557 351.249 204.598 351.452C204.638 351.655 204.738 351.842 204.884 351.989C205.031 352.135 205.218 352.235 205.421 352.276C205.624 352.316 205.835 352.295 206.027 352.216C206.218 352.137 206.382 352.002 206.497 351.83C206.612 351.658 206.674 351.455 206.674 351.248C206.674 350.97 206.563 350.703 206.367 350.506C206.17 350.31 205.904 350.199 205.626 350.199ZM222.584 350.199C222.378 350.202 222.176 350.265 222.005 350.382C221.835 350.498 221.702 350.663 221.625 350.855C221.547 351.046 221.528 351.257 221.57 351.459C221.611 351.662 221.712 351.847 221.859 351.993C222.006 352.138 222.193 352.237 222.396 352.276C222.599 352.316 222.809 352.294 223 352.215C223.191 352.135 223.354 352.001 223.468 351.829C223.583 351.657 223.644 351.454 223.644 351.248C223.644 351.109 223.617 350.972 223.563 350.844C223.51 350.716 223.432 350.6 223.333 350.502C223.235 350.405 223.118 350.328 222.989 350.276C222.861 350.224 222.723 350.198 222.584 350.199ZM239.555 350.199C239.348 350.199 239.145 350.261 238.973 350.376C238.8 350.491 238.666 350.655 238.587 350.846C238.507 351.038 238.487 351.249 238.527 351.452C238.567 351.655 238.667 351.842 238.814 351.989C238.96 352.135 239.147 352.235 239.351 352.276C239.554 352.316 239.765 352.295 239.956 352.216C240.148 352.137 240.311 352.002 240.427 351.83C240.542 351.658 240.603 351.455 240.603 351.248C240.603 350.97 240.493 350.703 240.296 350.506C240.1 350.31 239.833 350.199 239.555 350.199ZM171.696 372.894C171.489 372.896 171.288 372.959 171.117 373.076C170.946 373.193 170.814 373.357 170.736 373.549C170.659 373.74 170.64 373.951 170.681 374.153C170.723 374.356 170.824 374.542 170.971 374.687C171.118 374.832 171.305 374.931 171.508 374.971C171.711 375.01 171.921 374.989 172.112 374.909C172.303 374.829 172.466 374.695 172.58 374.523C172.695 374.351 172.756 374.149 172.756 373.942C172.756 373.803 172.729 373.666 172.675 373.538C172.622 373.41 172.544 373.294 172.445 373.196C172.346 373.099 172.229 373.022 172.101 372.97C171.972 372.918 171.835 372.892 171.696 372.894ZM188.667 372.894C188.46 372.894 188.257 372.955 188.084 373.07C187.912 373.185 187.778 373.349 187.698 373.541C187.619 373.732 187.598 373.943 187.639 374.146C187.679 374.35 187.779 374.536 187.926 374.683C188.072 374.829 188.259 374.929 188.462 374.97C188.666 375.01 188.876 374.989 189.068 374.91C189.259 374.831 189.423 374.696 189.538 374.524C189.653 374.352 189.715 374.149 189.715 373.942C189.715 373.664 189.605 373.397 189.408 373.201C189.211 373.004 188.945 372.894 188.667 372.894ZM205.626 372.894C205.418 372.894 205.216 372.955 205.043 373.07C204.871 373.185 204.737 373.349 204.657 373.541C204.578 373.732 204.557 373.943 204.598 374.146C204.638 374.35 204.738 374.536 204.884 374.683C205.031 374.829 205.218 374.929 205.421 374.97C205.624 375.01 205.835 374.989 206.027 374.91C206.218 374.831 206.382 374.696 206.497 374.524C206.612 374.352 206.674 374.149 206.674 373.942C206.674 373.664 206.563 373.397 206.367 373.201C206.17 373.004 205.904 372.894 205.626 372.894ZM222.584 372.894C222.378 372.896 222.176 372.959 222.005 373.076C221.835 373.193 221.702 373.357 221.625 373.549C221.547 373.74 221.528 373.951 221.57 374.153C221.611 374.356 221.712 374.542 221.859 374.687C222.006 374.832 222.193 374.931 222.396 374.971C222.599 375.01 222.809 374.989 223 374.909C223.191 374.829 223.354 374.695 223.468 374.523C223.583 374.351 223.644 374.149 223.644 373.942C223.644 373.803 223.617 373.666 223.563 373.538C223.51 373.41 223.432 373.294 223.333 373.196C223.235 373.099 223.118 373.022 222.989 372.97C222.861 372.918 222.723 372.892 222.584 372.894ZM180.187 362.023C179.977 362.023 179.772 362.086 179.597 362.203C179.423 362.32 179.287 362.486 179.207 362.681C179.127 362.875 179.107 363.089 179.149 363.295C179.191 363.5 179.293 363.689 179.442 363.837C179.592 363.985 179.782 364.085 179.988 364.124C180.194 364.164 180.408 364.141 180.601 364.059C180.795 363.977 180.959 363.84 181.074 363.664C181.189 363.488 181.25 363.282 181.247 363.072C181.247 362.933 181.22 362.796 181.166 362.668C181.113 362.54 181.035 362.424 180.936 362.326C180.838 362.229 180.721 362.152 180.592 362.1C180.464 362.048 180.326 362.022 180.187 362.023ZM197.158 362.023C196.947 362.021 196.741 362.082 196.565 362.197C196.389 362.313 196.251 362.478 196.169 362.672C196.088 362.866 196.066 363.081 196.106 363.287C196.147 363.494 196.248 363.684 196.397 363.833C196.546 363.982 196.736 364.083 196.942 364.123C197.149 364.164 197.363 364.142 197.557 364.06C197.751 363.979 197.917 363.841 198.032 363.665C198.148 363.489 198.208 363.282 198.206 363.072C198.206 362.933 198.179 362.796 198.125 362.668C198.072 362.54 197.994 362.424 197.895 362.326C197.796 362.229 197.679 362.152 197.551 362.1C197.422 362.048 197.285 362.022 197.146 362.023H197.158ZM214.117 362.023C213.907 362.023 213.701 362.086 213.527 362.203C213.352 362.32 213.216 362.486 213.136 362.681C213.057 362.875 213.036 363.089 213.078 363.295C213.12 363.5 213.222 363.689 213.372 363.837C213.521 363.985 213.711 364.085 213.917 364.124C214.124 364.164 214.337 364.141 214.531 364.059C214.724 363.977 214.889 363.84 215.004 363.664C215.119 363.488 215.179 363.282 215.177 363.072C215.177 362.932 215.149 362.794 215.095 362.665C215.041 362.536 214.961 362.42 214.861 362.322C214.762 362.224 214.643 362.148 214.513 362.096C214.383 362.045 214.245 362.02 214.105 362.023H214.117ZM231.087 362.023C230.877 362.021 230.67 362.082 230.494 362.197C230.318 362.313 230.18 362.478 230.099 362.672C230.017 362.866 229.995 363.081 230.036 363.287C230.076 363.494 230.177 363.684 230.326 363.833C230.475 363.982 230.665 364.083 230.872 364.123C231.078 364.164 231.293 364.142 231.487 364.06C231.681 363.979 231.846 363.841 231.962 363.665C232.077 363.489 232.138 363.282 232.136 363.072C232.136 362.933 232.108 362.796 232.055 362.668C232.001 362.54 231.923 362.424 231.824 362.326C231.726 362.229 231.609 362.152 231.48 362.1C231.352 362.048 231.214 362.022 231.076 362.023H231.087ZM180.187 384.718C179.977 384.718 179.772 384.78 179.597 384.897C179.423 385.014 179.287 385.18 179.207 385.375C179.127 385.569 179.107 385.783 179.149 385.989C179.191 386.195 179.293 386.383 179.442 386.531C179.592 386.679 179.782 386.779 179.988 386.819C180.194 386.858 180.408 386.835 180.601 386.753C180.795 386.671 180.959 386.534 181.074 386.358C181.189 386.182 181.25 385.976 181.247 385.766C181.247 385.627 181.22 385.49 181.166 385.362C181.113 385.234 181.035 385.118 180.936 385.02C180.838 384.923 180.721 384.846 180.592 384.794C180.464 384.742 180.326 384.716 180.187 384.718ZM197.158 384.718C196.947 384.715 196.741 384.776 196.565 384.891C196.389 385.007 196.251 385.172 196.169 385.366C196.088 385.561 196.066 385.775 196.106 385.981C196.147 386.188 196.248 386.378 196.397 386.527C196.546 386.676 196.736 386.777 196.942 386.818C197.149 386.858 197.363 386.836 197.557 386.755C197.751 386.673 197.917 386.535 198.032 386.359C198.148 386.183 198.208 385.976 198.206 385.766C198.206 385.627 198.179 385.49 198.125 385.362C198.072 385.234 197.994 385.118 197.895 385.02C197.796 384.923 197.679 384.846 197.551 384.794C197.422 384.742 197.285 384.716 197.146 384.718H197.158ZM214.129 384.718C213.847 384.718 213.578 384.829 213.379 385.028C213.18 385.227 213.069 385.496 213.069 385.778C213.069 385.916 213.096 386.053 213.15 386.181C213.203 386.309 213.281 386.425 213.38 386.523C213.478 386.62 213.595 386.697 213.724 386.749C213.852 386.801 213.99 386.827 214.129 386.826L215.165 385.648C215.136 385.39 215.013 385.151 214.82 384.978C214.627 384.804 214.377 384.707 214.117 384.706L214.129 384.718Z" fill="white"/>
<path d="M181.919 349.776C185.734 347.008 196.487 340.554 210.183 342.274C210.301 342.274 210.313 342.486 210.183 342.474C199.843 342.179 185.887 347.585 181.919 349.94C181.907 349.999 181.824 349.858 181.919 349.776Z" fill="#263238"/>
<path d="M195.698 387.085C199.961 381.797 204.495 376.745 209.053 371.704C213.61 366.664 218.156 361.6 222.843 356.665C225.481 353.874 228.12 351.071 230.864 348.421C230.934 348.351 231.064 348.421 231.005 348.539C226.753 353.815 222.219 358.903 217.709 363.967C213.198 369.031 208.605 374.071 203.989 379.065C201.374 381.88 198.712 384.647 195.968 387.309C195.827 387.438 195.58 387.238 195.698 387.085Z" fill="#263238"/>
<path d="M248.258 348.28C245.726 347.519 243.145 346.932 240.532 346.525C237.93 346.03 235.315 345.595 232.713 345.171C227.519 344.335 216.602 341.979 207.003 342.003C206.897 342.003 207.439 342.521 207.545 342.521C212.115 342.274 244.855 348.786 247.587 348.975C247.477 349.149 247.379 349.33 247.292 349.516C247.292 349.658 247.375 349.823 247.516 349.728C247.858 349.505 248.093 349.222 248.411 348.975C248.472 348.93 248.519 348.869 248.545 348.798C248.572 348.728 248.578 348.651 248.561 348.577C248.545 348.504 248.508 348.436 248.454 348.383C248.4 348.331 248.332 348.295 248.258 348.28Z" fill="#263238"/>
<path d="M281.705 261.531C321.087 295.884 352.06 338.328 350.011 348.939C346.301 368.701 320.333 369.938 316.353 365.663C300.407 348.386 283.577 314.916 265.347 277.571C249.059 244.195 268.738 250.237 281.705 261.531Z" fill="#008282"/>
<path d="M274.533 260.471C274.535 260.682 274.475 260.888 274.359 261.064C274.243 261.24 274.078 261.378 273.884 261.46C273.69 261.541 273.476 261.563 273.269 261.523C273.062 261.482 272.872 261.381 272.723 261.232C272.574 261.083 272.473 260.893 272.433 260.687C272.392 260.48 272.414 260.266 272.496 260.072C272.578 259.877 272.715 259.712 272.891 259.596C273.067 259.481 273.274 259.42 273.485 259.423C273.762 259.423 274.029 259.533 274.226 259.73C274.422 259.926 274.533 260.193 274.533 260.471ZM273.485 282.117C273.274 282.115 273.067 282.175 272.891 282.291C272.715 282.406 272.578 282.572 272.496 282.766C272.414 282.96 272.392 283.174 272.433 283.381C272.473 283.587 272.574 283.777 272.723 283.926C272.872 284.075 273.062 284.176 273.269 284.217C273.476 284.257 273.69 284.236 273.884 284.154C274.078 284.072 274.243 283.934 274.359 283.758C274.475 283.582 274.535 283.376 274.533 283.165C274.533 282.887 274.422 282.621 274.226 282.424C274.029 282.227 273.762 282.117 273.485 282.117ZM290.443 282.117C290.233 282.117 290.028 282.179 289.853 282.296C289.679 282.413 289.543 282.58 289.463 282.774C289.383 282.968 289.363 283.182 289.405 283.388C289.447 283.594 289.549 283.783 289.698 283.931C289.848 284.078 290.037 284.178 290.244 284.218C290.45 284.257 290.664 284.235 290.857 284.153C291.051 284.071 291.215 283.933 291.33 283.757C291.445 283.581 291.506 283.375 291.503 283.165C291.503 283.026 291.476 282.889 291.422 282.761C291.369 282.633 291.291 282.517 291.192 282.42C291.094 282.322 290.977 282.245 290.848 282.193C290.72 282.141 290.582 282.115 290.443 282.117ZM264.982 271.247C264.771 271.245 264.564 271.305 264.388 271.421C264.212 271.536 264.075 271.702 263.993 271.896C263.911 272.09 263.889 272.304 263.93 272.511C263.97 272.717 264.071 272.907 264.22 273.056C264.369 273.205 264.559 273.306 264.766 273.347C264.973 273.387 265.187 273.365 265.381 273.284C265.575 273.202 265.74 273.064 265.856 272.888C265.972 272.712 266.032 272.506 266.03 272.295C266.03 272.017 265.919 271.75 265.723 271.554C265.526 271.357 265.26 271.247 264.982 271.247ZM281.94 271.247C281.73 271.245 281.523 271.305 281.347 271.421C281.171 271.536 281.033 271.702 280.952 271.896C280.87 272.09 280.848 272.304 280.889 272.511C280.929 272.717 281.03 272.907 281.179 273.056C281.328 273.205 281.518 273.306 281.725 273.347C281.931 273.387 282.146 273.365 282.34 273.284C282.534 273.202 282.699 273.064 282.815 272.888C282.93 272.712 282.991 272.506 282.989 272.295C282.989 272.021 282.881 271.758 282.69 271.562C282.498 271.366 282.238 271.253 281.964 271.247H281.94ZM290.42 304.811C290.21 304.811 290.004 304.874 289.83 304.991C289.655 305.108 289.519 305.274 289.439 305.468C289.36 305.663 289.339 305.876 289.381 306.082C289.423 306.288 289.525 306.477 289.675 306.625C289.824 306.773 290.014 306.873 290.22 306.912C290.427 306.952 290.64 306.929 290.834 306.847C291.027 306.765 291.192 306.627 291.307 306.451C291.422 306.276 291.482 306.069 291.48 305.859C291.48 305.583 291.371 305.319 291.177 305.122C290.983 304.926 290.719 304.814 290.443 304.811H290.42ZM307.39 304.811C307.18 304.809 306.973 304.869 306.797 304.985C306.621 305.1 306.483 305.266 306.402 305.46C306.32 305.654 306.298 305.868 306.339 306.075C306.379 306.282 306.48 306.472 306.629 306.621C306.778 306.769 306.968 306.871 307.175 306.911C307.381 306.952 307.596 306.93 307.79 306.848C307.984 306.766 308.149 306.629 308.265 306.453C308.38 306.276 308.441 306.07 308.439 305.859C308.439 305.721 308.411 305.583 308.358 305.455C308.304 305.328 308.226 305.211 308.127 305.114C308.029 305.016 307.912 304.94 307.783 304.888C307.655 304.836 307.517 304.81 307.379 304.811H307.39ZM323.984 304.87C323.783 304.946 323.611 305.082 323.489 305.258C323.367 305.435 323.301 305.645 323.301 305.859C323.301 306.137 323.411 306.404 323.608 306.6C323.805 306.797 324.071 306.907 324.349 306.907C324.531 306.907 324.709 306.86 324.868 306.771C325.027 306.683 325.16 306.555 325.256 306.401L323.984 304.87ZM281.94 293.941C281.73 293.939 281.523 293.999 281.347 294.115C281.171 294.23 281.033 294.396 280.952 294.59C280.87 294.784 280.848 294.998 280.889 295.205C280.929 295.412 281.03 295.601 281.179 295.75C281.328 295.899 281.518 296.001 281.725 296.041C281.931 296.082 282.146 296.06 282.34 295.978C282.534 295.896 282.699 295.759 282.815 295.582C282.93 295.406 282.991 295.2 282.989 294.989C282.989 294.715 282.881 294.452 282.69 294.256C282.498 294.06 282.238 293.947 281.964 293.941H281.94ZM298.899 293.941C298.689 293.941 298.484 294.004 298.309 294.121C298.135 294.238 297.999 294.404 297.919 294.598C297.839 294.792 297.819 295.006 297.861 295.212C297.902 295.418 298.005 295.607 298.154 295.755C298.303 295.902 298.493 296.002 298.7 296.042C298.906 296.081 299.12 296.059 299.313 295.977C299.506 295.895 299.671 295.757 299.786 295.581C299.901 295.405 299.961 295.199 299.959 294.989C299.959 294.713 299.85 294.448 299.656 294.252C299.462 294.056 299.199 293.944 298.923 293.941H298.899ZM314.975 294.436C314.875 294.603 314.822 294.794 314.822 294.989C314.82 295.128 314.846 295.265 314.898 295.394C314.95 295.522 315.027 295.639 315.124 295.738C315.222 295.837 315.338 295.915 315.466 295.968C315.594 296.022 315.731 296.049 315.87 296.049C316.02 296.051 316.169 296.019 316.306 295.955C315.893 295.437 315.446 294.942 314.998 294.436H314.975ZM290.891 327.576C291.115 327.965 291.315 328.353 291.527 328.754C291.532 328.695 291.532 328.636 291.527 328.577C291.536 328.365 291.48 328.156 291.366 327.977C291.252 327.798 291.087 327.658 290.891 327.576ZM307.379 327.482C307.168 327.479 306.961 327.54 306.785 327.656C306.609 327.771 306.472 327.937 306.39 328.131C306.308 328.325 306.286 328.539 306.327 328.746C306.367 328.952 306.468 329.142 306.617 329.291C306.766 329.44 306.956 329.541 307.163 329.582C307.37 329.622 307.584 329.6 307.778 329.519C307.972 329.437 308.137 329.299 308.253 329.123C308.369 328.947 308.429 328.741 308.427 328.53C308.427 328.252 308.316 327.985 308.12 327.789C307.923 327.592 307.657 327.482 307.379 327.482ZM324.337 327.482C324.127 327.479 323.92 327.54 323.744 327.656C323.568 327.771 323.43 327.937 323.349 328.131C323.267 328.325 323.245 328.539 323.286 328.746C323.326 328.952 323.427 329.142 323.576 329.291C323.725 329.44 323.915 329.541 324.122 329.582C324.328 329.622 324.543 329.6 324.737 329.519C324.931 329.437 325.096 329.299 325.212 329.123C325.327 328.947 325.388 328.741 325.386 328.53C325.386 328.258 325.28 327.997 325.091 327.801C324.902 327.605 324.645 327.491 324.373 327.482H324.337ZM340.896 327.552C340.677 327.651 340.498 327.822 340.388 328.036C340.279 328.25 340.246 328.494 340.293 328.73C340.341 328.965 340.468 329.177 340.652 329.332C340.837 329.486 341.068 329.573 341.308 329.578C341.572 329.579 341.828 329.482 342.026 329.307C341.697 328.754 341.32 328.165 340.931 327.576L340.896 327.552ZM298.887 316.612C298.677 316.612 298.472 316.674 298.297 316.791C298.123 316.908 297.987 317.074 297.907 317.269C297.827 317.463 297.807 317.677 297.849 317.883C297.891 318.089 297.993 318.278 298.142 318.425C298.292 318.573 298.482 318.673 298.688 318.713C298.894 318.752 299.108 318.729 299.301 318.647C299.495 318.565 299.659 318.428 299.774 318.252C299.889 318.076 299.95 317.87 299.947 317.66C299.941 317.39 299.831 317.133 299.641 316.942C299.45 316.751 299.193 316.641 298.923 316.635L298.887 316.612ZM315.858 316.612C315.647 316.609 315.441 316.67 315.265 316.785C315.089 316.901 314.951 317.066 314.869 317.261C314.788 317.455 314.766 317.669 314.806 317.875C314.847 318.082 314.948 318.272 315.097 318.421C315.246 318.57 315.436 318.671 315.642 318.712C315.849 318.752 316.063 318.73 316.257 318.649C316.451 318.567 316.617 318.429 316.732 318.253C316.848 318.077 316.908 317.87 316.906 317.66C316.9 317.392 316.792 317.137 316.604 316.946C316.415 316.755 316.161 316.644 315.893 316.635L315.858 316.612ZM333.865 317.448L333.37 316.8C333.21 316.706 333.027 316.657 332.84 316.659C332.58 316.686 332.339 316.809 332.164 317.004C331.989 317.199 331.892 317.451 331.892 317.713C331.892 317.975 331.989 318.227 332.164 318.422C332.339 318.616 332.58 318.739 332.84 318.767C333.119 318.764 333.385 318.653 333.582 318.457C333.78 318.262 333.894 317.997 333.9 317.719C333.907 317.636 333.907 317.554 333.9 317.471L333.865 317.448ZM307.379 350.2C307.171 350.2 306.969 350.261 306.796 350.376C306.624 350.491 306.49 350.655 306.41 350.847C306.331 351.038 306.31 351.249 306.351 351.452C306.391 351.656 306.491 351.842 306.637 351.989C306.784 352.135 306.971 352.235 307.174 352.276C307.377 352.316 307.588 352.295 307.78 352.216C307.971 352.137 308.135 352.002 308.25 351.83C308.365 351.658 308.427 351.455 308.427 351.248C308.427 350.97 308.316 350.703 308.12 350.507C307.923 350.31 307.657 350.2 307.379 350.2ZM324.337 350.2C324.13 350.2 323.927 350.261 323.755 350.376C323.583 350.491 323.448 350.655 323.369 350.847C323.29 351.038 323.269 351.249 323.309 351.452C323.35 351.656 323.45 351.842 323.596 351.989C323.743 352.135 323.93 352.235 324.133 352.276C324.336 352.316 324.547 352.295 324.739 352.216C324.93 352.137 325.094 352.002 325.209 351.83C325.324 351.658 325.386 351.455 325.386 351.248C325.386 350.976 325.28 350.714 325.091 350.519C324.902 350.323 324.645 350.209 324.373 350.2H324.337ZM341.308 350.2C341.101 350.2 340.898 350.261 340.726 350.376C340.553 350.491 340.419 350.655 340.34 350.847C340.26 351.038 340.24 351.249 340.28 351.452C340.32 351.656 340.42 351.842 340.567 351.989C340.713 352.135 340.9 352.235 341.104 352.276C341.307 352.316 341.518 352.295 341.709 352.216C341.901 352.137 342.064 352.002 342.18 351.83C342.295 351.658 342.356 351.455 342.356 351.248C342.356 350.976 342.251 350.714 342.062 350.519C341.873 350.323 341.615 350.209 341.343 350.2H341.308ZM298.911 339.329C298.701 339.329 298.495 339.392 298.321 339.509C298.146 339.626 298.011 339.792 297.931 339.987C297.851 340.181 297.83 340.395 297.872 340.601C297.914 340.806 298.016 340.995 298.166 341.143C298.315 341.291 298.505 341.391 298.711 341.43C298.918 341.47 299.131 341.447 299.325 341.365C299.518 341.283 299.683 341.145 299.798 340.97C299.913 340.794 299.973 340.588 299.971 340.378C299.971 340.1 299.86 339.833 299.664 339.636C299.467 339.44 299.201 339.329 298.923 339.329H298.911ZM315.882 339.329C315.671 339.327 315.464 339.388 315.288 339.503C315.112 339.619 314.975 339.784 314.893 339.978C314.811 340.172 314.789 340.387 314.83 340.593C314.87 340.8 314.971 340.99 315.12 341.139C315.269 341.288 315.459 341.389 315.666 341.429C315.873 341.47 316.087 341.448 316.281 341.366C316.475 341.285 316.64 341.147 316.756 340.971C316.872 340.795 316.932 340.588 316.93 340.378C316.93 340.102 316.821 339.837 316.627 339.641C316.433 339.444 316.169 339.333 315.893 339.329H315.882ZM332.84 339.329C332.63 339.329 332.425 339.392 332.25 339.509C332.076 339.626 331.94 339.792 331.86 339.987C331.78 340.181 331.76 340.395 331.802 340.601C331.844 340.806 331.946 340.995 332.095 341.143C332.245 341.291 332.435 341.391 332.641 341.43C332.847 341.47 333.061 341.447 333.254 341.365C333.448 341.283 333.612 341.145 333.727 340.97C333.842 340.794 333.903 340.588 333.9 340.378C333.9 340.1 333.79 339.833 333.593 339.636C333.397 339.44 333.13 339.329 332.852 339.329H332.84ZM315.882 362.024C315.671 362.021 315.464 362.082 315.288 362.197C315.112 362.313 314.975 362.478 314.893 362.672C314.811 362.867 314.789 363.081 314.83 363.287C314.87 363.494 314.971 363.684 315.12 363.833C315.269 363.982 315.459 364.083 315.666 364.124C315.873 364.164 316.087 364.142 316.281 364.06C316.475 363.979 316.64 363.841 316.756 363.665C316.872 363.489 316.932 363.282 316.93 363.072C316.93 362.796 316.821 362.531 316.627 362.335C316.433 362.139 316.169 362.027 315.893 362.024H315.882ZM332.84 362.024C332.63 362.024 332.425 362.086 332.25 362.203C332.076 362.32 331.94 362.486 331.86 362.681C331.78 362.875 331.76 363.089 331.802 363.295C331.844 363.501 331.946 363.689 332.095 363.837C332.245 363.985 332.435 364.085 332.641 364.125C332.847 364.164 333.061 364.141 333.254 364.059C333.448 363.977 333.612 363.84 333.727 363.664C333.842 363.488 333.903 363.282 333.9 363.072C333.9 362.794 333.79 362.527 333.593 362.331C333.397 362.134 333.13 362.024 332.852 362.024H332.84Z" fill="white"/>
<path d="M309.852 357.949C306.966 353.474 304.246 348.857 301.49 344.287C298.734 339.718 296.002 335.125 293.317 330.508C288.017 321.381 283.094 312.054 278.348 302.632C275.663 297.297 272.931 292.033 270.375 286.592C270.293 286.416 270.01 286.592 270.069 286.722C272.542 293.003 275.204 299.182 278.054 305.259L277.936 305.106C277.3 304.246 276.664 303.386 276.04 302.515C274.804 300.795 273.685 299.04 272.507 297.239C272.425 297.097 272.201 297.239 272.283 297.38C273.557 299.831 274.997 302.192 276.594 304.446C277.374 305.5 278.215 306.506 279.114 307.461L279.196 307.532C280.504 310.24 281.834 312.937 283.236 315.611C288.124 325.107 293.485 334.351 299.3 343.31C300.948 345.818 302.609 348.315 304.34 350.777C306.071 353.238 307.873 355.617 309.71 358.043C309.734 358.196 309.946 358.102 309.852 357.949Z" fill="#263238"/>
<path d="M322.877 361.835C315.41 351.13 319.155 329.837 327.399 278.725C328.577 271.659 382.209 271.105 381.385 278.725C380.348 288.312 370.786 326.198 368.301 331.721C356.088 359.044 327.929 369.102 322.877 361.835Z" fill="#F7A9A0"/>
<path d="M379.642 285.32C381.868 279.597 392.102 247.87 392.596 239.826C393.091 231.782 392.914 208.523 386.79 207.51C380.666 206.497 380.184 213.304 380.184 213.304C380.184 213.304 378.547 203.494 372.293 203.023C366.039 202.552 365.627 213.186 365.627 213.186C365.627 213.186 363.213 203.235 356.936 203.223C350.659 203.211 352.131 213.952 352.131 213.952C352.131 213.952 350.341 204.754 345.171 206.886C338.952 209.477 344.158 226.07 342.921 234.903C342.639 236.917 334.348 275.18 334.348 275.18L379.642 285.32Z" fill="#F7A9A0"/>
<path d="M351.966 213.033C355.77 225.246 355.323 231.241 352.072 243.394C352.013 243.642 352.355 243.783 352.437 243.548C356.701 231.924 358.326 224.481 352.555 212.822C352.272 212.244 351.79 212.456 351.966 213.033Z" fill="#263238"/>
<path d="M365.333 212.221C368.171 225.246 367.747 231.759 365.333 244.749C365.333 244.925 365.616 245.008 365.663 244.819C369.196 232.289 370.621 224.799 366.075 212.186C365.804 211.608 365.203 211.632 365.333 212.221Z" fill="#263238"/>
<path d="M380.066 213.952C381.903 226.765 381.738 233.973 377.711 246.221C377.687 246.28 377.688 246.346 377.714 246.405C377.739 246.464 377.787 246.51 377.846 246.533C377.905 246.556 377.972 246.555 378.03 246.53C378.089 246.505 378.135 246.457 378.158 246.398C383.47 234.256 383.74 225.329 380.443 213.94C380.231 213.163 379.948 213.151 380.066 213.952Z" fill="#263238"/>
<path d="M326.622 285.191C326.622 285.191 322.371 269.751 322.006 262.544C321.64 255.336 330.143 228.025 336.138 229.568C343.899 231.511 342.097 248.258 340.142 256.337C340.142 256.337 358.09 260.812 359.397 273.108C360.705 285.403 326.622 285.191 326.622 285.191Z" fill="#F7A9A0"/>
<path d="M338.116 230.758C343.911 237.624 340.66 248.07 339.294 256.055C339.268 256.171 339.271 256.292 339.302 256.408C339.333 256.523 339.392 256.629 339.473 256.717C339.554 256.805 339.655 256.872 339.767 256.913C339.88 256.953 340 256.966 340.118 256.95C347.514 259.305 357.266 264.828 359.668 272.66C359.684 272.702 359.714 272.737 359.752 272.759C359.791 272.781 359.837 272.788 359.881 272.78C359.925 272.771 359.964 272.747 359.992 272.713C360.02 272.678 360.034 272.634 360.033 272.59C358.596 263.827 349.434 257.633 341.19 255.56C342.662 247.387 345.465 236.717 338.116 230.699C338.128 230.664 338.069 230.711 338.116 230.758Z" fill="#263238"/>
<path d="M382.233 296.037L319.992 313.703C319.992 313.703 307.579 354.498 315.469 364.732C323.913 375.673 363.095 358.714 370.892 334.878L382.233 296.037Z" fill="#008282"/>
<path d="M359.35 305.859C359.35 306.067 359.289 306.269 359.173 306.442C359.058 306.614 358.895 306.748 358.703 306.828C358.512 306.907 358.301 306.928 358.098 306.887C357.894 306.847 357.707 306.747 357.561 306.6C357.414 306.454 357.314 306.267 357.274 306.064C357.234 305.86 357.254 305.65 357.334 305.458C357.413 305.267 357.547 305.103 357.72 304.988C357.892 304.873 358.095 304.811 358.302 304.811C358.58 304.811 358.847 304.922 359.043 305.118C359.24 305.315 359.35 305.581 359.35 305.859ZM375.261 304.811C375.051 304.811 374.845 304.874 374.671 304.991C374.496 305.108 374.36 305.274 374.28 305.468C374.201 305.663 374.18 305.876 374.222 306.082C374.264 306.288 374.366 306.477 374.516 306.625C374.665 306.773 374.855 306.873 375.061 306.912C375.268 306.952 375.481 306.929 375.675 306.847C375.868 306.765 376.033 306.627 376.148 306.451C376.263 306.275 376.323 306.069 376.321 305.859C376.321 305.721 376.293 305.583 376.24 305.455C376.186 305.328 376.108 305.211 376.01 305.114C375.911 305.016 375.794 304.94 375.666 304.888C375.537 304.836 375.399 304.81 375.261 304.811ZM324.373 327.482C324.162 327.479 323.955 327.54 323.779 327.656C323.603 327.771 323.466 327.936 323.384 328.131C323.302 328.325 323.28 328.539 323.321 328.746C323.361 328.952 323.462 329.142 323.611 329.291C323.76 329.44 323.95 329.541 324.157 329.582C324.364 329.622 324.578 329.6 324.772 329.519C324.966 329.437 325.131 329.299 325.247 329.123C325.363 328.947 325.423 328.741 325.421 328.53C325.421 328.252 325.31 327.985 325.114 327.789C324.917 327.592 324.651 327.482 324.373 327.482ZM341.343 327.482C341.133 327.479 340.926 327.54 340.75 327.656C340.574 327.771 340.436 327.936 340.354 328.131C340.273 328.325 340.251 328.539 340.291 328.746C340.332 328.952 340.433 329.142 340.582 329.291C340.731 329.44 340.921 329.541 341.128 329.582C341.334 329.622 341.548 329.6 341.742 329.519C341.937 329.437 342.102 329.299 342.218 329.123C342.333 328.947 342.394 328.741 342.391 328.53C342.391 328.252 342.281 327.985 342.084 327.789C341.888 327.592 341.621 327.482 341.343 327.482ZM358.302 327.482C358.091 327.479 357.885 327.54 357.709 327.656C357.533 327.771 357.395 327.936 357.313 328.131C357.232 328.325 357.21 328.539 357.25 328.746C357.291 328.952 357.392 329.142 357.541 329.291C357.69 329.44 357.88 329.541 358.086 329.582C358.293 329.622 358.507 329.6 358.701 329.519C358.895 329.437 359.061 329.299 359.176 329.123C359.292 328.947 359.352 328.741 359.35 328.53C359.35 328.252 359.24 327.985 359.043 327.789C358.847 327.592 358.58 327.482 358.302 327.482ZM332.852 316.612C332.642 316.612 332.436 316.674 332.262 316.791C332.087 316.908 331.952 317.074 331.872 317.269C331.792 317.463 331.772 317.677 331.813 317.883C331.855 318.089 331.957 318.277 332.107 318.425C332.256 318.573 332.446 318.673 332.653 318.713C332.859 318.752 333.072 318.729 333.266 318.647C333.459 318.565 333.624 318.428 333.739 318.252C333.854 318.076 333.914 317.87 333.912 317.66C333.906 317.384 333.791 317.122 333.593 316.93C333.394 316.738 333.128 316.632 332.852 316.635V316.612ZM349.823 316.612C349.612 316.609 349.405 316.67 349.229 316.785C349.053 316.901 348.916 317.066 348.834 317.261C348.752 317.455 348.73 317.669 348.771 317.875C348.811 318.082 348.912 318.272 349.061 318.421C349.21 318.57 349.4 318.671 349.607 318.712C349.814 318.752 350.028 318.73 350.222 318.649C350.416 318.567 350.581 318.429 350.697 318.253C350.813 318.077 350.873 317.87 350.871 317.66C350.868 317.52 350.837 317.382 350.78 317.255C350.723 317.127 350.641 317.012 350.539 316.917C350.437 316.821 350.317 316.747 350.186 316.699C350.055 316.651 349.915 316.629 349.775 316.635L349.823 316.612ZM366.781 316.612C366.571 316.612 366.366 316.674 366.191 316.791C366.017 316.908 365.881 317.074 365.801 317.269C365.721 317.463 365.701 317.677 365.743 317.883C365.785 318.089 365.887 318.277 366.036 318.425C366.186 318.573 366.376 318.673 366.582 318.713C366.788 318.752 367.002 318.729 367.195 318.647C367.389 318.565 367.553 318.428 367.668 318.252C367.783 318.076 367.844 317.87 367.841 317.66C367.835 317.384 367.72 317.122 367.522 316.93C367.323 316.738 367.057 316.632 366.781 316.635V316.612ZM324.384 350.176C324.177 350.176 323.974 350.237 323.802 350.353C323.63 350.468 323.495 350.632 323.416 350.823C323.337 351.015 323.316 351.225 323.356 351.429C323.397 351.632 323.497 351.819 323.643 351.965C323.79 352.112 323.977 352.212 324.18 352.252C324.383 352.293 324.594 352.272 324.785 352.193C324.977 352.113 325.141 351.979 325.256 351.806C325.371 351.634 325.432 351.431 325.432 351.224C325.426 350.948 325.312 350.686 325.113 350.494C324.915 350.302 324.649 350.196 324.373 350.2L324.384 350.176ZM341.355 350.176C341.148 350.176 340.945 350.237 340.773 350.353C340.6 350.468 340.466 350.632 340.387 350.823C340.307 351.015 340.287 351.225 340.327 351.429C340.367 351.632 340.467 351.819 340.614 351.965C340.76 352.112 340.947 352.212 341.15 352.252C341.354 352.293 341.565 352.272 341.756 352.193C341.948 352.113 342.111 351.979 342.226 351.806C342.342 351.634 342.403 351.431 342.403 351.224C342.397 350.948 342.282 350.686 342.084 350.494C341.885 350.302 341.619 350.196 341.343 350.2L341.355 350.176ZM358.314 350.176C358.106 350.176 357.904 350.237 357.731 350.353C357.559 350.468 357.425 350.632 357.345 350.823C357.266 351.015 357.245 351.225 357.286 351.429C357.326 351.632 357.426 351.819 357.573 351.965C357.719 352.112 357.906 352.212 358.109 352.252C358.313 352.293 358.523 352.272 358.715 352.193C358.906 352.113 359.07 351.979 359.185 351.806C359.3 351.634 359.362 351.431 359.362 351.224C359.356 350.948 359.241 350.686 359.043 350.494C358.844 350.302 358.578 350.196 358.302 350.2L358.314 350.176ZM315.917 339.306C315.706 339.304 315.5 339.364 315.323 339.48C315.147 339.595 315.01 339.761 314.928 339.955C314.846 340.149 314.824 340.363 314.865 340.57C314.905 340.776 315.007 340.966 315.156 341.115C315.304 341.264 315.494 341.365 315.701 341.406C315.908 341.446 316.122 341.424 316.316 341.343C316.51 341.261 316.676 341.123 316.791 340.947C316.907 340.771 316.967 340.565 316.965 340.354C316.962 340.216 316.932 340.081 316.876 339.955C316.821 339.829 316.741 339.715 316.641 339.62C316.542 339.525 316.424 339.45 316.296 339.4C316.168 339.35 316.031 339.326 315.893 339.329L315.917 339.306ZM332.876 339.306C332.665 339.306 332.46 339.368 332.285 339.485C332.111 339.602 331.975 339.769 331.895 339.963C331.815 340.157 331.795 340.371 331.837 340.577C331.879 340.783 331.981 340.972 332.13 341.119C332.28 341.267 332.47 341.367 332.676 341.407C332.882 341.446 333.096 341.424 333.289 341.342C333.483 341.26 333.648 341.122 333.763 340.946C333.878 340.77 333.938 340.564 333.935 340.354C333.932 340.215 333.902 340.079 333.846 339.952C333.789 339.825 333.709 339.711 333.608 339.615C333.507 339.52 333.388 339.446 333.259 339.397C333.129 339.348 332.991 339.325 332.852 339.329L332.876 339.306ZM349.846 339.306C349.636 339.304 349.429 339.364 349.253 339.48C349.077 339.595 348.939 339.761 348.857 339.955C348.776 340.149 348.754 340.363 348.794 340.57C348.835 340.776 348.936 340.966 349.085 341.115C349.234 341.264 349.424 341.365 349.631 341.406C349.837 341.446 350.051 341.424 350.245 341.343C350.44 341.261 350.605 341.123 350.721 340.947C350.836 340.771 350.897 340.565 350.894 340.354C350.891 340.212 350.86 340.072 350.801 339.943C350.743 339.814 350.659 339.698 350.554 339.602C350.45 339.506 350.327 339.433 350.193 339.386C350.059 339.339 349.917 339.32 349.775 339.329L349.846 339.306ZM366.805 339.306C366.595 339.306 366.389 339.368 366.215 339.485C366.04 339.602 365.904 339.769 365.825 339.963C365.745 340.157 365.724 340.371 365.766 340.577C365.808 340.783 365.91 340.972 366.06 341.119C366.209 341.267 366.399 341.367 366.605 341.407C366.812 341.446 367.025 341.424 367.219 341.342C367.412 341.26 367.577 341.122 367.692 340.946C367.807 340.77 367.867 340.564 367.865 340.354C367.862 340.215 367.831 340.079 367.775 339.952C367.719 339.825 367.638 339.711 367.537 339.615C367.436 339.52 367.318 339.446 367.188 339.397C367.058 339.348 366.92 339.325 366.781 339.329L366.805 339.306ZM315.917 362C315.706 361.998 315.5 362.058 315.323 362.174C315.147 362.289 315.01 362.455 314.928 362.649C314.846 362.843 314.824 363.057 314.865 363.264C314.905 363.471 315.007 363.66 315.156 363.809C315.304 363.958 315.494 364.06 315.701 364.1C315.908 364.141 316.122 364.119 316.316 364.037C316.51 363.955 316.676 363.818 316.791 363.641C316.907 363.465 316.967 363.259 316.965 363.048C316.962 362.911 316.932 362.775 316.876 362.649C316.821 362.523 316.741 362.409 316.641 362.314C316.542 362.219 316.424 362.144 316.296 362.094C316.168 362.045 316.031 362.02 315.893 362.024L315.917 362ZM332.876 362C332.665 362 332.46 362.063 332.285 362.18C332.111 362.297 331.975 362.463 331.895 362.657C331.815 362.851 331.795 363.065 331.837 363.271C331.879 363.477 331.981 363.666 332.13 363.814C332.28 363.961 332.47 364.061 332.676 364.101C332.882 364.141 333.096 364.118 333.289 364.036C333.483 363.954 333.648 363.816 333.763 363.64C333.878 363.464 333.938 363.258 333.935 363.048C333.932 362.91 333.902 362.773 333.846 362.646C333.789 362.519 333.709 362.405 333.608 362.31C333.507 362.214 333.388 362.14 333.259 362.091C333.129 362.042 332.991 362.019 332.852 362.024L332.876 362Z" fill="white"/>
<path d="M322.029 327.847C328.977 326.269 335.832 324.314 342.686 322.359C349.54 320.404 356.406 318.449 363.213 316.317C367.052 315.14 370.903 313.962 374.707 312.584C374.813 312.584 374.778 312.372 374.707 312.396C367.771 313.962 360.893 315.929 354.051 317.801C347.208 319.674 340.319 321.711 333.488 323.76C329.637 324.938 325.798 326.116 321.994 327.494C321.77 327.564 321.829 327.894 322.029 327.847Z" fill="#263238"/>
<path d="M322.206 313.02C321.24 313.114 320.274 313.314 319.32 313.502C319.248 313.523 319.181 313.562 319.128 313.616C319.074 313.67 319.035 313.736 319.014 313.809C317.954 317.436 317.201 321.169 316.447 324.867C315.693 328.565 315.045 332.169 314.445 335.843C314.115 337.81 313.832 339.8 313.609 341.732C312.407 344.135 311.675 346.745 311.453 349.422C311.453 349.453 311.466 349.483 311.488 349.505C311.51 349.527 311.54 349.54 311.571 349.54C311.602 349.54 311.632 349.527 311.654 349.505C311.677 349.483 311.689 349.453 311.689 349.422C311.984 347.046 312.598 344.721 313.514 342.509C312.919 347.357 313.05 352.267 313.903 357.077C312.725 349.893 314.492 342.403 315.67 335.337C316.258 331.804 316.93 328.271 317.625 324.738C318.319 321.205 319.132 317.73 319.78 314.209C320.604 313.891 321.44 313.585 322.229 313.208C322.243 313.195 322.253 313.18 322.259 313.162C322.265 313.145 322.268 313.126 322.265 313.108C322.263 313.089 322.256 313.072 322.246 313.057C322.236 313.041 322.222 313.029 322.206 313.02Z" fill="#263238"/>
<path d="M259.093 252.345C258.54 254.347 248.388 267.125 239.155 266.348C236.152 266.088 236.799 249.613 236.799 249.613L236.575 248.435L233.396 231.252L253.876 219.134L256.832 217.532C256.832 217.532 257.397 222.243 258.01 228.237C258.01 228.508 258.068 228.779 258.092 229.074C258.116 229.368 258.186 229.733 258.21 230.039C258.328 230.922 258.422 231.829 258.516 232.736C258.587 233.419 258.645 234.091 258.693 234.809C258.74 235.527 258.81 236.246 258.869 236.964C259.291 242.08 259.366 247.219 259.093 252.345Z" fill="#F7A9A0"/>
<path d="M258.033 228.202C256.131 232.924 253.225 237.175 249.515 240.66C245.806 244.146 241.383 246.783 236.552 248.388L233.372 231.205L253.876 219.134L256.832 217.532C256.832 217.532 257.397 222.266 258.033 228.202Z" fill="#263238"/>
<path d="M211.761 203.4C208.593 233.914 226.518 239.261 233.101 239.908C239.072 240.521 259.493 241.852 265.794 211.82C272.095 181.789 258.905 170.683 245.314 168.552C231.723 166.42 214.929 172.886 211.761 203.4Z" fill="#F7A9A0"/>
<path d="M222.043 196.31C222.745 196.263 223.445 196.181 224.139 196.063C224.891 196.078 225.627 195.847 226.235 195.403C226.403 195.228 226.506 195.002 226.53 194.76C226.553 194.519 226.495 194.277 226.365 194.073C226.044 193.715 225.634 193.448 225.177 193.299C224.72 193.15 224.232 193.125 223.762 193.225C222.775 193.279 221.843 193.699 221.148 194.402C221.012 194.574 220.927 194.78 220.901 194.997C220.876 195.215 220.912 195.435 221.005 195.633C221.098 195.831 221.244 195.999 221.428 196.119C221.611 196.239 221.824 196.305 222.043 196.31Z" fill="#263238"/>
<path d="M243.924 196.145C243.234 195.989 242.554 195.792 241.887 195.556C241.143 195.448 240.455 195.096 239.932 194.555C239.8 194.356 239.738 194.118 239.755 193.88C239.772 193.641 239.867 193.415 240.026 193.236C240.398 192.929 240.845 192.727 241.321 192.65C241.798 192.574 242.286 192.625 242.735 192.801C243.69 193.02 244.53 193.586 245.09 194.39C245.199 194.58 245.253 194.797 245.246 195.015C245.239 195.234 245.171 195.446 245.05 195.628C244.929 195.81 244.759 195.955 244.561 196.047C244.362 196.138 244.142 196.172 243.924 196.145Z" fill="#263238"/>
<path d="M238.472 205.308C238.472 205.237 238.625 205.425 238.613 205.508C238.342 207.581 238.389 210.007 240.203 210.878C240.203 210.878 240.203 211.008 240.203 210.996C237.894 210.442 237.894 207.227 238.472 205.308Z" fill="#263238"/>
<path d="M240.544 203.317C243.913 203.4 243.512 210.124 240.391 210.066C237.27 210.007 237.718 203.258 240.544 203.317Z" fill="#263238"/>
<path d="M241.84 203.753C242.405 204.165 242.947 204.872 243.642 204.99C244.337 205.108 245.126 204.448 245.703 203.812C245.762 203.812 245.809 203.812 245.809 203.895C245.75 205.19 245.185 206.485 243.783 206.591C242.382 206.697 241.675 205.508 241.428 204.236C241.428 203.93 241.616 203.588 241.84 203.753Z" fill="#263238"/>
<path d="M225.764 203.824C225.764 203.741 225.588 203.906 225.588 203.989C225.517 206.085 225.081 208.464 223.15 209.029C223.079 209.029 223.079 209.147 223.15 209.147C225.482 208.923 226.023 205.767 225.764 203.824Z" fill="#263238"/>
<path d="M224.045 201.468C220.712 200.985 219.994 207.698 223.079 208.146C226.165 208.593 226.848 201.881 224.045 201.468Z" fill="#263238"/>
<path d="M222.584 201.763C222.007 202.057 221.407 202.646 220.782 202.622C220.158 202.599 219.605 201.81 219.181 201.068C219.181 200.985 219.087 201.068 219.075 201.127C218.898 202.399 219.181 203.788 220.382 204.165C221.583 204.542 222.431 203.494 222.867 202.257C222.973 202.022 222.832 201.645 222.584 201.763Z" fill="#263238"/>
<path d="M235.174 221.56C234.668 222.043 234.161 222.737 233.396 222.737C232.618 222.719 231.854 222.53 231.158 222.184C231.144 222.181 231.129 222.182 231.116 222.187C231.102 222.191 231.09 222.199 231.081 222.21C231.071 222.221 231.065 222.234 231.062 222.248C231.059 222.262 231.059 222.276 231.064 222.29C231.354 222.708 231.754 223.039 232.219 223.247C232.684 223.454 233.197 223.531 233.702 223.468C234.131 223.365 234.519 223.136 234.817 222.81C235.115 222.485 235.309 222.078 235.374 221.642C235.409 221.489 235.245 221.489 235.174 221.56Z" fill="#263238"/>
<path d="M226.989 213.41C226.989 213.41 226.341 216.496 226.235 217.968C226.235 218.097 226.577 218.192 227.071 218.262C227.071 218.262 227.071 218.262 227.13 218.262C228.374 218.583 229.682 218.553 230.911 218.177C232.139 217.801 233.239 217.093 234.091 216.131C234.208 216.001 234.032 215.836 233.89 215.919C231.927 217.063 229.648 217.546 227.389 217.297C227.307 216.884 228.673 212.056 228.449 212.021C227.3 212.038 226.159 212.212 225.058 212.539C226.235 206.085 228.414 199.855 229.474 193.413C229.49 193.365 229.485 193.312 229.462 193.267C229.439 193.221 229.399 193.187 229.35 193.172C229.302 193.156 229.249 193.16 229.204 193.183C229.159 193.207 229.124 193.247 229.109 193.295C226.341 199.643 224.846 207.051 223.468 213.693C223.279 214.517 226.388 213.622 226.989 213.41Z" fill="#263238"/>
<path d="M227.578 217.721C228.304 218.944 229.335 219.958 230.569 220.665C231.253 221.035 232.037 221.176 232.807 221.065C234.491 220.83 234.703 219.346 234.55 218.027C234.466 217.33 234.3 216.647 234.055 215.989C232.136 217.243 229.867 217.849 227.578 217.721Z" fill="#263238"/>
<path d="M230.569 220.665C231.253 221.035 232.037 221.176 232.807 221.065C234.491 220.83 234.703 219.346 234.55 218.027C233.687 217.959 232.826 218.181 232.105 218.66C231.383 219.138 230.843 219.844 230.569 220.665Z" fill="#FF9CBD"/>
<path d="M264.522 210.054C257.456 209.547 258.457 198.465 258.457 198.465C258.457 198.465 250.543 197.087 251.026 184.18C251.026 184.18 246.55 191.635 235.621 192.318C233.266 192.471 241.51 187.171 241.51 187.171C241.51 187.171 230.463 194.402 213.681 189.845C212.503 189.527 217.732 172.085 231.606 167.044C245.479 162.004 257.244 166.491 264.817 175.606C264.817 175.606 274.238 180.929 274.58 190.304C274.921 199.678 267.254 210.254 264.522 210.054Z" fill="#263238"/>
<path d="M269.951 205.343C272.291 201.487 273.649 197.115 273.903 192.612C274.158 188.108 273.302 183.611 271.412 179.516C264.958 165.125 241.804 159.413 226.53 169.6C226.53 169.6 252.792 164.889 261.672 176.737C270.552 188.584 269.951 205.343 269.951 205.343Z" fill="#008282"/>
<path d="M260.542 213.01C260.542 213.01 267.396 203.588 271.694 205.944C275.993 208.299 270.74 222.208 265.606 224.009C264.964 224.288 264.273 224.434 263.574 224.438C262.874 224.442 262.181 224.305 261.537 224.034C260.892 223.763 260.308 223.365 259.822 222.863C259.335 222.361 258.955 221.765 258.704 221.112L260.542 213.01Z" fill="#F7A9A0"/>
<path d="M270.093 209.924C270.175 209.924 270.187 210.03 270.093 210.066C266.489 211.444 264.558 214.776 263.18 218.145C264.263 216.849 265.723 216.143 267.478 217.438C267.572 217.509 267.478 217.65 267.372 217.627C266.746 217.414 266.07 217.402 265.436 217.592C264.803 217.782 264.245 218.164 263.839 218.686C263.17 219.559 262.594 220.498 262.12 221.489C261.943 221.807 261.366 221.631 261.496 221.266V221.183C261.531 216.625 265.182 210.301 270.093 209.924Z" fill="#263238"/>
<path d="M300.654 170.483C297.55 165.88 295.871 160.465 295.825 154.914C295.825 135.188 317.495 119.195 344.193 119.195C370.892 119.195 392.538 135.188 392.538 154.914C392.538 174.64 370.892 190.622 344.193 190.622C331.239 190.622 319.462 186.877 310.829 180.741L294.177 184.981L300.654 170.483Z" fill="white"/>
<path d="M300.654 170.483C297.625 166.141 295.912 161.019 295.717 155.729C295.523 150.439 296.857 145.205 299.559 140.652C302.252 136.108 305.862 132.173 310.158 129.099C314.432 126.002 319.165 123.594 324.184 121.962C329.189 120.307 334.378 119.271 339.636 118.877C344.897 118.519 350.183 118.787 355.381 119.677C356.665 119.937 357.984 120.113 359.256 120.455L363.072 121.479L366.805 122.798C368.053 123.246 369.231 123.847 370.444 124.365C375.236 126.611 379.616 129.649 383.399 133.351C387.227 137.077 390.096 141.676 391.76 146.753C393.379 151.885 393.432 157.383 391.913 162.546C390.338 167.652 387.54 172.297 383.764 176.077C380.052 179.827 375.727 182.914 370.974 185.204C366.22 187.508 361.165 189.129 355.958 190.021C350.769 190.954 345.486 191.255 340.224 190.916C334.966 190.603 329.769 189.618 324.761 187.984C319.738 186.357 314.993 183.974 310.688 180.918H310.912L294.224 185.016L293.953 185.087L294.071 184.839L300.654 170.483ZM300.654 170.483L294.294 184.981L294.141 184.804L310.77 180.435H310.888L310.994 180.505C319.689 186.313 329.813 189.617 340.26 190.057C345.453 190.337 350.66 189.989 355.77 189.02C360.881 188.146 365.844 186.56 370.515 184.309C375.182 182.064 379.429 179.032 383.069 175.347C386.706 171.687 389.398 167.196 390.912 162.263C392.347 157.315 392.281 152.052 390.724 147.141C389.125 142.238 386.366 137.794 382.68 134.187C378.991 130.559 374.714 127.58 370.032 125.378C368.854 124.871 367.676 124.27 366.499 123.835L362.848 122.527L359.091 121.503C357.843 121.161 356.547 120.996 355.287 120.726C350.167 119.844 344.962 119.559 339.777 119.878C334.574 120.221 329.433 121.198 324.467 122.787C319.518 124.331 314.841 126.64 310.605 129.629C306.346 132.616 302.74 136.438 300.006 140.864C297.297 145.339 295.902 150.485 295.978 155.715C296.136 160.976 297.754 166.09 300.654 170.483Z" fill="#263238"/>
<path d="M325.185 148.861V162.133H322.688V156.469H316.659V162.133H314.08V148.861H316.659V154.231H322.688V148.861H325.185Z" fill="#263238"/>
<path d="M337.174 159.872V162.133H327.953V148.861H336.998V151.122H330.532V154.361H336.126V156.457H330.532V159.908L337.174 159.872Z" fill="#263238"/>
<path d="M339.176 162.133V148.861H341.755V159.872H348.598V162.133H339.176Z" fill="#263238"/>
<path d="M350.105 162.133V148.861H352.684V159.872H359.456V162.133H350.105Z" fill="#263238"/>
<path d="M365.851 162.228C364.936 162.241 364.03 162.048 363.201 161.662C362.427 161.298 361.734 160.781 361.164 160.143C360.018 158.869 359.385 157.216 359.385 155.503C359.383 154.631 359.551 153.767 359.88 152.959C360.196 152.161 360.66 151.43 361.246 150.804C361.827 150.176 362.528 149.671 363.307 149.32C364.124 148.949 365.012 148.76 365.91 148.766C366.819 148.757 367.718 148.959 368.536 149.355C369.303 149.736 369.991 150.26 370.562 150.898C371.689 152.183 372.32 153.829 372.34 155.538C372.343 156.407 372.175 157.267 371.845 158.07C371.543 158.876 371.087 159.616 370.503 160.249C369.918 160.867 369.223 161.37 368.454 161.733C367.632 162.083 366.744 162.252 365.851 162.228ZM362 155.538C361.997 156.102 362.084 156.663 362.259 157.199C362.421 157.716 362.677 158.199 363.013 158.624C363.332 159.032 363.733 159.369 364.19 159.613C364.702 159.865 365.264 159.995 365.833 159.995C366.403 159.995 366.965 159.865 367.476 159.613C367.935 159.361 368.336 159.016 368.654 158.6C368.985 158.168 369.24 157.682 369.408 157.163C369.62 156.645 369.752 156.097 369.796 155.538C369.796 154.974 369.705 154.413 369.525 153.878C369.359 153.36 369.099 152.877 368.76 152.453C368.442 152.047 368.04 151.713 367.582 151.475C367.069 151.231 366.508 151.105 365.939 151.105C365.371 151.105 364.81 151.231 364.296 151.475C363.835 151.724 363.433 152.069 363.119 152.488C362.789 152.915 362.538 153.398 362.377 153.913C362.166 154.431 362.039 154.98 362 155.538Z" fill="#263238"/>
<path d="M374.566 157.152V148.731H377.063V157.152H374.566ZM374.566 162.133V159.319H377.063V162.133H374.566Z" fill="#263238"/>
</svg>
