<svg width="530" height="469" viewBox="0 0 530 469" fill="none" xmlns="http://www.w3.org/2000/svg">
<path d="M271.051 468.499C414.065 468.499 530 405.472 530 327.725C530 249.977 414.065 186.95 271.051 186.95C128.037 186.95 12.1021 249.977 12.1021 327.725C12.1021 405.472 128.037 468.499 271.051 468.499Z" fill="#F5F5F5"/>
<path d="M402.054 310.775C431.876 310.775 456.052 296.816 456.052 279.596C456.052 262.376 431.876 248.417 402.054 248.417C372.231 248.417 348.055 262.376 348.055 279.596C348.055 296.816 372.231 310.775 402.054 310.775Z" fill="#E0E0E0"/>
<path d="M109.946 389.84C139.768 389.84 163.944 375.88 163.944 358.661C163.944 341.441 139.768 327.482 109.946 327.482C80.1229 327.482 55.9468 341.441 55.9468 358.661C55.9468 375.88 80.1229 389.84 109.946 389.84Z" fill="#E0E0E0"/>
<path d="M483.203 268.69L475.399 264.232C475.399 264.232 471.659 243.612 474.45 225.898C478.386 200.983 495.348 192.38 501.519 194.858C507.69 197.336 509.125 204.722 498.045 219.171C491.434 227.611 483.04 245.557 483.203 268.69Z" fill="#008282"/>
<g opacity="0.1">
<path d="M483.203 268.69L475.399 264.232C475.399 264.232 471.659 243.612 474.45 225.898C478.386 200.983 495.348 192.38 501.519 194.858C507.69 197.336 509.125 204.722 498.045 219.171C491.434 227.611 483.04 245.557 483.203 268.69Z" fill="black"/>
</g>
<path d="M479.486 258.547H479.567C479.64 258.54 479.711 258.519 479.776 258.484C479.841 258.449 479.898 258.402 479.944 258.344C479.99 258.287 480.025 258.222 480.046 258.151C480.066 258.081 480.073 258.007 480.065 257.934C477.518 234.523 487.637 209.307 498.474 199.269C498.583 199.168 498.647 199.027 498.652 198.879C498.658 198.73 498.604 198.585 498.503 198.476C498.401 198.367 498.261 198.303 498.112 198.297C497.963 198.292 497.819 198.346 497.71 198.447C486.688 208.624 476.372 234.338 478.954 258.061C478.972 258.191 479.035 258.311 479.133 258.4C479.23 258.488 479.355 258.541 479.486 258.547Z" fill="white"/>
<path d="M504.841 281.182C506.069 281.888 508.604 280.348 509.577 279.688C511.245 278.557 512.594 277.014 513.49 275.208C514.494 273.155 514.838 270.842 514.474 268.585C514.27 267.411 513.991 266.251 513.64 265.112C513.305 263.954 512.98 262.796 512.656 261.697C512.254 260.585 512.085 259.403 512.158 258.223C512.448 255.908 514.474 254.252 516.408 252.84C518.492 251.277 520.668 249.216 520.657 246.402C520.499 244.219 519.629 242.149 518.179 240.509C516.836 238.807 515.238 237.302 514.022 235.508C513.06 234.256 512.561 232.709 512.61 231.131C512.735 230.168 513.058 229.242 513.559 228.41C514.701 226.668 515.7 224.837 516.546 222.934C517.23 220.966 517.137 218.511 515.597 217.145C514.908 216.64 514.125 216.278 513.294 216.079C512.463 215.88 511.601 215.849 510.758 215.987C509.16 216.182 507.624 216.719 506.254 217.562C501.785 220.051 499.238 225.342 494.502 227.253C492.638 227.801 490.744 228.242 488.829 228.572C487.856 228.749 486.932 229.129 486.116 229.688C485.3 230.247 484.611 230.971 484.094 231.814C482.357 235.288 485.587 239.571 484.36 243.253C483.272 246.518 480.1 247.768 478.328 250.709C477.6 252.007 477.308 253.505 477.494 254.981C477.646 257.479 478.254 259.928 479.289 262.206C480.451 264.47 481.778 266.645 483.26 268.713C483.272 268.759 504.644 281.078 504.841 281.182Z" fill="#008282"/>
<path d="M492.176 274.444C492.25 274.442 492.323 274.426 492.39 274.396C492.458 274.366 492.519 274.323 492.569 274.269C492.62 274.215 492.659 274.151 492.685 274.082C492.711 274.013 492.723 273.939 492.72 273.865C491.805 251.786 502.202 227.415 509.774 220.329C509.827 220.279 509.87 220.219 509.9 220.152C509.93 220.085 509.946 220.013 509.948 219.94C509.951 219.867 509.938 219.794 509.912 219.726C509.886 219.658 509.847 219.595 509.797 219.542C509.747 219.489 509.687 219.446 509.62 219.416C509.553 219.386 509.481 219.369 509.408 219.367C509.335 219.365 509.262 219.377 509.194 219.403C509.125 219.429 509.063 219.468 509.01 219.519C501.287 226.743 490.682 251.52 491.643 273.934C491.654 274.07 491.715 274.196 491.813 274.29C491.911 274.384 492.04 274.438 492.176 274.444Z" fill="white"/>
<path d="M495.487 248.359H495.649C500.879 246.913 506.253 246.047 511.672 245.777C511.819 245.768 511.956 245.703 512.055 245.595C512.155 245.487 512.208 245.345 512.205 245.198C512.205 245.124 512.19 245.051 512.16 244.983C512.131 244.915 512.087 244.854 512.033 244.804C511.979 244.754 511.914 244.716 511.844 244.692C511.774 244.668 511.7 244.659 511.626 244.666C506.113 244.943 500.646 245.825 495.325 247.294C495.255 247.315 495.189 247.35 495.133 247.396C495.076 247.443 495.03 247.5 494.995 247.564C494.961 247.629 494.939 247.699 494.932 247.772C494.925 247.845 494.933 247.918 494.954 247.988C494.991 248.099 495.063 248.195 495.159 248.262C495.255 248.328 495.37 248.363 495.487 248.359Z" fill="white"/>
<path d="M34.3198 293.767L42.0769 289.286C42.0769 289.286 45.8397 268.666 43.0379 250.952C39.113 226.037 22.1979 217.446 15.9806 219.912C9.7633 222.378 8.37396 229.777 19.4539 244.226C26.0648 252.666 34.5282 270.646 34.3198 293.767Z" fill="#008282"/>
<g opacity="0.1">
<path d="M34.3198 293.767L42.0769 289.286C42.0769 289.286 45.8397 268.666 43.0379 250.952C39.113 226.037 22.1979 217.446 15.9806 219.912C9.7633 222.378 8.37396 229.777 19.4539 244.226C26.0648 252.666 34.5282 270.646 34.3198 293.767Z" fill="black"/>
</g>
<path d="M38.4531 292.575C38.3016 292.566 38.1596 292.497 38.0578 292.385C37.9561 292.272 37.9026 292.124 37.9089 291.972C39.7382 257.239 34.8524 237.476 21.5611 225.747C21.4543 225.637 21.3945 225.49 21.3945 225.336C21.3945 225.183 21.4543 225.036 21.5611 224.925C21.6712 224.819 21.8186 224.759 21.9721 224.759C22.1255 224.759 22.2729 224.819 22.3831 224.925C35.9638 236.908 40.977 256.996 39.1246 292.077C39.1148 292.154 39.0894 292.229 39.0499 292.296C39.0105 292.364 38.9578 292.422 38.8951 292.469C38.8323 292.515 38.7608 292.549 38.6849 292.567C38.6089 292.585 38.5301 292.588 38.4531 292.575Z" fill="white"/>
<path d="M36.6699 292.401C36.832 284.945 32.4903 260.249 17.8791 251.265C3.26795 242.281 -3.82924 253.476 2.08702 260.261C6.42869 265.228 14.51 268.817 22.1166 279.086C27.3382 286.149 30.3484 296.071 30.3484 296.071L36.6699 292.401Z" fill="#008282"/>
<path d="M34.0533 295.295C33.9056 295.296 33.7633 295.239 33.6557 295.138C33.5481 295.037 33.4832 294.899 33.4744 294.751C32.0735 275.926 21.3871 259.034 7.48221 253.685C7.41075 253.657 7.34538 253.616 7.28983 253.564C7.23429 253.511 7.18965 253.448 7.15847 253.378C7.12729 253.308 7.11018 253.233 7.10812 253.156C7.10606 253.08 7.11908 253.004 7.14645 252.932C7.17382 252.861 7.21499 252.795 7.26762 252.74C7.32026 252.684 7.38331 252.64 7.45319 252.608C7.52308 252.577 7.59841 252.56 7.67491 252.558C7.7514 252.556 7.82755 252.569 7.89901 252.596C22.2439 258.119 33.1965 275.416 34.6322 294.67C34.6385 294.747 34.6293 294.825 34.6052 294.898C34.5811 294.971 34.5426 295.039 34.4918 295.097C34.4411 295.156 34.3793 295.203 34.3099 295.237C34.2406 295.271 34.1651 295.291 34.088 295.295H34.0533Z" fill="white"/>
<path d="M328.454 72.7932C330.213 74.2404 332.228 74.9929 334.543 77.239C336.007 78.9047 337.855 80.1883 339.927 80.9787C342.602 82.0438 345.114 81.7312 352.535 80.5387C361.601 79.0915 365.502 77.5632 369.416 74.2288C373.989 70.3271 384.224 58.5525 389.167 53.9329C394.401 49.0471 401.59 50.9343 401.59 50.9343C399.365 58.176 396.055 65.0386 391.772 71.288C387.813 76.9264 380.415 82.3333 377.069 85.1119C371.708 89.5694 368.86 91.3292 357.097 92.2207C348.217 92.8922 347.036 93.1006 339.73 92.8922C337.102 92.8112 335.47 92.788 331.163 92.4291C329.293 92.3067 327.441 91.9845 325.64 91.4682C323.603 90.9992 321.65 90.2182 319.851 89.1526C317.503 87.628 315.608 85.5007 314.363 82.9932C313.683 81.6145 313.334 80.0962 313.344 78.5589C313.363 77.0096 313.929 75.5168 314.942 74.3446C315.141 74.1052 315.395 73.9184 315.683 73.8004C316.244 73.7048 316.821 73.8292 317.292 74.1478C320.071 75.5718 322.873 77.5401 325.791 78.6631C328.245 79.6009 330.121 79.9367 329.935 79.4388C329.75 78.941 328.268 78.4894 326.74 76.7643C325.212 75.0392 324.83 72.6426 325.814 71.8901C326.798 71.1375 326.74 71.3344 328.454 72.7932Z" fill="#FFA8A7"/>
<path d="M403.698 50.8995C400.899 49.5545 397.725 49.2072 394.702 49.9154C390.128 51.2353 386.458 54.2224 382.093 58.9114C377.729 63.6004 370.354 71.1723 370.354 71.1723C370.354 71.1723 373.989 80.3535 382.14 83.6184L399.229 67.8147L403.698 50.8995Z" fill="#E0E0E0"/>
<path d="M428.81 260.689H418.448V278.426H428.81V260.689Z" fill="#FFA8A7"/>
<path d="M400.132 265.158L389.781 265.517L389.26 246.75L400.132 246.391V265.158Z" fill="#FFA8A7"/>
<path d="M433.256 128.274C433.256 138.161 431.508 195.703 431.508 195.703C431.739 198.551 434.483 203.611 434.703 213.869C435.004 228.735 429.285 269.558 429.285 269.558C427.49 270.444 425.523 270.925 423.522 270.965C421.521 271.005 419.535 270.603 417.707 269.789C417.707 269.789 413.006 214.448 411.142 199.732C409.522 186.881 406.778 151.985 406.778 151.985L401.903 193.92C403.091 199.322 403.512 204.864 403.154 210.384C402.667 217.191 400.746 259.346 400.746 259.346C398.941 260.367 396.934 260.978 394.868 261.136C392.801 261.294 390.724 260.995 388.786 260.261C388.786 260.261 381.48 200.161 381.364 193.92C381.225 186.8 384.062 114.103 384.062 114.103L433.256 128.274Z" fill="#37474F"/>
<path d="M426.414 55.4959C428.695 56.5067 430.487 58.3738 431.404 60.6943C432.466 63.5559 432.981 66.592 432.92 69.644V89.9399L433.221 128.274C418.344 136.112 399.449 136.633 383.576 125.044C383.576 125.044 384.467 75.7107 384.467 67.641C384.467 67.2821 384.467 66.9116 384.467 66.4832C385.046 54.9054 396.392 47.0441 407.623 49.9154L417.047 52.3931L426.471 55.4959H426.414Z" fill="#F0F0F0"/>
<path d="M403.08 31.6253C410.735 29.8187 415.475 22.1488 413.669 14.4942C411.862 6.83958 404.192 2.09888 396.538 3.90553C388.883 5.71218 384.142 13.382 385.949 21.0366C387.756 28.6912 395.425 33.432 403.08 31.6253Z" fill="#008282"/>
<path opacity="0.5" d="M403.08 31.6253C410.735 29.8187 415.475 22.1488 413.669 14.4942C411.862 6.83958 404.192 2.09888 396.538 3.90553C388.883 5.71218 384.142 13.382 385.949 21.0366C387.756 28.6912 395.425 33.432 403.08 31.6253Z" fill="black"/>
<path d="M424.422 27.8597C424.422 27.8597 422.107 38.7081 421.192 40.4795C420.58 41.5875 419.564 42.4168 418.355 42.795L418.518 35.1653L424.422 27.8597Z" fill="#008282"/>
<path opacity="0.5" d="M424.422 27.8597C424.422 27.8597 422.107 38.7081 421.192 40.4795C420.58 41.5875 419.564 42.4168 418.355 42.795L418.518 35.1653L424.422 27.8597Z" fill="black"/>
<path d="M421.528 12.3339C422.335 12.2395 423.154 12.3313 423.921 12.6023C424.687 12.8732 425.382 13.3161 425.951 13.8969C427.849 15.8304 426.784 21.9087 424.422 27.8597L420.081 28.3692L421.528 12.3339Z" fill="#008282"/>
<path opacity="0.5" d="M421.528 12.3339C422.335 12.2395 423.154 12.3313 423.921 12.6023C424.687 12.8732 425.382 13.3161 425.951 13.8969C427.849 15.8304 426.784 21.9087 424.422 27.8597L420.081 28.3692L421.528 12.3339Z" fill="black"/>
<path d="M418.772 28.3691C419.64 28.8901 420.891 27.2114 421.956 26.0536C423.021 24.8958 426.587 23.3907 428.289 27.084C429.991 30.7773 426.749 35.8021 423.982 36.6704C419.223 38.164 418.517 35.1074 418.517 35.1074L418.205 52.8446C412.288 60.4281 395.871 59.7913 402.714 51.8605V46.6389C400.593 46.9745 398.443 47.0832 396.299 46.9631C392.826 46.4189 390.592 43.6634 389.526 39.8775C387.825 33.7876 387.211 28.8786 388.623 16.9071C390.21 3.78948 405.469 3.65054 413.712 8.80266C421.956 13.9548 418.772 28.3691 418.772 28.3691Z" fill="#FFA8A7"/>
<path d="M418.772 29.8279C419.212 29.8279 420.879 27.0724 421.956 26.0883C423.461 24.7221 421.528 12.3339 421.528 12.3339C421.923 11.2624 421.997 10.0987 421.74 8.98584C421.483 7.873 420.906 6.85958 420.081 6.07028C418.02 3.75472 414.581 3.5579 408.7 2.59694C405.62 2.11067 400.943 1.25392 397.863 0.675026C394.193 -0.00806385 391.148 -0.725886 388.601 1.53179C387.581 2.41051 386.859 3.58439 386.536 4.89109C386.212 6.19779 386.303 7.57274 386.794 8.8258C387.52 10.3866 388.817 11.6093 390.418 12.2413C390.418 12.2413 392.016 13.6653 397.597 14.3484C402.743 14.7296 407.914 14.6288 413.041 14.0474C414.662 13.8274 415.01 15.402 415.878 19.6742C416.665 23.437 417.302 29.8048 418.772 29.8279Z" fill="#008282"/>
<path opacity="0.5" d="M418.772 29.8279C419.212 29.8279 420.879 27.0724 421.956 26.0883C423.461 24.7221 421.528 12.3339 421.528 12.3339C421.923 11.2624 421.997 10.0987 421.74 8.98584C421.483 7.873 420.906 6.85958 420.081 6.07028C418.02 3.75472 414.581 3.5579 408.7 2.59694C405.62 2.11067 400.943 1.25392 397.863 0.675026C394.193 -0.00806385 391.148 -0.725886 388.601 1.53179C387.581 2.41051 386.859 3.58439 386.536 4.89109C386.212 6.19779 386.303 7.57274 386.794 8.8258C387.52 10.3866 388.817 11.6093 390.418 12.2413C390.418 12.2413 392.016 13.6653 397.597 14.3484C402.743 14.7296 407.914 14.6288 413.041 14.0474C414.662 13.8274 415.01 15.402 415.878 19.6742C416.665 23.437 417.302 29.8048 418.772 29.8279Z" fill="black"/>
<path d="M421.516 13.2949L426.784 10.4699C426.615 10.1205 426.378 9.8084 426.087 9.55204C425.796 9.29567 425.456 9.10022 425.088 8.97721C424.72 8.85419 424.331 8.80611 423.945 8.83578C423.558 8.86546 423.181 8.9723 422.836 9.15001C422.125 9.53849 421.591 10.186 421.345 10.9579C421.099 11.7299 421.161 12.5668 421.516 13.2949Z" fill="#008282"/>
<path opacity="0.5" d="M421.516 13.2949L426.784 10.4699C426.615 10.1205 426.378 9.8084 426.087 9.55204C425.796 9.29567 425.456 9.10022 425.088 8.97721C424.72 8.85419 424.331 8.80611 423.945 8.83578C423.558 8.86546 423.181 8.9723 422.836 9.15001C422.125 9.53849 421.591 10.186 421.345 10.9579C421.099 11.7299 421.161 12.5668 421.516 13.2949Z" fill="black"/>
<path d="M402.679 46.6389C402.679 46.6389 410.494 45.0643 413.226 43.6055C414.851 42.7725 416.184 41.464 417.047 39.8543C416.636 41.45 415.907 42.9463 414.905 44.2539C412.902 46.8126 402.725 48.6882 402.725 48.6882L402.679 46.6389Z" fill="#F28F8F"/>
<path d="M403.061 26.4125C403.07 26.7195 403.17 27.017 403.347 27.2679C403.524 27.5187 403.771 27.7118 404.057 27.8231C404.344 27.9343 404.656 27.9587 404.956 27.8933C405.256 27.8278 405.531 27.6754 405.745 27.4551C405.959 27.2348 406.103 26.9563 406.16 26.6545C406.216 26.3526 406.183 26.0407 406.063 25.7578C405.944 25.4749 405.743 25.2335 405.487 25.0637C405.231 24.8939 404.931 24.8033 404.624 24.8032C404.204 24.8123 403.805 24.9862 403.513 25.2874C403.22 25.5885 403.058 25.9927 403.061 26.4125Z" fill="#263238"/>
<path d="M404.717 20.4962L408.074 22.3487C408.31 21.8886 408.359 21.3556 408.213 20.8599C408.066 20.3643 407.735 19.9439 407.287 19.6858C407.066 19.5645 406.823 19.4891 406.573 19.4644C406.322 19.4396 406.069 19.4659 405.829 19.5416C405.588 19.6173 405.366 19.741 405.175 19.9051C404.984 20.0691 404.828 20.2702 404.717 20.4962Z" fill="#263238"/>
<path d="M403.385 37.2261L399.808 38.5692C399.888 38.8071 400.015 39.0265 400.182 39.2143C400.349 39.4022 400.552 39.5546 400.778 39.6626C401.005 39.7705 401.251 39.8319 401.502 39.8429C401.753 39.854 402.004 39.8145 402.239 39.7269C402.715 39.5376 403.1 39.172 403.313 38.7063C403.527 38.2405 403.553 37.7104 403.385 37.2261Z" fill="#F28F8F"/>
<path d="M389.55 21.8045L392.606 19.489C392.469 19.2766 392.29 19.0948 392.08 18.9548C391.87 18.8147 391.633 18.7195 391.384 18.6749C391.135 18.6304 390.88 18.6376 390.634 18.6959C390.388 18.7543 390.157 18.8627 389.955 19.0143C389.536 19.3339 389.259 19.805 389.183 20.3267C389.107 20.8483 389.239 21.3789 389.55 21.8045Z" fill="#263238"/>
<path d="M390.488 25.961C390.499 26.2697 390.601 26.5682 390.781 26.8194C390.961 27.0706 391.21 27.2634 391.499 27.3738C391.787 27.4841 392.102 27.5072 392.403 27.44C392.705 27.3729 392.98 27.2185 393.195 26.9962C393.409 26.7739 393.553 26.4933 393.61 26.1896C393.666 25.8858 393.631 25.5723 393.511 25.2879C393.39 25.0035 393.188 24.761 392.931 24.5904C392.673 24.4198 392.371 24.3287 392.062 24.3285C391.851 24.3315 391.643 24.3762 391.45 24.46C391.256 24.5438 391.081 24.6651 390.935 24.8169C390.789 24.9686 390.674 25.1478 390.597 25.3442C390.52 25.5406 390.483 25.7502 390.488 25.961Z" fill="#263238"/>
<path d="M398.465 24.479L397.955 33.9033L393.035 32.2246L398.465 24.479Z" fill="#F28F8F"/>
<path d="M418.448 273.309V271.827C417.452 272.267 415.148 281.089 411.038 284.794C407.773 287.781 403.316 291.22 402.181 294.543C401.046 297.866 408.387 299.903 411.443 299.371C414.986 298.734 421.134 296.245 422.685 293.929C424.237 291.614 424.943 288.198 426.159 286.496C427.374 284.794 430.304 282.907 430.975 280.939C431.346 279.862 430.906 277.466 430.385 275.509C429.864 273.552 429.389 271.665 428.764 271.827C428.764 272.059 428.764 272.985 428.764 272.985C427.285 274.143 425.455 274.76 423.577 274.733C422.106 274.768 418.436 274.467 418.448 273.309Z" fill="#263238"/>
<path d="M389.677 262.322C389.133 262.322 388.693 263.097 387.512 264.383C385.74 266.174 383.682 267.657 381.422 268.771C377.543 270.704 369.995 273.691 366.579 275.231C364.449 276.192 364.553 278.774 366.753 280.233C368.953 281.691 374.278 282.757 380.646 281.332C384.12 280.545 388.658 277.338 391.529 277.512C394.401 277.685 399.761 277.639 401.88 276.18C403.999 274.722 403.153 271.607 402.551 268.921C401.903 266.003 401.081 261.442 400.12 261.65V262.657C398.87 264.545 392.444 265.309 389.7 263.919L389.677 262.322Z" fill="#263238"/>
<path d="M406.789 151.985C401.434 150.319 396.509 147.497 392.363 143.719C392.363 143.719 395.142 148.929 403.42 153.78L402.262 190.4L406.789 151.985Z" fill="#263238"/>
<path d="M99.5026 85.4014H103.196C108.695 85.4014 113.97 87.586 117.858 91.4748C121.747 95.3635 123.932 100.638 123.932 106.137V150.133H78.7783V106.137C78.7783 100.638 80.963 95.3635 84.8517 91.4748C88.7404 87.586 94.0147 85.4014 99.5142 85.4014H99.5026Z" fill="#263238"/>
<path d="M98.0208 366.429L95.1148 363.847C92.3014 361.277 90.1595 356.901 88.9207 353.96C88.2215 352.263 87.8597 350.446 87.8555 348.611V342.822H77.7134V352.235V352.455C78.1996 354.562 82.8655 360.177 85.5052 363.836C87.2882 366.29 90.6574 369.405 94.6864 369.949C98.5418 370.528 100.498 369.324 98.0208 366.429Z" fill="#FFA8A7"/>
<path d="M127.347 350.985C127.632 350.82 127.88 350.599 128.077 350.336C128.864 349.248 128.239 348.657 127.66 347.789C126.965 346.584 126.383 345.316 125.923 344.003C125.449 342.845 124.835 340.785 124.835 340.785C124.835 340.785 124.835 339.268 124.835 338.654V332.865H114.681V342.533C115.202 344.848 117.263 346.967 118.606 348.762C119.648 350.151 122.334 350.857 123.955 351.205C124.665 351.387 125.403 351.438 126.132 351.355C126.557 351.311 126.97 351.185 127.347 350.985Z" fill="#FFA8A7"/>
<path d="M79.7278 194.835C71.8549 212.028 80.0173 272.58 80.0173 272.58C79.7741 275.37 76.5439 280.858 75.3861 293.13C73.9852 307.637 77.5859 344.073 77.5859 344.073C79.1357 344.97 80.881 345.476 82.6705 345.547C84.46 345.618 86.2398 345.251 87.8554 344.478C87.8554 344.478 97.5229 289.622 99.3406 275.196C100.927 262.611 103.972 234.94 103.972 234.94L110.027 275.185C108.769 279.245 107.859 283.405 107.306 287.619C106.484 296.094 114.704 335.598 114.704 335.598C114.704 335.598 118.178 336.883 124.858 335.899C124.858 335.899 127.764 283.486 128.528 273.263C129.813 256.104 127.857 202.499 124.708 192.346L79.7278 194.835Z" fill="#37474F"/>
<path d="M103.995 234.929L106.542 218.963C106.542 218.963 117.355 216.717 122.253 212.109C122.253 212.109 117.112 218.511 109.517 220.607L106.646 232.891L109.216 269.361L103.995 234.929Z" fill="#263238"/>
<path d="M87.8901 350.718V349.248C88.8627 349.676 91.1319 358.313 95.1726 361.984C98.3796 364.913 102.768 368.293 103.879 371.558C104.991 374.823 97.7776 376.826 94.7789 376.305C91.3056 375.68 85.262 373.226 83.7453 370.956C82.2286 368.687 81.5108 365.329 80.272 363.662C79.0331 361.995 76.1966 360.143 75.5019 358.244C75.1314 357.19 75.5714 354.863 76.0808 352.907C76.5902 350.95 77.0649 349.132 77.6785 349.294V350.452C79.1276 351.588 80.9202 352.196 82.7612 352.177C84.2895 352.154 87.9017 351.853 87.8901 350.718Z" fill="#263238"/>
<path d="M124.835 340.785C125.356 340.785 125.993 341.595 127.15 342.857C128.892 344.616 130.915 346.072 133.136 347.164C136.945 349.074 144.355 352.003 147.713 353.52C149.808 354.458 149.704 356.993 147.539 358.429C145.374 359.865 140.152 360.907 133.877 359.506C130.404 358.742 126.004 355.581 123.179 355.755C120.354 355.928 115.075 355.882 113.014 354.446C110.953 353.011 111.764 349.954 112.354 347.326C113.002 344.455 113.801 339.974 114.751 340.171V341.167C115.978 343.019 122.288 343.772 124.974 342.405L124.835 340.785Z" fill="#263238"/>
<path d="M110.409 134.653C112.878 134.436 115.361 134.854 117.622 135.868C119.884 136.881 121.849 138.456 123.33 140.442C127.394 145.745 138.092 167.465 138.092 167.465C138.092 167.465 161.583 165.89 162.706 164.536C163.829 163.181 163.204 160.426 162.891 158.909C162.579 157.392 162.069 154.035 161.733 153.12C161.143 151.464 163.586 151.962 165.022 153.456C166.457 154.949 167.094 158.006 167.812 158.527C168.53 159.048 173.983 152.738 176.622 149.739C179.262 146.741 180.513 144.599 182.284 145.849C183.569 146.752 182.747 148.547 180.848 151.14C179.962 152.248 179.142 153.408 178.394 154.613C178.174 155.088 178.869 155.459 179.146 155.702C179.667 156.165 180.571 156.917 180.64 157.635C180.628 158.022 180.652 158.41 180.709 158.793C180.953 159.661 182.029 160.067 182.33 160.912C182.55 161.525 182.33 162.209 182.423 162.845C182.504 163.251 182.736 163.621 182.805 164.003C182.833 164.413 182.771 164.823 182.626 165.207C182.48 165.591 182.253 165.938 181.96 166.226C180.096 168.437 177.56 169.283 175.117 170.637C173.091 171.795 171.007 172.246 168.669 173.288C166.33 174.33 137.779 181.717 133.507 179.344C129.235 176.97 112.852 151.244 112.852 151.244C106.461 140.651 110.409 134.653 110.409 134.653Z" fill="#FFA8A7"/>
<path d="M93.6097 135.116C83.5255 135.811 82.8192 140.685 80.2952 146.011C78.3618 150.075 78.9985 154.914 80.4689 159.152L86.8483 179.355C86.8483 179.355 83.5486 187.321 79.7279 194.835C97.3725 204.687 119.405 199.466 124.708 192.322C124.939 190.794 123.55 178.881 122.739 171.089C125.842 163.297 126.664 158.353 125.356 153.201C122.913 143.638 113.466 134.318 109.286 134.676L93.6097 135.116Z" fill="#008282"/>
<path d="M77.6785 94.7215L80.735 99.6305C80.423 99.8469 80.0703 99.9979 79.6983 100.074C79.3263 100.151 78.9427 100.151 78.5706 100.076C78.1985 99.9999 77.8455 99.8496 77.533 99.6338C77.2205 99.418 76.9549 99.1412 76.7522 98.82C76.3534 98.148 76.2271 97.3487 76.3994 96.5864C76.5717 95.8241 77.0294 95.1567 77.6785 94.7215Z" fill="#263238"/>
<path d="M116.522 94.5363C118.907 95.9372 121.848 101.934 121.558 114.52C121.315 125.171 117.853 127.811 116.128 128.563C114.403 129.316 111.046 128.864 107.792 128.32V134.723C107.792 134.723 112.284 139.944 112.007 142.827C111.729 145.71 105.511 146.451 101.309 143.591C98.5651 141.63 96.2097 139.177 94.3619 136.355V120.899C94.3619 120.899 92.1737 123.828 88.573 121.443C84.9723 119.058 84.845 113.153 86.929 111.023C89.013 108.893 93.5168 109.576 94.3504 112.505C94.3504 112.505 99.5372 112.69 106.449 108.904C109.138 107.468 111.45 105.418 113.2 102.922C114.95 100.426 116.088 97.5535 116.522 94.5363Z" fill="#FFA8A7"/>
<path d="M108.464 111.833C108.468 112.097 108.394 112.356 108.253 112.578C108.111 112.8 107.906 112.976 107.666 113.082C107.425 113.189 107.158 113.223 106.898 113.179C106.638 113.135 106.396 113.016 106.204 112.836C106.011 112.656 105.876 112.424 105.815 112.167C105.753 111.911 105.769 111.642 105.859 111.395C105.95 111.147 106.111 110.931 106.323 110.775C106.535 110.618 106.788 110.527 107.051 110.514C107.231 110.507 107.41 110.537 107.578 110.6C107.746 110.663 107.9 110.758 108.031 110.881C108.162 111.003 108.268 111.151 108.342 111.314C108.416 111.478 108.458 111.654 108.464 111.833Z" fill="#263238"/>
<path d="M110.015 120.899L113.13 121.895C113.078 122.107 112.983 122.306 112.852 122.48C112.72 122.654 112.555 122.8 112.365 122.908C112.176 123.017 111.966 123.085 111.749 123.11C111.532 123.135 111.313 123.115 111.104 123.052C110.675 122.909 110.32 122.603 110.116 122.2C109.913 121.796 109.876 121.329 110.015 120.899Z" fill="#F28F8F"/>
<path d="M119.498 107.723L116.742 105.848C116.856 105.664 117.006 105.506 117.183 105.383C117.36 105.259 117.56 105.173 117.771 105.13C117.983 105.087 118.201 105.087 118.412 105.131C118.623 105.175 118.823 105.261 119 105.385C119.369 105.635 119.627 106.018 119.72 106.454C119.813 106.89 119.733 107.345 119.498 107.723Z" fill="#263238"/>
<path d="M118.826 110.873C118.84 111.051 118.819 111.23 118.763 111.4C118.706 111.57 118.617 111.727 118.499 111.862C118.382 111.996 118.239 112.106 118.078 112.185C117.917 112.264 117.743 112.31 117.564 112.32C117.288 112.345 117.01 112.287 116.767 112.153C116.524 112.019 116.327 111.815 116.201 111.568C116.075 111.321 116.025 111.042 116.059 110.766C116.093 110.491 116.209 110.232 116.391 110.023C116.573 109.814 116.814 109.664 117.082 109.593C117.351 109.522 117.634 109.533 117.896 109.624C118.158 109.716 118.386 109.883 118.552 110.106C118.718 110.328 118.813 110.595 118.826 110.873Z" fill="#263238"/>
<path d="M112.285 110.097L112.493 118.167L116.742 116.858L112.285 110.097Z" fill="#F28F8F"/>
<path d="M107.792 128.32C104.319 127.869 97.3721 125.843 96.2144 123.052C96.6485 124.467 97.5099 125.713 98.6804 126.618C100.788 128.424 107.792 130.451 107.792 130.451V128.32Z" fill="#F28F8F"/>
<path opacity="0.1" d="M98.1248 196.745C93.32 195.587 88.4458 190.354 90.6455 185.225C91.2725 183.785 92.3489 182.587 93.7137 181.81C94.2169 181.523 94.7976 181.403 95.3733 181.465C95.949 181.527 96.4904 181.77 96.9207 182.157C94.6051 180.64 90.634 173.265 90.1014 170.579L87.3806 161.502C87.1274 159.426 87.3128 157.32 87.9248 155.32L80.8276 147.123L79.5193 148.026C78.3615 151.58 79.2414 155.598 80.4686 159.152L86.848 179.355C86.848 179.355 83.5483 187.321 79.7277 194.835C85.4691 197.918 91.8048 199.734 98.3076 200.162C104.81 200.589 111.329 199.618 117.425 197.312C111.013 198.341 104.465 198.149 98.1248 196.745Z" fill="black"/>
<path d="M181.462 398.176L158.515 384.931C156.13 383.518 154.798 379.975 154.798 375.414L154.706 274.768L177.861 288.117L177.769 389.087C177.734 393.533 179.169 396.705 181.462 398.176Z" fill="#008282"/>
<path opacity="0.2" d="M181.462 398.176L158.515 384.931C156.13 383.518 154.798 379.975 154.798 375.414L154.706 274.768L177.861 288.117L177.769 389.087C177.734 393.533 179.169 396.705 181.462 398.176Z" fill="black"/>
<path d="M181.624 398.268L181.462 398.176C179.146 396.705 177.734 393.545 177.734 389.087L177.826 288.117L154.671 274.768L174.666 263.109L174.851 263.005L177.688 261.361L180.883 259.138L181.01 259.057L181.138 258.964C181.311 258.848 181.45 258.721 181.601 258.605L181.786 258.478L182.342 258.061L182.874 257.644C183.021 257.505 183.172 257.378 183.326 257.262L183.5 257.123L183.662 256.984C183.963 256.753 184.252 256.498 184.53 256.255L184.97 255.85L185.132 255.676C185.676 255.178 186.22 254.634 186.718 254.09L186.903 253.916C187.112 253.692 187.309 253.472 187.494 253.256C187.592 253.153 187.682 253.04 187.76 252.921C187.854 252.832 187.939 252.735 188.015 252.631V252.55L188.084 252.446L188.212 252.307L188.825 251.531C188.987 251.3 189.161 251.057 189.312 250.813L189.439 250.663V250.593C189.659 250.281 189.856 249.968 190.053 249.656C190.249 249.343 190.388 249.111 190.55 248.834L190.608 248.729C190.736 248.475 190.875 248.243 191.002 247.988L191.199 247.629C191.361 247.317 191.511 247.004 191.65 246.68L191.905 246.09C192.007 245.896 192.092 245.695 192.16 245.488C192.245 245.325 192.315 245.154 192.368 244.978C192.426 244.816 192.507 244.631 192.565 244.469C192.716 244.064 192.843 243.647 192.982 243.218C193.086 242.883 193.202 242.524 193.294 242.165C193.294 242.165 193.294 242.072 193.294 242.014C193.41 241.632 193.491 241.239 193.572 240.856V240.729C193.572 240.428 193.711 240.116 193.769 239.791C193.85 239.351 193.943 238.842 194.001 238.367V238.124C194.001 238.02 194.001 237.916 194.001 237.8C194.007 237.758 194.007 237.715 194.001 237.673C193.995 237.565 193.995 237.456 194.001 237.348C194.059 236.781 194.105 236.191 194.151 235.681V235.426V234.79C194.151 233.956 194.174 233.111 194.221 232.254V232.046C194.221 231.803 194.221 231.583 194.221 231.328V230.703C194.221 230.425 194.221 230.124 194.221 229.858C194.227 229.784 194.227 229.711 194.221 229.638C194.226 229.564 194.226 229.491 194.221 229.418V229.105C194.221 228.677 194.163 228.26 194.128 227.878V227.808C194.128 227.438 194.047 227.09 194.012 226.755C193.803 225.19 193.482 223.642 193.051 222.124C192.785 221.197 192.496 220.352 192.241 219.553C191.565 217.739 191.091 215.856 190.828 213.938C190.828 213.556 190.736 213.162 190.701 212.78C190.666 212.398 190.701 211.889 190.62 211.414V211.206C190.609 211.094 190.609 210.982 190.62 210.87C190.598 210.627 190.598 210.383 190.62 210.141C190.62 204.803 193.862 198.563 197.879 196.247C198.278 196.012 198.706 195.833 199.153 195.715C199.44 195.636 199.735 195.59 200.033 195.576C200.317 195.54 200.605 195.54 200.889 195.576C201.027 195.594 201.163 195.625 201.295 195.668C201.699 195.788 202.087 195.955 202.452 196.166L226.013 209.585C226.15 209.662 226.281 209.747 226.407 209.84C227.773 210.882 228.537 212.861 228.537 215.432C228.537 215.779 228.537 216.138 228.468 216.694V216.844C228.308 220.186 227.772 223.499 226.87 226.72C226.673 227.542 226.476 228.364 226.291 229.232C226.21 229.522 226.152 229.823 226.094 230.112C225.886 230.992 225.701 231.907 225.55 232.891C225.492 233.204 225.446 233.539 225.4 233.864L241.609 224.682L264.764 238.032V264.591C264.764 272.047 264.197 277.026 263.039 279.804C262.229 281.726 260.99 282.93 258.13 284.574C255.885 285.96 253.312 286.723 250.674 286.786C249.84 286.786 249.053 286.936 248.254 287.04L247.316 287.202C247.015 287.26 246.726 287.318 246.413 287.399C245.858 287.527 245.256 287.712 244.7 287.897L244.237 288.071C243.363 288.409 242.509 288.796 241.678 289.229C241.572 289.271 241.471 289.325 241.377 289.391H241.296L241.157 289.46C240.844 289.599 240.486 289.773 240.115 289.981C236.683 292.116 233.769 294.987 231.582 298.387C230.424 300.108 229.405 301.92 228.537 303.805C227.71 305.588 227.006 307.425 226.43 309.304L227.704 307.95C228.908 306.594 230.192 305.311 231.547 304.106C232.678 303.128 233.899 302.259 235.194 301.513C237.047 300.447 238.529 299.591 239.629 300.274L262.576 313.947L262.842 314.144C262.906 314.204 262.964 314.27 263.016 314.341C263.058 314.369 263.09 314.409 263.109 314.457C263.176 314.531 263.234 314.612 263.282 314.7C263.282 314.7 263.282 314.7 263.282 314.758C263.353 314.868 263.415 314.984 263.467 315.105C264.058 316.355 264.452 318.578 264.625 322.306C264.625 322.712 264.625 323.14 264.625 323.603C264.625 324.761 264.625 326.081 264.625 327.528V354.076L189.022 397.724C187.793 398.479 186.406 398.938 184.97 399.067C184.516 399.108 184.058 399.108 183.604 399.067C183.453 399.06 183.305 399.028 183.164 398.975C182.619 398.816 182.1 398.578 181.624 398.268Z" fill="#008282"/>
<path opacity="0.1" d="M239.617 300.274L262.541 313.947C261.453 313.253 259.959 314.132 258.107 315.198C256.813 315.941 255.595 316.809 254.471 317.791C253.106 318.986 251.819 320.266 250.616 321.623C247.967 324.695 244.918 327.398 241.551 329.658C241.099 329.982 240.566 330.318 240.069 330.608C231.675 335.459 224.844 330.295 224.844 319.099C224.886 315.766 225.42 312.458 226.43 309.281C226.858 308.83 227.264 308.378 227.68 307.95C228.885 306.594 230.169 305.311 231.524 304.106C232.651 303.128 233.868 302.26 235.16 301.513C237.024 300.448 238.529 299.591 239.617 300.274Z" fill="black"/>
<path opacity="0.1" d="M225.33 233.875L241.62 224.682L264.776 238.043L244.873 249.528L238.888 252.654H238.818H238.76L238.332 252.84L238.112 252.921L237.116 253.326L236.561 253.523L236.41 253.581C236.086 253.685 235.773 253.8 235.472 253.882L234.824 254.055C234.488 254.148 234.176 254.206 233.863 254.264H233.759L233.33 254.333C232.947 254.386 232.56 254.417 232.173 254.426H231.802C231.351 254.42 230.902 254.374 230.459 254.287L230.228 254.229C229.887 254.136 229.554 254.016 229.232 253.87C229.136 253.838 229.047 253.791 228.966 253.731C228.676 253.565 228.397 253.379 228.132 253.175H228.074L227.877 253.002C227.578 252.724 227.306 252.418 227.067 252.087L226.951 251.948C226.326 250.985 225.864 249.924 225.585 248.81L225.527 248.614C225.376 248.023 225.272 247.456 225.168 246.819V246.506C225.064 245.812 224.983 245.071 224.937 244.318C224.867 243.323 224.844 242.454 224.844 241.586C224.811 239.007 224.974 236.429 225.33 233.875Z" fill="black"/>
<path opacity="0.1" d="M177.826 288.117L154.671 274.768L174.666 263.109L174.839 263.005H174.909L177.745 261.361L180.953 259.138L181.068 259.057L181.196 258.964C181.369 258.848 181.508 258.721 181.659 258.605L181.832 258.478L182.4 258.061L182.932 257.644C183.079 257.505 183.229 257.378 183.384 257.262L183.558 257.123L183.72 256.984C184.021 256.753 184.31 256.498 184.588 256.255L185.028 255.85L185.19 255.676C185.734 255.178 186.278 254.634 186.776 254.09L186.961 253.916C187.17 253.692 187.367 253.472 187.552 253.256C187.65 253.153 187.739 253.04 187.818 252.921C187.911 252.828 187.98 252.724 188.061 252.631L188.131 252.55L188.212 252.457L188.328 252.307C188.536 252.052 188.756 251.798 188.941 251.531L189.439 250.825L189.555 250.663V250.593C189.775 250.281 189.972 249.968 190.168 249.656C190.365 249.343 190.504 249.111 190.666 248.834V248.718C190.805 248.475 190.944 248.243 191.072 247.988C191.148 247.873 191.217 247.753 191.28 247.63C191.419 247.305 191.581 246.993 191.72 246.68L191.975 246.09C192.067 245.904 192.148 245.708 192.241 245.499C192.333 245.291 192.38 245.163 192.438 244.978C192.496 244.793 192.577 244.631 192.634 244.469C192.785 244.052 192.912 243.658 193.051 243.218C193.155 242.883 193.271 242.524 193.364 242.165C193.364 242.165 193.364 242.072 193.364 242.014C193.457 241.644 193.561 241.239 193.642 240.856V240.741C193.7 240.417 193.769 240.116 193.827 239.791C193.908 239.351 194.001 238.842 194.059 238.367V238.124C194.059 238.032 194.059 237.916 194.059 237.8C194.065 237.758 194.065 237.715 194.059 237.673C194.059 237.568 194.059 237.453 194.059 237.337C194.128 236.758 194.174 236.179 194.209 235.681V235.427C194.209 235.207 194.209 235.021 194.209 234.79C194.209 233.956 194.232 233.111 194.279 232.254V232.046C194.279 231.803 194.279 231.583 194.279 231.328V230.703C194.279 230.425 194.279 230.124 194.279 229.846V229.638C194.284 229.564 194.284 229.491 194.279 229.418V229.105C194.279 228.677 194.221 228.26 194.186 227.878V227.797L194.082 226.755C193.872 225.19 193.551 223.642 193.121 222.124C192.866 221.186 192.577 220.341 192.31 219.553C191.634 217.739 191.161 215.856 190.898 213.938C190.898 213.556 190.805 213.162 190.77 212.78C190.736 212.398 190.77 211.9 190.701 211.414V211.206C190.701 211.09 190.701 210.974 190.701 210.858C190.679 210.616 190.679 210.372 190.701 210.129C190.701 204.792 193.943 198.551 197.96 196.236C198.359 196.001 198.787 195.822 199.234 195.703C199.521 195.625 199.816 195.578 200.114 195.564C200.397 195.518 200.687 195.518 200.971 195.564C201.108 195.583 201.244 195.614 201.376 195.657C201.78 195.777 202.168 195.944 202.534 196.155L226.013 209.585C225.522 209.301 224.971 209.134 224.404 209.099C223.992 209.083 223.58 209.118 223.177 209.203C222.503 209.354 221.858 209.612 221.266 209.967C220.559 210.388 219.902 210.889 219.31 211.46C217.691 213.056 216.404 214.957 215.524 217.053C215.315 217.504 215.153 217.967 214.98 218.442C214.76 219.106 214.578 219.783 214.435 220.468C214.182 221.569 214.05 222.695 214.042 223.826C214.042 224.138 214.042 224.497 214.042 224.891V225.007C214.089 226.884 214.358 228.749 214.841 230.564C214.91 230.865 215.003 231.154 215.084 231.444C215.269 232.034 215.454 232.602 215.64 233.18C215.906 233.979 216.195 234.813 216.462 235.751C216.554 236.075 216.635 236.399 216.716 236.723C216.797 237.047 216.878 237.406 216.971 237.765C217.228 238.973 217.418 240.195 217.538 241.424V241.482C217.527 241.686 217.527 241.891 217.538 242.095V242.721V242.883V243.045C217.538 243.184 217.538 243.323 217.538 243.473C217.55 243.616 217.55 243.759 217.538 243.901C217.538 244.04 217.538 244.191 217.538 244.33V244.967C217.538 245.187 217.538 245.418 217.538 245.673V245.777C217.538 246.205 217.538 246.634 217.538 247.062C217.538 247.491 217.538 247.907 217.48 248.336C217.48 248.544 217.48 248.764 217.48 248.961V249.216C217.48 249.76 217.399 250.316 217.33 250.871C217.33 251.138 217.26 251.392 217.226 251.67V251.89L216.983 253.337L216.774 254.275V254.391C216.774 254.611 216.682 254.831 216.612 255.062C216.543 255.294 216.496 255.502 216.438 255.699C216.381 255.896 216.438 255.885 216.381 255.977C216.323 256.07 216.207 256.498 216.137 256.764C216.01 257.181 215.871 257.598 215.721 258.003C215.57 258.408 215.454 258.698 215.327 259.034C215.2 259.369 214.991 259.833 214.818 260.191L214.343 261.164C214.25 261.338 214.158 261.534 214.053 261.708L213.764 262.252L213.695 262.368C213.622 262.512 213.541 262.651 213.451 262.785L213.37 262.924C213.321 263.014 213.262 263.099 213.197 263.179C213 263.503 212.803 263.815 212.595 264.128V264.197L212.479 264.359C212.402 264.481 212.316 264.597 212.224 264.707C212.15 264.827 212.069 264.943 211.981 265.054L211.761 265.344C211.639 265.517 211.508 265.683 211.367 265.841L211.252 265.992L211.124 266.166L210.858 266.478L210.777 266.571C210.777 266.64 210.661 266.721 210.592 266.791L210.291 267.127C210.21 267.231 210.105 267.335 210.001 267.451L209.828 267.624C209.324 268.182 208.791 268.711 208.23 269.211L208.068 269.384L207.616 269.789C207.35 270.044 207.06 270.287 206.759 270.53L206.597 270.658L206.516 270.739L206.435 270.808L205.984 271.179L204.826 272.012L204.652 272.151L204.189 272.499L203.934 272.672L200.727 274.895L197.891 276.539L197.798 276.609L197.613 276.701L177.826 288.117Z" fill="black"/>
<mask id="mask0_25_1268" style="mask-type:luminance" maskUnits="userSpaceOnUse" x="225" y="172" width="135" height="183">
<path d="M240.092 319.968C240.335 319.829 240.613 319.632 240.914 319.423C243.447 317.714 245.737 315.669 247.721 313.345C248.752 312.187 249.666 311.261 250.708 310.254L250.871 310.092L251.172 309.802L251.311 309.663C251.832 309.177 252.341 308.726 252.85 308.286L262.448 314.017C262.645 314.138 262.818 314.295 262.958 314.48C263.04 314.577 263.114 314.682 263.178 314.792V314.862C263.239 314.966 263.293 315.075 263.34 315.186V315.29L263.479 315.649C263.479 315.649 263.479 315.742 263.479 315.788C263.528 315.917 263.571 316.048 263.606 316.182C263.606 316.24 263.606 316.297 263.606 316.355C263.606 316.413 263.687 316.668 263.734 316.842V316.992C263.734 317.201 263.815 317.421 263.861 317.664C263.861 317.93 263.942 318.208 263.988 318.497V318.567L264.092 319.4C264.092 319.493 264.092 319.586 264.092 319.678L264.162 320.396C264.162 320.523 264.162 320.651 264.162 320.767C264.162 320.882 264.162 321.241 264.22 321.496C264.278 321.751 264.22 321.785 264.22 321.936V322.688C264.22 322.851 264.22 323.024 264.22 323.198C264.22 323.372 264.22 323.742 264.22 324.02C264.22 324.298 264.22 324.356 264.22 324.529C264.22 324.703 264.22 325.189 264.22 325.525V325.988C264.22 326.498 264.22 327.007 264.22 327.551V354.076L359.158 299.243V284.273C359.163 284.185 359.163 284.096 359.158 284.007V172.559L339.244 184.056L338.873 184.276L338.642 184.415L334.717 186.846C333.145 187.886 331.633 189.015 330.19 190.227L330.097 190.308L329.854 190.505C329.495 190.806 329.16 191.118 328.824 191.431L328.731 191.524L328.303 191.94C327.99 192.241 327.689 192.542 327.388 192.855L326.821 193.469C326.543 193.781 326.265 194.094 325.999 194.418C325.733 194.742 325.652 194.846 325.455 195.113C325.258 195.379 324.934 195.784 324.691 196.12L324.274 196.734L324.181 196.896L324.065 197.058C323.869 197.359 323.672 197.66 323.498 197.961C323.324 198.262 323.232 198.412 323.116 198.655L323.012 198.829C322.665 199.477 322.317 200.161 322.016 200.855L321.935 201.029C321.808 201.318 321.669 201.608 321.553 201.909C321.437 202.21 321.322 202.522 321.217 202.835L321.136 203.067C321.009 203.426 320.882 203.773 320.777 204.143C320.673 204.514 320.557 204.896 320.453 205.301C320.349 205.706 320.256 206.088 320.164 206.459C320.071 206.829 320.002 207.223 319.932 207.617C319.863 208.01 319.782 208.45 319.724 208.879V208.96C319.724 209.307 319.62 209.654 319.573 210.013C319.527 210.372 319.481 210.939 319.434 211.437V211.715C319.434 211.982 319.434 212.248 319.376 212.514C319.376 213.081 319.376 213.672 319.376 214.505V214.621C319.376 214.772 319.376 214.911 319.376 215.061C319.285 219.326 319.992 223.571 321.46 227.577C322.432 230.173 322.971 232.911 323.058 235.681V235.809C323.058 236.191 323.116 236.55 323.116 236.874C323.06 239.706 322.33 242.485 320.986 244.978C319.842 247.344 318.067 249.347 315.857 250.767C315.507 250.963 315.143 251.133 314.768 251.277L314.583 251.346C314.253 251.459 313.911 251.537 313.564 251.578H313.379C313.052 251.613 312.722 251.613 312.395 251.578H312.326C311.996 251.525 311.676 251.423 311.376 251.277L311.284 251.219L301.269 245.337C301.269 245.036 301.269 244.747 301.35 244.446C301.431 244.145 301.431 243.751 301.477 243.404C301.57 242.686 301.662 241.991 301.778 241.32C301.894 240.648 301.987 240.092 302.102 239.502C302.172 239.189 302.23 238.888 302.288 238.599C302.565 237.314 302.855 236.029 303.191 234.651C304.191 231.116 304.72 227.464 304.765 223.791C304.765 220.318 304.464 218.755 303.526 218.199L292.111 211.611L272.729 222.784L264.752 218.152V227.415L257.806 231.455L255.583 232.729L264.845 238.055V251.809V264.614C264.845 272.07 264.278 277.049 263.12 279.827C262.309 281.738 261.071 282.942 258.211 284.597C255.962 285.985 253.385 286.748 250.743 286.809C249.933 286.809 249.122 286.959 248.347 287.064L247.397 287.226C247.108 287.284 246.807 287.341 246.494 287.422C245.915 287.559 245.343 287.726 244.781 287.92H244.665L244.318 288.036C243.443 288.373 242.589 288.759 241.759 289.194L241.446 289.344H241.377H241.238C240.878 289.499 240.526 289.673 240.184 289.865C236.757 291.999 233.85 294.87 231.675 298.271C231.119 299.081 230.598 299.926 230.1 300.795L229.903 301.177C229.475 301.941 229.07 302.717 228.745 303.492L228.664 303.678C227.835 305.46 227.131 307.297 226.557 309.177C226.037 310.873 225.65 312.608 225.399 314.364L235.542 320.222C236.258 320.576 237.053 320.738 237.85 320.693C238.647 320.649 239.42 320.399 240.092 319.968Z" fill="white"/>
</mask>
<g mask="url(#mask0_25_1268)">
<path d="M266.154 288.221L241.504 273.992L242.049 273.24L242.106 273.17L242.373 272.788C242.766 272.209 243.137 271.63 243.531 271.017L243.635 270.831C243.994 270.195 244.341 269.5 244.677 268.771C244.746 268.597 244.827 268.423 244.897 268.238V268.122C245.07 267.705 245.279 267.208 245.476 266.652C245.568 266.409 245.649 266.166 245.742 265.899V265.749C245.881 265.332 246.02 264.915 246.136 264.487C246.251 264.058 246.332 263.804 246.425 263.445C246.518 263.086 246.61 262.669 246.714 262.287C246.819 261.905 246.876 261.523 246.946 261.129C247.015 260.736 247.096 260.4 247.154 260.041V259.867C247.224 259.52 247.282 259.149 247.34 258.779C247.397 258.408 247.397 258.351 247.432 258.142V257.911C247.687 256.058 247.837 254.113 247.965 252.006V251.774L248.092 246.09V219.056L272.649 233.435V260.481L272.521 266.177V266.397C272.417 268.504 272.255 270.449 272.012 272.29V272.533C272.012 272.753 271.954 272.962 271.919 273.182C271.885 273.402 271.815 273.911 271.746 274.258V274.421C271.688 274.803 271.618 275.15 271.549 275.52C271.479 275.891 271.387 276.273 271.294 276.678C271.201 277.083 271.12 277.466 271.028 277.836C270.935 278.207 270.831 278.542 270.738 278.878C270.646 279.214 270.484 279.723 270.333 280.128V280.302C270.252 280.545 270.159 280.812 270.067 281.055C269.882 281.587 269.662 282.097 269.488 282.525L269.43 282.629L269.222 283.162C268.886 283.88 268.539 284.574 268.18 285.234L268.075 285.42C267.74 285.998 267.369 286.577 266.976 287.191C266.893 287.318 266.8 287.438 266.698 287.55V287.631L266.154 288.221Z" fill="#008282"/>
<path d="M248.104 335.239L248.173 312.917L247.826 313.276C248.845 312.118 249.782 311.18 250.801 310.184L250.975 310.022L251.276 309.733L251.484 309.617C253.431 307.742 255.592 306.102 257.922 304.731L258.176 304.604H258.234L258.408 304.5C258.964 304.187 259.566 303.909 260.063 303.643C260.214 303.562 260.376 303.504 260.527 303.434L260.689 303.353C261.059 303.214 261.453 303.041 261.846 302.913C262.055 302.821 262.252 302.775 262.437 302.705H262.529C262.865 302.624 263.189 302.531 263.49 302.474C263.791 302.416 263.954 302.381 264.174 302.358C264.459 302.335 264.745 302.335 265.03 302.358C265.246 302.346 265.463 302.346 265.679 302.358C265.933 302.379 266.184 302.422 266.431 302.485H266.535L267.01 302.601C267.252 302.686 267.484 302.794 267.705 302.925C267.953 303.046 268.189 303.189 268.411 303.353C268.679 303.545 268.931 303.758 269.164 303.99C269.296 304.13 269.419 304.276 269.534 304.43L269.615 304.546L269.685 304.627C269.805 304.779 269.917 304.938 270.02 305.102C270.168 305.324 270.299 305.556 270.414 305.796C270.53 306.016 270.634 306.213 270.727 306.433C270.819 306.653 270.958 306.989 271.074 307.29C271.19 307.591 271.224 307.73 271.294 307.961C271.363 308.193 271.491 308.61 271.583 308.957L271.722 309.536V309.629C271.803 310.011 271.896 310.404 271.965 310.786C271.965 310.891 271.965 311.006 271.965 311.122V311.261C272.22 312.894 272.405 314.734 272.533 316.899V316.992L272.66 322.156V349.572L248.104 335.239Z" fill="#008282"/>
<path d="M235.067 320.176L210.835 306.144C209.225 305.287 208.288 303.041 208.288 300.065C208.39 296.536 209.499 293.11 211.483 290.189L211.946 289.541C211.83 289.726 211.691 289.912 211.576 290.085L236.213 304.314C236.149 304.395 236.091 304.48 236.04 304.569C234.048 307.482 232.939 310.906 232.844 314.433C232.844 317.224 233.701 319.215 235.067 320.176Z" fill="#008282"/>
<path d="M266.154 288.221L241.504 273.992L242.049 273.24L242.106 273.17L242.373 272.788C242.766 272.209 243.137 271.63 243.531 271.017L243.635 270.831C243.994 270.195 244.341 269.5 244.677 268.771C244.746 268.597 244.827 268.423 244.897 268.238V268.122C245.07 267.705 245.279 267.208 245.476 266.652C245.568 266.409 245.649 266.166 245.742 265.899V265.749C245.881 265.332 246.02 264.915 246.136 264.487C246.251 264.058 246.332 263.804 246.425 263.445C246.518 263.086 246.61 262.669 246.714 262.287C246.819 261.905 246.876 261.523 246.946 261.129C247.015 260.736 247.096 260.4 247.154 260.041V259.867C247.224 259.52 247.282 259.149 247.34 258.779C247.397 258.408 247.397 258.351 247.432 258.142V257.911C247.687 256.058 247.837 254.113 247.965 252.006V251.774L248.092 246.09V219.056L272.649 233.435V260.481L272.521 266.177V266.397C272.417 268.504 272.255 270.449 272.012 272.29V272.533C272.012 272.753 271.954 272.962 271.919 273.182C271.885 273.402 271.815 273.911 271.746 274.258V274.421C271.688 274.803 271.618 275.15 271.549 275.52C271.479 275.891 271.387 276.273 271.294 276.678C271.201 277.083 271.12 277.466 271.028 277.836C270.935 278.207 270.831 278.542 270.738 278.878C270.646 279.214 270.484 279.723 270.333 280.128V280.302C270.252 280.545 270.159 280.812 270.067 281.055C269.882 281.587 269.662 282.097 269.488 282.525L269.43 282.629L269.222 283.162C268.886 283.88 268.539 284.574 268.18 285.234L268.075 285.42C267.74 285.998 267.369 286.577 266.976 287.191C266.893 287.318 266.8 287.438 266.698 287.55V287.631L266.154 288.221Z" fill="#263238"/>
<path d="M248.104 335.239L248.173 312.917L247.826 313.276C248.845 312.118 249.782 311.18 250.801 310.184L250.975 310.022L251.276 309.733L251.484 309.617C253.431 307.742 255.592 306.102 257.922 304.731L258.176 304.604H258.234L258.408 304.5C258.964 304.187 259.566 303.909 260.063 303.643C260.214 303.562 260.376 303.504 260.527 303.434L260.689 303.353C261.059 303.214 261.453 303.041 261.846 302.913C262.055 302.821 262.252 302.775 262.437 302.705H262.529C262.865 302.624 263.189 302.531 263.49 302.474C263.791 302.416 263.954 302.381 264.174 302.358C264.459 302.335 264.745 302.335 265.03 302.358C265.246 302.346 265.463 302.346 265.679 302.358C265.933 302.379 266.184 302.422 266.431 302.485H266.535L267.01 302.601C267.252 302.686 267.484 302.794 267.705 302.925C267.953 303.046 268.189 303.189 268.411 303.353C268.679 303.545 268.931 303.758 269.164 303.99C269.296 304.13 269.419 304.276 269.534 304.43L269.615 304.546L269.685 304.627C269.805 304.779 269.917 304.938 270.02 305.102C270.168 305.324 270.299 305.556 270.414 305.796C270.53 306.016 270.634 306.213 270.727 306.433C270.819 306.653 270.958 306.989 271.074 307.29C271.19 307.591 271.224 307.73 271.294 307.961C271.363 308.193 271.491 308.61 271.583 308.957L271.722 309.536V309.629C271.803 310.011 271.896 310.404 271.965 310.786C271.965 310.891 271.965 311.006 271.965 311.122V311.261C272.22 312.894 272.405 314.734 272.533 316.899V316.992L272.66 322.156V349.572L248.104 335.239Z" fill="#263238"/>
<path d="M235.067 320.176L210.835 306.144C209.225 305.287 208.288 303.041 208.288 300.065C208.39 296.536 209.499 293.11 211.483 290.189L211.946 289.541C211.83 289.726 211.691 289.912 211.576 290.085L236.213 304.314C236.149 304.395 236.091 304.48 236.04 304.569C234.048 307.482 232.939 310.906 232.844 314.433C232.844 317.224 233.701 319.215 235.067 320.176Z" fill="#263238"/>
<path d="M235.276 320.257L235.113 320.164C233.747 319.203 232.89 317.212 232.89 314.468C232.985 310.941 234.095 307.516 236.086 304.604C236.137 304.515 236.195 304.429 236.26 304.349L211.622 290.12C211.738 289.946 211.877 289.761 211.993 289.576C212.305 289.171 212.629 288.789 212.965 288.418C213.122 288.236 213.288 288.062 213.463 287.897C213.634 287.708 213.819 287.534 214.019 287.376C214.495 286.933 215.019 286.545 215.582 286.218C215.788 286.099 216 285.99 216.218 285.894L216.496 285.778H216.566C217.589 285.233 218.674 284.809 219.796 284.516L220.19 284.424C221.206 284.217 222.235 284.082 223.269 284.019C226.916 283.892 230.465 282.81 233.562 280.881L234.372 280.383C234.616 280.244 234.836 280.094 235.067 279.932C235.299 279.769 235.426 279.712 235.6 279.596H235.669L236.526 278.971L237.336 278.334L237.487 278.218L237.614 278.102L237.707 278.021L238.054 277.72C238.158 277.628 238.286 277.535 238.39 277.431C238.494 277.327 238.807 277.06 239.015 276.852L239.305 276.562L239.432 276.424L239.941 275.891C240.15 275.671 240.358 275.439 240.555 275.208L240.636 275.115L240.972 274.722C241.122 274.513 241.308 274.305 241.458 274.085L266.119 288.325L266.559 287.723V287.642C266.661 287.531 266.754 287.411 266.837 287.283C267.23 286.681 267.601 286.126 267.936 285.512L268.041 285.327C268.4 284.667 268.747 283.972 269.083 283.254L269.291 282.722L269.349 282.618C269.523 282.189 269.743 281.68 269.928 281.147C270.02 280.904 270.113 280.638 270.194 280.395V280.221C270.345 279.816 270.472 279.399 270.599 278.971C270.727 278.542 270.785 278.288 270.889 277.929C270.993 277.57 271.074 277.153 271.155 276.771C271.236 276.389 271.329 276.018 271.41 275.613C271.491 275.208 271.549 274.895 271.607 274.513V274.351C271.676 274.004 271.722 273.645 271.78 273.274C271.838 272.904 271.838 272.846 271.873 272.626V272.383C272.116 270.542 272.278 268.597 272.382 266.49V266.27L272.51 260.574V233.447L247.953 219.067L258.026 213.278L263.224 210.28L267.855 207.594L269.662 206.575C270.136 206.343 270.565 206.088 271.005 205.88C272.541 205.038 274.164 204.362 275.844 203.865L276.354 203.738C276.876 203.613 277.416 203.574 277.951 203.622C278.252 203.622 278.414 203.889 278.646 204.028L303.492 218.152C303.731 218.308 303.936 218.511 304.095 218.747C304.254 218.984 304.364 219.25 304.418 219.53C304.418 219.727 304.522 219.959 304.569 220.202C304.615 220.445 304.638 220.723 304.673 221.024V221.487C304.673 221.811 304.673 222.158 304.673 222.54C304.673 222.923 304.673 223.328 304.673 223.768C304.673 224.868 304.673 225.863 304.534 226.813C304.534 227.056 304.534 227.287 304.534 227.519C304.534 227.75 304.534 227.97 304.453 228.202C304.372 228.434 304.453 228.642 304.349 228.873C304.244 229.105 304.291 229.313 304.256 229.533C304.175 229.962 304.106 230.379 304.024 230.819C303.943 231.259 303.839 231.664 303.758 232.081C303.747 232.11 303.747 232.143 303.758 232.173C305.75 227.717 306.825 222.905 306.919 218.025C306.919 217.342 306.919 216.659 306.849 216.08C306.733 212.367 306.022 208.696 304.742 205.208C303.643 202.319 303.104 199.246 303.156 196.155C303.156 190.435 303.156 187.286 315.29 180.305L335.099 168.958L359.737 183.188V283.984C359.737 292.378 354.619 302.161 348.333 305.796L272.73 349.445V322.052L272.602 316.888V316.795C272.475 314.653 272.29 312.789 272.035 311.157V311.018C272.035 310.902 272.035 310.786 272.035 310.682C271.966 310.265 271.873 309.872 271.792 309.524V309.432L271.653 308.853C271.56 308.506 271.479 308.181 271.364 307.857C271.248 307.533 271.225 307.406 271.144 307.186C271.062 306.966 270.924 306.595 270.796 306.329C270.669 306.063 270.599 305.912 270.484 305.692C270.369 305.452 270.237 305.22 270.09 304.998C269.986 304.834 269.874 304.675 269.754 304.523L269.685 304.442L269.604 304.326C269.489 304.172 269.365 304.025 269.233 303.886C269 303.653 268.749 303.44 268.481 303.249C268.259 303.085 268.022 302.942 267.774 302.821C267.554 302.69 267.321 302.582 267.08 302.497L266.605 302.381H266.501C266.254 302.318 266.002 302.275 265.748 302.254C265.532 302.242 265.316 302.242 265.1 302.254C264.815 302.231 264.528 302.231 264.243 302.254C264.023 302.254 263.803 302.323 263.56 302.369C263.317 302.416 262.935 302.52 262.599 302.601H262.507C262.321 302.67 262.124 302.717 261.916 302.809C261.522 302.937 261.129 303.11 260.758 303.249L260.596 303.33C260.446 303.4 260.284 303.458 260.133 303.539C259.577 303.805 259.033 304.083 258.477 304.395L258.304 304.5H258.246L257.991 304.627C255.631 306.026 253.447 307.701 251.484 309.617L251.334 309.756L251.033 310.045L250.859 310.208C249.84 311.203 248.903 312.199 247.884 313.299C245.899 315.623 243.609 317.667 241.076 319.377C240.775 319.586 240.509 319.782 240.254 319.921C239.577 320.34 238.82 320.612 238.031 320.72C237.545 320.813 237.046 320.813 236.561 320.72C236.108 320.644 235.673 320.487 235.276 320.257Z" fill="#37474F"/>
<path d="M272.741 233.435L248.185 219.055L258.257 213.267L263.456 210.268L268.087 207.582L269.893 206.563C270.368 206.331 270.796 206.077 271.236 205.868C272.773 205.026 274.395 204.351 276.075 203.854L276.585 203.726C277.108 203.602 277.647 203.563 278.183 203.611C278.484 203.611 278.646 203.877 278.877 204.016L303.422 218.152C303.335 218.104 303.242 218.069 303.144 218.048C303.026 217.989 302.895 217.961 302.762 217.967C302.379 217.91 301.988 217.91 301.605 217.967C301.278 218.007 300.957 218.077 300.644 218.176C297.838 219.09 295.155 220.346 292.655 221.915L288.024 224.601L282.814 227.611L272.741 233.435Z" fill="black"/>
<path d="M304.511 260.909C302.195 258.594 301.037 254.692 301.037 249.98C301.026 249.303 301.053 248.627 301.118 247.954C301.118 247.954 301.118 247.954 301.118 247.873C301.118 246.715 301.234 245.638 301.361 244.399C301.361 244.052 301.443 243.716 301.489 243.369C301.57 242.651 301.674 241.945 301.79 241.285C301.906 240.625 301.998 240.058 302.114 239.467C302.184 239.155 302.241 238.854 302.299 238.564C302.577 237.279 302.867 235.994 303.202 234.616C303.422 233.748 303.619 232.914 303.804 232.081C305.784 227.654 306.851 222.873 306.942 218.025C306.942 217.342 306.942 216.67 306.861 216.092C306.751 212.371 306.043 208.693 304.765 205.197C303.67 202.31 303.132 199.242 303.179 196.155C303.179 190.447 303.179 187.298 315.313 180.293L335.122 168.958L359.76 183.188L339.869 194.673C327.736 201.619 327.736 204.826 327.736 210.534C327.674 213.626 328.213 216.701 329.322 219.588C330.59 223.083 331.297 226.756 331.417 230.471C331.417 231.05 331.499 231.722 331.487 232.393C331.487 243.589 324.668 256.649 316.251 261.488C311.689 264.139 307.417 263.919 304.511 260.909Z" fill="black"/>
<path d="M236.213 304.361L211.576 290.132C211.691 289.958 211.83 289.773 211.946 289.587C212.259 289.182 212.583 288.8 212.919 288.43C213.076 288.248 213.242 288.074 213.417 287.909C213.587 287.72 213.773 287.546 213.972 287.388C214.449 286.945 214.973 286.557 215.535 286.23C215.741 286.11 215.954 286.002 216.172 285.906L216.45 285.802H216.519C217.543 285.256 218.627 284.832 219.75 284.54L220.143 284.447C221.159 284.24 222.188 284.105 223.223 284.042C226.869 283.915 230.419 282.833 233.516 280.904L234.326 280.406C234.569 280.267 234.789 280.117 235.021 279.955C235.201 279.85 235.375 279.734 235.542 279.607H235.611L236.468 278.982L237.29 278.345L237.429 278.23L237.556 278.114L237.66 278.033L237.996 277.732C238.1 277.639 238.228 277.547 238.332 277.442C238.436 277.338 238.749 277.072 238.957 276.863L239.247 276.574C239.287 276.525 239.334 276.483 239.386 276.447L239.883 275.903C240.092 275.683 240.3 275.451 240.497 275.219L240.578 275.127L240.914 274.733C241.064 274.525 241.25 274.316 241.4 274.096L266.072 288.337L265.968 288.453C265.806 288.684 265.632 288.904 265.459 289.136C265.285 289.367 265.239 289.379 265.135 289.506L265.042 289.599C264.671 290.027 264.301 290.433 263.884 290.815L263.653 291.046C263.595 291.116 263.525 291.174 263.479 291.243L262.842 291.822L262.171 292.401L262.078 292.493L261.789 292.713C261.256 293.165 260.7 293.582 260.133 293.987C260.133 293.987 260.064 293.987 260.006 294.068C259.357 294.531 258.684 294.96 257.991 295.353L257.273 295.724L256.428 296.152C254.545 297.132 252.516 297.8 250.419 298.132L249.354 298.271H248.821L247.837 298.363C246.371 298.415 244.919 298.665 243.519 299.104C243.09 299.243 242.639 299.417 242.141 299.625C241.828 299.764 241.481 299.926 241.134 300.112L240.844 300.227C240.625 300.321 240.412 300.43 240.208 300.552C239.642 300.89 239.107 301.277 238.61 301.709C238.432 301.858 238.262 302.017 238.1 302.184C237.927 302.346 237.753 302.531 237.591 302.717C237.373 302.933 237.172 303.165 236.989 303.411C236.86 303.558 236.74 303.713 236.63 303.874C236.433 304.094 236.306 304.222 236.213 304.361Z" fill="black"/>
</g>
<mask id="mask1_25_1268" style="mask-type:luminance" maskUnits="userSpaceOnUse" x="240" y="46" width="120" height="217">
<path d="M264.764 227.415V200.786L265.03 192.681V192.519C265.03 192.322 265.03 192.137 265.03 191.963V191.697C265.03 191.176 265.123 190.678 265.181 190.192C265.194 189.943 265.225 189.696 265.273 189.451V189.219C265.273 188.745 265.389 188.27 265.447 187.819C265.505 187.367 265.54 187.193 265.598 186.904C265.69 186.395 265.76 185.897 265.864 185.41V185.248C265.864 185.051 265.945 184.843 265.991 184.646C266.13 183.975 266.304 183.326 266.466 182.678C266.466 182.678 266.466 182.551 266.524 182.446C266.721 181.717 266.975 180.965 267.23 180.224L267.334 179.911C267.566 179.286 267.832 178.672 268.075 178.07C268.075 177.954 268.191 177.815 268.261 177.688V177.595C268.527 177.04 268.793 176.438 269.094 175.928L269.326 175.535C269.676 174.907 270.063 174.3 270.483 173.717C271.384 172.403 272.403 171.174 273.528 170.047L273.621 169.954C274.096 169.491 274.64 168.993 275.219 168.518L275.335 168.403C276.558 167.409 277.859 166.515 279.225 165.728C280.69 164.856 282.242 164.138 283.856 163.586C284.667 163.318 285.495 163.102 286.333 162.938C287.383 162.759 288.442 162.64 289.506 162.579C291.849 162.519 294.146 161.921 296.221 160.831H296.279C296.592 160.702 296.897 160.555 297.193 160.391C299.401 158.971 301.172 156.967 302.311 154.602C302.656 153.953 302.961 153.284 303.225 152.599C304.008 150.675 304.42 148.621 304.441 146.544C304.441 146.196 304.441 145.861 304.441 145.536C304.449 145.448 304.449 145.359 304.441 145.27C304.433 145.044 304.406 144.82 304.36 144.599C304.36 144.494 304.36 144.425 304.36 144.332C304.36 144.24 304.267 143.916 304.221 143.742C304.175 143.568 304.163 143.58 304.14 143.51C304.117 143.441 304.013 143.128 303.932 142.943L303.851 142.781C303.778 142.596 303.689 142.417 303.584 142.248C303.567 142.204 303.539 142.164 303.503 142.133C303.399 141.959 303.283 141.797 303.156 141.623C303.029 141.449 303.156 141.623 303.098 141.554L302.658 141.114C302.493 140.973 302.315 140.849 302.126 140.743L291.601 134.676C289.925 136.181 288.329 137.774 286.82 139.447C284.691 141.987 282.161 144.162 279.329 145.884C277.511 146.926 276.018 147.794 274.941 147.169L264.764 141.287C264.695 138.972 264.695 136.459 264.764 133.797V111.37L240.126 97.1528L327.898 46.3958L359.841 64.8276L359.783 183.211L339.881 194.696C327.759 201.642 327.759 204.85 327.759 210.557C327.702 213.648 328.236 216.721 329.333 219.611C330.616 223.102 331.328 226.777 331.441 230.494C331.441 231.062 331.51 231.745 331.522 232.428C331.353 238.832 329.578 245.09 326.358 250.628L306.189 262.264C305.575 261.88 305.008 261.425 304.499 260.909C302.253 258.594 301.026 254.704 301.026 249.991C301.026 249.355 301.026 248.683 301.118 247.942C301.118 247.942 301.118 247.942 301.118 247.873C301.118 246.715 301.222 245.638 301.361 244.399C301.361 244.064 301.442 243.705 301.489 243.369C301.57 242.639 301.674 241.945 301.79 241.285C301.906 240.625 301.998 240.058 302.114 239.467C302.183 239.155 302.241 238.854 302.299 238.564C302.566 237.279 302.867 235.994 303.214 234.616C304.204 231.079 304.73 227.429 304.777 223.756C304.777 220.283 304.476 218.72 303.527 218.164L292.122 211.576L272.73 222.784L264.764 227.415Z" fill="white"/>
</mask>
<g mask="url(#mask1_25_1268)">
<path d="M311.504 251.253L286.808 236.99C286.692 236.931 286.58 236.865 286.472 236.793C285.095 235.751 284.458 233.586 284.458 231.004C284.432 230.587 284.432 230.17 284.458 229.753V229.603C284.633 226.262 285.173 222.951 286.067 219.727C286.461 218.071 286.878 216.254 287.225 214.39L292.574 211.298L292.782 211.183L292.91 211.113L297.124 208.855L297.24 208.798C298.564 208.138 299.934 207.573 301.338 207.107H301.5L302.045 206.934C302.26 206.863 302.481 206.809 302.705 206.771H302.832C303.087 206.702 303.353 206.633 303.619 206.586L304.314 206.494C304.58 206.494 304.858 206.494 305.124 206.494C305.391 206.494 305.541 206.494 305.738 206.494C306.014 206.498 306.29 206.529 306.56 206.586H306.664L307.058 206.656C307.378 206.741 307.691 206.85 307.996 206.98L308.273 207.096C309.101 207.536 309.811 208.167 310.346 208.937C310.393 209.003 310.436 209.072 310.473 209.145C310.726 209.509 310.943 209.897 311.122 210.303C311.122 210.384 311.203 210.476 311.237 210.546V210.627C311.411 211.055 311.562 211.518 311.712 212.005L311.805 212.375C311.958 212.942 312.074 213.518 312.152 214.1L312.21 214.366C312.435 216.012 312.539 217.672 312.523 219.333C312.475 224.373 311.775 229.386 310.439 234.246C309.554 237.475 309.018 240.79 308.841 244.133V244.272C308.841 244.805 308.783 245.187 308.783 245.534C308.783 248.116 309.535 250.096 310.902 251.138L311.504 251.253Z" fill="#008282"/>
<path d="M272.73 222.784L248.185 208.415V181.856C248.103 177.96 248.35 174.063 248.926 170.209C249.783 165.473 251.079 164.038 254.807 161.884C257.061 160.498 259.642 159.735 262.287 159.673C263.155 159.603 263.977 159.522 264.811 159.395L265.47 159.279L266.628 159.036C267.103 158.897 267.612 158.758 268.145 158.573C268.366 158.51 268.582 158.432 268.793 158.341C269.642 158.032 270.469 157.668 271.271 157.253L271.375 157.195C271.875 156.993 272.359 156.753 272.822 156.477C277.384 153.849 281.668 148.674 284.562 142.306C284.759 141.889 284.921 141.473 285.095 141.067L284.481 141.681C285.269 140.905 286.033 140.072 286.797 139.215C289.451 136.159 292.495 133.465 295.851 131.203C296.324 130.847 296.824 130.526 297.344 130.242C305.738 125.38 312.581 130.555 312.581 141.739C312.484 146.91 311.3 152.002 309.107 156.686C306.201 163.065 301.917 168.264 297.356 170.869C296.89 171.136 296.406 171.372 295.909 171.575C295.875 171.586 295.838 171.586 295.804 171.575C295.002 172.009 294.175 172.396 293.327 172.733L292.678 172.964C292.181 173.137 291.674 173.284 291.162 173.404C290.756 173.508 290.386 173.589 290.004 173.659L289.332 173.775C288.51 173.89 287.677 173.995 286.808 174.053C284.166 174.107 281.587 174.871 279.341 176.264C275.613 178.406 274.304 179.841 273.459 184.577C272.874 188.438 272.619 192.342 272.695 196.247V213.73L272.73 222.784Z" fill="#008282"/>
<path d="M274.987 146.937L250.327 132.674C248.879 131.794 248.219 128.135 248.219 118.942L248.115 92.5449L272.753 106.774V133.31C272.753 142.573 273.529 146.104 274.999 146.926L274.987 146.937Z" fill="#008282"/>
<path opacity="0.2" d="M311.504 251.253L286.808 236.99C286.692 236.931 286.58 236.865 286.472 236.793C285.095 235.751 284.458 233.586 284.458 231.004C284.432 230.587 284.432 230.17 284.458 229.753V229.603C284.633 226.262 285.173 222.951 286.067 219.727C286.461 218.071 286.878 216.254 287.225 214.39L292.574 211.298L292.782 211.183L292.91 211.113L297.124 208.855L297.24 208.798C298.564 208.138 299.934 207.573 301.338 207.107H301.5L302.045 206.934C302.26 206.863 302.481 206.809 302.705 206.771H302.832C303.087 206.702 303.353 206.633 303.619 206.586L304.314 206.494C304.58 206.494 304.858 206.494 305.124 206.494C305.391 206.494 305.541 206.494 305.738 206.494C306.014 206.498 306.29 206.529 306.56 206.586H306.664L307.058 206.656C307.378 206.741 307.691 206.85 307.996 206.98L308.273 207.096C309.101 207.536 309.811 208.167 310.346 208.937C310.393 209.003 310.436 209.072 310.473 209.145C310.726 209.509 310.943 209.897 311.122 210.303C311.122 210.384 311.203 210.476 311.237 210.546V210.627C311.411 211.055 311.562 211.518 311.712 212.005L311.805 212.375C311.958 212.942 312.074 213.518 312.152 214.1L312.21 214.366C312.435 216.012 312.539 217.672 312.523 219.333C312.475 224.373 311.775 229.386 310.439 234.246C309.554 237.475 309.018 240.79 308.841 244.133V244.272C308.841 244.805 308.783 245.187 308.783 245.534C308.783 248.116 309.535 250.096 310.902 251.138L311.504 251.253Z" fill="black"/>
<path opacity="0.2" d="M272.73 222.784L248.185 208.415V181.856C248.103 177.96 248.35 174.063 248.926 170.209C249.783 165.473 251.079 164.038 254.807 161.884C257.061 160.498 259.642 159.735 262.287 159.673C263.155 159.603 263.977 159.522 264.811 159.395L265.47 159.279L266.628 159.036C267.103 158.897 267.612 158.758 268.145 158.573C268.366 158.51 268.582 158.432 268.793 158.341C269.642 158.032 270.469 157.668 271.271 157.253L271.375 157.195C271.875 156.993 272.359 156.753 272.822 156.477C277.384 153.849 281.668 148.674 284.562 142.306C284.759 141.889 284.921 141.473 285.095 141.067L284.481 141.681C285.269 140.905 286.033 140.072 286.797 139.215C289.451 136.159 292.495 133.465 295.851 131.203C296.324 130.847 296.824 130.526 297.344 130.242C305.738 125.38 312.581 130.555 312.581 141.739C312.484 146.91 311.3 152.002 309.107 156.686C306.201 163.065 301.917 168.264 297.356 170.869C296.89 171.136 296.406 171.372 295.909 171.575C295.875 171.586 295.838 171.586 295.804 171.575C295.002 172.009 294.175 172.396 293.327 172.733L292.678 172.964C292.181 173.137 291.674 173.284 291.162 173.404C290.756 173.508 290.386 173.589 290.004 173.659L289.332 173.775C288.51 173.89 287.677 173.995 286.808 174.053C284.166 174.107 281.587 174.871 279.341 176.264C275.613 178.406 274.304 179.841 273.459 184.577C272.874 188.438 272.619 192.342 272.695 196.247V213.73L272.73 222.784Z" fill="black"/>
<path opacity="0.2" d="M274.987 146.937L250.327 132.674C248.879 131.794 248.219 128.135 248.219 118.942L248.115 92.5449L272.753 106.774V133.31C272.753 142.573 273.529 146.104 274.999 146.926L274.987 146.937Z" fill="black"/>
<path d="M311.689 251.369L311.504 251.265L311.11 251.01C309.744 249.968 308.991 247.988 308.991 245.407C308.991 245.059 308.991 244.677 309.049 244.145V244.006C309.227 240.662 309.762 237.347 310.647 234.118C311.983 229.258 312.683 224.246 312.731 219.206C312.747 217.545 312.643 215.885 312.418 214.239L312.36 213.973C312.283 213.391 312.167 212.815 312.013 212.248L311.92 211.877C311.77 211.391 311.619 210.928 311.446 210.5V210.419C311.446 210.349 311.376 210.256 311.33 210.175C311.152 209.769 310.935 209.382 310.682 209.018C310.644 208.945 310.602 208.875 310.554 208.809C310.02 208.04 309.309 207.408 308.482 206.968L308.204 206.853C307.899 206.722 307.586 206.614 307.266 206.528L306.872 206.459H306.768C306.498 206.402 306.223 206.371 305.946 206.366C305.749 206.366 305.541 206.366 305.333 206.366C305.124 206.366 304.788 206.366 304.522 206.366L303.827 206.459C303.561 206.459 303.295 206.575 303.04 206.644H302.913C302.689 206.682 302.469 206.736 302.253 206.806L301.709 206.98H301.547C300.142 207.446 298.773 208.01 297.448 208.67L297.332 208.728L293.118 210.986L292.991 211.055L292.782 211.171L287.433 214.262L272.73 222.784V213.718V196.236C272.65 192.335 272.902 188.435 273.482 184.577C274.327 179.842 275.636 178.406 279.364 176.264C281.61 174.871 284.189 174.107 286.831 174.053C287.7 174.053 288.533 173.891 289.355 173.775L290.027 173.659C290.409 173.59 290.779 173.508 291.185 173.404C291.697 173.284 292.203 173.137 292.701 172.964L293.35 172.733C294.197 172.396 295.025 172.009 295.827 171.575C295.861 171.586 295.898 171.586 295.931 171.575C296.429 171.372 296.913 171.136 297.379 170.869C301.94 168.217 306.224 163.065 309.13 156.686C311.323 152.002 312.507 146.91 312.603 141.739C312.603 130.555 305.761 125.38 297.367 130.242C296.847 130.526 296.347 130.847 295.874 131.203C292.517 133.465 289.473 136.159 286.82 139.215C286.021 140.072 285.257 140.905 284.504 141.681C283.281 142.907 281.939 144.008 280.498 144.969L279.977 145.293L279.375 145.652C278.68 146.046 278.055 146.416 277.465 146.683L276.898 146.914C276.728 146.988 276.548 147.039 276.365 147.065C276.205 147.119 276.036 147.146 275.867 147.146C275.559 147.156 275.254 147.08 274.987 146.926C273.517 146.104 272.741 142.596 272.741 133.31V106.774L248.104 92.5449L323.799 48.7577C324.077 48.6072 324.332 48.4566 324.61 48.3293C324.856 48.2018 325.111 48.0934 325.374 48.0051L326.138 47.762C326.375 47.6823 326.619 47.6242 326.867 47.5883C327.177 47.5314 327.49 47.4965 327.805 47.4841C329.076 47.4272 330.333 47.7627 331.406 48.4451L355.719 62.4658C356.471 62.8787 357.129 63.4423 357.653 64.1214C357.833 64.3544 357.999 64.598 358.151 64.8508C358.26 65.0189 358.361 65.1929 358.452 65.3718C358.637 65.7423 358.81 66.1244 358.973 66.5296C359.03 66.738 359.111 66.9464 359.169 67.1664C359.605 68.6706 359.812 70.2318 359.783 71.7975V172.594L339.881 184.079L339.522 184.311L339.279 184.449H339.221L335.273 186.892C333.699 187.926 332.187 189.051 330.746 190.262L330.642 190.343L330.41 190.539L329.38 191.466L329.299 191.558C329.148 191.686 328.998 191.836 328.859 191.975C328.72 192.114 328.245 192.577 327.956 192.89C327.666 193.202 327.562 193.295 327.388 193.503C327.215 193.712 326.821 194.129 326.555 194.453L326.011 195.136L325.246 196.155L324.83 196.768L324.737 196.93L324.633 197.092C324.436 197.382 324.228 197.683 324.042 197.996C323.857 198.308 323.788 198.447 323.672 198.679L323.579 198.864C323.22 199.512 322.873 200.195 322.56 200.89L322.491 201.064C322.352 201.353 322.225 201.654 322.109 201.944C322.005 202.245 321.889 202.546 321.785 202.858L321.692 203.09L321.345 204.155C321.229 204.537 321.125 204.919 321.021 205.313C320.916 205.706 320.824 206.1 320.731 206.47C320.638 206.841 320.569 207.246 320.499 207.628C320.43 208.01 320.349 208.473 320.291 208.902V208.971C320.291 209.33 320.175 209.689 320.141 210.048C320.106 210.407 320.048 210.951 320.002 211.46V211.738C320.002 212.005 320.002 212.271 319.944 212.537C319.944 213.105 319.944 213.695 319.944 214.529V214.679C319.944 214.818 319.944 214.969 319.944 215.107C319.859 219.372 320.565 223.616 322.028 227.623C322.998 230.22 323.537 232.957 323.626 235.728V235.855C323.626 236.225 323.683 236.607 323.695 236.92C323.695 242.257 320.43 248.498 316.424 250.813C315.693 251.26 314.877 251.548 314.027 251.659C313.854 251.676 313.68 251.676 313.507 251.659H313.425C313.318 251.676 313.209 251.676 313.101 251.659C313.006 251.676 312.908 251.676 312.812 251.659L312.58 251.601L312.302 251.52C312.228 251.506 312.158 251.479 312.094 251.439C311.955 251.456 311.814 251.432 311.689 251.369Z" fill="#008282"/>
<path opacity="0.3" d="M272.73 106.774L248.092 92.5449L323.788 48.7577C324.066 48.6072 324.321 48.4566 324.598 48.3293C324.844 48.2018 325.1 48.0934 325.363 48.0051L326.127 47.762C326.364 47.6823 326.608 47.6242 326.856 47.5883C327.166 47.5314 327.479 47.4965 327.794 47.4841C329.064 47.4272 330.321 47.7627 331.395 48.4451L355.43 62.3384C355.221 62.2286 354.999 62.1432 354.77 62.0837C354.718 62.0695 354.668 62.0502 354.62 62.0258C354.409 61.9538 354.192 61.9033 353.971 61.8753H353.751C353.609 61.857 353.465 61.857 353.323 61.8753H352.906C352.872 61.8695 352.836 61.8695 352.802 61.8753C352.602 61.8579 352.4 61.8579 352.2 61.8753L351.737 61.9448C351.422 61.9835 351.112 62.0533 350.811 62.1532L350.347 62.2921L349.444 62.651C349.097 62.8131 348.75 62.9984 348.379 63.2068L272.73 106.774Z" fill="white"/>
</g>
<mask id="mask2_25_1268" style="mask-type:luminance" maskUnits="userSpaceOnUse" x="153" y="97" width="152" height="181">
<path d="M177.734 277.651L153.073 263.433L153.166 162.452C153.255 158.434 154.215 154.484 155.979 150.874C158.075 146.451 161.155 142.642 164.593 140.651L240.104 97.1644L264.741 111.382V133.577V141.067L274.906 146.937C276.006 147.574 277.477 146.717 279.306 145.664C282.138 143.942 284.668 141.767 286.797 139.227C288.306 137.554 289.902 135.961 291.578 134.457L302.103 140.523C302.185 140.565 302.263 140.616 302.334 140.674C302.347 140.668 302.361 140.664 302.375 140.664C302.389 140.664 302.403 140.668 302.415 140.674C302.509 140.727 302.595 140.793 302.67 140.871C303.044 141.199 303.358 141.591 303.596 142.028C303.684 142.145 303.754 142.274 303.805 142.41C303.862 142.509 303.909 142.614 303.944 142.723C304.142 143.18 304.289 143.658 304.383 144.147C304.39 144.224 304.39 144.302 304.383 144.379C304.383 144.668 304.476 144.992 304.511 145.316C304.546 145.641 304.511 145.976 304.511 146.324C304.528 146.648 304.528 146.972 304.511 147.296C304.511 147.644 304.453 147.979 304.407 148.304C304.36 148.628 304.302 148.975 304.245 149.311C304.187 149.647 304.14 149.82 304.071 150.075C304.031 150.259 303.98 150.441 303.92 150.619C303.562 151.926 303.057 153.188 302.415 154.382C301.277 156.747 299.505 158.751 297.298 160.171C297.002 160.335 296.696 160.482 296.383 160.611H296.325C294.251 161.701 291.953 162.299 289.61 162.359C288.869 162.359 288.117 162.475 287.295 162.591L286.45 162.718C284.425 163.12 282.473 163.827 280.661 164.814C280.441 164.918 280.232 165.022 280.035 165.138L279.375 165.508C278.01 166.295 276.709 167.189 275.485 168.183L275.37 168.298C274.791 168.773 274.212 169.271 273.772 169.734L273.679 169.827C272.554 170.954 271.535 172.183 270.634 173.497C270.213 174.08 269.827 174.687 269.476 175.315L269.245 175.708C268.944 176.264 268.678 176.866 268.411 177.375V177.468C268.342 177.595 268.284 177.734 268.226 177.85C267.983 178.452 267.717 179.066 267.485 179.691L267.381 180.004C267.126 180.745 266.871 181.497 266.675 182.227C266.675 182.331 266.617 182.423 266.617 182.458C266.455 183.106 266.281 183.755 266.142 184.426C266.142 184.623 266.061 184.832 266.015 185.028V185.19C265.91 185.677 265.841 186.175 265.748 186.684C265.748 186.973 265.644 187.286 265.598 187.599C265.552 187.911 265.471 188.525 265.424 189V189.231C265.376 189.476 265.345 189.723 265.332 189.972C265.332 190.458 265.227 190.956 265.181 191.477V191.743C265.181 191.917 265.181 192.102 265.181 192.299V192.461L264.915 200.566V227.195L257.968 231.224L255.757 232.509L251.392 234.998L245.036 238.68C240.613 241.239 237.556 242.535 235.658 242.686C235.366 242.722 235.07 242.722 234.778 242.686C234.58 242.643 234.389 242.573 234.21 242.477L225.145 237.175C225.14 237.136 225.14 237.097 225.145 237.059C225.249 235.901 225.388 234.743 225.55 233.701C225.654 233.03 225.77 232.382 225.898 231.78C226.233 229.881 226.662 228.179 227.055 226.558C227.954 223.336 228.486 220.023 228.642 216.682V216.613V216.52C228.642 215.976 228.642 215.617 228.699 215.281C228.699 212.699 227.935 210.708 226.569 209.677C226.502 209.627 226.433 209.581 226.361 209.539L226.175 209.434L216.045 203.588C213.237 206.698 210.975 210.26 209.353 214.123C209.133 214.656 208.913 215.189 208.716 215.698C208.519 216.207 208.311 216.775 208.137 217.319L208.056 217.55C207.871 218.095 207.709 218.639 207.547 219.183C207.385 219.727 207.246 220.283 207.118 220.827C206.991 221.371 206.945 221.579 206.864 221.985C206.783 222.39 206.713 222.737 206.667 223.142C206.525 223.908 206.425 224.681 206.366 225.458C206.308 225.875 206.273 226.303 206.25 226.72C206.227 227.137 206.192 227.797 206.192 228.318C206.192 228.839 206.192 229.012 206.192 229.348C206.192 229.684 206.192 229.985 206.262 230.274C206.262 230.772 206.262 231.235 206.343 231.687C206.404 232.735 206.524 233.778 206.702 234.813C206.702 235.23 206.829 235.635 206.91 235.971C207.278 237.706 207.757 239.415 208.346 241.088C209.052 242.953 209.53 244.897 209.77 246.877V247.097V247.271V247.514C209.839 248.37 209.874 249.216 209.874 250.096C209.874 255.803 209.874 258.953 197.74 265.957L177.734 277.651Z" fill="white"/>
</mask>
<g mask="url(#mask2_25_1268)">
<path d="M233.991 242.663L209.434 228.26C208.473 227.693 208.172 226.106 208.172 222.679C208.176 219.855 208.514 217.042 209.179 214.297C208.439 216.002 207.813 217.754 207.304 219.542C209.619 211.032 215.026 202.939 221.197 199.35C225.261 197.034 229.082 196.907 231.964 199.084C234.847 201.26 236.433 205.417 236.433 210.858C236.433 211.379 236.433 211.889 236.376 212.352V212.607C236.376 212.734 236.376 212.861 236.376 212.989C236.376 214.146 236.237 215.304 236.109 216.52C236.098 216.714 236.074 216.907 236.04 217.099V217.273C235.936 218.095 235.831 218.893 235.704 219.692C235.611 220.167 235.519 220.642 235.438 221.105C235.357 221.568 235.253 222.043 235.16 222.506C234.905 223.663 234.616 224.925 234.315 226.187C233.31 229.726 232.777 233.381 232.729 237.059C232.717 240.509 232.96 242.095 233.991 242.663Z" fill="#008282"/>
<path d="M177.734 277.651L153.073 263.433L153.166 162.463C153.247 158.445 154.207 154.493 155.979 150.885L180.594 165.091C178.783 168.75 177.799 172.762 177.711 176.843L177.734 277.651Z" fill="#008282"/>
<path d="M233.99 242.663L209.434 228.26C208.473 227.693 208.172 226.106 208.172 222.679C208.176 219.855 208.514 217.042 209.179 214.297C211.958 207.848 216.323 202.187 221.243 199.35C225.307 197.034 229.128 196.907 232.011 199.084C234.893 201.26 236.433 205.417 236.433 210.858C236.433 211.379 236.433 211.889 236.375 212.352V212.607C236.375 212.734 236.375 212.861 236.375 212.989C236.375 214.146 236.236 215.304 236.109 216.52C236.097 216.714 236.074 216.907 236.04 217.099V217.273C235.935 218.095 235.831 218.893 235.704 219.692C235.611 220.167 235.519 220.642 235.438 221.105C235.357 221.568 235.252 222.043 235.16 222.506C234.905 223.663 234.616 224.925 234.315 226.187C233.31 229.726 232.777 233.381 232.728 237.059C232.717 240.509 232.96 242.095 233.99 242.663Z" fill="#263238"/>
<path d="M177.734 277.651L153.073 263.433L153.166 162.463C153.247 158.445 154.207 154.493 155.979 150.885L180.594 165.091C178.783 168.75 177.799 172.762 177.711 176.843L177.734 277.651Z" fill="#263238"/>
<path d="M177.734 277.651V176.831C177.822 172.75 178.806 168.738 180.617 165.08L156.002 150.874C156.072 150.723 156.13 150.584 156.199 150.445C156.301 150.215 156.417 149.99 156.547 149.774C156.709 149.461 156.871 149.16 157.044 148.859C157.218 148.558 157.461 148.13 157.693 147.794L157.82 147.551C157.851 147.502 157.886 147.456 157.924 147.412C158.121 147.088 158.353 146.752 158.584 146.428L158.793 146.139C158.911 145.955 159.042 145.781 159.186 145.618C159.311 145.44 159.447 145.27 159.592 145.108L159.707 144.958C159.916 144.691 160.136 144.425 160.367 144.182L160.645 143.892C160.705 143.817 160.771 143.748 160.842 143.684L160.969 143.534L161.212 143.314L161.641 142.897C161.678 142.856 161.721 142.821 161.768 142.793C161.896 142.677 162.011 142.549 162.127 142.457L162.254 142.353H162.312L162.625 142.121C162.741 142.017 162.868 141.936 162.984 141.843C163.1 141.751 163.215 141.658 163.331 141.565C163.468 141.461 163.611 141.364 163.76 141.276C164.011 141.081 164.279 140.907 164.558 140.755L240.08 97.2686L264.718 111.498V133.681L265.077 133.31C267.062 130.983 269.357 128.938 271.896 127.232H271.989C272.227 127.053 272.474 126.887 272.73 126.734C273.42 126.256 274.233 125.986 275.072 125.955C275.911 125.925 276.742 126.135 277.465 126.56L302.022 140.743C302.154 140.809 302.279 140.891 302.392 140.986L302.601 141.148C303.455 141.946 304.038 142.99 304.268 144.136C304.337 144.425 304.395 144.738 304.441 145.05C304.509 145.565 304.54 146.083 304.534 146.602C304.471 149.413 303.745 152.17 302.415 154.648C301.27 157.013 299.496 159.016 297.286 160.437C296.99 160.608 296.685 160.763 296.372 160.9H296.314C294.24 161.992 291.942 162.59 289.599 162.648C285.95 162.782 282.401 163.872 279.306 165.809C277.94 166.589 276.642 167.484 275.427 168.484L275.289 168.588C274.721 169.063 274.131 169.549 273.691 170.035L273.621 170.116C272.49 171.234 271.47 172.459 270.576 173.775C270.194 174.342 269.824 174.933 269.419 175.592L269.245 175.905V175.998C268.944 176.53 268.666 177.155 268.4 177.665V177.746C268.337 177.873 268.283 178.005 268.238 178.14C267.971 178.73 267.728 179.297 267.497 179.98L267.381 180.281C267.115 181.022 266.871 181.787 266.675 182.504L266.617 182.748C266.443 183.384 266.281 184.044 266.142 184.716C266.142 184.901 266.049 185.109 266.015 185.306V185.468C265.922 185.966 265.841 186.452 265.748 186.962C265.748 187.251 265.644 187.564 265.609 187.865C265.575 188.166 265.471 188.803 265.413 189.289V189.521C265.413 189.752 265.355 189.995 265.343 190.25C265.343 190.736 265.239 191.246 265.204 191.743V192.01C265.204 192.195 265.204 192.38 265.146 192.565V192.739L264.88 200.844V227.473L257.933 231.513L251.369 235.299L245.013 238.969C240.601 241.528 237.522 242.825 235.646 242.964C235.5 242.975 235.353 242.975 235.206 242.964C234.848 242.96 234.495 242.872 234.176 242.709C233.192 242.142 232.902 240.555 232.902 237.105C232.951 233.427 233.484 229.772 234.488 226.234C234.789 224.972 235.079 223.745 235.334 222.552C235.426 222.089 235.53 221.626 235.611 221.151C235.692 220.676 235.785 220.213 235.878 219.739C236.005 218.94 236.109 218.141 236.213 217.319V217.145C236.248 216.954 236.271 216.76 236.283 216.566C236.41 215.351 236.503 214.251 236.549 213.035C236.549 212.908 236.549 212.78 236.549 212.653V212.364C236.549 211.9 236.619 211.391 236.607 210.87C236.607 205.44 235.033 201.26 232.15 199.084C229.267 196.907 225.446 196.988 221.382 199.35C216.462 202.187 212.12 207.848 209.318 214.297C208.746 215.57 208.251 216.877 207.836 218.21C207.697 218.65 207.558 219.102 207.443 219.542C207.327 219.982 207.165 220.595 207.037 221.128C207.001 221.217 206.977 221.31 206.968 221.406C206.852 221.915 206.748 222.436 206.667 222.946C206.468 224.045 206.325 225.154 206.239 226.268C206.215 226.6 206.215 226.933 206.239 227.264C206.239 227.658 206.239 228.051 206.239 228.422C206.239 229.105 206.239 229.823 206.32 230.379C206.432 234.087 207.139 237.754 208.415 241.239C209.116 243.105 209.594 245.048 209.839 247.027V247.259V247.329V247.421C209.833 247.502 209.833 247.583 209.839 247.664C209.897 248.521 209.943 249.366 209.943 250.246C209.943 255.954 209.943 259.103 197.821 266.108L177.734 277.651Z" fill="#37474F"/>
<path d="M277.592 126.317L302.149 140.5C301.396 140.126 300.555 139.963 299.717 140.031C298.878 140.098 298.074 140.392 297.391 140.882C297.182 140.998 296.916 141.183 296.65 141.368L296.568 141.449H296.511C293.969 143.153 291.674 145.198 289.691 147.528C286.741 150.955 283.267 153.894 279.399 156.234L278.912 156.501L278.727 156.593L278.588 156.663C278.218 156.86 277.859 157.068 277.523 157.23L276.875 157.508L276.655 157.589L276.527 157.658L275.717 157.959C275.476 158.054 275.228 158.131 274.976 158.191H274.883L274.061 158.388C273.783 158.457 273.529 158.469 273.262 158.515H272.498C272.255 158.515 272.012 158.515 271.78 158.515C271.549 158.515 271.329 158.434 271.109 158.399C270.888 158.357 270.671 158.295 270.461 158.214C270.256 158.144 270.058 158.055 269.87 157.948H269.766C269.595 157.865 269.429 157.772 269.268 157.67C269.112 157.559 268.964 157.435 268.828 157.3L268.735 157.23L268.643 157.137C268.515 157.033 268.377 156.906 268.249 156.779C268.101 156.604 267.962 156.423 267.832 156.234L267.763 156.13C267.506 155.76 267.274 155.373 267.068 154.972L266.999 154.822C266.899 154.646 266.81 154.465 266.732 154.278C266.651 154.081 266.559 153.838 266.478 153.606V153.444V153.305C266.408 153.097 266.327 152.912 266.258 152.68C266.188 152.448 266.096 152.055 266.015 151.731C265.934 151.406 265.864 151.175 265.818 150.885C265.772 150.596 265.679 150.191 265.621 149.82C265.563 149.45 265.517 149.218 265.471 148.917C265.424 148.616 265.378 148.141 265.332 147.759C265.285 147.377 265.262 147.123 265.227 146.798C265.193 146.474 265.146 145.953 265.123 145.502C265.123 145.27 265.123 144.992 265.123 144.726V144.379C265.123 143.973 265.123 143.545 265.054 143.105V142.931L264.973 138.3V133.507C265.077 133.38 265.204 133.264 265.308 133.148C267.294 130.821 269.588 128.776 272.128 127.07H272.186L272.278 127C272.51 126.822 272.754 126.66 273.008 126.514C273.682 126.067 274.465 125.813 275.273 125.778C276.081 125.744 276.883 125.93 277.592 126.317Z" fill="black"/>
<path d="M180.628 165.091L155.991 150.862C156.06 150.712 156.118 150.584 156.199 150.445C156.301 150.215 156.417 149.99 156.546 149.774C156.709 149.461 156.871 149.16 157.044 148.859C157.218 148.558 157.461 148.13 157.693 147.794C157.759 147.66 157.836 147.532 157.924 147.412C158.121 147.088 158.353 146.752 158.584 146.428L158.793 146.139C158.911 145.955 159.042 145.781 159.186 145.618C159.347 145.388 159.521 145.167 159.707 144.958C159.916 144.691 160.136 144.425 160.367 144.182L160.645 143.892C160.705 143.817 160.77 143.748 160.842 143.684L161.212 143.314L161.641 142.897C161.678 142.856 161.721 142.821 161.768 142.793C161.919 142.634 162.081 142.487 162.254 142.353H162.312L162.625 142.121C162.85 141.923 163.086 141.738 163.331 141.565C163.468 141.461 163.611 141.364 163.759 141.276C164.011 141.081 164.278 140.907 164.558 140.755L240.069 97.257L264.706 111.486L231.513 130.647L189.092 155.158C188.767 155.343 188.455 155.54 188.142 155.748C187.83 155.956 187.563 156.165 187.297 156.396C187.141 156.499 186.993 156.615 186.857 156.744C186.579 156.964 186.301 157.23 186.035 157.485C185.769 157.739 185.387 158.122 185.074 158.446C184.378 159.206 183.732 160.01 183.141 160.854C182.909 161.178 182.678 161.502 182.458 161.85C181.78 162.89 181.169 163.973 180.628 165.091Z" fill="#455A64"/>
</g>
<path d="M144.332 190.042C145.539 190.111 146.729 189.736 147.678 188.988C150.237 187.008 152.147 187.17 154.891 185.989C157.044 185.052 157.913 183.905 158.364 184.299C158.813 184.797 159.057 185.446 159.046 186.116C159.035 186.787 158.771 187.428 158.306 187.911C157.479 188.874 156.52 189.716 155.458 190.412C158.003 190.254 160.513 189.74 162.914 188.884C168.703 186.916 171.447 187.726 168.819 195.078C167.175 199.709 163.03 202.256 151.672 202.025C147.475 201.742 143.301 201.177 139.18 200.334C127.938 198.123 105.303 194.731 101.355 189.416C90.1827 174.365 79.9363 161.954 78.5238 150.723C77.366 141.299 83.1549 136.031 88.5155 136.031C91.5604 139.238 93.4129 143.059 96.2147 152.055C96.2147 152.055 110.756 178.093 112.227 179.992C115.885 181.995 141.947 189.659 144.332 190.042Z" fill="#FFA8A7"/>
<path d="M354.319 93.5753C356.275 94.7331 358.371 95.2309 360.976 97.1297C362.66 98.5754 364.67 99.5888 366.834 100.082C369.624 100.765 391.587 93.3437 395.651 90.2062C403.929 83.8268 411.073 71.8206 415.056 67.2705C418.332 63.5193 422.002 57.8693 426.089 57.8462C432.77 59.8607 431.265 69.7945 425.673 78.6862C421.041 86.0844 412.265 95.4277 402.332 101.946C397.515 105.107 375.321 110.838 367.946 111.324C365.711 111.463 364.055 111.972 359.841 112.574C358.089 112.93 356.295 113.027 354.515 112.864C352.33 112.524 350.206 111.873 348.205 110.93C345.667 109.746 343.492 107.903 341.907 105.593C341.042 104.323 340.487 102.867 340.286 101.344C340.084 99.8094 340.437 98.2529 341.282 96.956C341.441 96.6853 341.668 96.4615 341.942 96.3076C342.48 96.1324 343.066 96.1739 343.574 96.4234C346.538 97.4538 349.572 99.0053 352.617 99.7115C355.187 100.302 357.086 100.371 356.831 99.9083C356.576 99.4452 355.048 99.1905 353.3 97.7086C351.551 96.2266 350.834 93.8879 351.702 93.008C352.57 92.1281 352.373 92.3712 354.319 93.5753Z" fill="#FFA8A7"/>
<path d="M426.517 55.4959C431.45 57.9156 433.464 61.5974 431.264 69.7945C429.296 77.1579 421.747 89.7199 415.808 95.8677C415.808 95.8677 405.643 91.0513 400.236 84.7877C405.585 76.6022 408.167 71.7858 413.191 64.8507C418.216 57.9156 423.507 54.6739 426.517 55.4959Z" fill="#E0E0E0"/>
</svg>
