<svg width="530" height="551" viewBox="0 0 530 551" fill="none" xmlns="http://www.w3.org/2000/svg">
<path d="M509.601 526.862C509.601 527.028 404.299 527.171 274.447 527.171C144.594 527.171 39.2693 526.993 39.2693 526.862C39.2693 526.732 144.535 526.554 274.447 526.554C404.359 526.554 509.601 526.649 509.601 526.862Z" fill="#263238"/>
<path d="M96.5359 158.521L97.3903 159.945C98.3477 161.54 99.7443 162.826 101.413 163.648L102.908 164.383L101.484 165.25C99.8862 166.207 98.5969 167.603 97.77 169.272L97.0343 170.756L96.1799 169.344C95.2185 167.745 93.8181 166.456 92.1454 165.629L90.6621 164.894L92.0861 164.039C93.6813 163.077 94.9665 161.677 95.7883 160.005L96.5359 158.521Z" fill="#008282"/>
<path d="M404.548 314.788L405.403 316.212C406.363 317.808 407.759 319.096 409.425 319.926L410.921 320.662L409.497 321.517C407.898 322.478 406.609 323.878 405.782 325.551L405.047 327.034L404.192 325.61C403.228 324.018 401.834 322.73 400.17 321.896L398.675 321.161L400.099 320.306C401.697 319.349 402.986 317.953 403.813 316.283L404.548 314.788Z" fill="#008282"/>
<path d="M237.246 21.3593L238.1 22.7833C239.057 24.3812 240.454 25.6705 242.123 26.4974L243.618 27.2331L242.194 28.0875C240.609 29.0286 239.321 30.3983 238.48 32.039L237.744 33.5341L236.89 32.1102C235.928 30.5113 234.528 29.2222 232.855 28.396L231.372 27.6603L232.796 26.8059C234.388 25.8454 235.673 24.4497 236.498 22.7833L237.246 21.3593Z" fill="#008282"/>
<path d="M437.525 155.448L438.379 156.872C439.341 158.471 440.741 159.76 442.414 160.586L443.897 161.322L442.473 162.176C440.881 163.137 439.596 164.533 438.771 166.199L438.035 167.694L437.181 166.27C436.219 164.671 434.819 163.382 433.146 162.556L431.663 161.82L433.075 160.966C434.67 160.006 435.959 158.61 436.789 156.943L437.525 155.448Z" fill="#008282"/>
<path d="M128.978 213.355L129.595 214.388C130.298 215.552 131.319 216.491 132.538 217.093L133.63 217.627L132.585 218.256C131.421 218.959 130.482 219.98 129.88 221.199L129.346 222.279L128.717 221.247C128.015 220.082 126.993 219.143 125.774 218.541L124.694 218.007L125.727 217.378C126.894 216.679 127.834 215.657 128.432 214.435L128.978 213.355Z" fill="#008282"/>
<path d="M157.315 346.329L157.944 347.373C158.646 348.527 159.663 349.457 160.875 350.055L161.966 350.589L160.922 351.218C159.758 351.92 158.819 352.941 158.217 354.161L157.683 355.24L157.054 354.208C156.354 353.045 155.338 352.107 154.123 351.503L153.031 350.957L154.075 350.34C155.24 349.637 156.178 348.616 156.781 347.397L157.315 346.329Z" fill="#008282"/>
<path d="M428.222 115.103L428.839 116.135C429.538 117.303 430.56 118.242 431.782 118.841L432.873 119.387L431.829 120.004C430.665 120.706 429.726 121.727 429.124 122.946L428.59 124.038L427.961 122.994C427.258 121.829 426.237 120.891 425.018 120.288L423.938 119.754L424.97 119.125C426.138 118.427 427.077 117.404 427.676 116.183L428.222 115.103Z" fill="#008282"/>
<path d="M73.4204 185.304L74.0375 186.336C74.7382 187.505 75.7595 188.448 76.9803 189.053L78.072 189.587L77.0278 190.204C75.8684 190.913 74.931 191.933 74.3223 193.147L73.7883 194.239L73.1594 193.195C72.4569 192.03 71.4357 191.091 70.2165 190.489L69.1367 189.955L70.1691 189.326C71.3364 188.628 72.2762 187.605 72.8746 186.383L73.4204 185.304Z" fill="#008282"/>
<path d="M458.22 121.534L458.576 122.128C458.979 122.792 459.563 123.327 460.261 123.67L460.89 123.979L460.296 124.335C459.617 124.73 459.068 125.316 458.718 126.02L458.409 126.649L458.054 126.055C457.655 125.385 457.069 124.845 456.368 124.501L455.751 124.192L456.345 123.836C457.009 123.433 457.545 122.849 457.887 122.151L458.22 121.534Z" fill="#008282"/>
<path d="M436.042 292.361L436.398 292.966C436.8 293.631 437.385 294.166 438.082 294.509L438.7 294.817L438.106 295.173C437.438 295.576 436.899 296.16 436.552 296.858L436.243 297.487L435.887 296.882C435.484 296.218 434.9 295.682 434.202 295.34L433.585 295.031L434.179 294.675C434.847 294.273 435.386 293.688 435.733 292.99L436.042 292.361Z" fill="#008282"/>
<path d="M282.587 7.98602L282.943 8.57934C283.346 9.24386 283.931 9.77915 284.628 10.122L285.257 10.4305L284.664 10.7983C283.989 11.1907 283.444 11.7725 283.097 12.4715L282.789 13.1004L282.433 12.5071C282.024 11.8356 281.431 11.296 280.724 10.9526L280.131 10.6797L280.736 10.3237C281.4 9.92079 281.936 9.33609 282.278 8.63867L282.587 7.98602Z" fill="#008282"/>
<path d="M214.629 38.2806L214.985 38.8739C215.381 39.5386 215.957 40.0776 216.646 40.4284L217.263 40.7369L216.67 41.0929C216.005 41.4958 215.47 42.0805 215.127 42.7779L214.819 43.3949L214.451 42.8016C214.054 42.134 213.473 41.5945 212.778 41.2471L212.149 40.9386L212.742 40.5826C213.404 40.1801 213.936 39.595 214.273 38.8976L214.629 38.2806Z" fill="#008282"/>
<path d="M164.957 361.921L165.313 362.514C165.715 363.183 166.3 363.722 166.998 364.069L167.615 364.377L167.022 364.733C166.357 365.136 165.822 365.721 165.479 366.418L165.17 367.036L164.814 366.442C164.409 365.777 163.825 365.238 163.129 364.888L162.5 364.579L163.094 364.223C163.764 363.824 164.305 363.239 164.648 362.538L164.957 361.921Z" fill="#008282"/>
<path d="M339.557 449.53L192.415 449.186C186.316 449.186 181.38 444.878 181.391 439.598C181.391 434.329 186.363 430.105 192.463 430.105L339.604 430.449C345.704 430.449 350.628 434.744 350.616 440.025C350.604 445.27 345.656 449.542 339.557 449.53Z" fill="#455A64"/>
<path d="M339.557 426.319L192.415 425.987C186.316 425.987 181.38 421.68 181.391 416.399C181.391 411.119 186.363 406.906 192.463 406.906L339.604 407.238C345.704 407.238 350.628 411.546 350.616 416.826C350.604 422.071 345.656 426.331 339.557 426.319Z" fill="#455A64"/>
<path d="M333.648 452.995L198.942 452.686C196.386 452.862 193.993 454 192.244 455.873C190.496 457.745 189.524 460.211 189.524 462.772C189.524 465.334 190.496 467.8 192.244 469.672C193.993 471.545 196.386 472.683 198.942 472.859H213.727L233.259 510.321C234.36 512.414 236.009 514.169 238.03 515.398C240.051 516.627 242.368 517.284 244.734 517.298L292.875 517.405C295.266 517.412 297.613 516.759 299.657 515.518C301.7 514.276 303.361 512.494 304.456 510.368L323.609 473.191H333.659C336.215 473.016 338.609 471.877 340.357 470.005C342.105 468.132 343.077 465.666 343.077 463.105C343.077 460.543 342.105 458.077 340.357 456.205C338.609 454.333 336.215 453.194 333.659 453.018L333.648 452.995Z" fill="#455A64"/>
<path d="M379.914 296.265C379.914 296.265 379.546 296.835 378.822 297.891L375.618 302.637L373.281 306.15C372.426 307.443 371.584 308.926 370.611 310.493L367.526 315.595C366.398 317.399 365.425 319.452 364.262 321.528C363.693 322.596 363.076 323.688 362.506 324.803C362.21 325.373 361.913 325.99 361.604 326.512C361.296 327.034 361.047 327.699 360.762 328.304C359.575 330.737 358.389 333.276 357.202 335.946L353.713 344.478C352.61 347.48 351.518 350.636 350.391 353.9C348.106 360.938 346.239 368.106 344.802 375.366C343.18 383.552 342.385 391.88 342.428 400.225V400.427H342.239L185.189 400.51H184.939V400.261C183.29 381.88 178.498 363.919 170.771 347.159C166.725 338.271 162.058 329.678 156.804 321.445C154.146 317.257 151.322 313.139 148.32 309.092C145.318 305.046 142.043 301.19 138.827 297.226L138.436 296.752H139.064L138.839 297.226C124.128 278.31 114.09 256.189 109.541 232.662C108.9 229.648 108.509 226.586 108.034 223.525C107.844 221.982 107.702 220.44 107.536 218.897L107.298 216.524L107.144 214.15C107.061 212.596 106.919 211.042 106.871 209.475C106.824 207.909 106.871 206.342 106.776 204.729C106.681 203.115 106.776 201.596 106.776 199.982C106.776 198.368 106.776 196.826 106.919 195.236C107.637 182.504 109.909 169.907 113.682 157.726C124.638 123.374 147.368 93.9912 177.867 74.7575C185.133 70.1789 192.765 66.2099 200.686 62.8912C208.464 59.6565 216.503 57.0881 224.715 55.2137C240.632 51.5469 257.032 50.4453 273.296 51.9505C281.12 52.6914 288.878 54.0122 296.506 55.902C303.917 57.8107 311.185 60.2374 318.257 63.1641C325.082 66.1028 331.706 69.488 338.085 73.2979C344.216 77.0678 350.095 81.2338 355.683 85.7694C366.246 94.4517 375.604 104.504 383.509 115.66C390.815 125.944 396.796 137.107 401.309 148.886C402.495 151.663 403.314 154.511 404.287 157.287C405.26 160.064 405.901 162.888 406.661 165.594C407.289 168.394 407.978 171.135 408.524 173.9C408.761 175.277 409.01 176.629 409.247 177.982C409.485 179.335 409.746 180.676 409.888 182.029C411.352 192.12 411.809 202.331 411.253 212.513C410.285 228.866 406.679 244.955 400.573 260.156C398.338 265.678 395.794 271.069 392.955 276.306C390.439 280.839 388.137 284.612 386.167 287.508L383.545 291.364L381.528 294.058L379.878 296.265L381.468 294.058L383.462 291.317L386.073 287.437C388.019 284.494 390.297 280.756 392.789 276.223C395.605 270.979 398.128 265.584 400.348 260.061C410.144 235.296 413.306 208.402 409.52 182.04C409.378 180.688 409.117 179.359 408.88 178.006C408.642 176.653 408.393 175.3 408.144 173.936C407.61 171.206 406.957 168.477 406.281 165.629C405.604 162.781 404.762 160.088 403.908 157.323C403.053 154.558 402.104 151.71 400.929 148.945C396.416 137.211 390.435 126.094 383.13 115.862C375.234 104.766 365.896 94.7699 355.363 86.1372C349.783 81.6305 343.921 77.4847 337.812 73.7251C331.455 69.9302 324.85 66.5645 318.043 63.6507C310.999 60.7375 303.758 58.3227 296.375 56.4241C288.772 54.5365 281.037 53.2236 273.236 52.4964C257.035 51.0011 240.698 52.1068 224.846 55.7715C216.665 57.6379 208.657 60.1984 200.911 63.4252C193.022 66.7458 185.421 70.7148 178.187 75.2915C147.772 94.5149 125.134 123.874 114.276 158.177C110.515 170.312 108.252 182.861 107.536 195.544C107.453 197.111 107.441 198.677 107.393 200.291C107.346 201.905 107.263 203.412 107.334 204.978C107.405 206.544 107.393 208.099 107.429 209.653C107.465 211.208 107.607 212.762 107.702 214.305L107.844 216.678L108.082 219.051C108.248 220.582 108.402 222.125 108.592 223.655C109.055 226.705 109.446 229.755 110.075 232.757C114.602 256.191 124.595 278.227 139.242 297.072L139.622 297.558H139.005L139.242 297.072C142.482 301 145.816 304.844 148.735 308.938C151.655 313.032 154.574 317.138 157.232 321.338C162.505 329.588 167.18 338.206 171.222 347.124C178.985 363.941 183.801 381.967 185.462 400.415L185.2 400.166L342.25 400.249L342.061 400.451C342.039 392.084 342.858 383.735 344.505 375.532C345.935 368.255 347.79 361.067 350.058 354.006C351.245 350.743 352.301 347.587 353.417 344.585C354.532 341.582 355.79 338.77 356.977 336.041C358.163 333.312 359.433 330.832 360.536 328.411L361.379 326.619L362.293 324.91C362.898 323.795 363.479 322.703 364.061 321.635C365.247 319.535 366.22 317.482 367.348 315.702L370.457 310.611C371.43 309.045 372.284 307.562 373.15 306.28C374.016 304.999 374.823 303.836 375.523 302.803L378.775 298.057L379.961 296.455L379.914 296.265Z" fill="#263238"/>
<path d="M128.515 254.65C128.455 254.546 128.411 254.434 128.385 254.318C128.29 254.057 128.183 253.724 128.041 253.309C127.732 252.384 127.317 251.09 126.783 249.441L125.881 246.64C125.584 245.608 125.323 244.469 125.015 243.258C124.422 240.814 123.627 238.061 123.116 234.952C122.831 233.398 122.535 231.772 122.214 230.075C121.894 228.378 121.752 226.586 121.502 224.735C120.945 221.057 120.767 217.093 120.494 212.869C120.14 203.802 120.537 194.721 121.68 185.719C122.964 176.736 124.985 167.874 127.72 159.222C129.097 155.27 130.331 151.497 131.85 148.091C132.586 146.382 133.214 144.697 133.962 143.143L136.134 138.681C137.451 135.809 138.958 133.365 140.168 131.17C140.797 130.09 141.355 129.057 141.912 128.144L143.526 125.676L145.769 122.282L146.362 121.416C146.505 121.214 146.576 121.119 146.588 121.131C146.6 121.143 146.588 121.238 146.422 121.451L145.876 122.353L143.728 125.806L142.162 128.286C141.616 129.212 141.082 130.256 140.477 131.348C139.29 133.555 137.807 135.999 136.525 138.883L134.389 143.344C133.665 144.899 133.048 146.584 132.325 148.293C130.829 151.686 129.619 155.412 128.266 159.4C125.585 168.027 123.601 176.857 122.333 185.802C121.186 194.768 120.762 203.811 121.063 212.845C121.324 216.998 121.479 220.962 122.013 224.628C122.25 226.468 122.392 228.259 122.689 229.956C122.986 231.653 123.271 233.267 123.555 234.821C124.018 237.942 124.742 240.755 125.347 243.128C125.644 244.315 125.893 245.501 126.166 246.522C126.439 247.542 126.759 248.48 127.008 249.334C127.495 250.995 127.887 252.3 128.195 253.226L128.48 254.247C128.512 254.378 128.524 254.515 128.515 254.65Z" fill="#263238"/>
<path d="M173.844 94.9301C171.261 97.5617 168.536 100.049 165.68 102.382C162.958 104.875 160.093 107.209 157.101 109.371C159.686 106.738 162.416 104.25 165.277 101.919C167.998 99.4291 170.858 97.0956 173.844 94.9301Z" fill="#263238"/>
<path d="M381.587 271.868C381.587 271.868 381.587 271.773 381.694 271.595L382.05 270.824L383.462 267.905L384.494 265.804C384.862 265.033 385.218 264.167 385.681 263.253C386.464 261.414 387.449 259.361 388.315 257L389.739 253.309C390.226 252.028 390.641 250.663 391.116 249.263C392.113 246.474 392.931 243.425 393.845 240.221C395.672 233.245 397.044 226.158 397.951 219.004C398.772 211.835 399.132 204.622 399.031 197.407C398.9 194.085 398.841 190.916 398.532 187.914C398.402 186.443 398.319 185.019 398.152 183.654C397.986 182.29 397.808 180.984 397.654 179.738C397.381 177.235 396.918 174.992 396.598 173.034C396.42 172.049 396.278 171.123 396.111 170.281C395.945 169.438 395.755 168.691 395.601 168.003L394.925 164.822C394.865 164.49 394.806 164.217 394.771 163.992C394.755 163.898 394.755 163.801 394.771 163.707C394.81 163.795 394.842 163.886 394.866 163.98C394.925 164.205 394.996 164.466 395.079 164.799C395.281 165.57 395.542 166.614 395.874 167.943L396.432 170.222C396.622 171.064 396.776 171.978 396.966 172.963C397.322 174.933 397.82 177.175 398.152 179.679L398.698 183.595C398.876 184.971 398.971 186.395 399.114 187.879C399.446 190.821 399.529 194.002 399.671 197.372C400.037 211.875 398.286 226.353 394.474 240.351C393.536 243.555 392.694 246.617 391.673 249.405C391.175 250.805 390.76 252.17 390.25 253.452L388.79 257.13C387.9 259.503 386.891 261.544 386.073 263.372C385.645 264.285 385.278 265.14 384.886 265.911L383.794 267.988L382.275 270.859L381.872 271.595C381.795 271.704 381.699 271.796 381.587 271.868Z" fill="#263238"/>
<path d="M332.342 126.601C324.226 121.95 315.729 117.713 306.604 115.696C305.338 115.35 304.019 115.237 302.712 115.364C302.06 115.439 301.436 115.667 300.889 116.03C300.342 116.393 299.89 116.881 299.568 117.452C298.784 119.078 299.568 121.012 300.529 122.519C302.724 125.842 306.011 128.251 309.322 130.446C318.399 136.462 328.142 141.363 337.801 146.252C336.614 139.322 334.146 133.377 332.283 126.601" fill="#008282"/>
<path d="M394.569 144.484C397.227 153.455 400.419 162.378 405.616 170.15C406.294 171.279 407.176 172.273 408.215 173.081C408.735 173.483 409.344 173.753 409.991 173.868C410.637 173.984 411.302 173.942 411.929 173.746C413.614 173.117 414.421 171.195 414.73 169.427C415.442 165.511 414.73 161.488 413.863 157.62C411.49 146.94 407.812 136.723 404.169 126.471C400.265 132.321 397.903 138.337 394.569 144.484Z" fill="#008282"/>
<path d="M332.224 126.411C332.224 126.411 332.853 188.531 367.716 189.753C402.579 190.976 404.038 126.862 404.038 126.411C404.038 126.411 399.921 117.156 368.131 117.512C336.341 117.868 332.224 126.411 332.224 126.411Z" fill="#008282"/>
<path d="M378.526 151.081C378.353 153.453 377.48 155.72 376.019 157.595C374.557 159.471 372.572 160.871 370.315 161.618C368.058 162.365 365.63 162.426 363.338 161.793C361.046 161.16 358.993 159.862 357.439 158.062C355.885 156.263 354.9 154.043 354.608 151.683C354.316 149.323 354.73 146.93 355.798 144.806C356.867 142.681 358.541 140.922 360.609 139.749C362.678 138.577 365.048 138.044 367.419 138.218C370.597 138.452 373.553 139.938 375.635 142.35C377.718 144.762 378.758 147.903 378.526 151.081Z" fill="#263238"/>
<path d="M375.274 150.844C375.148 152.571 374.512 154.222 373.447 155.588C372.382 156.954 370.935 157.974 369.291 158.518C367.647 159.062 365.878 159.106 364.208 158.644C362.539 158.183 361.044 157.237 359.912 155.926C358.78 154.615 358.062 152.998 357.849 151.279C357.637 149.56 357.939 147.816 358.717 146.269C359.495 144.722 360.715 143.44 362.221 142.585C363.728 141.731 365.454 141.343 367.182 141.47C369.497 141.643 371.649 142.727 373.166 144.484C374.683 146.241 375.441 148.528 375.274 150.844Z" fill="white"/>
<path d="M371.05 152.446C370.983 151.966 370.956 151.482 370.967 150.998C370.967 150.085 370.967 148.803 370.967 147.225L371.062 147.391L366.517 144.768H366.766L362.221 147.32C362.103 147.533 362.388 147.047 362.364 147.094V148.435C362.364 148.874 362.364 149.325 362.364 149.764C362.364 150.63 362.364 151.473 362.364 152.292L362.245 152.066L366.695 154.784H366.493C367.882 154.036 369.033 153.443 369.84 153.027C370.257 152.79 370.694 152.587 371.145 152.422C370.771 152.705 370.374 152.955 369.958 153.17C369.199 153.633 368.06 154.356 366.636 155.128L366.541 155.187L366.446 155.128L361.937 152.505L361.806 152.434V152.28C361.806 151.461 361.806 150.619 361.806 149.752C361.806 149.313 361.806 148.874 361.806 148.423V147.142C361.806 147.142 362.067 146.703 361.937 146.904L366.505 144.377L366.636 144.306L366.754 144.377L371.204 147.106H371.311V147.213C371.311 148.85 371.216 150.168 371.169 151.069C371.172 151.531 371.132 151.992 371.05 152.446Z" fill="#008282"/>
<path d="M332.069 126.364C332.069 126.364 332.141 126.364 332.259 126.364L332.781 126.542L334.81 127.254L336.258 127.776L338.026 128.322C339.284 128.702 340.708 129.188 342.334 129.508L344.861 130.149C345.739 130.375 346.665 130.541 347.626 130.743C349.525 131.182 351.601 131.478 353.761 131.834C363.205 133.193 372.795 133.193 382.24 131.834C384.411 131.49 386.476 131.193 388.375 130.754C389.336 130.541 390.262 130.375 391.14 130.161L393.667 129.508C395.293 129.129 396.717 128.642 397.986 128.322C398.615 128.132 399.173 127.966 399.743 127.788L401.202 127.266L403.219 126.554L403.742 126.376L403.931 126.316C403.931 126.316 403.872 126.316 403.753 126.399L403.231 126.601L401.226 127.349L399.778 127.895C399.244 128.084 398.592 128.251 398.022 128.464C396.764 128.844 395.34 129.342 393.715 129.734L391.187 130.398C390.309 130.624 389.383 130.802 388.422 131.015C386.512 131.455 384.447 131.763 382.276 132.119C372.806 133.511 363.183 133.511 353.713 132.119C351.53 131.763 349.465 131.454 347.555 131.004C346.606 130.802 345.668 130.624 344.79 130.398L342.262 129.734C340.637 129.342 339.225 128.844 337.955 128.452L336.199 127.895L334.751 127.349L332.746 126.589L332.224 126.388L332.069 126.364Z" fill="#263238"/>
<g opacity="0.3">
<path d="M332.224 126.411C332.224 126.411 336.341 117.879 368.131 117.512C399.921 117.144 404.038 126.411 404.038 126.411C404.038 126.411 371.976 142.229 332.224 126.411Z" fill="black"/>
</g>
<path d="M343.152 170.625C343.128 170.596 343.108 170.564 343.093 170.53L342.939 170.257L342.357 169.165L341.954 168.382L341.503 167.421C341.183 166.733 340.827 165.95 340.471 165.048L339.901 163.66L339.343 162.141C338.928 161.096 338.584 159.945 338.157 158.747C337.409 156.374 336.685 153.656 336.045 150.808C335.404 147.96 334.941 145.231 334.561 142.727C334.182 140.224 333.932 137.981 333.79 136.07C333.695 135.121 333.636 134.267 333.588 133.507C333.541 132.748 333.505 132.095 333.481 131.561V130.375V129.936C333.481 129.936 333.481 129.936 333.481 130.054V130.363C333.481 130.671 333.481 131.075 333.576 131.549C333.671 132.024 333.648 132.736 333.719 133.484C333.79 134.231 333.849 135.097 333.944 136.047C334.122 137.945 334.419 140.188 334.775 142.692C335.131 145.196 335.653 147.901 336.27 150.749C336.887 153.597 337.635 156.255 338.358 158.664C338.762 159.85 339.094 161.037 339.545 162.058L340.091 163.588L340.649 164.977C340.981 165.867 341.337 166.65 341.645 167.35L342.073 168.323L342.464 169.118L342.998 170.222L343.129 170.506L343.152 170.625Z" fill="white"/>
<path d="M359.955 185.565C359.767 185.558 359.581 185.534 359.397 185.493C358.894 185.413 358.398 185.294 357.914 185.137C357.191 184.921 356.485 184.651 355.802 184.331C354.975 183.927 354.182 183.458 353.429 182.93C352.674 182.395 351.964 181.8 351.304 181.15C350.766 180.616 350.271 180.041 349.821 179.43C349.513 179.028 349.235 178.604 348.991 178.16C348.886 178.004 348.799 177.836 348.729 177.662C348.729 177.662 349.169 178.326 349.916 179.323C350.379 179.908 350.878 180.463 351.411 180.984C352.072 181.616 352.778 182.199 353.523 182.729C354.278 183.252 355.071 183.716 355.897 184.117C356.566 184.445 357.256 184.731 357.961 184.971C359.172 185.375 359.955 185.517 359.955 185.565Z" fill="white"/>
<path d="M367.217 163.648H366.885C366.671 163.648 366.339 163.648 365.924 163.648C364.748 163.628 363.581 163.44 362.459 163.09C360.779 162.581 359.212 161.755 357.843 160.657C356.135 159.338 354.788 157.608 353.928 155.629C353.067 153.65 352.719 151.486 352.918 149.337C352.997 148.402 353.164 147.476 353.417 146.572C353.65 145.795 353.943 145.037 354.295 144.306C354.811 143.241 355.474 142.254 356.265 141.375C356.474 141.138 356.696 140.912 356.929 140.698C357.095 140.544 357.178 140.473 357.19 140.485C357.202 140.497 356.87 140.817 356.336 141.446C355.579 142.332 354.948 143.318 354.461 144.377C354.117 145.103 353.835 145.858 353.618 146.631C353.379 147.521 353.224 148.43 353.156 149.349C352.966 151.46 353.308 153.585 354.152 155.53C354.995 157.474 356.313 159.176 357.985 160.479C358.706 161.053 359.476 161.562 360.287 161.998C361.004 162.36 361.745 162.669 362.506 162.924C363.618 163.279 364.77 163.49 365.936 163.553C366.754 163.648 367.217 163.624 367.217 163.648Z" fill="white"/>
<path d="M365.71 61.8232C365.71 61.8232 335.309 61.4554 330.562 87.8104C325.816 114.165 351.459 114.616 358.852 115.103C362.21 115.328 369.377 115.352 375.702 115.233C389.716 114.996 399.612 112.279 402.994 99.285C403.397 97.7586 403.651 96.1969 403.754 94.6216C404.572 80.3821 394.925 61.1231 365.71 61.8232Z" fill="#008282"/>
<path d="M387.758 101.919L343.603 102.608C342.498 102.625 341.4 102.423 340.374 102.014C339.347 101.606 338.411 100.998 337.62 100.226C336.829 99.4534 336.199 98.5325 335.765 97.5157C335.332 96.4989 335.104 95.4065 335.095 94.3012C335.06 92.0781 335.909 89.9321 337.455 88.3346C339.002 86.7371 341.119 85.8187 343.342 85.7812L387.52 85.1523C388.625 85.1367 389.723 85.3392 390.75 85.7485C391.777 86.1577 392.713 86.7656 393.504 87.5372C394.296 88.3089 394.927 89.2291 395.362 90.2453C395.797 91.2614 396.028 92.3534 396.04 93.4587C396.059 95.6777 395.198 97.8138 393.646 99.3994C392.094 100.985 389.976 101.891 387.758 101.919Z" fill="#263238"/>
<path d="M352.764 93.4468C352.662 93.9704 352.407 94.4519 352.031 94.8302C351.655 95.2085 351.175 95.4666 350.652 95.5718C350.129 95.677 349.586 95.6246 349.093 95.4212C348.6 95.2177 348.178 94.8725 347.882 94.4291C347.585 93.9858 347.427 93.4643 347.427 92.9309C347.427 92.3975 347.585 91.876 347.882 91.4327C348.179 90.9894 348.6 90.6442 349.093 90.4409C349.587 90.2375 350.129 90.1851 350.652 90.2904C351.35 90.4308 351.963 90.8416 352.359 91.433C352.755 92.0244 352.9 92.7484 352.764 93.4468Z" fill="white"/>
<path d="M383.616 92.9485C383.515 93.4717 383.26 93.9531 382.885 94.3316C382.509 94.7101 382.03 94.9688 381.508 95.0748C380.985 95.1808 380.443 95.1295 379.95 94.9273C379.457 94.7251 379.035 94.3811 378.737 93.9388C378.44 93.4966 378.28 92.976 378.278 92.443C378.277 91.9099 378.433 91.3884 378.728 90.9444C379.023 90.5004 379.443 90.1539 379.935 89.9488C380.427 89.7437 380.969 89.6891 381.492 89.792C382.192 89.9298 382.809 90.3394 383.207 90.9311C383.605 91.5229 383.752 92.2483 383.616 92.9485Z" fill="white"/>
<path d="M360.501 92.2009C360.703 92.2009 360.596 93.1621 361.189 94.4199C361.529 95.1365 362.014 95.7749 362.613 96.2948C363.323 96.914 364.204 97.3029 365.141 97.4102C366.083 97.4788 367.024 97.2551 367.834 96.7694C368.52 96.3664 369.114 95.8249 369.578 95.1793C370.385 94.052 370.457 93.1146 370.658 93.1265C370.86 93.1383 370.813 93.3638 370.813 93.8147C370.786 94.4483 370.62 95.0681 370.326 95.6303C369.886 96.4791 369.236 97.2019 368.439 97.7306C367.439 98.4086 366.239 98.7304 365.034 98.6443C363.831 98.5162 362.709 97.9802 361.854 97.1254C361.164 96.4743 360.653 95.6571 360.37 94.7522C360.177 94.1471 360.124 93.5058 360.216 92.8773C360.299 92.4026 360.418 92.189 360.501 92.2009Z" fill="white"/>
<path d="M361.866 63.793H361.759H361.438C361.154 63.793 360.738 63.793 360.252 63.888C358.742 64.038 357.243 64.2877 355.766 64.6355C353.577 65.154 351.446 65.8935 349.406 66.8427C346.903 68.0133 344.558 69.4965 342.429 71.2569C338.573 74.4796 335.501 78.5375 333.446 83.1232C332.822 84.5052 332.295 85.9286 331.868 87.3832C331.702 87.9053 331.618 88.3087 331.535 88.5698L331.44 88.8783V88.9851C331.44 88.9851 331.44 88.9851 331.44 88.8783L331.512 88.5579C331.571 88.285 331.642 87.8697 331.796 87.3713C332.17 85.9012 332.654 84.4614 333.244 83.0638C334.141 80.9728 335.258 78.9837 336.579 77.1307C341.171 70.7147 347.97 66.219 355.671 64.505C357.172 64.1707 358.695 63.9486 360.228 63.8405C360.762 63.8405 361.189 63.8405 361.415 63.8405H361.842L361.866 63.793Z" fill="white"/>
<path d="M332.129 100.258C331.933 99.9666 331.785 99.6462 331.689 99.3088C331.414 98.5376 331.207 97.7433 331.072 96.9355C330.947 96.1071 330.896 95.2692 330.918 94.4317C330.912 94.0838 330.951 93.7366 331.037 93.3994C331.12 93.3994 331.037 94.9894 331.322 96.9592C331.606 98.929 332.2 100.234 332.129 100.258Z" fill="white"/>
<path d="M380.46 83.6097C380.46 83.6809 374.645 83.7403 367.478 83.7403C360.311 83.7403 354.485 83.7403 354.485 83.6097C354.485 83.4792 360.299 83.4911 367.478 83.4911C374.657 83.4911 380.46 83.5504 380.46 83.6097Z" fill="white"/>
<path d="M358.294 113.228C358.294 113.228 358.223 113.228 358.08 113.228H357.451C357.166 113.228 356.834 113.228 356.443 113.228C356.051 113.228 355.6 113.228 355.102 113.228C353.944 113.218 352.787 113.147 351.637 113.014C350.228 112.851 348.83 112.609 347.448 112.29C346.069 111.977 344.709 111.581 343.378 111.104C342.29 110.71 341.225 110.259 340.186 109.751C339.735 109.538 339.343 109.324 338.999 109.134C338.655 108.944 338.358 108.79 338.121 108.648L337.575 108.315L337.397 108.185C337.397 108.185 337.468 108.185 337.599 108.268L338.169 108.553C338.406 108.683 338.702 108.849 339.058 109.015C339.414 109.182 339.806 109.395 340.245 109.585C341.135 110 342.215 110.451 343.437 110.89C344.769 111.354 346.123 111.751 347.495 112.077C348.87 112.394 350.26 112.64 351.66 112.813C352.942 112.967 354.117 113.05 355.102 113.074C355.588 113.074 356.039 113.074 356.431 113.074H358.282L358.294 113.228Z" fill="white"/>
<path d="M395.459 130.209H395.352L395.008 130.339L393.691 130.814C393.121 131.015 392.421 131.253 391.591 131.502C390.76 131.751 389.823 132.06 388.778 132.321L387.129 132.76L385.325 133.175C384.139 133.472 382.738 133.709 381.326 133.982C378.25 134.502 375.149 134.866 372.035 135.074C368.924 135.233 365.807 135.233 362.696 135.074C361.26 134.979 359.896 134.908 358.626 134.765L356.787 134.575L355.09 134.338C354.01 134.207 353.049 134.018 352.195 133.875C351.34 133.733 350.616 133.579 350.023 133.448L348.658 133.139L348.303 133.056H348.184C348.184 133.056 348.184 133.056 348.314 133.056L348.67 133.116L350.047 133.377C350.64 133.495 351.364 133.638 352.218 133.757C353.073 133.875 354.034 134.077 355.114 134.196L356.811 134.409C357.392 134.48 357.997 134.528 358.638 134.587C359.908 134.718 361.272 134.789 362.696 134.872C365.568 134.991 368.724 134.991 372.023 134.801C375.322 134.611 378.455 134.196 381.279 133.733C382.691 133.472 384.032 133.246 385.278 132.95C385.895 132.807 386.464 132.689 387.081 132.546L388.731 132.131C389.787 131.882 390.724 131.585 391.543 131.348C392.362 131.11 393.086 130.885 393.667 130.695L394.996 130.268L395.34 130.161L395.459 130.209Z" fill="white"/>
<path d="M106.729 334.463L106.812 350.921C106.812 350.921 134.104 335.495 126.106 320.721L106.729 334.463Z" fill="#008282"/>
<path d="M109.387 296.443C109.387 296.443 89.677 289.24 74.7729 302.59L90.1042 311.24L109.387 296.443Z" fill="#008282"/>
<path d="M90.1042 311.288C90.7213 312.095 106.717 334.463 106.717 334.463L148.51 304.797C150.231 303.578 151.681 302.015 152.768 300.208C153.855 298.401 154.556 296.388 154.825 294.296C155.095 292.204 154.928 290.079 154.336 288.055C153.743 286.031 152.737 284.152 151.382 282.536C148.845 279.538 145.252 277.632 141.347 277.215C137.442 276.797 133.527 277.899 130.414 280.293L90.1042 311.288Z" fill="#F5F5F5"/>
<path d="M90.1044 311.288C90.2065 311.183 90.3176 311.088 90.4367 311.003L91.4809 310.16L95.5629 306.968L110.704 295.173L121.206 287.033L127.068 282.5L130.141 280.127C131.211 279.308 132.379 278.626 133.618 278.098C134.247 277.822 134.893 277.588 135.552 277.398C136.224 277.221 136.905 277.086 137.593 276.994C138.994 276.793 140.417 276.793 141.818 276.994C144.727 277.386 147.465 278.601 149.709 280.495C150.856 281.463 151.859 282.59 152.687 283.841C153.521 285.117 154.172 286.503 154.621 287.959C155.496 290.972 155.455 294.177 154.503 297.167C153.588 300.023 151.86 302.551 149.531 304.441C147.157 306.221 144.867 307.775 142.589 309.425L129.394 318.752L106.848 334.652L106.658 334.783L106.527 334.605C101.437 327.414 97.3072 321.552 94.4237 317.518L91.1842 312.89L90.3536 311.703C90.2545 311.577 90.1671 311.442 90.0925 311.3C90.2076 311.431 90.3146 311.57 90.4129 311.715C90.6384 312 90.935 312.403 91.3148 312.902L94.6729 317.494L106.895 334.332H106.587L129.049 318.324C133.262 315.346 137.664 312.213 142.221 308.974C144.487 307.336 146.873 305.746 149.127 304.014C151.352 302.192 153.001 299.764 153.874 297.024C154.786 294.154 154.823 291.076 153.981 288.184C153.554 286.782 152.931 285.448 152.129 284.221C150.957 282.443 149.419 280.935 147.619 279.797C145.818 278.66 143.796 277.918 141.687 277.623C140.341 277.427 138.974 277.427 137.629 277.623C136.965 277.707 136.307 277.834 135.659 278.003C135.023 278.18 134.4 278.402 133.796 278.667C131.34 279.652 129.417 281.468 127.376 282.963L121.538 287.425L111.036 295.399L95.7527 307.016L91.5639 310.184L90.4485 311.003L90.1044 311.288Z" fill="#263238"/>
<path d="M110.135 310.006L84.0288 328.79C84.0288 328.79 85.2154 331.65 85.8681 331.365C86.5207 331.081 106.148 317.719 112.52 313.376C112.765 313.208 112.97 312.99 113.123 312.735C113.276 312.48 113.372 312.196 113.404 311.901C113.437 311.605 113.405 311.307 113.312 311.025C113.219 310.743 113.066 310.485 112.864 310.267C112.521 309.895 112.053 309.662 111.549 309.614C111.045 309.566 110.542 309.706 110.135 310.006Z" fill="#008282"/>
<path d="M137.225 298.211C137.337 299.935 136.934 301.654 136.069 303.149C135.204 304.645 133.914 305.85 132.364 306.612C130.813 307.375 129.071 307.66 127.358 307.432C125.646 307.205 124.039 306.474 122.742 305.333C121.444 304.191 120.515 302.691 120.07 301.021C119.626 299.352 119.687 297.588 120.245 295.953C120.803 294.317 121.834 292.885 123.207 291.836C124.58 290.787 126.233 290.168 127.958 290.059C130.267 289.913 132.541 290.689 134.278 292.218C136.016 293.746 137.076 295.902 137.225 298.211Z" fill="white"/>
<path d="M137.225 298.211C137.225 298.211 137.142 297.44 136.703 296.146C136.074 294.313 134.85 292.743 133.226 291.685C132.039 290.909 130.676 290.443 129.263 290.329C127.849 290.215 126.43 290.457 125.134 291.032C123.545 291.736 122.211 292.91 121.309 294.394C120.408 295.879 119.982 297.605 120.09 299.338C120.22 301.128 120.904 302.833 122.048 304.215C123.067 305.442 124.412 306.356 125.928 306.852C127.444 307.347 129.069 307.404 130.616 307.016C131.901 306.704 133.093 306.09 134.093 305.224C135.575 303.974 136.591 302.259 136.976 300.359C137.095 299.656 137.178 298.947 137.225 298.235C137.279 298.416 137.303 298.604 137.296 298.793C137.334 299.332 137.302 299.875 137.202 300.406C136.933 302.094 136.178 303.666 135.029 304.93C133.881 306.195 132.388 307.097 130.734 307.526C129.095 307.959 127.367 307.916 125.751 307.404C124.136 306.891 122.699 305.929 121.609 304.631C120.373 303.162 119.637 301.337 119.509 299.421C119.394 297.574 119.85 295.735 120.816 294.156C121.782 292.576 123.211 291.332 124.908 290.593C126.384 289.961 128.002 289.732 129.595 289.928C131.285 290.149 132.875 290.851 134.176 291.952C135.476 293.053 136.432 294.505 136.929 296.135C137.093 296.646 137.193 297.176 137.225 297.713C137.25 297.878 137.25 298.046 137.225 298.211Z" fill="#263238"/>
<path d="M150.468 303.195C164.506 290.071 162.002 274.87 162.002 274.87C143.123 269.91 130.378 280.293 130.378 280.293C142.945 282.061 149.673 289.667 150.468 303.195Z" fill="#008282"/>
<path d="M299.579 247.317L304.457 292.136L333.315 301.759L334.502 315.714L293.777 312.985C293.777 312.985 281.222 313.293 278.493 296.752L277.829 253.274L299.579 247.317Z" fill="#FFBE9D"/>
<path d="M359.469 315.477C359.212 315.781 358.87 316 358.487 316.106C358.103 316.212 357.697 316.199 357.321 316.07C357.156 316.019 357 315.943 356.858 315.844C355.837 315.204 356.538 312.961 356.538 312.961L351.459 310.694C351.459 310.694 343.354 313.329 340.115 315.631C336.875 317.933 331.227 313.886 331.227 313.886L332.046 302.02L344.173 295.755C344.173 295.755 343.437 296.123 344.553 294.639C345.668 293.156 348.575 294.639 348.575 294.639C349.264 293.951 351.352 294.189 351.352 294.189L359.658 297.44C360.501 297.774 361.258 298.293 361.874 298.959C362.49 299.624 362.949 300.419 363.218 301.285L365.33 307.989C365.33 307.989 366.161 312.641 365.603 313.519C365.362 313.886 364.993 314.151 364.568 314.263C364.143 314.374 363.692 314.325 363.301 314.124C363.301 314.124 362.115 316.723 361.415 316.639C360.689 316.407 360.013 316.04 359.421 315.56L359.469 315.477Z" fill="#FFBE9D"/>
<path d="M342.428 314.302C342.642 314.235 342.849 314.148 343.045 314.041L344.802 313.269C346.976 312.347 349.202 311.554 351.47 310.896H351.34L356.419 313.21L356.288 312.937C356.16 313.366 356.081 313.808 356.051 314.254C355.995 314.752 356.085 315.255 356.312 315.702C356.466 315.926 356.68 316.103 356.929 316.212C357.156 316.339 357.406 316.42 357.665 316.45C358.2 316.505 358.738 316.371 359.184 316.07C359.298 315.993 359.406 315.906 359.504 315.809L359.575 315.738H359.243L359.385 315.856L360.014 316.272C360.229 316.416 360.455 316.543 360.691 316.651C360.816 316.713 360.947 316.761 361.082 316.794C361.247 316.853 361.427 316.853 361.592 316.794C361.877 316.677 362.123 316.484 362.304 316.236C362.47 316.025 362.62 315.803 362.755 315.572C363.035 315.117 363.284 314.646 363.503 314.159L363.135 314.29C363.475 314.464 363.856 314.542 364.236 314.515C364.617 314.487 364.983 314.356 365.295 314.136C365.616 313.896 365.842 313.552 365.935 313.163C366.051 312.812 366.127 312.45 366.161 312.083C366.115 310.669 365.964 309.261 365.71 307.87C365.354 306.684 364.974 305.497 364.583 304.31C364.345 303.539 364.108 302.792 363.871 302.032C363.666 301.26 363.38 300.512 363.016 299.801C362.618 299.099 362.076 298.489 361.426 298.009C360.799 297.555 360.101 297.207 359.362 296.977L351.506 293.927H351.447C350.942 293.88 350.433 293.88 349.928 293.927C349.396 293.95 348.884 294.141 348.468 294.473H348.789C348.402 294.16 347.946 293.945 347.458 293.846C346.971 293.747 346.466 293.767 345.988 293.904C345.134 294.243 344.44 294.891 344.042 295.719L344.137 295.624L335.831 299.908L333.564 301.095C333.292 301.217 333.033 301.368 332.793 301.546C333.077 301.449 333.355 301.334 333.624 301.201L335.926 300.11L344.363 295.992H344.422V295.921C344.776 295.204 345.386 294.645 346.131 294.355C346.538 294.244 346.966 294.233 347.379 294.322C347.792 294.41 348.178 294.597 348.504 294.865L348.67 294.995L348.824 294.853C349.171 294.607 349.586 294.475 350.011 294.473C350.48 294.426 350.953 294.426 351.423 294.473H351.364L359.195 297.57C359.885 297.796 360.537 298.124 361.13 298.543C361.716 298.975 362.205 299.525 362.565 300.157C362.907 300.84 363.178 301.555 363.372 302.293C363.598 303.041 363.847 303.8 364.084 304.56C364.464 305.746 364.856 306.933 365.212 308.12C365.462 309.48 365.617 310.855 365.674 312.237C365.682 312.559 365.658 312.881 365.603 313.198C365.535 313.465 365.375 313.7 365.152 313.863C364.922 314.018 364.654 314.109 364.376 314.126C364.099 314.143 363.822 314.084 363.574 313.958L363.313 313.851L363.206 314.1C362.999 314.564 362.765 315.016 362.506 315.453C362.307 315.85 362.014 316.192 361.652 316.45C361.578 316.468 361.5 316.468 361.426 316.45C361.316 316.421 361.209 316.381 361.106 316.331C360.894 316.232 360.688 316.121 360.489 315.999C360.287 315.868 360.085 315.738 359.896 315.595L359.753 315.488C360.062 315.488 359.326 315.488 359.397 315.488L359.338 315.548C359.263 315.624 359.179 315.692 359.089 315.75C358.743 315.993 358.322 316.102 357.902 316.058C357.701 316.036 357.506 315.972 357.332 315.868C357.153 315.809 356.999 315.692 356.893 315.536C356.609 314.77 356.609 313.928 356.893 313.163V312.973L356.715 312.89L351.613 310.647H351.542H351.482C349.212 311.35 346.992 312.206 344.837 313.21C344.078 313.566 343.508 313.863 343.128 314.076C342.885 314.116 342.649 314.192 342.428 314.302Z" fill="#EB996E"/>
<path d="M349.228 297.962C349.994 298.601 350.849 299.125 351.767 299.516C353.975 300.6 356.312 301.397 358.721 301.89L358.484 301.629C358.484 302.08 358.555 302.566 358.614 303.064C358.962 305.84 359.84 308.523 361.201 310.967C361.607 311.705 362.067 312.411 362.578 313.08C362.945 313.554 363.171 313.792 363.195 313.768C363.218 313.744 362.506 312.652 361.557 310.778C360.343 308.331 359.541 305.701 359.184 302.993C359.124 302.507 359.089 302.032 359.053 301.593V301.403H358.828C356.459 300.928 354.147 300.2 351.934 299.232C350.249 298.437 349.275 297.843 349.228 297.962Z" fill="#EB996E"/>
<path d="M356.063 305.129C355.917 308.824 357.235 312.427 359.73 315.156C359.872 315.061 358.46 313.08 357.463 310.303C356.466 307.526 356.241 305.105 356.063 305.129Z" fill="#EB996E"/>
<path d="M330.444 309.983C330.444 309.983 330.515 310.077 330.681 310.22C330.918 310.424 331.172 310.606 331.44 310.766C332.438 311.41 333.55 311.857 334.715 312.083C336.505 312.428 338.355 312.264 340.055 311.608C342.211 310.757 344.011 309.196 345.158 307.182L344.79 307.301C347.458 308.585 350.353 309.331 353.31 309.496C354.103 309.578 354.905 309.53 355.683 309.354C356.121 309.256 356.506 308.998 356.763 308.63C356.88 308.443 356.958 308.233 356.991 308.015C357.023 307.796 357.01 307.573 356.953 307.36C356.839 306.935 356.562 306.572 356.182 306.351L355.256 305.841C352.812 304.524 350.509 303.468 348.635 302.602C346.76 301.735 345.075 301.142 344.03 300.739C343.469 300.498 342.885 300.315 342.286 300.193C342.821 300.485 343.377 300.738 343.947 300.952C345.027 301.415 346.57 302.139 348.468 302.97C350.367 303.8 352.586 304.975 354.995 306.316L355.909 306.826C356.032 306.897 356.14 306.993 356.226 307.107C356.312 307.222 356.373 307.352 356.407 307.491C356.445 307.632 356.453 307.779 356.433 307.924C356.413 308.069 356.363 308.208 356.288 308.333C356.105 308.58 355.832 308.746 355.529 308.796C354.812 308.95 354.075 308.99 353.346 308.915C350.467 308.739 347.648 308.018 345.039 306.791L344.802 306.672L344.671 306.909C343.612 308.819 341.94 310.315 339.925 311.157C338.31 311.816 336.544 312.017 334.822 311.739C333.689 311.553 332.594 311.18 331.583 310.635C330.823 310.22 330.467 309.947 330.444 309.983Z" fill="#EB996E"/>
<path d="M365.259 477.463C365.344 477.096 365.344 476.714 365.259 476.347C365.086 475.33 364.702 474.36 364.132 473.5C363.947 473.196 363.719 472.92 363.456 472.681C363.29 472.525 363.087 472.417 362.865 472.367C362.644 472.317 362.414 472.327 362.198 472.396C362.068 472.443 361.95 472.518 361.853 472.617C361.757 472.715 361.684 472.835 361.64 472.966C361.559 473.208 361.559 473.47 361.64 473.713C361.802 474.125 362.001 474.523 362.233 474.9C362.66 475.635 363.028 476.371 363.586 477.202C363.755 477.438 363.983 477.625 364.248 477.744C364.513 477.863 364.804 477.909 365.093 477.878C365.621 477.786 366.118 477.566 366.541 477.237C367.323 476.665 368.035 476.004 368.665 475.268C368.967 474.921 369.248 474.556 369.507 474.176C369.796 473.801 370.009 473.374 370.136 472.918C370.204 472.652 370.177 472.37 370.06 472.121C369.944 471.872 369.744 471.671 369.495 471.553C369.262 471.486 369.016 471.48 368.779 471.534C368.543 471.587 368.324 471.7 368.143 471.862C367.606 472.334 367.132 472.873 366.731 473.464C366.139 474.3 365.668 475.215 365.33 476.181C365.174 476.52 365.093 476.888 365.093 477.261C365.647 476.011 366.323 474.819 367.11 473.701C367.505 473.165 367.963 472.679 368.475 472.254C368.581 472.157 368.708 472.088 368.847 472.053C368.986 472.017 369.131 472.017 369.27 472.052C369.387 472.121 369.477 472.228 369.525 472.356C369.572 472.483 369.574 472.623 369.531 472.752C369.417 473.121 369.232 473.464 368.985 473.761C368.736 474.117 368.463 474.461 368.178 474.793C367.568 475.479 366.888 476.099 366.149 476.644C365.801 476.911 365.394 477.09 364.963 477.166C364.787 477.189 364.608 477.163 364.446 477.089C364.285 477.016 364.147 476.899 364.049 476.751C363.586 476.075 363.147 475.232 362.708 474.544C362.501 474.216 362.314 473.875 362.15 473.523C362.032 473.203 362.15 472.989 362.316 472.906C362.827 472.693 363.325 473.274 363.669 473.761C364.431 474.882 364.971 476.139 365.259 477.463Z" fill="#263238"/>
<path d="M336.294 478.46L321.912 509.632L298.701 498.905L313.57 460.328L336.294 478.46Z" fill="#FFBE9D"/>
<path d="M324.629 507.544L316.216 523.575C316.216 523.575 337.682 545.848 335.712 550.785L285.138 526.542L299.034 494.396L324.629 507.544Z" fill="#008282"/>
<path d="M301.632 513.881C301.076 513.797 300.508 513.922 300.037 514.23C299.567 514.539 299.226 515.01 299.081 515.554C298.97 516.107 299.077 516.681 299.38 517.156C299.683 517.632 300.159 517.972 300.707 518.105C301.299 518.206 301.908 518.079 302.41 517.748C302.912 517.418 303.27 516.909 303.412 516.325C303.463 515.736 303.284 515.15 302.912 514.69C302.54 514.23 302.005 513.931 301.419 513.857" fill="#E0E0E0"/>
<g opacity="0.6">
<path d="M285.138 526.542L287.25 522.507L334.941 547.272C334.941 547.272 336.733 549.325 335.712 550.832L285.138 526.542Z" fill="white"/>
</g>
<path d="M317.165 523.706C317.035 523.955 315.753 523.468 314.151 523.706C312.549 523.943 311.41 524.643 311.232 524.441C311.054 524.24 312.11 522.982 314.044 522.756C315.979 522.531 317.331 523.504 317.165 523.706Z" fill="#263238"/>
<path d="M321.413 528.452C321.354 528.713 320.084 528.618 318.743 529.259C317.403 529.9 316.631 530.897 316.37 530.766C316.109 530.636 316.643 529.164 318.328 528.393C320.013 527.622 321.52 528.203 321.413 528.452Z" fill="#263238"/>
<path d="M321.39 536.237C321.14 536.237 321.39 534.789 322.671 533.733C323.953 532.677 325.365 532.7 325.365 532.962C325.365 533.223 324.309 533.602 323.276 534.469C322.244 535.335 321.639 536.355 321.39 536.237Z" fill="#263238"/>
<path d="M319.574 517.535C319.36 517.713 318.387 516.823 316.952 516.254C315.516 515.684 314.211 515.601 314.187 515.328C314.163 515.055 315.623 514.676 317.319 515.328C319.016 515.981 319.788 517.369 319.574 517.535Z" fill="#263238"/>
<path d="M329.376 503.391L367.288 408.461C367.288 408.461 366.434 392.275 363.456 387.161C360.477 382.046 270.151 352.226 270.151 352.226C270.151 352.226 247.142 346.685 231.811 352.226C216.48 357.768 204.97 376.932 207.094 387.588C209.218 398.244 219.019 406.906 219.019 406.906L284.64 408.093L320.832 421.252L296.447 491.133L329.376 503.391Z" fill="#263238"/>
<path d="M363.088 438.542L363.942 472.871L338.382 473.488L334.704 432.312L363.088 438.542Z" fill="#FFBE9D"/>
<path d="M365.461 469.797L364.974 487.893C364.974 487.893 394.094 498.359 394.474 503.711L338.394 504.281L336.673 469.299L365.461 469.797Z" fill="#008282"/>
<path d="M347.626 485.639C347.088 485.809 346.631 486.172 346.344 486.658C346.058 487.145 345.96 487.72 346.071 488.273C346.222 488.817 346.576 489.282 347.059 489.574C347.542 489.865 348.119 489.96 348.67 489.839C349.245 489.665 349.733 489.279 350.035 488.76C350.336 488.24 350.43 487.625 350.296 487.039C350.083 486.489 349.664 486.043 349.128 485.795C348.593 485.547 347.982 485.516 347.424 485.71" fill="#E0E0E0"/>
<g opacity="0.6">
<path d="M338.418 504.316L338.525 499.771L392.255 500.958C392.255 500.958 394.771 502.014 394.498 503.782L338.418 504.316Z" fill="white"/>
</g>
<path d="M365.9 487.597C365.9 487.87 364.524 488.012 363.195 488.902C361.866 489.792 361.142 490.955 360.892 490.848C360.643 490.741 361.035 489.163 362.672 488.107C364.31 487.051 365.959 487.348 365.9 487.597Z" fill="#263238"/>
<path d="M371.809 489.97C371.881 490.231 370.694 490.717 369.78 491.88C368.867 493.043 368.594 494.254 368.333 494.254C368.072 494.254 367.87 492.699 369.033 491.263C370.196 489.827 371.798 489.709 371.809 489.97Z" fill="#263238"/>
<path d="M375.227 496.971C374.978 497.042 374.574 495.678 375.227 494.171C375.879 492.664 377.197 492.047 377.315 492.272C377.434 492.498 376.651 493.316 376.129 494.562C375.606 495.808 375.488 496.947 375.227 496.971Z" fill="#263238"/>
<path d="M365.342 480.999C365.236 481.248 363.966 480.88 362.423 480.999C360.881 481.118 359.67 481.616 359.528 481.391C359.386 481.165 360.537 480.204 362.364 480.05C364.191 479.895 365.473 480.774 365.342 480.999Z" fill="#263238"/>
<path d="M348.16 343.255C348.16 343.255 363.479 342.069 365.176 358.682C366.873 375.294 368.534 452.805 368.534 452.805L332.746 455.795L327.204 376.552L270.115 352.262C270.115 352.262 337.931 341.131 348.16 343.255Z" fill="#263238"/>
<path d="M285.043 320.84C285.043 320.84 294.335 346.946 292.566 349.806C290.798 352.665 266.888 364.65 266.888 364.65L207.082 387.623C207.082 387.623 200.947 377.858 200.947 362.847C200.947 347.836 221.749 320.84 221.749 320.84H285.043Z" fill="#263238"/>
<path d="M267.315 350.933C267.315 350.933 267.398 350.992 267.588 351.087L268.442 351.479L271.753 352.95L284.189 358.361L327.109 376.837L326.907 376.564C327.453 384.396 328.035 392.856 328.652 401.602C330.099 422.047 331.44 440.891 332.508 455.807V456.08H332.781L358.887 453.79L366.007 453.125L367.882 452.924C368.097 452.91 368.312 452.878 368.522 452.829H367.882L365.995 452.947L358.804 453.481L332.698 455.534L332.983 455.783C331.962 440.867 330.669 422.012 329.269 401.566C328.652 392.821 328.082 384.36 327.501 376.54V376.339L327.323 376.267L284.307 358.005L271.8 352.76L268.454 351.384L267.576 351.04L267.315 350.933Z" fill="#455A64"/>
<path d="M219.743 353.544C220.317 353.438 220.881 353.283 221.428 353.081L225.925 351.633C230.841 349.968 235.88 348.695 240.996 347.824C246.109 346.986 251.33 347.05 256.422 348.014C258.512 348.505 260.575 349.103 262.604 349.806C262.118 349.485 261.597 349.222 261.05 349.023C259.589 348.403 258.076 347.914 256.529 347.563C251.392 346.437 246.088 346.3 240.901 347.16C235.746 348.047 230.684 349.414 225.783 351.242C223.896 351.906 222.377 352.487 221.345 352.891C220.79 353.054 220.254 353.272 219.743 353.544Z" fill="#455A64"/>
<path d="M228.204 339.802C229.943 339.695 231.686 339.695 233.425 339.802C235.039 339.909 236.985 340.158 239.097 340.408C241.209 340.657 243.559 340.942 245.98 341.404C250.135 342.068 254.119 343.544 257.703 345.747C259.13 346.744 260.486 347.838 261.762 349.023C261.531 348.605 261.239 348.225 260.895 347.895C260.013 346.945 259.031 346.094 257.964 345.356C254.384 342.989 250.338 341.419 246.098 340.752C243.642 340.277 241.28 340.016 239.145 339.791C237.009 339.565 235.086 339.375 233.449 339.328C232.153 339.271 230.855 339.326 229.568 339.494C229.101 339.528 228.641 339.632 228.204 339.802Z" fill="#455A64"/>
<path d="M254.618 130.398C247.736 129.212 241.684 131.87 235.881 135.75C230.092 139.745 225.662 145.413 223.184 151.995C220.429 158.878 219.987 166.471 221.927 173.627C222.922 177.175 224.625 180.484 226.934 183.355C229.242 186.227 232.108 188.601 235.359 190.335C244.306 194.88 255.757 193.301 263.767 187.25C271.777 181.198 276.357 171.183 276.737 161.144C277.101 154.183 275.266 147.283 271.492 141.422C269.586 138.525 267.105 136.051 264.202 134.155C261.299 132.258 258.037 130.979 254.618 130.398Z" fill="#263238"/>
<path d="M235.051 153.799C236.059 151.164 235.668 148.222 236.059 145.433C236.937 139.286 241.886 134.362 247.617 131.965C252.945 129.734 259.483 130.22 265.867 132.297C270.32 133.651 274.296 136.244 277.33 139.773C279.264 142.167 280.596 144.989 281.215 148.003C281.834 151.017 281.723 154.135 280.89 157.098L249.456 152.529C246.514 154.962 243.523 157.43 239.963 158.794C238.935 159.248 237.807 159.428 236.688 159.317C236.13 159.251 235.602 159.026 235.168 158.669C234.735 158.311 234.414 157.835 234.244 157.299C233.9 156.113 234.612 154.938 235.051 153.799Z" fill="#263238"/>
<path d="M266.484 140.971L239.038 146.786C237.764 146.883 236.573 147.451 235.695 148.379C234.818 149.307 234.317 150.528 234.291 151.805L234.624 211.208C234.649 215.261 236.008 219.194 238.492 222.398L241.114 225.779C247.047 233.481 259.163 232.698 263.72 224.094C263.998 223.606 264.213 223.083 264.36 222.54C264.443 222.006 264.586 221.65 264.61 221.199L265.144 215.408C265.405 210.116 265.44 204.729 265.44 204.8C265.44 204.871 276.678 203.376 279.549 188.899C280.985 181.708 281.08 169.818 280.843 160.088C280.653 151.331 275.277 140.39 266.484 140.971Z" fill="#FFBE9D"/>
<path d="M276.239 172.227C276.223 172.714 276.019 173.176 275.669 173.515C275.319 173.853 274.851 174.043 274.364 174.043C274.125 174.052 273.888 174.014 273.664 173.93C273.441 173.847 273.237 173.72 273.063 173.556C272.89 173.392 272.75 173.196 272.654 172.978C272.557 172.76 272.505 172.525 272.501 172.286C272.513 171.798 272.717 171.335 273.067 170.995C273.418 170.656 273.888 170.468 274.376 170.471C274.614 170.46 274.853 170.497 275.077 170.58C275.301 170.663 275.506 170.79 275.68 170.954C275.854 171.118 275.993 171.315 276.089 171.533C276.185 171.752 276.236 171.988 276.239 172.227Z" fill="#263238"/>
<path d="M278.042 166.128C277.805 166.365 276.428 165.262 274.423 165.19C272.417 165.119 270.863 166.068 270.685 165.819C270.507 165.57 270.839 165.273 271.504 164.822C272.396 164.258 273.439 163.98 274.494 164.027C275.54 164.063 276.546 164.433 277.366 165.083C277.971 165.617 278.161 166.128 278.042 166.128Z" fill="#263238"/>
<path d="M257.668 171.266C257.653 171.753 257.448 172.214 257.098 172.553C256.748 172.892 256.28 173.082 255.793 173.081C255.556 173.089 255.319 173.05 255.097 172.966C254.875 172.881 254.672 172.754 254.5 172.59C254.328 172.427 254.19 172.231 254.094 172.014C253.998 171.797 253.946 171.563 253.942 171.325C253.954 170.837 254.158 170.374 254.508 170.034C254.859 169.695 255.329 169.506 255.817 169.51C256.054 169.5 256.292 169.538 256.514 169.622C256.737 169.706 256.941 169.833 257.113 169.997C257.286 170.161 257.424 170.357 257.519 170.575C257.614 170.793 257.665 171.028 257.668 171.266Z" fill="#263238"/>
<path d="M258.961 165.677C258.724 165.914 257.347 164.811 255.33 164.739C253.313 164.668 251.77 165.618 251.604 165.356C251.438 165.095 251.758 164.811 252.411 164.372C253.306 163.803 254.354 163.526 255.413 163.577C256.459 163.612 257.465 163.982 258.285 164.633C258.89 165.131 259.08 165.57 258.961 165.677Z" fill="#263238"/>
<path d="M264.989 180.961C266.062 180.674 267.166 180.519 268.276 180.498C268.786 180.498 269.285 180.379 269.38 180.035C269.447 179.508 269.347 178.972 269.095 178.504C268.668 177.246 268.205 175.917 267.73 174.541C265.844 168.893 264.491 164.253 264.716 164.182C264.942 164.11 266.662 168.62 268.561 174.268C269.012 175.656 269.451 176.985 269.854 178.255C270.159 178.887 270.227 179.607 270.044 180.284C269.965 180.462 269.845 180.619 269.695 180.742C269.544 180.866 269.368 180.953 269.178 180.996C268.89 181.064 268.595 181.096 268.3 181.091C267.195 181.188 266.083 181.145 264.989 180.961Z" fill="#263238"/>
<path d="M265.452 204.8C258.595 204.646 251.916 202.592 246.157 198.867C246.157 198.867 250.667 209.143 265.298 208.36L265.452 204.8Z" fill="#EB996E"/>
<path d="M263.957 185.778C263.597 185.276 263.112 184.876 262.55 184.618C261.988 184.36 261.369 184.253 260.753 184.307C260.297 184.33 259.851 184.448 259.442 184.652C259.034 184.856 258.672 185.143 258.38 185.493C258.101 185.816 257.927 186.217 257.883 186.641C257.838 187.065 257.925 187.493 258.131 187.867C258.435 188.246 258.849 188.521 259.316 188.657C259.783 188.793 260.281 188.782 260.741 188.626C261.701 188.331 262.593 187.847 263.364 187.202C263.597 187.049 263.799 186.852 263.957 186.621C264.032 186.511 264.072 186.38 264.072 186.247C264.072 186.114 264.032 185.983 263.957 185.873" fill="#EB996E"/>
<path d="M259.021 182.123C259.353 182.123 259.27 184.295 261.073 185.921C262.877 187.546 265.215 187.392 265.215 187.701C265.215 187.831 264.681 188.104 263.708 188.092C262.428 188.06 261.201 187.576 260.243 186.728C259.321 185.914 258.751 184.773 258.653 183.547C258.605 182.634 258.878 182.1 259.021 182.123Z" fill="#263238"/>
<path d="M258.843 159.72C258.629 160.254 256.635 159.922 254.262 160.112C251.889 160.301 249.967 160.871 249.67 160.373C249.539 160.123 249.895 159.625 250.679 159.127C251.729 158.519 252.905 158.158 254.116 158.071C255.327 157.985 256.541 158.175 257.668 158.628C258.522 159.008 258.949 159.459 258.843 159.72Z" fill="#263238"/>
<path d="M277.805 157.359C277.425 157.798 276.061 157.276 274.399 157.192C272.738 157.109 271.314 157.37 271.005 156.884C270.875 156.647 271.112 156.196 271.753 155.792C272.593 155.292 273.568 155.068 274.542 155.151C275.519 155.207 276.456 155.563 277.223 156.172C277.793 156.635 277.971 157.145 277.805 157.359Z" fill="#263238"/>
<path d="M230.019 149.515C232.867 141.209 245.291 129.769 254.084 130.529L267.968 139.239C267.465 141.63 266.325 143.841 264.669 145.638C263.012 147.434 260.901 148.749 258.558 149.444C256.054 150.144 253.064 150.298 251.533 152.41C250.002 154.523 250.809 157.75 249.35 159.981C247.344 163.054 242.028 162.805 240.497 166.151C239.833 167.611 240.129 169.379 239.429 170.839C238.504 172.761 233.496 175.134 231.503 174.399C229.509 173.663 229.533 170.245 228.904 168.465C228.101 166.394 228.042 164.108 228.738 161.998C229.699 157.952 228.655 153.538 230.019 149.515Z" fill="#263238"/>
<path d="M237.483 176.356C237.483 175.277 236.368 172.678 235.312 172.464C232.464 171.907 227.302 171.942 227.005 179.193C226.555 189.125 236.617 187.499 236.641 187.25C236.665 187.001 237.353 180.106 237.483 176.356Z" fill="#FFBE9D"/>
<path d="M233.745 183.346C233.745 183.346 233.567 183.464 233.271 183.583C232.856 183.749 232.393 183.749 231.977 183.583C230.945 183.156 230.138 181.447 230.174 179.655C230.183 178.802 230.386 177.962 230.767 177.199C230.875 176.893 231.055 176.617 231.293 176.396C231.531 176.175 231.818 176.015 232.132 175.929C232.333 175.888 232.541 175.918 232.723 176.013C232.905 176.108 233.048 176.263 233.128 176.451C233.247 176.736 233.128 176.938 233.223 176.95C233.318 176.962 233.449 176.795 233.39 176.38C233.338 176.133 233.209 175.908 233.022 175.739C232.76 175.521 232.424 175.414 232.084 175.443C231.673 175.506 231.286 175.674 230.958 175.929C230.629 176.185 230.372 176.52 230.209 176.902C229.743 177.742 229.49 178.683 229.474 179.643C229.474 181.649 230.387 183.559 231.847 184.046C232.11 184.134 232.388 184.162 232.663 184.129C232.938 184.096 233.202 184.003 233.437 183.856C233.722 183.583 233.781 183.369 233.745 183.346Z" fill="#EB996E"/>
<path d="M227.895 146.976C227.895 143.879 224.051 141.849 221.025 141.137C217.934 140.607 214.755 141.214 212.078 142.846C210.476 143.724 208.874 144.958 208.518 146.75C208.162 148.542 209.882 150.654 211.579 150.013C210.724 150.267 209.936 150.711 209.276 151.311C208.616 151.911 208.099 152.653 207.765 153.481C207.431 154.308 207.288 155.2 207.347 156.091C207.405 156.982 207.664 157.847 208.104 158.624C208.543 159.401 209.152 160.068 209.886 160.577C210.619 161.085 211.458 161.422 212.339 161.562C213.221 161.701 214.122 161.64 214.977 161.383C215.831 161.126 216.617 160.679 217.275 160.076C216.41 162.946 214.588 165.433 212.113 167.125C214.685 167.492 217.307 167.175 219.717 166.206C222.127 165.236 224.238 163.648 225.839 161.603C227.439 159.557 228.472 157.126 228.833 154.553C229.194 151.981 228.871 149.359 227.895 146.952V146.976Z" fill="#263238"/>
<path d="M221.001 162.77C220.712 161.805 220.588 160.798 220.633 159.791C220.586 154.885 222.196 150.106 225.202 146.228C225.775 145.402 226.481 144.676 227.29 144.08C227.48 144.211 224.146 147.51 222.401 152.838C220.657 158.165 221.227 162.77 221.001 162.77Z" fill="#008282"/>
<path d="M265.084 136.308C265.998 140.354 272.145 145.54 274.838 148.684C279.988 154.689 280.997 156.682 280.949 170.044C283.323 165.404 285.233 160.859 285.043 155.638C284.933 150.349 282.89 145.284 279.3 141.398C277.492 139.49 275.263 138.031 272.79 137.137C270.318 136.242 267.671 135.938 265.061 136.248" fill="#263238"/>
<path d="M307.186 246.747C307.186 246.747 296.506 228.948 293.516 225.305C291.128 222.518 288.132 220.318 284.758 218.873C283.422 218.315 282.024 217.917 280.593 217.687L265.167 214.281C265.167 214.281 265.167 224.771 254.143 225.423C243.12 226.076 233.876 210.745 233.876 210.745C233.876 210.745 216.076 213.498 211.84 215.681C207.604 217.865 200.911 220.653 197.233 239.07L194.646 257.083L225.332 259.871L228.263 305.414L243.464 315.999C243.464 315.999 285.601 326.951 288.295 327.675C290.988 328.399 291.854 259.871 291.854 259.871C291.854 259.871 302.7 252.882 307.186 246.747Z" fill="#008282"/>
<path d="M287.013 239.093C287.259 239.505 287.458 239.943 287.606 240.399C287.951 241.265 288.402 242.523 288.9 244.113C291.472 252.388 292.533 261.058 292.033 269.708C291.926 271.358 291.807 272.699 291.665 273.612C291.633 274.091 291.549 274.564 291.416 275.024C291.359 274.548 291.359 274.066 291.416 273.589C291.475 272.663 291.546 271.334 291.582 269.685C291.697 265.392 291.499 261.097 290.988 256.833C290.454 252.578 289.613 248.366 288.473 244.231C288.034 242.641 287.642 241.36 287.369 240.482C287.203 240.032 287.084 239.567 287.013 239.093Z" fill="#263238"/>
<path d="M285.708 313.685L228.002 301.13L225.332 259.871L199.677 257.498C199.677 257.498 200.627 285.692 201.612 294.082C203.024 306.138 210.155 322.561 214.32 325.871C218.486 329.182 288.295 327.675 288.295 327.675L285.708 313.685Z" fill="#FFBE9D"/>
<path d="M318.459 321.16C318.266 321.56 317.959 321.893 317.577 322.117C317.194 322.341 316.753 322.446 316.311 322.418C316.121 322.4 315.934 322.361 315.753 322.3C314.472 321.896 314.567 319.297 314.567 319.297L308.456 318.301C308.456 318.301 300.505 323.427 297.669 326.821C294.833 330.214 287.63 327.473 287.63 327.473L285.126 314.42L296.388 304.239C296.388 304.239 295.687 304.856 296.471 302.946C297.254 301.035 300.778 301.759 300.778 301.759C301.336 300.822 303.638 300.478 303.638 300.478L313.511 301.664C314.515 301.78 315.481 302.119 316.338 302.657C317.194 303.195 317.919 303.918 318.459 304.773L322.636 311.383C322.636 311.383 324.843 316.129 324.487 317.256C324.329 317.717 324.007 318.104 323.583 318.342C323.158 318.581 322.66 318.655 322.185 318.55C322.185 318.55 321.698 321.683 320.88 321.789C320.035 321.746 319.206 321.544 318.435 321.196L318.459 321.16Z" fill="#FFBE9D"/>
<path d="M297.443 311.798C297.443 311.905 298.772 311.798 300.873 311.881C303.616 312.002 306.328 312.51 308.93 313.388C310.362 313.868 311.755 314.459 313.095 315.156C314.282 315.833 315.528 316.343 315.907 317.256C315.996 317.446 316.032 317.656 316.014 317.864C315.995 318.073 315.921 318.272 315.8 318.443C315.622 318.725 315.361 318.945 315.053 319.072C314.773 319.163 314.481 319.207 314.187 319.203C314.187 319.203 314.495 319.475 315.136 319.297C315.515 319.189 315.848 318.96 316.085 318.645C316.255 318.43 316.366 318.175 316.408 317.905C316.45 317.635 316.42 317.358 316.323 317.102C316.076 316.53 315.663 316.046 315.136 315.714C314.602 315.358 314.044 315.002 313.415 314.658C312.06 313.914 310.643 313.291 309.179 312.795C306.522 311.899 303.736 311.442 300.932 311.442C299.758 311.387 298.582 311.507 297.443 311.798Z" fill="#EB996E"/>
<path d="M296.755 318.099C296.755 318.289 300.79 318.099 305.726 318.408C310.663 318.716 314.638 319.297 314.662 319.119C313.84 318.795 312.977 318.583 312.098 318.491C310.001 318.134 307.886 317.896 305.762 317.779C303.636 317.659 301.504 317.659 299.378 317.779C298.493 317.764 297.611 317.872 296.755 318.099Z" fill="#EB996E"/>
<path d="M318.399 320.911C318.489 320.571 318.533 320.219 318.53 319.867C318.59 318.903 318.59 317.936 318.53 316.972C318.496 316.297 318.405 315.626 318.257 314.966C318.08 314.192 317.749 313.462 317.284 312.818C316.317 311.325 315.062 310.038 313.593 309.033C312.131 308.022 310.533 307.223 308.847 306.66C307.457 306.263 306.021 306.048 304.575 306.019C303.388 306.019 302.368 306.019 301.692 306.019C301.336 305.996 300.979 306.032 300.635 306.126C301.934 306.304 303.241 306.411 304.551 306.446C305.948 306.541 307.33 306.796 308.669 307.206C310.279 307.792 311.803 308.59 313.202 309.579C314.6 310.534 315.807 311.741 316.762 313.139C317.531 314.284 317.974 315.617 318.043 316.995C318.328 319.404 318.269 320.923 318.399 320.911Z" fill="#EB996E"/>
<path d="M304.136 303.005C304.136 303.1 305.619 303.136 307.981 303.409C310.342 303.681 313.914 303.919 315.955 307.052C317.966 309.392 319.643 312 320.939 314.8C321.361 316 321.675 317.235 321.876 318.491C321.959 318.149 321.979 317.795 321.935 317.446C321.875 316.49 321.68 315.547 321.354 314.646C320.159 311.736 318.5 309.039 316.441 306.66C315.891 305.935 315.248 305.285 314.531 304.726C313.819 304.209 313.013 303.839 312.158 303.634C310.787 303.272 309.384 303.049 307.969 302.97C306.695 302.813 305.406 302.825 304.136 303.005Z" fill="#EB996E"/>
<path d="M299.852 324.72C300.068 324.595 300.267 324.443 300.446 324.269C300.873 323.937 301.419 323.486 302.095 322.94C304.172 321.33 306.339 319.841 308.586 318.479H308.443L314.555 319.523L314.341 319.262C314.328 319.763 314.368 320.264 314.46 320.757C314.541 321.304 314.781 321.815 315.148 322.228C315.38 322.427 315.664 322.554 315.967 322.596C316.248 322.656 316.539 322.656 316.821 322.596C317.412 322.508 317.952 322.209 318.34 321.754C318.444 321.646 318.535 321.526 318.613 321.398L318.672 321.303V321.244L318.316 321.374L318.506 321.445L319.289 321.73C319.562 321.813 319.835 321.884 320.132 321.944C320.282 321.956 320.433 321.956 320.583 321.944C320.779 321.959 320.975 321.923 321.152 321.837C321.422 321.624 321.628 321.341 321.746 321.018C321.869 320.749 321.972 320.472 322.054 320.187C322.221 319.619 322.352 319.04 322.446 318.455L322.09 318.704C322.505 318.789 322.935 318.761 323.336 318.623C323.736 318.485 324.093 318.243 324.368 317.921C324.642 317.587 324.79 317.167 324.783 316.734C324.763 316.331 324.691 315.933 324.57 315.548C324.115 314.042 323.552 312.57 322.885 311.145C322.185 310.018 321.425 308.831 320.666 307.585L319.254 305.355C318.817 304.576 318.295 303.848 317.699 303.183C317.071 302.547 316.32 302.046 315.492 301.712C314.68 301.415 313.828 301.239 312.965 301.19L303.661 300.145H303.59C303.033 300.239 302.485 300.382 301.953 300.572C301.387 300.745 300.892 301.094 300.541 301.569L300.885 301.462C300.38 301.232 299.827 301.127 299.273 301.158C298.719 301.189 298.18 301.355 297.704 301.64C296.882 302.245 296.322 303.14 296.138 304.144L296.221 304.014L288.461 310.991C287.583 311.786 286.894 312.427 286.372 312.913C286.116 313.123 285.881 313.357 285.672 313.614C285.953 313.438 286.215 313.236 286.455 313.008L288.627 311.181L296.53 304.358V304.275C296.702 303.405 297.193 302.63 297.906 302.103C298.312 301.872 298.767 301.742 299.234 301.723C299.701 301.705 300.165 301.798 300.588 301.996L300.802 302.08L300.932 301.89C301.242 301.522 301.655 301.257 302.119 301.13C302.613 300.959 303.121 300.832 303.638 300.751H303.566L312.858 301.842C313.669 301.889 314.469 302.057 315.231 302.341C315.985 302.639 316.668 303.092 317.236 303.67C317.795 304.304 318.284 304.996 318.696 305.734L320.108 307.965L322.339 311.525C322.988 312.918 323.543 314.353 324 315.821C324.104 316.161 324.172 316.511 324.202 316.865C324.216 317.174 324.11 317.476 323.905 317.707C323.703 317.944 323.441 318.121 323.146 318.219C322.851 318.317 322.535 318.333 322.232 318.265H321.924V318.562C321.832 319.122 321.709 319.677 321.556 320.223C321.458 320.71 321.237 321.163 320.915 321.54C320.836 321.553 320.756 321.553 320.678 321.54C320.551 321.552 320.424 321.552 320.298 321.54C320.037 321.492 319.78 321.429 319.527 321.35C319.277 321.279 319.028 321.184 318.779 321.089L318.601 321.018L318.245 321.149V321.22C318.189 321.326 318.121 321.425 318.043 321.516C317.737 321.869 317.318 322.104 316.857 322.181C316.633 322.222 316.404 322.222 316.18 322.181C315.974 322.161 315.78 322.078 315.623 321.944C315.103 321.2 314.868 320.295 314.958 319.392V319.167H314.756L308.633 318.206H308.55H308.491C306.245 319.605 304.1 321.159 302.071 322.857C301.371 323.451 300.885 323.937 300.481 324.269C300.257 324.398 300.046 324.549 299.852 324.72Z" fill="#EB996E"/>
<path d="M381.658 283.248L305.655 283.865C303.187 283.865 300.837 285.051 300.469 287.425L292.163 342.828H253.004C252.4 342.828 251.821 343.068 251.393 343.496C250.966 343.923 250.726 344.502 250.726 345.107C250.726 345.711 250.966 346.29 251.393 346.718C251.821 347.145 252.4 347.385 253.004 347.385H378.027L386.571 288.92C386.669 288.216 386.616 287.499 386.414 286.818C386.213 286.136 385.868 285.506 385.402 284.969C384.937 284.432 384.362 284 383.717 283.703C383.071 283.406 382.369 283.251 381.658 283.248Z" fill="#E0E0E0"/>
<path d="M381.658 283.248C382.057 283.221 382.457 283.257 382.845 283.355C384.014 283.631 385.046 284.317 385.752 285.289C386.27 285.983 386.593 286.802 386.69 287.662C386.717 288.713 386.626 289.764 386.417 290.795L385.313 298.508C383.64 310.113 381.231 326.856 378.265 347.432V347.634H378.027L256.718 347.705H253.431C252.835 347.766 252.234 347.655 251.699 347.385C251.148 347.087 250.726 346.597 250.512 346.008C250.3 345.427 250.303 344.789 250.521 344.21C250.738 343.631 251.156 343.149 251.699 342.852C252.226 342.583 252.819 342.472 253.408 342.532H292.104L291.807 342.781L300.113 287.828C300.19 286.719 300.692 285.682 301.514 284.933C302.345 284.243 303.351 283.8 304.421 283.651C305.438 283.557 306.461 283.522 307.482 283.544H310.473L321.912 283.473L342.25 283.343L371.204 283.2H378.953H380.946H381.623C381.623 283.2 381.397 283.2 380.946 283.2H378.953L371.204 283.319L342.25 283.639L321.912 283.841L310.473 283.948H307.494C306.496 283.929 305.498 283.965 304.504 284.055C303.523 284.19 302.601 284.601 301.846 285.241C301.126 285.919 300.7 286.852 300.659 287.84C298.179 304.453 295.426 322.952 292.46 342.793V343.054H253.431C252.948 342.993 252.457 343.076 252.019 343.291C251.617 343.52 251.306 343.882 251.142 344.316C250.977 344.749 250.969 345.226 251.118 345.664C251.284 346.105 251.599 346.474 252.008 346.709C252.45 346.934 252.949 347.025 253.443 346.97H256.707L378.015 347.041L377.778 347.243L385.028 298.33C385.467 295.446 385.847 292.871 386.215 290.629C386.426 289.618 386.529 288.588 386.523 287.555C386.445 286.701 386.142 285.882 385.645 285.182C384.965 284.226 383.969 283.541 382.833 283.248C382.442 283.216 382.049 283.216 381.658 283.248Z" fill="#263238"/>
<path d="M335.677 314.646C335.677 315.585 335.955 316.502 336.477 317.283C336.998 318.064 337.74 318.672 338.607 319.031C339.474 319.39 340.429 319.484 341.349 319.301C342.27 319.118 343.116 318.666 343.78 318.002C344.443 317.338 344.895 316.493 345.079 315.572C345.262 314.651 345.168 313.697 344.808 312.83C344.449 311.962 343.841 311.221 343.06 310.699C342.28 310.178 341.362 309.899 340.423 309.899C339.164 309.899 337.957 310.399 337.067 311.29C336.177 312.18 335.677 313.387 335.677 314.646Z" fill="white"/>
<path d="M295.236 346.934C295.343 346.934 297.764 332.849 300.635 315.429C303.507 298.009 305.762 283.877 305.655 283.865C305.548 283.853 303.127 297.95 300.256 315.37C297.384 332.789 295.13 346.922 295.236 346.934Z" fill="#263238"/>
</svg>
